G04 #@! TF.GenerationSoftware,KiCad,Pcbnew,(5.1.2)-2*
G04 #@! TF.CreationDate,2019-12-17T18:16:02+09:00*
G04 #@! TF.ProjectId,simplecodec3,73696d70-6c65-4636-9f64-6563332e6b69,rev?*
G04 #@! TF.SameCoordinates,Original*
G04 #@! TF.FileFunction,Soldermask,Top*
G04 #@! TF.FilePolarity,Negative*
%FSLAX46Y46*%
G04 Gerber Fmt 4.6, Leading zero omitted, Abs format (unit mm)*
G04 Created by KiCad (PCBNEW (5.1.2)-2) date 2019-12-17 18:16:02*
%MOMM*%
%LPD*%
G04 APERTURE LIST*
%ADD10C,0.100000*%
G04 APERTURE END LIST*
D10*
G36*
X52336000Y-77736000D02*
G01*
X50534000Y-77736000D01*
X50534000Y-75934000D01*
X52336000Y-75934000D01*
X52336000Y-77736000D01*
X52336000Y-77736000D01*
G37*
G36*
X49005442Y-75940518D02*
G01*
X49071627Y-75947037D01*
X49241466Y-75998557D01*
X49397991Y-76082222D01*
X49433729Y-76111552D01*
X49535186Y-76194814D01*
X49618448Y-76296271D01*
X49647778Y-76332009D01*
X49731443Y-76488534D01*
X49782963Y-76658373D01*
X49800359Y-76835000D01*
X49782963Y-77011627D01*
X49731443Y-77181466D01*
X49647778Y-77337991D01*
X49618448Y-77373729D01*
X49535186Y-77475186D01*
X49433729Y-77558448D01*
X49397991Y-77587778D01*
X49241466Y-77671443D01*
X49071627Y-77722963D01*
X49005443Y-77729481D01*
X48939260Y-77736000D01*
X48850740Y-77736000D01*
X48784557Y-77729481D01*
X48718373Y-77722963D01*
X48548534Y-77671443D01*
X48392009Y-77587778D01*
X48356271Y-77558448D01*
X48254814Y-77475186D01*
X48171552Y-77373729D01*
X48142222Y-77337991D01*
X48058557Y-77181466D01*
X48007037Y-77011627D01*
X47989641Y-76835000D01*
X48007037Y-76658373D01*
X48058557Y-76488534D01*
X48142222Y-76332009D01*
X48171552Y-76296271D01*
X48254814Y-76194814D01*
X48356271Y-76111552D01*
X48392009Y-76082222D01*
X48548534Y-75998557D01*
X48718373Y-75947037D01*
X48784558Y-75940518D01*
X48850740Y-75934000D01*
X48939260Y-75934000D01*
X49005442Y-75940518D01*
X49005442Y-75940518D01*
G37*
G36*
X68218499Y-74154445D02*
G01*
X68255995Y-74165820D01*
X68290554Y-74184292D01*
X68320847Y-74209153D01*
X68345708Y-74239446D01*
X68364180Y-74274005D01*
X68375555Y-74311501D01*
X68380000Y-74356638D01*
X68380000Y-74995362D01*
X68375555Y-75040499D01*
X68364180Y-75077995D01*
X68345708Y-75112554D01*
X68320847Y-75142847D01*
X68290554Y-75167708D01*
X68255995Y-75186180D01*
X68218499Y-75197555D01*
X68173362Y-75202000D01*
X67434638Y-75202000D01*
X67389501Y-75197555D01*
X67352005Y-75186180D01*
X67317446Y-75167708D01*
X67287153Y-75142847D01*
X67262292Y-75112554D01*
X67243820Y-75077995D01*
X67232445Y-75040499D01*
X67228000Y-74995362D01*
X67228000Y-74356638D01*
X67232445Y-74311501D01*
X67243820Y-74274005D01*
X67262292Y-74239446D01*
X67287153Y-74209153D01*
X67317446Y-74184292D01*
X67352005Y-74165820D01*
X67389501Y-74154445D01*
X67434638Y-74150000D01*
X68173362Y-74150000D01*
X68218499Y-74154445D01*
X68218499Y-74154445D01*
G37*
G36*
X66468499Y-74154445D02*
G01*
X66505995Y-74165820D01*
X66540554Y-74184292D01*
X66570847Y-74209153D01*
X66595708Y-74239446D01*
X66614180Y-74274005D01*
X66625555Y-74311501D01*
X66630000Y-74356638D01*
X66630000Y-74995362D01*
X66625555Y-75040499D01*
X66614180Y-75077995D01*
X66595708Y-75112554D01*
X66570847Y-75142847D01*
X66540554Y-75167708D01*
X66505995Y-75186180D01*
X66468499Y-75197555D01*
X66423362Y-75202000D01*
X65684638Y-75202000D01*
X65639501Y-75197555D01*
X65602005Y-75186180D01*
X65567446Y-75167708D01*
X65537153Y-75142847D01*
X65512292Y-75112554D01*
X65493820Y-75077995D01*
X65482445Y-75040499D01*
X65478000Y-74995362D01*
X65478000Y-74356638D01*
X65482445Y-74311501D01*
X65493820Y-74274005D01*
X65512292Y-74239446D01*
X65537153Y-74209153D01*
X65567446Y-74184292D01*
X65602005Y-74165820D01*
X65639501Y-74154445D01*
X65684638Y-74150000D01*
X66423362Y-74150000D01*
X66468499Y-74154445D01*
X66468499Y-74154445D01*
G37*
G36*
X49005443Y-73400519D02*
G01*
X49071627Y-73407037D01*
X49241466Y-73458557D01*
X49397991Y-73542222D01*
X49433729Y-73571552D01*
X49535186Y-73654814D01*
X49618448Y-73756271D01*
X49647778Y-73792009D01*
X49731443Y-73948534D01*
X49782963Y-74118373D01*
X49800359Y-74295000D01*
X49782963Y-74471627D01*
X49731443Y-74641466D01*
X49647778Y-74797991D01*
X49618448Y-74833729D01*
X49535186Y-74935186D01*
X49468017Y-74990309D01*
X49397991Y-75047778D01*
X49241466Y-75131443D01*
X49071627Y-75182963D01*
X49005442Y-75189482D01*
X48939260Y-75196000D01*
X48850740Y-75196000D01*
X48784558Y-75189482D01*
X48718373Y-75182963D01*
X48548534Y-75131443D01*
X48392009Y-75047778D01*
X48321983Y-74990309D01*
X48254814Y-74935186D01*
X48171552Y-74833729D01*
X48142222Y-74797991D01*
X48058557Y-74641466D01*
X48007037Y-74471627D01*
X47989641Y-74295000D01*
X48007037Y-74118373D01*
X48058557Y-73948534D01*
X48142222Y-73792009D01*
X48171552Y-73756271D01*
X48254814Y-73654814D01*
X48356271Y-73571552D01*
X48392009Y-73542222D01*
X48548534Y-73458557D01*
X48718373Y-73407037D01*
X48784557Y-73400519D01*
X48850740Y-73394000D01*
X48939260Y-73394000D01*
X49005443Y-73400519D01*
X49005443Y-73400519D01*
G37*
G36*
X51545443Y-73400519D02*
G01*
X51611627Y-73407037D01*
X51781466Y-73458557D01*
X51937991Y-73542222D01*
X51973729Y-73571552D01*
X52075186Y-73654814D01*
X52158448Y-73756271D01*
X52187778Y-73792009D01*
X52271443Y-73948534D01*
X52322963Y-74118373D01*
X52340359Y-74295000D01*
X52322963Y-74471627D01*
X52271443Y-74641466D01*
X52187778Y-74797991D01*
X52158448Y-74833729D01*
X52075186Y-74935186D01*
X52008017Y-74990309D01*
X51937991Y-75047778D01*
X51781466Y-75131443D01*
X51611627Y-75182963D01*
X51545442Y-75189482D01*
X51479260Y-75196000D01*
X51390740Y-75196000D01*
X51324558Y-75189482D01*
X51258373Y-75182963D01*
X51088534Y-75131443D01*
X50932009Y-75047778D01*
X50861983Y-74990309D01*
X50794814Y-74935186D01*
X50711552Y-74833729D01*
X50682222Y-74797991D01*
X50598557Y-74641466D01*
X50547037Y-74471627D01*
X50529641Y-74295000D01*
X50547037Y-74118373D01*
X50598557Y-73948534D01*
X50682222Y-73792009D01*
X50711552Y-73756271D01*
X50794814Y-73654814D01*
X50896271Y-73571552D01*
X50932009Y-73542222D01*
X51088534Y-73458557D01*
X51258373Y-73407037D01*
X51324557Y-73400519D01*
X51390740Y-73394000D01*
X51479260Y-73394000D01*
X51545443Y-73400519D01*
X51545443Y-73400519D01*
G37*
G36*
X59188000Y-74925000D02*
G01*
X57586000Y-74925000D01*
X57586000Y-74173000D01*
X59188000Y-74173000D01*
X59188000Y-74925000D01*
X59188000Y-74925000D01*
G37*
G36*
X64588000Y-74925000D02*
G01*
X62986000Y-74925000D01*
X62986000Y-74173000D01*
X64588000Y-74173000D01*
X64588000Y-74925000D01*
X64588000Y-74925000D01*
G37*
G36*
X64588000Y-73655000D02*
G01*
X62986000Y-73655000D01*
X62986000Y-72903000D01*
X64588000Y-72903000D01*
X64588000Y-73655000D01*
X64588000Y-73655000D01*
G37*
G36*
X59188000Y-73655000D02*
G01*
X57586000Y-73655000D01*
X57586000Y-72903000D01*
X59188000Y-72903000D01*
X59188000Y-73655000D01*
X59188000Y-73655000D01*
G37*
G36*
X66468499Y-72376445D02*
G01*
X66505995Y-72387820D01*
X66540554Y-72406292D01*
X66570847Y-72431153D01*
X66595708Y-72461446D01*
X66614180Y-72496005D01*
X66625555Y-72533501D01*
X66630000Y-72578638D01*
X66630000Y-73217362D01*
X66625555Y-73262499D01*
X66614180Y-73299995D01*
X66595708Y-73334554D01*
X66570847Y-73364847D01*
X66540554Y-73389708D01*
X66505995Y-73408180D01*
X66468499Y-73419555D01*
X66423362Y-73424000D01*
X65684638Y-73424000D01*
X65639501Y-73419555D01*
X65602005Y-73408180D01*
X65567446Y-73389708D01*
X65537153Y-73364847D01*
X65512292Y-73334554D01*
X65493820Y-73299995D01*
X65482445Y-73262499D01*
X65478000Y-73217362D01*
X65478000Y-72578638D01*
X65482445Y-72533501D01*
X65493820Y-72496005D01*
X65512292Y-72461446D01*
X65537153Y-72431153D01*
X65567446Y-72406292D01*
X65602005Y-72387820D01*
X65639501Y-72376445D01*
X65684638Y-72372000D01*
X66423362Y-72372000D01*
X66468499Y-72376445D01*
X66468499Y-72376445D01*
G37*
G36*
X68218499Y-72376445D02*
G01*
X68255995Y-72387820D01*
X68290554Y-72406292D01*
X68320847Y-72431153D01*
X68345708Y-72461446D01*
X68364180Y-72496005D01*
X68375555Y-72533501D01*
X68380000Y-72578638D01*
X68380000Y-73217362D01*
X68375555Y-73262499D01*
X68364180Y-73299995D01*
X68345708Y-73334554D01*
X68320847Y-73364847D01*
X68290554Y-73389708D01*
X68255995Y-73408180D01*
X68218499Y-73419555D01*
X68173362Y-73424000D01*
X67434638Y-73424000D01*
X67389501Y-73419555D01*
X67352005Y-73408180D01*
X67317446Y-73389708D01*
X67287153Y-73364847D01*
X67262292Y-73334554D01*
X67243820Y-73299995D01*
X67232445Y-73262499D01*
X67228000Y-73217362D01*
X67228000Y-72578638D01*
X67232445Y-72533501D01*
X67243820Y-72496005D01*
X67262292Y-72461446D01*
X67287153Y-72431153D01*
X67317446Y-72406292D01*
X67352005Y-72387820D01*
X67389501Y-72376445D01*
X67434638Y-72372000D01*
X68173362Y-72372000D01*
X68218499Y-72376445D01*
X68218499Y-72376445D01*
G37*
G36*
X51545442Y-70860518D02*
G01*
X51611627Y-70867037D01*
X51781466Y-70918557D01*
X51937991Y-71002222D01*
X51973729Y-71031552D01*
X52075186Y-71114814D01*
X52158448Y-71216271D01*
X52187778Y-71252009D01*
X52271443Y-71408534D01*
X52322963Y-71578373D01*
X52340359Y-71755000D01*
X52322963Y-71931627D01*
X52271443Y-72101466D01*
X52187778Y-72257991D01*
X52158448Y-72293729D01*
X52075186Y-72395186D01*
X51973729Y-72478448D01*
X51937991Y-72507778D01*
X51781466Y-72591443D01*
X51611627Y-72642963D01*
X51545443Y-72649481D01*
X51479260Y-72656000D01*
X51390740Y-72656000D01*
X51324557Y-72649481D01*
X51258373Y-72642963D01*
X51088534Y-72591443D01*
X50932009Y-72507778D01*
X50896271Y-72478448D01*
X50794814Y-72395186D01*
X50711552Y-72293729D01*
X50682222Y-72257991D01*
X50598557Y-72101466D01*
X50547037Y-71931627D01*
X50529641Y-71755000D01*
X50547037Y-71578373D01*
X50598557Y-71408534D01*
X50682222Y-71252009D01*
X50711552Y-71216271D01*
X50794814Y-71114814D01*
X50896271Y-71031552D01*
X50932009Y-71002222D01*
X51088534Y-70918557D01*
X51258373Y-70867037D01*
X51324558Y-70860518D01*
X51390740Y-70854000D01*
X51479260Y-70854000D01*
X51545442Y-70860518D01*
X51545442Y-70860518D01*
G37*
G36*
X49005442Y-70860518D02*
G01*
X49071627Y-70867037D01*
X49241466Y-70918557D01*
X49397991Y-71002222D01*
X49433729Y-71031552D01*
X49535186Y-71114814D01*
X49618448Y-71216271D01*
X49647778Y-71252009D01*
X49731443Y-71408534D01*
X49782963Y-71578373D01*
X49800359Y-71755000D01*
X49782963Y-71931627D01*
X49731443Y-72101466D01*
X49647778Y-72257991D01*
X49618448Y-72293729D01*
X49535186Y-72395186D01*
X49433729Y-72478448D01*
X49397991Y-72507778D01*
X49241466Y-72591443D01*
X49071627Y-72642963D01*
X49005443Y-72649481D01*
X48939260Y-72656000D01*
X48850740Y-72656000D01*
X48784557Y-72649481D01*
X48718373Y-72642963D01*
X48548534Y-72591443D01*
X48392009Y-72507778D01*
X48356271Y-72478448D01*
X48254814Y-72395186D01*
X48171552Y-72293729D01*
X48142222Y-72257991D01*
X48058557Y-72101466D01*
X48007037Y-71931627D01*
X47989641Y-71755000D01*
X48007037Y-71578373D01*
X48058557Y-71408534D01*
X48142222Y-71252009D01*
X48171552Y-71216271D01*
X48254814Y-71114814D01*
X48356271Y-71031552D01*
X48392009Y-71002222D01*
X48548534Y-70918557D01*
X48718373Y-70867037D01*
X48784558Y-70860518D01*
X48850740Y-70854000D01*
X48939260Y-70854000D01*
X49005442Y-70860518D01*
X49005442Y-70860518D01*
G37*
G36*
X59188000Y-72385000D02*
G01*
X57586000Y-72385000D01*
X57586000Y-71633000D01*
X59188000Y-71633000D01*
X59188000Y-72385000D01*
X59188000Y-72385000D01*
G37*
G36*
X64588000Y-72385000D02*
G01*
X62986000Y-72385000D01*
X62986000Y-71633000D01*
X64588000Y-71633000D01*
X64588000Y-72385000D01*
X64588000Y-72385000D01*
G37*
G36*
X80597194Y-69849035D02*
G01*
X80693382Y-69888878D01*
X80829413Y-69945223D01*
X81038403Y-70084866D01*
X81216134Y-70262597D01*
X81355777Y-70471587D01*
X81412122Y-70607618D01*
X81451965Y-70703806D01*
X81501000Y-70950324D01*
X81501000Y-71201676D01*
X81451965Y-71448194D01*
X81412122Y-71544382D01*
X81355777Y-71680413D01*
X81216134Y-71889403D01*
X81038403Y-72067134D01*
X80829413Y-72206777D01*
X80705775Y-72257989D01*
X80597194Y-72302965D01*
X80350676Y-72352000D01*
X80099324Y-72352000D01*
X79852806Y-72302965D01*
X79744225Y-72257989D01*
X79620587Y-72206777D01*
X79411597Y-72067134D01*
X79233866Y-71889403D01*
X79094223Y-71680413D01*
X79037878Y-71544382D01*
X78998035Y-71448194D01*
X78949000Y-71201676D01*
X78949000Y-70950324D01*
X78998035Y-70703806D01*
X79037878Y-70607618D01*
X79094223Y-70471587D01*
X79233866Y-70262597D01*
X79411597Y-70084866D01*
X79620587Y-69945223D01*
X79756618Y-69888878D01*
X79852806Y-69849035D01*
X80099324Y-69800000D01*
X80350676Y-69800000D01*
X80597194Y-69849035D01*
X80597194Y-69849035D01*
G37*
G36*
X75075318Y-69371153D02*
G01*
X75293885Y-69461687D01*
X75293887Y-69461688D01*
X75490593Y-69593122D01*
X75657878Y-69760407D01*
X75781367Y-69945223D01*
X75789313Y-69957115D01*
X75879847Y-70175682D01*
X75926000Y-70407710D01*
X75926000Y-70644290D01*
X75879847Y-70876318D01*
X75789313Y-71094885D01*
X75789312Y-71094887D01*
X75657878Y-71291593D01*
X75490593Y-71458878D01*
X75293887Y-71590312D01*
X75293886Y-71590313D01*
X75293885Y-71590313D01*
X75075318Y-71680847D01*
X74843290Y-71727000D01*
X74606710Y-71727000D01*
X74374682Y-71680847D01*
X74156115Y-71590313D01*
X74156114Y-71590313D01*
X74156113Y-71590312D01*
X73959407Y-71458878D01*
X73792122Y-71291593D01*
X73660688Y-71094887D01*
X73660687Y-71094885D01*
X73570153Y-70876318D01*
X73524000Y-70644290D01*
X73524000Y-70407710D01*
X73570153Y-70175682D01*
X73660687Y-69957115D01*
X73668633Y-69945223D01*
X73792122Y-69760407D01*
X73959407Y-69593122D01*
X74156113Y-69461688D01*
X74156115Y-69461687D01*
X74374682Y-69371153D01*
X74606710Y-69325000D01*
X74843290Y-69325000D01*
X75075318Y-69371153D01*
X75075318Y-69371153D01*
G37*
G36*
X64588000Y-71115000D02*
G01*
X62986000Y-71115000D01*
X62986000Y-70363000D01*
X64588000Y-70363000D01*
X64588000Y-71115000D01*
X64588000Y-71115000D01*
G37*
G36*
X59188000Y-71115000D02*
G01*
X57586000Y-71115000D01*
X57586000Y-70363000D01*
X59188000Y-70363000D01*
X59188000Y-71115000D01*
X59188000Y-71115000D01*
G37*
G36*
X51545442Y-68320518D02*
G01*
X51611627Y-68327037D01*
X51781466Y-68378557D01*
X51937991Y-68462222D01*
X51973729Y-68491552D01*
X52075186Y-68574814D01*
X52158448Y-68676271D01*
X52187778Y-68712009D01*
X52271443Y-68868534D01*
X52322963Y-69038373D01*
X52340359Y-69215000D01*
X52322963Y-69391627D01*
X52271443Y-69561466D01*
X52187778Y-69717991D01*
X52158448Y-69753729D01*
X52075186Y-69855186D01*
X51973729Y-69938448D01*
X51937991Y-69967778D01*
X51781466Y-70051443D01*
X51611627Y-70102963D01*
X51545442Y-70109482D01*
X51479260Y-70116000D01*
X51390740Y-70116000D01*
X51324558Y-70109482D01*
X51258373Y-70102963D01*
X51088534Y-70051443D01*
X50932009Y-69967778D01*
X50896271Y-69938448D01*
X50794814Y-69855186D01*
X50711552Y-69753729D01*
X50682222Y-69717991D01*
X50598557Y-69561466D01*
X50547037Y-69391627D01*
X50529641Y-69215000D01*
X50547037Y-69038373D01*
X50598557Y-68868534D01*
X50682222Y-68712009D01*
X50711552Y-68676271D01*
X50794814Y-68574814D01*
X50896271Y-68491552D01*
X50932009Y-68462222D01*
X51088534Y-68378557D01*
X51258373Y-68327037D01*
X51324558Y-68320518D01*
X51390740Y-68314000D01*
X51479260Y-68314000D01*
X51545442Y-68320518D01*
X51545442Y-68320518D01*
G37*
G36*
X49005442Y-68320518D02*
G01*
X49071627Y-68327037D01*
X49241466Y-68378557D01*
X49397991Y-68462222D01*
X49433729Y-68491552D01*
X49535186Y-68574814D01*
X49618448Y-68676271D01*
X49647778Y-68712009D01*
X49731443Y-68868534D01*
X49782963Y-69038373D01*
X49800359Y-69215000D01*
X49782963Y-69391627D01*
X49731443Y-69561466D01*
X49647778Y-69717991D01*
X49618448Y-69753729D01*
X49535186Y-69855186D01*
X49433729Y-69938448D01*
X49397991Y-69967778D01*
X49241466Y-70051443D01*
X49071627Y-70102963D01*
X49005442Y-70109482D01*
X48939260Y-70116000D01*
X48850740Y-70116000D01*
X48784558Y-70109482D01*
X48718373Y-70102963D01*
X48548534Y-70051443D01*
X48392009Y-69967778D01*
X48356271Y-69938448D01*
X48254814Y-69855186D01*
X48171552Y-69753729D01*
X48142222Y-69717991D01*
X48058557Y-69561466D01*
X48007037Y-69391627D01*
X47989641Y-69215000D01*
X48007037Y-69038373D01*
X48058557Y-68868534D01*
X48142222Y-68712009D01*
X48171552Y-68676271D01*
X48254814Y-68574814D01*
X48356271Y-68491552D01*
X48392009Y-68462222D01*
X48548534Y-68378557D01*
X48718373Y-68327037D01*
X48784558Y-68320518D01*
X48850740Y-68314000D01*
X48939260Y-68314000D01*
X49005442Y-68320518D01*
X49005442Y-68320518D01*
G37*
G36*
X51545443Y-65780519D02*
G01*
X51611627Y-65787037D01*
X51781466Y-65838557D01*
X51937991Y-65922222D01*
X51969638Y-65948194D01*
X52075186Y-66034814D01*
X52144514Y-66119292D01*
X52187778Y-66172009D01*
X52271443Y-66328534D01*
X52322963Y-66498373D01*
X52340359Y-66675000D01*
X52322963Y-66851627D01*
X52271443Y-67021466D01*
X52271442Y-67021468D01*
X52242562Y-67075499D01*
X52187778Y-67177991D01*
X52175725Y-67192677D01*
X52075186Y-67315186D01*
X51973729Y-67398448D01*
X51937991Y-67427778D01*
X51781466Y-67511443D01*
X51611627Y-67562963D01*
X51545443Y-67569481D01*
X51479260Y-67576000D01*
X51390740Y-67576000D01*
X51324557Y-67569481D01*
X51258373Y-67562963D01*
X51088534Y-67511443D01*
X50932009Y-67427778D01*
X50896271Y-67398448D01*
X50794814Y-67315186D01*
X50694275Y-67192677D01*
X50682222Y-67177991D01*
X50627438Y-67075499D01*
X50598558Y-67021468D01*
X50598557Y-67021466D01*
X50547037Y-66851627D01*
X50529641Y-66675000D01*
X50547037Y-66498373D01*
X50598557Y-66328534D01*
X50682222Y-66172009D01*
X50725486Y-66119292D01*
X50794814Y-66034814D01*
X50900362Y-65948194D01*
X50932009Y-65922222D01*
X51088534Y-65838557D01*
X51258373Y-65787037D01*
X51324557Y-65780519D01*
X51390740Y-65774000D01*
X51479260Y-65774000D01*
X51545443Y-65780519D01*
X51545443Y-65780519D01*
G37*
G36*
X49005443Y-65780519D02*
G01*
X49071627Y-65787037D01*
X49241466Y-65838557D01*
X49397991Y-65922222D01*
X49429638Y-65948194D01*
X49535186Y-66034814D01*
X49604514Y-66119292D01*
X49647778Y-66172009D01*
X49731443Y-66328534D01*
X49782963Y-66498373D01*
X49800359Y-66675000D01*
X49782963Y-66851627D01*
X49731443Y-67021466D01*
X49731442Y-67021468D01*
X49702562Y-67075499D01*
X49647778Y-67177991D01*
X49635725Y-67192677D01*
X49535186Y-67315186D01*
X49433729Y-67398448D01*
X49397991Y-67427778D01*
X49241466Y-67511443D01*
X49071627Y-67562963D01*
X49005443Y-67569481D01*
X48939260Y-67576000D01*
X48850740Y-67576000D01*
X48784557Y-67569481D01*
X48718373Y-67562963D01*
X48548534Y-67511443D01*
X48392009Y-67427778D01*
X48356271Y-67398448D01*
X48254814Y-67315186D01*
X48154275Y-67192677D01*
X48142222Y-67177991D01*
X48087438Y-67075499D01*
X48058558Y-67021468D01*
X48058557Y-67021466D01*
X48007037Y-66851627D01*
X47989641Y-66675000D01*
X48007037Y-66498373D01*
X48058557Y-66328534D01*
X48142222Y-66172009D01*
X48185486Y-66119292D01*
X48254814Y-66034814D01*
X48360362Y-65948194D01*
X48392009Y-65922222D01*
X48548534Y-65838557D01*
X48718373Y-65787037D01*
X48784557Y-65780519D01*
X48850740Y-65774000D01*
X48939260Y-65774000D01*
X49005443Y-65780519D01*
X49005443Y-65780519D01*
G37*
G36*
X75097194Y-64899035D02*
G01*
X75193382Y-64938878D01*
X75329413Y-64995223D01*
X75538403Y-65134866D01*
X75716134Y-65312597D01*
X75855777Y-65521587D01*
X75912122Y-65657618D01*
X75951965Y-65753806D01*
X76001000Y-66000324D01*
X76001000Y-66251676D01*
X75951965Y-66498194D01*
X75923409Y-66567134D01*
X75855777Y-66730413D01*
X75716134Y-66939403D01*
X75538403Y-67117134D01*
X75329413Y-67256777D01*
X75193382Y-67313122D01*
X75097194Y-67352965D01*
X74850676Y-67402000D01*
X74599324Y-67402000D01*
X74352806Y-67352965D01*
X74256618Y-67313122D01*
X74120587Y-67256777D01*
X73911597Y-67117134D01*
X73733866Y-66939403D01*
X73594223Y-66730413D01*
X73526591Y-66567134D01*
X73498035Y-66498194D01*
X73449000Y-66251676D01*
X73449000Y-66000324D01*
X73498035Y-65753806D01*
X73537878Y-65657618D01*
X73594223Y-65521587D01*
X73733866Y-65312597D01*
X73911597Y-65134866D01*
X74120587Y-64995223D01*
X74256618Y-64938878D01*
X74352806Y-64899035D01*
X74599324Y-64850000D01*
X74850676Y-64850000D01*
X75097194Y-64899035D01*
X75097194Y-64899035D01*
G37*
G36*
X60181499Y-66089445D02*
G01*
X60218995Y-66100820D01*
X60253554Y-66119292D01*
X60283847Y-66144153D01*
X60308708Y-66174446D01*
X60327180Y-66209005D01*
X60338555Y-66246501D01*
X60343000Y-66291638D01*
X60343000Y-67030362D01*
X60338555Y-67075499D01*
X60327180Y-67112995D01*
X60308708Y-67147554D01*
X60283847Y-67177847D01*
X60253554Y-67202708D01*
X60218995Y-67221180D01*
X60181499Y-67232555D01*
X60136362Y-67237000D01*
X59497638Y-67237000D01*
X59452501Y-67232555D01*
X59415005Y-67221180D01*
X59380446Y-67202708D01*
X59350153Y-67177847D01*
X59325292Y-67147554D01*
X59306820Y-67112995D01*
X59295445Y-67075499D01*
X59291000Y-67030362D01*
X59291000Y-66291638D01*
X59295445Y-66246501D01*
X59306820Y-66209005D01*
X59325292Y-66174446D01*
X59350153Y-66144153D01*
X59380446Y-66119292D01*
X59415005Y-66100820D01*
X59452501Y-66089445D01*
X59497638Y-66085000D01*
X60136362Y-66085000D01*
X60181499Y-66089445D01*
X60181499Y-66089445D01*
G37*
G36*
X58657499Y-66089445D02*
G01*
X58694995Y-66100820D01*
X58729554Y-66119292D01*
X58759847Y-66144153D01*
X58784708Y-66174446D01*
X58803180Y-66209005D01*
X58814555Y-66246501D01*
X58819000Y-66291638D01*
X58819000Y-67030362D01*
X58814555Y-67075499D01*
X58803180Y-67112995D01*
X58784708Y-67147554D01*
X58759847Y-67177847D01*
X58729554Y-67202708D01*
X58694995Y-67221180D01*
X58657499Y-67232555D01*
X58612362Y-67237000D01*
X57973638Y-67237000D01*
X57928501Y-67232555D01*
X57891005Y-67221180D01*
X57856446Y-67202708D01*
X57826153Y-67177847D01*
X57801292Y-67147554D01*
X57782820Y-67112995D01*
X57771445Y-67075499D01*
X57767000Y-67030362D01*
X57767000Y-66291638D01*
X57771445Y-66246501D01*
X57782820Y-66209005D01*
X57801292Y-66174446D01*
X57826153Y-66144153D01*
X57856446Y-66119292D01*
X57891005Y-66100820D01*
X57928501Y-66089445D01*
X57973638Y-66085000D01*
X58612362Y-66085000D01*
X58657499Y-66089445D01*
X58657499Y-66089445D01*
G37*
G36*
X80597194Y-64349035D02*
G01*
X80669535Y-64379000D01*
X80829413Y-64445223D01*
X81038403Y-64584866D01*
X81216134Y-64762597D01*
X81355777Y-64971587D01*
X81412122Y-65107618D01*
X81451965Y-65203806D01*
X81501000Y-65450324D01*
X81501000Y-65701676D01*
X81451965Y-65948194D01*
X81416086Y-66034814D01*
X81355777Y-66180413D01*
X81216134Y-66389403D01*
X81038403Y-66567134D01*
X80829413Y-66706777D01*
X80693382Y-66763122D01*
X80597194Y-66802965D01*
X80350676Y-66852000D01*
X80099324Y-66852000D01*
X79852806Y-66802965D01*
X79756618Y-66763122D01*
X79620587Y-66706777D01*
X79411597Y-66567134D01*
X79233866Y-66389403D01*
X79094223Y-66180413D01*
X79033914Y-66034814D01*
X78998035Y-65948194D01*
X78949000Y-65701676D01*
X78949000Y-65450324D01*
X78998035Y-65203806D01*
X79037878Y-65107618D01*
X79094223Y-64971587D01*
X79233866Y-64762597D01*
X79411597Y-64584866D01*
X79620587Y-64445223D01*
X79780465Y-64379000D01*
X79852806Y-64349035D01*
X80099324Y-64300000D01*
X80350676Y-64300000D01*
X80597194Y-64349035D01*
X80597194Y-64349035D01*
G37*
G36*
X60181499Y-64339445D02*
G01*
X60218995Y-64350820D01*
X60253554Y-64369292D01*
X60283847Y-64394153D01*
X60308708Y-64424446D01*
X60327180Y-64459005D01*
X60338555Y-64496501D01*
X60343000Y-64541638D01*
X60343000Y-65280362D01*
X60338555Y-65325499D01*
X60327180Y-65362995D01*
X60308708Y-65397554D01*
X60283847Y-65427847D01*
X60253554Y-65452708D01*
X60218995Y-65471180D01*
X60181499Y-65482555D01*
X60136362Y-65487000D01*
X59497638Y-65487000D01*
X59452501Y-65482555D01*
X59415005Y-65471180D01*
X59380446Y-65452708D01*
X59350153Y-65427847D01*
X59325292Y-65397554D01*
X59306820Y-65362995D01*
X59295445Y-65325499D01*
X59291000Y-65280362D01*
X59291000Y-64541638D01*
X59295445Y-64496501D01*
X59306820Y-64459005D01*
X59325292Y-64424446D01*
X59350153Y-64394153D01*
X59380446Y-64369292D01*
X59415005Y-64350820D01*
X59452501Y-64339445D01*
X59497638Y-64335000D01*
X60136362Y-64335000D01*
X60181499Y-64339445D01*
X60181499Y-64339445D01*
G37*
G36*
X58657499Y-64339445D02*
G01*
X58694995Y-64350820D01*
X58729554Y-64369292D01*
X58759847Y-64394153D01*
X58784708Y-64424446D01*
X58803180Y-64459005D01*
X58814555Y-64496501D01*
X58819000Y-64541638D01*
X58819000Y-65280362D01*
X58814555Y-65325499D01*
X58803180Y-65362995D01*
X58784708Y-65397554D01*
X58759847Y-65427847D01*
X58729554Y-65452708D01*
X58694995Y-65471180D01*
X58657499Y-65482555D01*
X58612362Y-65487000D01*
X57973638Y-65487000D01*
X57928501Y-65482555D01*
X57891005Y-65471180D01*
X57856446Y-65452708D01*
X57826153Y-65427847D01*
X57801292Y-65397554D01*
X57782820Y-65362995D01*
X57771445Y-65325499D01*
X57767000Y-65280362D01*
X57767000Y-64541638D01*
X57771445Y-64496501D01*
X57782820Y-64459005D01*
X57801292Y-64424446D01*
X57826153Y-64394153D01*
X57856446Y-64369292D01*
X57891005Y-64350820D01*
X57928501Y-64339445D01*
X57973638Y-64335000D01*
X58612362Y-64335000D01*
X58657499Y-64339445D01*
X58657499Y-64339445D01*
G37*
G36*
X49005443Y-63240519D02*
G01*
X49071627Y-63247037D01*
X49241466Y-63298557D01*
X49397991Y-63382222D01*
X49433729Y-63411552D01*
X49535186Y-63494814D01*
X49604514Y-63579292D01*
X49647778Y-63632009D01*
X49652222Y-63640324D01*
X49724877Y-63776249D01*
X49731443Y-63788534D01*
X49782963Y-63958373D01*
X49800359Y-64135000D01*
X49782963Y-64311627D01*
X49742437Y-64445223D01*
X49731442Y-64481468D01*
X49702562Y-64535499D01*
X49647778Y-64637991D01*
X49635725Y-64652677D01*
X49535186Y-64775186D01*
X49433729Y-64858448D01*
X49397991Y-64887778D01*
X49241466Y-64971443D01*
X49071627Y-65022963D01*
X49005442Y-65029482D01*
X48939260Y-65036000D01*
X48850740Y-65036000D01*
X48784558Y-65029482D01*
X48718373Y-65022963D01*
X48548534Y-64971443D01*
X48392009Y-64887778D01*
X48356271Y-64858448D01*
X48254814Y-64775186D01*
X48154275Y-64652677D01*
X48142222Y-64637991D01*
X48087438Y-64535499D01*
X48058558Y-64481468D01*
X48047563Y-64445223D01*
X48007037Y-64311627D01*
X47989641Y-64135000D01*
X48007037Y-63958373D01*
X48058557Y-63788534D01*
X48065124Y-63776249D01*
X48137778Y-63640324D01*
X48142222Y-63632009D01*
X48185486Y-63579292D01*
X48254814Y-63494814D01*
X48356271Y-63411552D01*
X48392009Y-63382222D01*
X48548534Y-63298557D01*
X48718373Y-63247037D01*
X48784557Y-63240519D01*
X48850740Y-63234000D01*
X48939260Y-63234000D01*
X49005443Y-63240519D01*
X49005443Y-63240519D01*
G37*
G36*
X51545443Y-63240519D02*
G01*
X51611627Y-63247037D01*
X51781466Y-63298557D01*
X51937991Y-63382222D01*
X51973729Y-63411552D01*
X52075186Y-63494814D01*
X52144514Y-63579292D01*
X52187778Y-63632009D01*
X52192222Y-63640324D01*
X52264877Y-63776249D01*
X52271443Y-63788534D01*
X52322963Y-63958373D01*
X52340359Y-64135000D01*
X52322963Y-64311627D01*
X52282437Y-64445223D01*
X52271442Y-64481468D01*
X52242562Y-64535499D01*
X52187778Y-64637991D01*
X52175725Y-64652677D01*
X52075186Y-64775186D01*
X51973729Y-64858448D01*
X51937991Y-64887778D01*
X51781466Y-64971443D01*
X51611627Y-65022963D01*
X51545442Y-65029482D01*
X51479260Y-65036000D01*
X51390740Y-65036000D01*
X51324558Y-65029482D01*
X51258373Y-65022963D01*
X51088534Y-64971443D01*
X50932009Y-64887778D01*
X50896271Y-64858448D01*
X50794814Y-64775186D01*
X50694275Y-64652677D01*
X50682222Y-64637991D01*
X50627438Y-64535499D01*
X50598558Y-64481468D01*
X50587563Y-64445223D01*
X50547037Y-64311627D01*
X50529641Y-64135000D01*
X50547037Y-63958373D01*
X50598557Y-63788534D01*
X50605124Y-63776249D01*
X50677778Y-63640324D01*
X50682222Y-63632009D01*
X50725486Y-63579292D01*
X50794814Y-63494814D01*
X50896271Y-63411552D01*
X50932009Y-63382222D01*
X51088534Y-63298557D01*
X51258373Y-63247037D01*
X51324557Y-63240519D01*
X51390740Y-63234000D01*
X51479260Y-63234000D01*
X51545443Y-63240519D01*
X51545443Y-63240519D01*
G37*
G36*
X71611499Y-63549445D02*
G01*
X71648995Y-63560820D01*
X71683554Y-63579292D01*
X71713847Y-63604153D01*
X71738708Y-63634446D01*
X71757180Y-63669005D01*
X71768555Y-63706501D01*
X71773000Y-63751638D01*
X71773000Y-64490362D01*
X71768555Y-64535499D01*
X71757180Y-64572995D01*
X71738708Y-64607554D01*
X71713847Y-64637847D01*
X71683554Y-64662708D01*
X71648995Y-64681180D01*
X71611499Y-64692555D01*
X71566362Y-64697000D01*
X70927638Y-64697000D01*
X70882501Y-64692555D01*
X70845005Y-64681180D01*
X70810446Y-64662708D01*
X70780153Y-64637847D01*
X70755292Y-64607554D01*
X70736820Y-64572995D01*
X70725445Y-64535499D01*
X70721000Y-64490362D01*
X70721000Y-63751638D01*
X70725445Y-63706501D01*
X70736820Y-63669005D01*
X70755292Y-63634446D01*
X70780153Y-63604153D01*
X70810446Y-63579292D01*
X70845005Y-63560820D01*
X70882501Y-63549445D01*
X70927638Y-63545000D01*
X71566362Y-63545000D01*
X71611499Y-63549445D01*
X71611499Y-63549445D01*
G37*
G36*
X70087499Y-63549445D02*
G01*
X70124995Y-63560820D01*
X70159554Y-63579292D01*
X70189847Y-63604153D01*
X70214708Y-63634446D01*
X70233180Y-63669005D01*
X70244555Y-63706501D01*
X70249000Y-63751638D01*
X70249000Y-64490362D01*
X70244555Y-64535499D01*
X70233180Y-64572995D01*
X70214708Y-64607554D01*
X70189847Y-64637847D01*
X70159554Y-64662708D01*
X70124995Y-64681180D01*
X70087499Y-64692555D01*
X70042362Y-64697000D01*
X69403638Y-64697000D01*
X69358501Y-64692555D01*
X69321005Y-64681180D01*
X69286446Y-64662708D01*
X69256153Y-64637847D01*
X69231292Y-64607554D01*
X69212820Y-64572995D01*
X69201445Y-64535499D01*
X69197000Y-64490362D01*
X69197000Y-63751638D01*
X69201445Y-63706501D01*
X69212820Y-63669005D01*
X69231292Y-63634446D01*
X69256153Y-63604153D01*
X69286446Y-63579292D01*
X69321005Y-63560820D01*
X69358501Y-63549445D01*
X69403638Y-63545000D01*
X70042362Y-63545000D01*
X70087499Y-63549445D01*
X70087499Y-63549445D01*
G37*
G36*
X65430938Y-63639716D02*
G01*
X65451557Y-63645971D01*
X65470553Y-63656124D01*
X65487208Y-63669792D01*
X65500876Y-63686447D01*
X65511029Y-63705443D01*
X65517284Y-63726062D01*
X65520000Y-63753640D01*
X65520000Y-64262360D01*
X65517284Y-64289938D01*
X65511029Y-64310557D01*
X65500876Y-64329553D01*
X65487208Y-64346208D01*
X65470553Y-64359876D01*
X65451557Y-64370029D01*
X65430938Y-64376284D01*
X65403360Y-64379000D01*
X64944640Y-64379000D01*
X64917062Y-64376284D01*
X64896443Y-64370029D01*
X64877447Y-64359876D01*
X64860792Y-64346208D01*
X64847124Y-64329553D01*
X64836971Y-64310557D01*
X64830716Y-64289938D01*
X64828000Y-64262360D01*
X64828000Y-63753640D01*
X64830716Y-63726062D01*
X64836971Y-63705443D01*
X64847124Y-63686447D01*
X64860792Y-63669792D01*
X64877447Y-63656124D01*
X64896443Y-63645971D01*
X64917062Y-63639716D01*
X64944640Y-63637000D01*
X65403360Y-63637000D01*
X65430938Y-63639716D01*
X65430938Y-63639716D01*
G37*
G36*
X66400938Y-63639716D02*
G01*
X66421557Y-63645971D01*
X66440553Y-63656124D01*
X66457208Y-63669792D01*
X66470876Y-63686447D01*
X66481029Y-63705443D01*
X66487284Y-63726062D01*
X66490000Y-63753640D01*
X66490000Y-64262360D01*
X66487284Y-64289938D01*
X66481029Y-64310557D01*
X66470876Y-64329553D01*
X66457208Y-64346208D01*
X66440553Y-64359876D01*
X66421557Y-64370029D01*
X66400938Y-64376284D01*
X66373360Y-64379000D01*
X65914640Y-64379000D01*
X65887062Y-64376284D01*
X65866443Y-64370029D01*
X65847447Y-64359876D01*
X65830792Y-64346208D01*
X65817124Y-64329553D01*
X65806971Y-64310557D01*
X65800716Y-64289938D01*
X65798000Y-64262360D01*
X65798000Y-63753640D01*
X65800716Y-63726062D01*
X65806971Y-63705443D01*
X65817124Y-63686447D01*
X65830792Y-63669792D01*
X65847447Y-63656124D01*
X65866443Y-63645971D01*
X65887062Y-63639716D01*
X65914640Y-63637000D01*
X66373360Y-63637000D01*
X66400938Y-63639716D01*
X66400938Y-63639716D01*
G37*
G36*
X60181499Y-62787445D02*
G01*
X60218995Y-62798820D01*
X60253554Y-62817292D01*
X60283847Y-62842153D01*
X60308708Y-62872446D01*
X60327180Y-62907005D01*
X60338555Y-62944501D01*
X60343000Y-62989638D01*
X60343000Y-63728362D01*
X60338555Y-63773499D01*
X60327180Y-63810995D01*
X60308708Y-63845554D01*
X60283847Y-63875847D01*
X60253554Y-63900708D01*
X60218995Y-63919180D01*
X60181499Y-63930555D01*
X60136362Y-63935000D01*
X59497638Y-63935000D01*
X59452501Y-63930555D01*
X59415005Y-63919180D01*
X59380446Y-63900708D01*
X59350153Y-63875847D01*
X59325292Y-63845554D01*
X59306820Y-63810995D01*
X59295445Y-63773499D01*
X59291000Y-63728362D01*
X59291000Y-62989638D01*
X59295445Y-62944501D01*
X59306820Y-62907005D01*
X59325292Y-62872446D01*
X59350153Y-62842153D01*
X59380446Y-62817292D01*
X59415005Y-62798820D01*
X59452501Y-62787445D01*
X59497638Y-62783000D01*
X60136362Y-62783000D01*
X60181499Y-62787445D01*
X60181499Y-62787445D01*
G37*
G36*
X58657499Y-62787445D02*
G01*
X58694995Y-62798820D01*
X58729554Y-62817292D01*
X58759847Y-62842153D01*
X58784708Y-62872446D01*
X58803180Y-62907005D01*
X58814555Y-62944501D01*
X58819000Y-62989638D01*
X58819000Y-63728362D01*
X58814555Y-63773499D01*
X58803180Y-63810995D01*
X58784708Y-63845554D01*
X58759847Y-63875847D01*
X58729554Y-63900708D01*
X58694995Y-63919180D01*
X58657499Y-63930555D01*
X58612362Y-63935000D01*
X57973638Y-63935000D01*
X57928501Y-63930555D01*
X57891005Y-63919180D01*
X57856446Y-63900708D01*
X57826153Y-63875847D01*
X57801292Y-63845554D01*
X57782820Y-63810995D01*
X57771445Y-63773499D01*
X57767000Y-63728362D01*
X57767000Y-62989638D01*
X57771445Y-62944501D01*
X57782820Y-62907005D01*
X57801292Y-62872446D01*
X57826153Y-62842153D01*
X57856446Y-62817292D01*
X57891005Y-62798820D01*
X57928501Y-62787445D01*
X57973638Y-62783000D01*
X58612362Y-62783000D01*
X58657499Y-62787445D01*
X58657499Y-62787445D01*
G37*
G36*
X68369500Y-63145000D02*
G01*
X66792500Y-63145000D01*
X66792500Y-56743000D01*
X68369500Y-56743000D01*
X68369500Y-63145000D01*
X68369500Y-63145000D01*
G37*
G36*
X62493500Y-63145000D02*
G01*
X60916500Y-63145000D01*
X60916500Y-56743000D01*
X62493500Y-56743000D01*
X62493500Y-63145000D01*
X62493500Y-63145000D01*
G37*
G36*
X70087499Y-61799445D02*
G01*
X70124995Y-61810820D01*
X70159554Y-61829292D01*
X70189847Y-61854153D01*
X70214708Y-61884446D01*
X70233180Y-61919005D01*
X70244555Y-61956501D01*
X70249000Y-62001638D01*
X70249000Y-62740362D01*
X70244555Y-62785499D01*
X70233180Y-62822995D01*
X70214708Y-62857554D01*
X70189847Y-62887847D01*
X70159554Y-62912708D01*
X70124995Y-62931180D01*
X70087499Y-62942555D01*
X70042362Y-62947000D01*
X69403638Y-62947000D01*
X69358501Y-62942555D01*
X69321005Y-62931180D01*
X69286446Y-62912708D01*
X69256153Y-62887847D01*
X69231292Y-62857554D01*
X69212820Y-62822995D01*
X69201445Y-62785499D01*
X69197000Y-62740362D01*
X69197000Y-62001638D01*
X69201445Y-61956501D01*
X69212820Y-61919005D01*
X69231292Y-61884446D01*
X69256153Y-61854153D01*
X69286446Y-61829292D01*
X69321005Y-61810820D01*
X69358501Y-61799445D01*
X69403638Y-61795000D01*
X70042362Y-61795000D01*
X70087499Y-61799445D01*
X70087499Y-61799445D01*
G37*
G36*
X71611499Y-61799445D02*
G01*
X71648995Y-61810820D01*
X71683554Y-61829292D01*
X71713847Y-61854153D01*
X71738708Y-61884446D01*
X71757180Y-61919005D01*
X71768555Y-61956501D01*
X71773000Y-62001638D01*
X71773000Y-62740362D01*
X71768555Y-62785499D01*
X71757180Y-62822995D01*
X71738708Y-62857554D01*
X71713847Y-62887847D01*
X71683554Y-62912708D01*
X71648995Y-62931180D01*
X71611499Y-62942555D01*
X71566362Y-62947000D01*
X70927638Y-62947000D01*
X70882501Y-62942555D01*
X70845005Y-62931180D01*
X70810446Y-62912708D01*
X70780153Y-62887847D01*
X70755292Y-62857554D01*
X70736820Y-62822995D01*
X70725445Y-62785499D01*
X70721000Y-62740362D01*
X70721000Y-62001638D01*
X70725445Y-61956501D01*
X70736820Y-61919005D01*
X70755292Y-61884446D01*
X70780153Y-61854153D01*
X70810446Y-61829292D01*
X70845005Y-61810820D01*
X70882501Y-61799445D01*
X70927638Y-61795000D01*
X71566362Y-61795000D01*
X71611499Y-61799445D01*
X71611499Y-61799445D01*
G37*
G36*
X51545443Y-60700519D02*
G01*
X51611627Y-60707037D01*
X51781466Y-60758557D01*
X51937991Y-60842222D01*
X51973729Y-60871552D01*
X52075186Y-60954814D01*
X52155780Y-61053020D01*
X52187778Y-61092009D01*
X52187779Y-61092011D01*
X52253177Y-61214360D01*
X52271443Y-61248534D01*
X52322963Y-61418373D01*
X52340359Y-61595000D01*
X52322963Y-61771627D01*
X52271443Y-61941466D01*
X52187778Y-62097991D01*
X52179589Y-62107969D01*
X52075186Y-62235186D01*
X51973729Y-62318448D01*
X51937991Y-62347778D01*
X51781466Y-62431443D01*
X51611627Y-62482963D01*
X51545443Y-62489481D01*
X51479260Y-62496000D01*
X51390740Y-62496000D01*
X51324557Y-62489481D01*
X51258373Y-62482963D01*
X51088534Y-62431443D01*
X50932009Y-62347778D01*
X50896271Y-62318448D01*
X50794814Y-62235186D01*
X50690411Y-62107969D01*
X50682222Y-62097991D01*
X50598557Y-61941466D01*
X50547037Y-61771627D01*
X50529641Y-61595000D01*
X50547037Y-61418373D01*
X50598557Y-61248534D01*
X50616824Y-61214360D01*
X50682221Y-61092011D01*
X50682222Y-61092009D01*
X50714220Y-61053020D01*
X50794814Y-60954814D01*
X50896271Y-60871552D01*
X50932009Y-60842222D01*
X51088534Y-60758557D01*
X51258373Y-60707037D01*
X51324557Y-60700519D01*
X51390740Y-60694000D01*
X51479260Y-60694000D01*
X51545443Y-60700519D01*
X51545443Y-60700519D01*
G37*
G36*
X49005443Y-60700519D02*
G01*
X49071627Y-60707037D01*
X49241466Y-60758557D01*
X49397991Y-60842222D01*
X49433729Y-60871552D01*
X49535186Y-60954814D01*
X49615780Y-61053020D01*
X49647778Y-61092009D01*
X49647779Y-61092011D01*
X49713177Y-61214360D01*
X49731443Y-61248534D01*
X49782963Y-61418373D01*
X49800359Y-61595000D01*
X49782963Y-61771627D01*
X49731443Y-61941466D01*
X49647778Y-62097991D01*
X49639589Y-62107969D01*
X49535186Y-62235186D01*
X49433729Y-62318448D01*
X49397991Y-62347778D01*
X49241466Y-62431443D01*
X49071627Y-62482963D01*
X49005443Y-62489481D01*
X48939260Y-62496000D01*
X48850740Y-62496000D01*
X48784557Y-62489481D01*
X48718373Y-62482963D01*
X48548534Y-62431443D01*
X48392009Y-62347778D01*
X48356271Y-62318448D01*
X48254814Y-62235186D01*
X48150411Y-62107969D01*
X48142222Y-62097991D01*
X48058557Y-61941466D01*
X48007037Y-61771627D01*
X47989641Y-61595000D01*
X48007037Y-61418373D01*
X48058557Y-61248534D01*
X48076824Y-61214360D01*
X48142221Y-61092011D01*
X48142222Y-61092009D01*
X48174220Y-61053020D01*
X48254814Y-60954814D01*
X48356271Y-60871552D01*
X48392009Y-60842222D01*
X48548534Y-60758557D01*
X48718373Y-60707037D01*
X48784557Y-60700519D01*
X48850740Y-60694000D01*
X48939260Y-60694000D01*
X49005443Y-60700519D01*
X49005443Y-60700519D01*
G37*
G36*
X60181499Y-61037445D02*
G01*
X60218995Y-61048820D01*
X60253554Y-61067292D01*
X60283847Y-61092153D01*
X60308708Y-61122446D01*
X60327180Y-61157005D01*
X60338555Y-61194501D01*
X60343000Y-61239638D01*
X60343000Y-61978362D01*
X60338555Y-62023499D01*
X60327180Y-62060995D01*
X60308708Y-62095554D01*
X60283847Y-62125847D01*
X60253554Y-62150708D01*
X60218995Y-62169180D01*
X60181499Y-62180555D01*
X60136362Y-62185000D01*
X59497638Y-62185000D01*
X59452501Y-62180555D01*
X59415005Y-62169180D01*
X59380446Y-62150708D01*
X59350153Y-62125847D01*
X59325292Y-62095554D01*
X59306820Y-62060995D01*
X59295445Y-62023499D01*
X59291000Y-61978362D01*
X59291000Y-61239638D01*
X59295445Y-61194501D01*
X59306820Y-61157005D01*
X59325292Y-61122446D01*
X59350153Y-61092153D01*
X59380446Y-61067292D01*
X59415005Y-61048820D01*
X59452501Y-61037445D01*
X59497638Y-61033000D01*
X60136362Y-61033000D01*
X60181499Y-61037445D01*
X60181499Y-61037445D01*
G37*
G36*
X58657499Y-61037445D02*
G01*
X58694995Y-61048820D01*
X58729554Y-61067292D01*
X58759847Y-61092153D01*
X58784708Y-61122446D01*
X58803180Y-61157005D01*
X58814555Y-61194501D01*
X58819000Y-61239638D01*
X58819000Y-61978362D01*
X58814555Y-62023499D01*
X58803180Y-62060995D01*
X58784708Y-62095554D01*
X58759847Y-62125847D01*
X58729554Y-62150708D01*
X58694995Y-62169180D01*
X58657499Y-62180555D01*
X58612362Y-62185000D01*
X57973638Y-62185000D01*
X57928501Y-62180555D01*
X57891005Y-62169180D01*
X57856446Y-62150708D01*
X57826153Y-62125847D01*
X57801292Y-62095554D01*
X57782820Y-62060995D01*
X57771445Y-62023499D01*
X57767000Y-61978362D01*
X57767000Y-61239638D01*
X57771445Y-61194501D01*
X57782820Y-61157005D01*
X57801292Y-61122446D01*
X57826153Y-61092153D01*
X57856446Y-61067292D01*
X57891005Y-61048820D01*
X57928501Y-61037445D01*
X57973638Y-61033000D01*
X58612362Y-61033000D01*
X58657499Y-61037445D01*
X58657499Y-61037445D01*
G37*
G36*
X74850499Y-60311445D02*
G01*
X74887995Y-60322820D01*
X74922554Y-60341292D01*
X74952847Y-60366153D01*
X74977708Y-60396446D01*
X74996180Y-60431005D01*
X75007555Y-60468501D01*
X75012000Y-60513638D01*
X75012000Y-61152362D01*
X75007555Y-61197499D01*
X74996180Y-61234995D01*
X74977708Y-61269554D01*
X74952847Y-61299847D01*
X74922554Y-61324708D01*
X74887995Y-61343180D01*
X74850499Y-61354555D01*
X74805362Y-61359000D01*
X74066638Y-61359000D01*
X74021501Y-61354555D01*
X73984005Y-61343180D01*
X73949446Y-61324708D01*
X73919153Y-61299847D01*
X73894292Y-61269554D01*
X73875820Y-61234995D01*
X73864445Y-61197499D01*
X73860000Y-61152362D01*
X73860000Y-60513638D01*
X73864445Y-60468501D01*
X73875820Y-60431005D01*
X73894292Y-60396446D01*
X73919153Y-60366153D01*
X73949446Y-60341292D01*
X73984005Y-60322820D01*
X74021501Y-60311445D01*
X74066638Y-60307000D01*
X74805362Y-60307000D01*
X74850499Y-60311445D01*
X74850499Y-60311445D01*
G37*
G36*
X76600499Y-60311445D02*
G01*
X76637995Y-60322820D01*
X76672554Y-60341292D01*
X76702847Y-60366153D01*
X76727708Y-60396446D01*
X76746180Y-60431005D01*
X76757555Y-60468501D01*
X76762000Y-60513638D01*
X76762000Y-61152362D01*
X76757555Y-61197499D01*
X76746180Y-61234995D01*
X76727708Y-61269554D01*
X76702847Y-61299847D01*
X76672554Y-61324708D01*
X76637995Y-61343180D01*
X76600499Y-61354555D01*
X76555362Y-61359000D01*
X75816638Y-61359000D01*
X75771501Y-61354555D01*
X75734005Y-61343180D01*
X75699446Y-61324708D01*
X75669153Y-61299847D01*
X75644292Y-61269554D01*
X75625820Y-61234995D01*
X75614445Y-61197499D01*
X75610000Y-61152362D01*
X75610000Y-60513638D01*
X75614445Y-60468501D01*
X75625820Y-60431005D01*
X75644292Y-60396446D01*
X75669153Y-60366153D01*
X75699446Y-60341292D01*
X75734005Y-60322820D01*
X75771501Y-60311445D01*
X75816638Y-60307000D01*
X76555362Y-60307000D01*
X76600499Y-60311445D01*
X76600499Y-60311445D01*
G37*
G36*
X71226938Y-60591716D02*
G01*
X71247557Y-60597971D01*
X71266553Y-60608124D01*
X71283208Y-60621792D01*
X71296876Y-60638447D01*
X71307029Y-60657443D01*
X71313284Y-60678062D01*
X71316000Y-60705640D01*
X71316000Y-61214360D01*
X71313284Y-61241938D01*
X71307029Y-61262557D01*
X71296876Y-61281553D01*
X71283208Y-61298208D01*
X71266553Y-61311876D01*
X71247557Y-61322029D01*
X71226938Y-61328284D01*
X71199360Y-61331000D01*
X70740640Y-61331000D01*
X70713062Y-61328284D01*
X70692443Y-61322029D01*
X70673447Y-61311876D01*
X70656792Y-61298208D01*
X70643124Y-61281553D01*
X70632971Y-61262557D01*
X70626716Y-61241938D01*
X70624000Y-61214360D01*
X70624000Y-60705640D01*
X70626716Y-60678062D01*
X70632971Y-60657443D01*
X70643124Y-60638447D01*
X70656792Y-60621792D01*
X70673447Y-60608124D01*
X70692443Y-60597971D01*
X70713062Y-60591716D01*
X70740640Y-60589000D01*
X71199360Y-60589000D01*
X71226938Y-60591716D01*
X71226938Y-60591716D01*
G37*
G36*
X70256938Y-60591716D02*
G01*
X70277557Y-60597971D01*
X70296553Y-60608124D01*
X70313208Y-60621792D01*
X70326876Y-60638447D01*
X70337029Y-60657443D01*
X70343284Y-60678062D01*
X70346000Y-60705640D01*
X70346000Y-61214360D01*
X70343284Y-61241938D01*
X70337029Y-61262557D01*
X70326876Y-61281553D01*
X70313208Y-61298208D01*
X70296553Y-61311876D01*
X70277557Y-61322029D01*
X70256938Y-61328284D01*
X70229360Y-61331000D01*
X69770640Y-61331000D01*
X69743062Y-61328284D01*
X69722443Y-61322029D01*
X69703447Y-61311876D01*
X69686792Y-61298208D01*
X69673124Y-61281553D01*
X69662971Y-61262557D01*
X69656716Y-61241938D01*
X69654000Y-61214360D01*
X69654000Y-60705640D01*
X69656716Y-60678062D01*
X69662971Y-60657443D01*
X69673124Y-60638447D01*
X69686792Y-60621792D01*
X69703447Y-60608124D01*
X69722443Y-60597971D01*
X69743062Y-60591716D01*
X69770640Y-60589000D01*
X70229360Y-60589000D01*
X70256938Y-60591716D01*
X70256938Y-60591716D01*
G37*
G36*
X58340499Y-59422445D02*
G01*
X58377995Y-59433820D01*
X58412554Y-59452292D01*
X58442847Y-59477153D01*
X58467708Y-59507446D01*
X58486180Y-59542005D01*
X58497555Y-59579501D01*
X58502000Y-59624638D01*
X58502000Y-60263362D01*
X58497555Y-60308499D01*
X58486180Y-60345995D01*
X58467708Y-60380554D01*
X58442847Y-60410847D01*
X58412554Y-60435708D01*
X58377995Y-60454180D01*
X58340499Y-60465555D01*
X58295362Y-60470000D01*
X57556638Y-60470000D01*
X57511501Y-60465555D01*
X57474005Y-60454180D01*
X57439446Y-60435708D01*
X57409153Y-60410847D01*
X57384292Y-60380554D01*
X57365820Y-60345995D01*
X57354445Y-60308499D01*
X57350000Y-60263362D01*
X57350000Y-59624638D01*
X57354445Y-59579501D01*
X57365820Y-59542005D01*
X57384292Y-59507446D01*
X57409153Y-59477153D01*
X57439446Y-59452292D01*
X57474005Y-59433820D01*
X57511501Y-59422445D01*
X57556638Y-59418000D01*
X58295362Y-59418000D01*
X58340499Y-59422445D01*
X58340499Y-59422445D01*
G37*
G36*
X60090499Y-59422445D02*
G01*
X60127995Y-59433820D01*
X60162554Y-59452292D01*
X60192847Y-59477153D01*
X60217708Y-59507446D01*
X60236180Y-59542005D01*
X60247555Y-59579501D01*
X60252000Y-59624638D01*
X60252000Y-60263362D01*
X60247555Y-60308499D01*
X60236180Y-60345995D01*
X60217708Y-60380554D01*
X60192847Y-60410847D01*
X60162554Y-60435708D01*
X60127995Y-60454180D01*
X60090499Y-60465555D01*
X60045362Y-60470000D01*
X59306638Y-60470000D01*
X59261501Y-60465555D01*
X59224005Y-60454180D01*
X59189446Y-60435708D01*
X59159153Y-60410847D01*
X59134292Y-60380554D01*
X59115820Y-60345995D01*
X59104445Y-60308499D01*
X59100000Y-60263362D01*
X59100000Y-59624638D01*
X59104445Y-59579501D01*
X59115820Y-59542005D01*
X59134292Y-59507446D01*
X59159153Y-59477153D01*
X59189446Y-59452292D01*
X59224005Y-59433820D01*
X59261501Y-59422445D01*
X59306638Y-59418000D01*
X60045362Y-59418000D01*
X60090499Y-59422445D01*
X60090499Y-59422445D01*
G37*
G36*
X51545442Y-58160518D02*
G01*
X51611627Y-58167037D01*
X51781466Y-58218557D01*
X51937991Y-58302222D01*
X51938545Y-58302677D01*
X52075186Y-58414814D01*
X52158448Y-58516271D01*
X52187778Y-58552009D01*
X52271443Y-58708534D01*
X52322963Y-58878373D01*
X52340359Y-59055000D01*
X52322963Y-59231627D01*
X52271443Y-59401466D01*
X52187778Y-59557991D01*
X52170125Y-59579501D01*
X52075186Y-59695186D01*
X51973729Y-59778448D01*
X51937991Y-59807778D01*
X51781466Y-59891443D01*
X51611627Y-59942963D01*
X51545442Y-59949482D01*
X51479260Y-59956000D01*
X51390740Y-59956000D01*
X51324558Y-59949482D01*
X51258373Y-59942963D01*
X51088534Y-59891443D01*
X50932009Y-59807778D01*
X50896271Y-59778448D01*
X50794814Y-59695186D01*
X50699875Y-59579501D01*
X50682222Y-59557991D01*
X50598557Y-59401466D01*
X50547037Y-59231627D01*
X50529641Y-59055000D01*
X50547037Y-58878373D01*
X50598557Y-58708534D01*
X50682222Y-58552009D01*
X50711552Y-58516271D01*
X50794814Y-58414814D01*
X50931455Y-58302677D01*
X50932009Y-58302222D01*
X51088534Y-58218557D01*
X51258373Y-58167037D01*
X51324558Y-58160518D01*
X51390740Y-58154000D01*
X51479260Y-58154000D01*
X51545442Y-58160518D01*
X51545442Y-58160518D01*
G37*
G36*
X49005442Y-58160518D02*
G01*
X49071627Y-58167037D01*
X49241466Y-58218557D01*
X49397991Y-58302222D01*
X49398545Y-58302677D01*
X49535186Y-58414814D01*
X49618448Y-58516271D01*
X49647778Y-58552009D01*
X49731443Y-58708534D01*
X49782963Y-58878373D01*
X49800359Y-59055000D01*
X49782963Y-59231627D01*
X49731443Y-59401466D01*
X49647778Y-59557991D01*
X49630125Y-59579501D01*
X49535186Y-59695186D01*
X49433729Y-59778448D01*
X49397991Y-59807778D01*
X49241466Y-59891443D01*
X49071627Y-59942963D01*
X49005442Y-59949482D01*
X48939260Y-59956000D01*
X48850740Y-59956000D01*
X48784558Y-59949482D01*
X48718373Y-59942963D01*
X48548534Y-59891443D01*
X48392009Y-59807778D01*
X48356271Y-59778448D01*
X48254814Y-59695186D01*
X48159875Y-59579501D01*
X48142222Y-59557991D01*
X48058557Y-59401466D01*
X48007037Y-59231627D01*
X47989641Y-59055000D01*
X48007037Y-58878373D01*
X48058557Y-58708534D01*
X48142222Y-58552009D01*
X48171552Y-58516271D01*
X48254814Y-58414814D01*
X48391455Y-58302677D01*
X48392009Y-58302222D01*
X48548534Y-58218557D01*
X48718373Y-58167037D01*
X48784558Y-58160518D01*
X48850740Y-58154000D01*
X48939260Y-58154000D01*
X49005442Y-58160518D01*
X49005442Y-58160518D01*
G37*
G36*
X74836499Y-58660445D02*
G01*
X74873995Y-58671820D01*
X74908554Y-58690292D01*
X74938847Y-58715153D01*
X74963708Y-58745446D01*
X74982180Y-58780005D01*
X74993555Y-58817501D01*
X74998000Y-58862638D01*
X74998000Y-59501362D01*
X74993555Y-59546499D01*
X74982180Y-59583995D01*
X74963708Y-59618554D01*
X74938847Y-59648847D01*
X74908554Y-59673708D01*
X74873995Y-59692180D01*
X74836499Y-59703555D01*
X74791362Y-59708000D01*
X74052638Y-59708000D01*
X74007501Y-59703555D01*
X73970005Y-59692180D01*
X73935446Y-59673708D01*
X73905153Y-59648847D01*
X73880292Y-59618554D01*
X73861820Y-59583995D01*
X73850445Y-59546499D01*
X73846000Y-59501362D01*
X73846000Y-58862638D01*
X73850445Y-58817501D01*
X73861820Y-58780005D01*
X73880292Y-58745446D01*
X73905153Y-58715153D01*
X73935446Y-58690292D01*
X73970005Y-58671820D01*
X74007501Y-58660445D01*
X74052638Y-58656000D01*
X74791362Y-58656000D01*
X74836499Y-58660445D01*
X74836499Y-58660445D01*
G37*
G36*
X76586499Y-58660445D02*
G01*
X76623995Y-58671820D01*
X76658554Y-58690292D01*
X76688847Y-58715153D01*
X76713708Y-58745446D01*
X76732180Y-58780005D01*
X76743555Y-58817501D01*
X76748000Y-58862638D01*
X76748000Y-59501362D01*
X76743555Y-59546499D01*
X76732180Y-59583995D01*
X76713708Y-59618554D01*
X76688847Y-59648847D01*
X76658554Y-59673708D01*
X76623995Y-59692180D01*
X76586499Y-59703555D01*
X76541362Y-59708000D01*
X75802638Y-59708000D01*
X75757501Y-59703555D01*
X75720005Y-59692180D01*
X75685446Y-59673708D01*
X75655153Y-59648847D01*
X75630292Y-59618554D01*
X75611820Y-59583995D01*
X75600445Y-59546499D01*
X75596000Y-59501362D01*
X75596000Y-58862638D01*
X75600445Y-58817501D01*
X75611820Y-58780005D01*
X75630292Y-58745446D01*
X75655153Y-58715153D01*
X75685446Y-58690292D01*
X75720005Y-58671820D01*
X75757501Y-58660445D01*
X75802638Y-58656000D01*
X76541362Y-58656000D01*
X76586499Y-58660445D01*
X76586499Y-58660445D01*
G37*
G36*
X60090499Y-57898445D02*
G01*
X60127995Y-57909820D01*
X60162554Y-57928292D01*
X60192847Y-57953153D01*
X60217708Y-57983446D01*
X60236180Y-58018005D01*
X60247555Y-58055501D01*
X60252000Y-58100638D01*
X60252000Y-58739362D01*
X60247555Y-58784499D01*
X60236180Y-58821995D01*
X60217708Y-58856554D01*
X60192847Y-58886847D01*
X60162554Y-58911708D01*
X60127995Y-58930180D01*
X60090499Y-58941555D01*
X60045362Y-58946000D01*
X59306638Y-58946000D01*
X59261501Y-58941555D01*
X59224005Y-58930180D01*
X59189446Y-58911708D01*
X59159153Y-58886847D01*
X59134292Y-58856554D01*
X59115820Y-58821995D01*
X59104445Y-58784499D01*
X59100000Y-58739362D01*
X59100000Y-58100638D01*
X59104445Y-58055501D01*
X59115820Y-58018005D01*
X59134292Y-57983446D01*
X59159153Y-57953153D01*
X59189446Y-57928292D01*
X59224005Y-57909820D01*
X59261501Y-57898445D01*
X59306638Y-57894000D01*
X60045362Y-57894000D01*
X60090499Y-57898445D01*
X60090499Y-57898445D01*
G37*
G36*
X58340499Y-57898445D02*
G01*
X58377995Y-57909820D01*
X58412554Y-57928292D01*
X58442847Y-57953153D01*
X58467708Y-57983446D01*
X58486180Y-58018005D01*
X58497555Y-58055501D01*
X58502000Y-58100638D01*
X58502000Y-58739362D01*
X58497555Y-58784499D01*
X58486180Y-58821995D01*
X58467708Y-58856554D01*
X58442847Y-58886847D01*
X58412554Y-58911708D01*
X58377995Y-58930180D01*
X58340499Y-58941555D01*
X58295362Y-58946000D01*
X57556638Y-58946000D01*
X57511501Y-58941555D01*
X57474005Y-58930180D01*
X57439446Y-58911708D01*
X57409153Y-58886847D01*
X57384292Y-58856554D01*
X57365820Y-58821995D01*
X57354445Y-58784499D01*
X57350000Y-58739362D01*
X57350000Y-58100638D01*
X57354445Y-58055501D01*
X57365820Y-58018005D01*
X57384292Y-57983446D01*
X57409153Y-57953153D01*
X57439446Y-57928292D01*
X57474005Y-57909820D01*
X57511501Y-57898445D01*
X57556638Y-57894000D01*
X58295362Y-57894000D01*
X58340499Y-57898445D01*
X58340499Y-57898445D01*
G37*
G36*
X70849499Y-57199445D02*
G01*
X70886995Y-57210820D01*
X70921554Y-57229292D01*
X70951847Y-57254153D01*
X70976708Y-57284446D01*
X70995180Y-57319005D01*
X71006555Y-57356501D01*
X71011000Y-57401638D01*
X71011000Y-58140362D01*
X71006555Y-58185499D01*
X70995180Y-58222995D01*
X70976708Y-58257554D01*
X70951847Y-58287847D01*
X70921554Y-58312708D01*
X70886995Y-58331180D01*
X70849499Y-58342555D01*
X70804362Y-58347000D01*
X70165638Y-58347000D01*
X70120501Y-58342555D01*
X70083005Y-58331180D01*
X70048446Y-58312708D01*
X70018153Y-58287847D01*
X69993292Y-58257554D01*
X69974820Y-58222995D01*
X69963445Y-58185499D01*
X69959000Y-58140362D01*
X69959000Y-57401638D01*
X69963445Y-57356501D01*
X69974820Y-57319005D01*
X69993292Y-57284446D01*
X70018153Y-57254153D01*
X70048446Y-57229292D01*
X70083005Y-57210820D01*
X70120501Y-57199445D01*
X70165638Y-57195000D01*
X70804362Y-57195000D01*
X70849499Y-57199445D01*
X70849499Y-57199445D01*
G37*
G36*
X72373499Y-57199445D02*
G01*
X72410995Y-57210820D01*
X72445554Y-57229292D01*
X72475847Y-57254153D01*
X72500708Y-57284446D01*
X72519180Y-57319005D01*
X72530555Y-57356501D01*
X72535000Y-57401638D01*
X72535000Y-58140362D01*
X72530555Y-58185499D01*
X72519180Y-58222995D01*
X72500708Y-58257554D01*
X72475847Y-58287847D01*
X72445554Y-58312708D01*
X72410995Y-58331180D01*
X72373499Y-58342555D01*
X72328362Y-58347000D01*
X71689638Y-58347000D01*
X71644501Y-58342555D01*
X71607005Y-58331180D01*
X71572446Y-58312708D01*
X71542153Y-58287847D01*
X71517292Y-58257554D01*
X71498820Y-58222995D01*
X71487445Y-58185499D01*
X71483000Y-58140362D01*
X71483000Y-57401638D01*
X71487445Y-57356501D01*
X71498820Y-57319005D01*
X71517292Y-57284446D01*
X71542153Y-57254153D01*
X71572446Y-57229292D01*
X71607005Y-57210820D01*
X71644501Y-57199445D01*
X71689638Y-57195000D01*
X72328362Y-57195000D01*
X72373499Y-57199445D01*
X72373499Y-57199445D01*
G37*
G36*
X60090499Y-56374445D02*
G01*
X60127995Y-56385820D01*
X60162554Y-56404292D01*
X60192847Y-56429153D01*
X60217708Y-56459446D01*
X60236180Y-56494005D01*
X60247555Y-56531501D01*
X60252000Y-56576638D01*
X60252000Y-57215362D01*
X60247555Y-57260499D01*
X60236180Y-57297995D01*
X60217708Y-57332554D01*
X60192847Y-57362847D01*
X60162554Y-57387708D01*
X60127995Y-57406180D01*
X60090499Y-57417555D01*
X60045362Y-57422000D01*
X59306638Y-57422000D01*
X59261501Y-57417555D01*
X59224005Y-57406180D01*
X59189446Y-57387708D01*
X59159153Y-57362847D01*
X59134292Y-57332554D01*
X59115820Y-57297995D01*
X59104445Y-57260499D01*
X59100000Y-57215362D01*
X59100000Y-56576638D01*
X59104445Y-56531501D01*
X59115820Y-56494005D01*
X59134292Y-56459446D01*
X59159153Y-56429153D01*
X59189446Y-56404292D01*
X59224005Y-56385820D01*
X59261501Y-56374445D01*
X59306638Y-56370000D01*
X60045362Y-56370000D01*
X60090499Y-56374445D01*
X60090499Y-56374445D01*
G37*
G36*
X58340499Y-56374445D02*
G01*
X58377995Y-56385820D01*
X58412554Y-56404292D01*
X58442847Y-56429153D01*
X58467708Y-56459446D01*
X58486180Y-56494005D01*
X58497555Y-56531501D01*
X58502000Y-56576638D01*
X58502000Y-57215362D01*
X58497555Y-57260499D01*
X58486180Y-57297995D01*
X58467708Y-57332554D01*
X58442847Y-57362847D01*
X58412554Y-57387708D01*
X58377995Y-57406180D01*
X58340499Y-57417555D01*
X58295362Y-57422000D01*
X57556638Y-57422000D01*
X57511501Y-57417555D01*
X57474005Y-57406180D01*
X57439446Y-57387708D01*
X57409153Y-57362847D01*
X57384292Y-57332554D01*
X57365820Y-57297995D01*
X57354445Y-57260499D01*
X57350000Y-57215362D01*
X57350000Y-56576638D01*
X57354445Y-56531501D01*
X57365820Y-56494005D01*
X57384292Y-56459446D01*
X57409153Y-56429153D01*
X57439446Y-56404292D01*
X57474005Y-56385820D01*
X57511501Y-56374445D01*
X57556638Y-56370000D01*
X58295362Y-56370000D01*
X58340499Y-56374445D01*
X58340499Y-56374445D01*
G37*
G36*
X51545443Y-55620519D02*
G01*
X51611627Y-55627037D01*
X51781466Y-55678557D01*
X51937991Y-55762222D01*
X51952336Y-55773995D01*
X52075186Y-55874814D01*
X52158448Y-55976271D01*
X52187778Y-56012009D01*
X52271443Y-56168534D01*
X52322963Y-56338373D01*
X52340359Y-56515000D01*
X52322963Y-56691627D01*
X52271443Y-56861466D01*
X52187778Y-57017991D01*
X52158448Y-57053729D01*
X52075186Y-57155186D01*
X52001860Y-57215362D01*
X51937991Y-57267778D01*
X51781466Y-57351443D01*
X51611627Y-57402963D01*
X51573775Y-57406691D01*
X51479260Y-57416000D01*
X51390740Y-57416000D01*
X51296225Y-57406691D01*
X51258373Y-57402963D01*
X51088534Y-57351443D01*
X50932009Y-57267778D01*
X50868140Y-57215362D01*
X50794814Y-57155186D01*
X50711552Y-57053729D01*
X50682222Y-57017991D01*
X50598557Y-56861466D01*
X50547037Y-56691627D01*
X50529641Y-56515000D01*
X50547037Y-56338373D01*
X50598557Y-56168534D01*
X50682222Y-56012009D01*
X50711552Y-55976271D01*
X50794814Y-55874814D01*
X50917664Y-55773995D01*
X50932009Y-55762222D01*
X51088534Y-55678557D01*
X51258373Y-55627037D01*
X51324557Y-55620519D01*
X51390740Y-55614000D01*
X51479260Y-55614000D01*
X51545443Y-55620519D01*
X51545443Y-55620519D01*
G37*
G36*
X49005443Y-55620519D02*
G01*
X49071627Y-55627037D01*
X49241466Y-55678557D01*
X49397991Y-55762222D01*
X49412336Y-55773995D01*
X49535186Y-55874814D01*
X49618448Y-55976271D01*
X49647778Y-56012009D01*
X49731443Y-56168534D01*
X49782963Y-56338373D01*
X49800359Y-56515000D01*
X49782963Y-56691627D01*
X49731443Y-56861466D01*
X49647778Y-57017991D01*
X49618448Y-57053729D01*
X49535186Y-57155186D01*
X49461860Y-57215362D01*
X49397991Y-57267778D01*
X49241466Y-57351443D01*
X49071627Y-57402963D01*
X49033775Y-57406691D01*
X48939260Y-57416000D01*
X48850740Y-57416000D01*
X48756225Y-57406691D01*
X48718373Y-57402963D01*
X48548534Y-57351443D01*
X48392009Y-57267778D01*
X48328140Y-57215362D01*
X48254814Y-57155186D01*
X48171552Y-57053729D01*
X48142222Y-57017991D01*
X48058557Y-56861466D01*
X48007037Y-56691627D01*
X47989641Y-56515000D01*
X48007037Y-56338373D01*
X48058557Y-56168534D01*
X48142222Y-56012009D01*
X48171552Y-55976271D01*
X48254814Y-55874814D01*
X48377664Y-55773995D01*
X48392009Y-55762222D01*
X48548534Y-55678557D01*
X48718373Y-55627037D01*
X48784557Y-55620519D01*
X48850740Y-55614000D01*
X48939260Y-55614000D01*
X49005443Y-55620519D01*
X49005443Y-55620519D01*
G37*
G36*
X72373499Y-55449445D02*
G01*
X72410995Y-55460820D01*
X72445554Y-55479292D01*
X72475847Y-55504153D01*
X72500708Y-55534446D01*
X72519180Y-55569005D01*
X72530555Y-55606501D01*
X72535000Y-55651638D01*
X72535000Y-56390362D01*
X72530555Y-56435499D01*
X72519180Y-56472995D01*
X72500708Y-56507554D01*
X72475847Y-56537847D01*
X72445554Y-56562708D01*
X72410995Y-56581180D01*
X72373499Y-56592555D01*
X72328362Y-56597000D01*
X71689638Y-56597000D01*
X71644501Y-56592555D01*
X71607005Y-56581180D01*
X71572446Y-56562708D01*
X71542153Y-56537847D01*
X71517292Y-56507554D01*
X71498820Y-56472995D01*
X71487445Y-56435499D01*
X71483000Y-56390362D01*
X71483000Y-55651638D01*
X71487445Y-55606501D01*
X71498820Y-55569005D01*
X71517292Y-55534446D01*
X71542153Y-55504153D01*
X71572446Y-55479292D01*
X71607005Y-55460820D01*
X71644501Y-55449445D01*
X71689638Y-55445000D01*
X72328362Y-55445000D01*
X72373499Y-55449445D01*
X72373499Y-55449445D01*
G37*
G36*
X70849499Y-55449445D02*
G01*
X70886995Y-55460820D01*
X70921554Y-55479292D01*
X70951847Y-55504153D01*
X70976708Y-55534446D01*
X70995180Y-55569005D01*
X71006555Y-55606501D01*
X71011000Y-55651638D01*
X71011000Y-56390362D01*
X71006555Y-56435499D01*
X70995180Y-56472995D01*
X70976708Y-56507554D01*
X70951847Y-56537847D01*
X70921554Y-56562708D01*
X70886995Y-56581180D01*
X70849499Y-56592555D01*
X70804362Y-56597000D01*
X70165638Y-56597000D01*
X70120501Y-56592555D01*
X70083005Y-56581180D01*
X70048446Y-56562708D01*
X70018153Y-56537847D01*
X69993292Y-56507554D01*
X69974820Y-56472995D01*
X69963445Y-56435499D01*
X69959000Y-56390362D01*
X69959000Y-55651638D01*
X69963445Y-55606501D01*
X69974820Y-55569005D01*
X69993292Y-55534446D01*
X70018153Y-55504153D01*
X70048446Y-55479292D01*
X70083005Y-55460820D01*
X70120501Y-55449445D01*
X70165638Y-55445000D01*
X70804362Y-55445000D01*
X70849499Y-55449445D01*
X70849499Y-55449445D01*
G37*
G36*
X60090499Y-54850445D02*
G01*
X60127995Y-54861820D01*
X60162554Y-54880292D01*
X60192847Y-54905153D01*
X60217708Y-54935446D01*
X60236180Y-54970005D01*
X60247555Y-55007501D01*
X60252000Y-55052638D01*
X60252000Y-55691362D01*
X60247555Y-55736499D01*
X60236180Y-55773995D01*
X60217708Y-55808554D01*
X60192847Y-55838847D01*
X60162554Y-55863708D01*
X60127995Y-55882180D01*
X60090499Y-55893555D01*
X60045362Y-55898000D01*
X59306638Y-55898000D01*
X59261501Y-55893555D01*
X59224005Y-55882180D01*
X59189446Y-55863708D01*
X59159153Y-55838847D01*
X59134292Y-55808554D01*
X59115820Y-55773995D01*
X59104445Y-55736499D01*
X59100000Y-55691362D01*
X59100000Y-55052638D01*
X59104445Y-55007501D01*
X59115820Y-54970005D01*
X59134292Y-54935446D01*
X59159153Y-54905153D01*
X59189446Y-54880292D01*
X59224005Y-54861820D01*
X59261501Y-54850445D01*
X59306638Y-54846000D01*
X60045362Y-54846000D01*
X60090499Y-54850445D01*
X60090499Y-54850445D01*
G37*
G36*
X58340499Y-54850445D02*
G01*
X58377995Y-54861820D01*
X58412554Y-54880292D01*
X58442847Y-54905153D01*
X58467708Y-54935446D01*
X58486180Y-54970005D01*
X58497555Y-55007501D01*
X58502000Y-55052638D01*
X58502000Y-55691362D01*
X58497555Y-55736499D01*
X58486180Y-55773995D01*
X58467708Y-55808554D01*
X58442847Y-55838847D01*
X58412554Y-55863708D01*
X58377995Y-55882180D01*
X58340499Y-55893555D01*
X58295362Y-55898000D01*
X57556638Y-55898000D01*
X57511501Y-55893555D01*
X57474005Y-55882180D01*
X57439446Y-55863708D01*
X57409153Y-55838847D01*
X57384292Y-55808554D01*
X57365820Y-55773995D01*
X57354445Y-55736499D01*
X57350000Y-55691362D01*
X57350000Y-55052638D01*
X57354445Y-55007501D01*
X57365820Y-54970005D01*
X57384292Y-54935446D01*
X57409153Y-54905153D01*
X57439446Y-54880292D01*
X57474005Y-54861820D01*
X57511501Y-54850445D01*
X57556638Y-54846000D01*
X58295362Y-54846000D01*
X58340499Y-54850445D01*
X58340499Y-54850445D01*
G37*
G36*
X49002493Y-53080228D02*
G01*
X49071627Y-53087037D01*
X49241466Y-53138557D01*
X49397991Y-53222222D01*
X49433729Y-53251552D01*
X49535186Y-53334814D01*
X49599549Y-53413242D01*
X49647778Y-53472009D01*
X49731443Y-53628534D01*
X49782963Y-53798373D01*
X49800359Y-53975000D01*
X49782963Y-54151627D01*
X49731443Y-54321466D01*
X49647778Y-54477991D01*
X49618448Y-54513729D01*
X49535186Y-54615186D01*
X49433729Y-54698448D01*
X49397991Y-54727778D01*
X49241466Y-54811443D01*
X49071627Y-54862963D01*
X49005443Y-54869481D01*
X48939260Y-54876000D01*
X48850740Y-54876000D01*
X48784557Y-54869481D01*
X48718373Y-54862963D01*
X48548534Y-54811443D01*
X48392009Y-54727778D01*
X48356271Y-54698448D01*
X48254814Y-54615186D01*
X48171552Y-54513729D01*
X48142222Y-54477991D01*
X48058557Y-54321466D01*
X48007037Y-54151627D01*
X47989641Y-53975000D01*
X48007037Y-53798373D01*
X48058557Y-53628534D01*
X48142222Y-53472009D01*
X48190451Y-53413242D01*
X48254814Y-53334814D01*
X48356271Y-53251552D01*
X48392009Y-53222222D01*
X48548534Y-53138557D01*
X48718373Y-53087037D01*
X48787507Y-53080228D01*
X48850740Y-53074000D01*
X48939260Y-53074000D01*
X49002493Y-53080228D01*
X49002493Y-53080228D01*
G37*
G36*
X51542493Y-53080228D02*
G01*
X51611627Y-53087037D01*
X51781466Y-53138557D01*
X51937991Y-53222222D01*
X51973729Y-53251552D01*
X52075186Y-53334814D01*
X52139549Y-53413242D01*
X52187778Y-53472009D01*
X52271443Y-53628534D01*
X52322963Y-53798373D01*
X52340359Y-53975000D01*
X52322963Y-54151627D01*
X52271443Y-54321466D01*
X52187778Y-54477991D01*
X52158448Y-54513729D01*
X52075186Y-54615186D01*
X51973729Y-54698448D01*
X51937991Y-54727778D01*
X51781466Y-54811443D01*
X51611627Y-54862963D01*
X51545443Y-54869481D01*
X51479260Y-54876000D01*
X51390740Y-54876000D01*
X51324557Y-54869481D01*
X51258373Y-54862963D01*
X51088534Y-54811443D01*
X50932009Y-54727778D01*
X50896271Y-54698448D01*
X50794814Y-54615186D01*
X50711552Y-54513729D01*
X50682222Y-54477991D01*
X50598557Y-54321466D01*
X50547037Y-54151627D01*
X50529641Y-53975000D01*
X50547037Y-53798373D01*
X50598557Y-53628534D01*
X50682222Y-53472009D01*
X50730451Y-53413242D01*
X50794814Y-53334814D01*
X50896271Y-53251552D01*
X50932009Y-53222222D01*
X51088534Y-53138557D01*
X51258373Y-53087037D01*
X51327507Y-53080228D01*
X51390740Y-53074000D01*
X51479260Y-53074000D01*
X51542493Y-53080228D01*
X51542493Y-53080228D01*
G37*
G36*
X66079823Y-52247313D02*
G01*
X66240242Y-52295976D01*
X66372906Y-52366886D01*
X66388078Y-52374996D01*
X66517659Y-52481341D01*
X66624004Y-52610922D01*
X66624005Y-52610924D01*
X66703024Y-52758758D01*
X66751687Y-52919177D01*
X66768117Y-53086000D01*
X66751687Y-53252823D01*
X66703024Y-53413242D01*
X66671612Y-53472009D01*
X66624004Y-53561078D01*
X66517659Y-53690659D01*
X66388078Y-53797004D01*
X66388076Y-53797005D01*
X66240242Y-53876024D01*
X66079823Y-53924687D01*
X65954804Y-53937000D01*
X65871196Y-53937000D01*
X65746177Y-53924687D01*
X65585758Y-53876024D01*
X65437924Y-53797005D01*
X65437922Y-53797004D01*
X65308341Y-53690659D01*
X65201996Y-53561078D01*
X65154388Y-53472009D01*
X65122976Y-53413242D01*
X65074313Y-53252823D01*
X65057883Y-53086000D01*
X65074313Y-52919177D01*
X65122976Y-52758758D01*
X65201995Y-52610924D01*
X65201996Y-52610922D01*
X65308341Y-52481341D01*
X65437922Y-52374996D01*
X65453094Y-52366886D01*
X65585758Y-52295976D01*
X65746177Y-52247313D01*
X65871196Y-52235000D01*
X65954804Y-52235000D01*
X66079823Y-52247313D01*
X66079823Y-52247313D01*
G37*
G36*
X58459823Y-52247313D02*
G01*
X58620242Y-52295976D01*
X58752906Y-52366886D01*
X58768078Y-52374996D01*
X58897659Y-52481341D01*
X59004004Y-52610922D01*
X59004005Y-52610924D01*
X59083024Y-52758758D01*
X59131687Y-52919177D01*
X59148117Y-53086000D01*
X59131687Y-53252823D01*
X59083024Y-53413242D01*
X59051612Y-53472009D01*
X59004004Y-53561078D01*
X58897659Y-53690659D01*
X58768078Y-53797004D01*
X58768076Y-53797005D01*
X58620242Y-53876024D01*
X58459823Y-53924687D01*
X58334804Y-53937000D01*
X58251196Y-53937000D01*
X58126177Y-53924687D01*
X57965758Y-53876024D01*
X57817924Y-53797005D01*
X57817922Y-53797004D01*
X57688341Y-53690659D01*
X57581996Y-53561078D01*
X57534388Y-53472009D01*
X57502976Y-53413242D01*
X57454313Y-53252823D01*
X57437883Y-53086000D01*
X57454313Y-52919177D01*
X57502976Y-52758758D01*
X57581995Y-52610924D01*
X57581996Y-52610922D01*
X57688341Y-52481341D01*
X57817922Y-52374996D01*
X57833094Y-52366886D01*
X57965758Y-52295976D01*
X58126177Y-52247313D01*
X58251196Y-52235000D01*
X58334804Y-52235000D01*
X58459823Y-52247313D01*
X58459823Y-52247313D01*
G37*
G36*
X75813228Y-52013703D02*
G01*
X75968100Y-52077853D01*
X76107481Y-52170985D01*
X76226015Y-52289519D01*
X76319147Y-52428900D01*
X76383297Y-52583772D01*
X76416000Y-52748184D01*
X76416000Y-52915816D01*
X76383297Y-53080228D01*
X76319147Y-53235100D01*
X76226015Y-53374481D01*
X76107481Y-53493015D01*
X75968100Y-53586147D01*
X75813228Y-53650297D01*
X75648816Y-53683000D01*
X75481184Y-53683000D01*
X75316772Y-53650297D01*
X75161900Y-53586147D01*
X75022519Y-53493015D01*
X74903985Y-53374481D01*
X74810853Y-53235100D01*
X74746703Y-53080228D01*
X74714000Y-52915816D01*
X74714000Y-52748184D01*
X74746703Y-52583772D01*
X74810853Y-52428900D01*
X74903985Y-52289519D01*
X75022519Y-52170985D01*
X75161900Y-52077853D01*
X75316772Y-52013703D01*
X75481184Y-51981000D01*
X75648816Y-51981000D01*
X75813228Y-52013703D01*
X75813228Y-52013703D01*
G37*
G36*
X80131228Y-52013703D02*
G01*
X80286100Y-52077853D01*
X80425481Y-52170985D01*
X80544015Y-52289519D01*
X80637147Y-52428900D01*
X80701297Y-52583772D01*
X80734000Y-52748184D01*
X80734000Y-52915816D01*
X80701297Y-53080228D01*
X80637147Y-53235100D01*
X80544015Y-53374481D01*
X80425481Y-53493015D01*
X80286100Y-53586147D01*
X80131228Y-53650297D01*
X79966816Y-53683000D01*
X79799184Y-53683000D01*
X79634772Y-53650297D01*
X79479900Y-53586147D01*
X79340519Y-53493015D01*
X79221985Y-53374481D01*
X79128853Y-53235100D01*
X79064703Y-53080228D01*
X79032000Y-52915816D01*
X79032000Y-52748184D01*
X79064703Y-52583772D01*
X79128853Y-52428900D01*
X79221985Y-52289519D01*
X79340519Y-52170985D01*
X79479900Y-52077853D01*
X79634772Y-52013703D01*
X79799184Y-51981000D01*
X79966816Y-51981000D01*
X80131228Y-52013703D01*
X80131228Y-52013703D01*
G37*
G36*
X71357443Y-50921519D02*
G01*
X71423627Y-50928037D01*
X71593466Y-50979557D01*
X71749991Y-51063222D01*
X71785729Y-51092552D01*
X71887186Y-51175814D01*
X71954939Y-51258373D01*
X71999778Y-51313009D01*
X72083443Y-51469534D01*
X72134963Y-51639373D01*
X72152359Y-51816000D01*
X72134963Y-51992627D01*
X72109919Y-52075185D01*
X72083442Y-52162468D01*
X72069913Y-52187778D01*
X71999778Y-52318991D01*
X71996518Y-52322963D01*
X71887186Y-52456186D01*
X71785729Y-52539448D01*
X71749991Y-52568778D01*
X71593466Y-52652443D01*
X71423627Y-52703963D01*
X71357443Y-52710481D01*
X71291260Y-52717000D01*
X71202740Y-52717000D01*
X71136558Y-52710482D01*
X71070373Y-52703963D01*
X70900534Y-52652443D01*
X70744009Y-52568778D01*
X70708271Y-52539448D01*
X70606814Y-52456186D01*
X70497482Y-52322963D01*
X70494222Y-52318991D01*
X70424087Y-52187778D01*
X70410558Y-52162468D01*
X70384081Y-52075185D01*
X70359037Y-51992627D01*
X70341641Y-51816000D01*
X70359037Y-51639373D01*
X70410557Y-51469534D01*
X70494222Y-51313009D01*
X70539061Y-51258373D01*
X70606814Y-51175814D01*
X70708271Y-51092552D01*
X70744009Y-51063222D01*
X70900534Y-50979557D01*
X71070373Y-50928037D01*
X71136557Y-50921519D01*
X71202740Y-50915000D01*
X71291260Y-50915000D01*
X71357443Y-50921519D01*
X71357443Y-50921519D01*
G37*
G36*
X49005442Y-50540518D02*
G01*
X49071627Y-50547037D01*
X49241466Y-50598557D01*
X49397991Y-50682222D01*
X49433729Y-50711552D01*
X49535186Y-50794814D01*
X49618448Y-50896271D01*
X49647778Y-50932009D01*
X49731443Y-51088534D01*
X49782963Y-51258373D01*
X49800359Y-51435000D01*
X49782963Y-51611627D01*
X49731443Y-51781466D01*
X49647778Y-51937991D01*
X49618448Y-51973729D01*
X49535186Y-52075186D01*
X49433729Y-52158448D01*
X49397991Y-52187778D01*
X49241466Y-52271443D01*
X49071627Y-52322963D01*
X49005443Y-52329481D01*
X48939260Y-52336000D01*
X48850740Y-52336000D01*
X48784558Y-52329482D01*
X48718373Y-52322963D01*
X48548534Y-52271443D01*
X48392009Y-52187778D01*
X48356271Y-52158448D01*
X48254814Y-52075186D01*
X48171552Y-51973729D01*
X48142222Y-51937991D01*
X48058557Y-51781466D01*
X48007037Y-51611627D01*
X47989641Y-51435000D01*
X48007037Y-51258373D01*
X48058557Y-51088534D01*
X48142222Y-50932009D01*
X48171552Y-50896271D01*
X48254814Y-50794814D01*
X48356271Y-50711552D01*
X48392009Y-50682222D01*
X48548534Y-50598557D01*
X48718373Y-50547037D01*
X48784558Y-50540518D01*
X48850740Y-50534000D01*
X48939260Y-50534000D01*
X49005442Y-50540518D01*
X49005442Y-50540518D01*
G37*
G36*
X51545442Y-50540518D02*
G01*
X51611627Y-50547037D01*
X51781466Y-50598557D01*
X51937991Y-50682222D01*
X51973729Y-50711552D01*
X52075186Y-50794814D01*
X52158448Y-50896271D01*
X52187778Y-50932009D01*
X52271443Y-51088534D01*
X52322963Y-51258373D01*
X52340359Y-51435000D01*
X52322963Y-51611627D01*
X52271443Y-51781466D01*
X52187778Y-51937991D01*
X52158448Y-51973729D01*
X52075186Y-52075186D01*
X51973729Y-52158448D01*
X51937991Y-52187778D01*
X51781466Y-52271443D01*
X51611627Y-52322963D01*
X51545443Y-52329481D01*
X51479260Y-52336000D01*
X51390740Y-52336000D01*
X51324558Y-52329482D01*
X51258373Y-52322963D01*
X51088534Y-52271443D01*
X50932009Y-52187778D01*
X50896271Y-52158448D01*
X50794814Y-52075186D01*
X50711552Y-51973729D01*
X50682222Y-51937991D01*
X50598557Y-51781466D01*
X50547037Y-51611627D01*
X50529641Y-51435000D01*
X50547037Y-51258373D01*
X50598557Y-51088534D01*
X50682222Y-50932009D01*
X50711552Y-50896271D01*
X50794814Y-50794814D01*
X50896271Y-50711552D01*
X50932009Y-50682222D01*
X51088534Y-50598557D01*
X51258373Y-50547037D01*
X51324558Y-50540518D01*
X51390740Y-50534000D01*
X51479260Y-50534000D01*
X51545442Y-50540518D01*
X51545442Y-50540518D01*
G37*
G36*
X71357442Y-48381518D02*
G01*
X71423627Y-48388037D01*
X71593466Y-48439557D01*
X71749991Y-48523222D01*
X71785729Y-48552552D01*
X71887186Y-48635814D01*
X71954939Y-48718373D01*
X71999778Y-48773009D01*
X72083443Y-48929534D01*
X72134963Y-49099373D01*
X72152359Y-49276000D01*
X72134963Y-49452627D01*
X72083443Y-49622466D01*
X71999778Y-49778991D01*
X71996518Y-49782963D01*
X71887186Y-49916186D01*
X71785729Y-49999448D01*
X71749991Y-50028778D01*
X71593466Y-50112443D01*
X71423627Y-50163963D01*
X71357443Y-50170481D01*
X71291260Y-50177000D01*
X71202740Y-50177000D01*
X71136557Y-50170481D01*
X71070373Y-50163963D01*
X70900534Y-50112443D01*
X70744009Y-50028778D01*
X70708271Y-49999448D01*
X70606814Y-49916186D01*
X70497482Y-49782963D01*
X70494222Y-49778991D01*
X70410557Y-49622466D01*
X70359037Y-49452627D01*
X70341641Y-49276000D01*
X70359037Y-49099373D01*
X70410557Y-48929534D01*
X70494222Y-48773009D01*
X70539061Y-48718373D01*
X70606814Y-48635814D01*
X70708271Y-48552552D01*
X70744009Y-48523222D01*
X70900534Y-48439557D01*
X71070373Y-48388037D01*
X71136558Y-48381518D01*
X71202740Y-48375000D01*
X71291260Y-48375000D01*
X71357442Y-48381518D01*
X71357442Y-48381518D01*
G37*
G36*
X51545442Y-48000518D02*
G01*
X51611627Y-48007037D01*
X51781466Y-48058557D01*
X51937991Y-48142222D01*
X51973729Y-48171552D01*
X52075186Y-48254814D01*
X52158448Y-48356271D01*
X52187778Y-48392009D01*
X52271443Y-48548534D01*
X52322963Y-48718373D01*
X52340359Y-48895000D01*
X52322963Y-49071627D01*
X52271443Y-49241466D01*
X52187778Y-49397991D01*
X52158448Y-49433729D01*
X52075186Y-49535186D01*
X51973729Y-49618448D01*
X51937991Y-49647778D01*
X51781466Y-49731443D01*
X51611627Y-49782963D01*
X51545443Y-49789481D01*
X51479260Y-49796000D01*
X51390740Y-49796000D01*
X51324557Y-49789481D01*
X51258373Y-49782963D01*
X51088534Y-49731443D01*
X50932009Y-49647778D01*
X50896271Y-49618448D01*
X50794814Y-49535186D01*
X50711552Y-49433729D01*
X50682222Y-49397991D01*
X50598557Y-49241466D01*
X50547037Y-49071627D01*
X50529641Y-48895000D01*
X50547037Y-48718373D01*
X50598557Y-48548534D01*
X50682222Y-48392009D01*
X50711552Y-48356271D01*
X50794814Y-48254814D01*
X50896271Y-48171552D01*
X50932009Y-48142222D01*
X51088534Y-48058557D01*
X51258373Y-48007037D01*
X51324557Y-48000519D01*
X51390740Y-47994000D01*
X51479260Y-47994000D01*
X51545442Y-48000518D01*
X51545442Y-48000518D01*
G37*
G36*
X49005442Y-48000518D02*
G01*
X49071627Y-48007037D01*
X49241466Y-48058557D01*
X49397991Y-48142222D01*
X49433729Y-48171552D01*
X49535186Y-48254814D01*
X49618448Y-48356271D01*
X49647778Y-48392009D01*
X49731443Y-48548534D01*
X49782963Y-48718373D01*
X49800359Y-48895000D01*
X49782963Y-49071627D01*
X49731443Y-49241466D01*
X49647778Y-49397991D01*
X49618448Y-49433729D01*
X49535186Y-49535186D01*
X49433729Y-49618448D01*
X49397991Y-49647778D01*
X49241466Y-49731443D01*
X49071627Y-49782963D01*
X49005443Y-49789481D01*
X48939260Y-49796000D01*
X48850740Y-49796000D01*
X48784557Y-49789481D01*
X48718373Y-49782963D01*
X48548534Y-49731443D01*
X48392009Y-49647778D01*
X48356271Y-49618448D01*
X48254814Y-49535186D01*
X48171552Y-49433729D01*
X48142222Y-49397991D01*
X48058557Y-49241466D01*
X48007037Y-49071627D01*
X47989641Y-48895000D01*
X48007037Y-48718373D01*
X48058557Y-48548534D01*
X48142222Y-48392009D01*
X48171552Y-48356271D01*
X48254814Y-48254814D01*
X48356271Y-48171552D01*
X48392009Y-48142222D01*
X48548534Y-48058557D01*
X48718373Y-48007037D01*
X48784558Y-48000518D01*
X48850740Y-47994000D01*
X48939260Y-47994000D01*
X49005442Y-48000518D01*
X49005442Y-48000518D01*
G37*
G36*
X75813228Y-47013703D02*
G01*
X75968100Y-47077853D01*
X76107481Y-47170985D01*
X76226015Y-47289519D01*
X76319147Y-47428900D01*
X76383297Y-47583772D01*
X76416000Y-47748184D01*
X76416000Y-47915816D01*
X76383297Y-48080228D01*
X76319147Y-48235100D01*
X76226015Y-48374481D01*
X76107481Y-48493015D01*
X75968100Y-48586147D01*
X75813228Y-48650297D01*
X75648816Y-48683000D01*
X75481184Y-48683000D01*
X75316772Y-48650297D01*
X75161900Y-48586147D01*
X75022519Y-48493015D01*
X74903985Y-48374481D01*
X74810853Y-48235100D01*
X74746703Y-48080228D01*
X74714000Y-47915816D01*
X74714000Y-47748184D01*
X74746703Y-47583772D01*
X74810853Y-47428900D01*
X74903985Y-47289519D01*
X75022519Y-47170985D01*
X75161900Y-47077853D01*
X75316772Y-47013703D01*
X75481184Y-46981000D01*
X75648816Y-46981000D01*
X75813228Y-47013703D01*
X75813228Y-47013703D01*
G37*
G36*
X80131228Y-47013703D02*
G01*
X80286100Y-47077853D01*
X80425481Y-47170985D01*
X80544015Y-47289519D01*
X80637147Y-47428900D01*
X80701297Y-47583772D01*
X80734000Y-47748184D01*
X80734000Y-47915816D01*
X80701297Y-48080228D01*
X80637147Y-48235100D01*
X80544015Y-48374481D01*
X80425481Y-48493015D01*
X80286100Y-48586147D01*
X80131228Y-48650297D01*
X79966816Y-48683000D01*
X79799184Y-48683000D01*
X79634772Y-48650297D01*
X79479900Y-48586147D01*
X79340519Y-48493015D01*
X79221985Y-48374481D01*
X79128853Y-48235100D01*
X79064703Y-48080228D01*
X79032000Y-47915816D01*
X79032000Y-47748184D01*
X79064703Y-47583772D01*
X79128853Y-47428900D01*
X79221985Y-47289519D01*
X79340519Y-47170985D01*
X79479900Y-47077853D01*
X79634772Y-47013703D01*
X79799184Y-46981000D01*
X79966816Y-46981000D01*
X80131228Y-47013703D01*
X80131228Y-47013703D01*
G37*
G36*
X72148000Y-47637000D02*
G01*
X70346000Y-47637000D01*
X70346000Y-45835000D01*
X72148000Y-45835000D01*
X72148000Y-47637000D01*
X72148000Y-47637000D01*
G37*
G36*
X51545443Y-45460519D02*
G01*
X51611627Y-45467037D01*
X51781466Y-45518557D01*
X51937991Y-45602222D01*
X51973729Y-45631552D01*
X52075186Y-45714814D01*
X52139549Y-45793242D01*
X52187778Y-45852009D01*
X52271443Y-46008534D01*
X52322963Y-46178373D01*
X52340359Y-46355000D01*
X52322963Y-46531627D01*
X52271443Y-46701466D01*
X52187778Y-46857991D01*
X52158448Y-46893729D01*
X52075186Y-46995186D01*
X51974456Y-47077852D01*
X51937991Y-47107778D01*
X51781466Y-47191443D01*
X51611627Y-47242963D01*
X51545442Y-47249482D01*
X51479260Y-47256000D01*
X51390740Y-47256000D01*
X51324558Y-47249482D01*
X51258373Y-47242963D01*
X51088534Y-47191443D01*
X50932009Y-47107778D01*
X50895544Y-47077852D01*
X50794814Y-46995186D01*
X50711552Y-46893729D01*
X50682222Y-46857991D01*
X50598557Y-46701466D01*
X50547037Y-46531627D01*
X50529641Y-46355000D01*
X50547037Y-46178373D01*
X50598557Y-46008534D01*
X50682222Y-45852009D01*
X50730451Y-45793242D01*
X50794814Y-45714814D01*
X50896271Y-45631552D01*
X50932009Y-45602222D01*
X51088534Y-45518557D01*
X51258373Y-45467037D01*
X51324557Y-45460519D01*
X51390740Y-45454000D01*
X51479260Y-45454000D01*
X51545443Y-45460519D01*
X51545443Y-45460519D01*
G37*
G36*
X49005443Y-45460519D02*
G01*
X49071627Y-45467037D01*
X49241466Y-45518557D01*
X49397991Y-45602222D01*
X49433729Y-45631552D01*
X49535186Y-45714814D01*
X49599549Y-45793242D01*
X49647778Y-45852009D01*
X49731443Y-46008534D01*
X49782963Y-46178373D01*
X49800359Y-46355000D01*
X49782963Y-46531627D01*
X49731443Y-46701466D01*
X49647778Y-46857991D01*
X49618448Y-46893729D01*
X49535186Y-46995186D01*
X49434456Y-47077852D01*
X49397991Y-47107778D01*
X49241466Y-47191443D01*
X49071627Y-47242963D01*
X49005442Y-47249482D01*
X48939260Y-47256000D01*
X48850740Y-47256000D01*
X48784558Y-47249482D01*
X48718373Y-47242963D01*
X48548534Y-47191443D01*
X48392009Y-47107778D01*
X48355544Y-47077852D01*
X48254814Y-46995186D01*
X48171552Y-46893729D01*
X48142222Y-46857991D01*
X48058557Y-46701466D01*
X48007037Y-46531627D01*
X47989641Y-46355000D01*
X48007037Y-46178373D01*
X48058557Y-46008534D01*
X48142222Y-45852009D01*
X48190451Y-45793242D01*
X48254814Y-45714814D01*
X48356271Y-45631552D01*
X48392009Y-45602222D01*
X48548534Y-45518557D01*
X48718373Y-45467037D01*
X48784557Y-45460519D01*
X48850740Y-45454000D01*
X48939260Y-45454000D01*
X49005443Y-45460519D01*
X49005443Y-45460519D01*
G37*
G36*
X58459823Y-44627313D02*
G01*
X58620242Y-44675976D01*
X58752906Y-44746886D01*
X58768078Y-44754996D01*
X58897659Y-44861341D01*
X59004004Y-44990922D01*
X59004005Y-44990924D01*
X59083024Y-45138758D01*
X59131687Y-45299177D01*
X59148117Y-45466000D01*
X59131687Y-45632823D01*
X59083024Y-45793242D01*
X59051612Y-45852009D01*
X59004004Y-45941078D01*
X58897659Y-46070659D01*
X58768078Y-46177004D01*
X58768076Y-46177005D01*
X58620242Y-46256024D01*
X58459823Y-46304687D01*
X58334804Y-46317000D01*
X58251196Y-46317000D01*
X58126177Y-46304687D01*
X57965758Y-46256024D01*
X57817924Y-46177005D01*
X57817922Y-46177004D01*
X57688341Y-46070659D01*
X57581996Y-45941078D01*
X57534388Y-45852009D01*
X57502976Y-45793242D01*
X57454313Y-45632823D01*
X57437883Y-45466000D01*
X57454313Y-45299177D01*
X57502976Y-45138758D01*
X57581995Y-44990924D01*
X57581996Y-44990922D01*
X57688341Y-44861341D01*
X57817922Y-44754996D01*
X57833094Y-44746886D01*
X57965758Y-44675976D01*
X58126177Y-44627313D01*
X58251196Y-44615000D01*
X58334804Y-44615000D01*
X58459823Y-44627313D01*
X58459823Y-44627313D01*
G37*
G36*
X66764000Y-46317000D02*
G01*
X65062000Y-46317000D01*
X65062000Y-44615000D01*
X66764000Y-44615000D01*
X66764000Y-46317000D01*
X66764000Y-46317000D01*
G37*
G36*
X80597194Y-43179035D02*
G01*
X80693382Y-43218878D01*
X80829413Y-43275223D01*
X81038403Y-43414866D01*
X81216134Y-43592597D01*
X81355777Y-43801587D01*
X81386313Y-43875309D01*
X81451965Y-44033806D01*
X81501000Y-44280324D01*
X81501000Y-44531676D01*
X81451965Y-44778194D01*
X81417524Y-44861341D01*
X81355777Y-45010413D01*
X81216134Y-45219403D01*
X81038403Y-45397134D01*
X80829413Y-45536777D01*
X80693382Y-45593122D01*
X80597194Y-45632965D01*
X80350676Y-45682000D01*
X80099324Y-45682000D01*
X79852806Y-45632965D01*
X79756618Y-45593122D01*
X79620587Y-45536777D01*
X79411597Y-45397134D01*
X79233866Y-45219403D01*
X79094223Y-45010413D01*
X79032476Y-44861341D01*
X78998035Y-44778194D01*
X78949000Y-44531676D01*
X78949000Y-44280324D01*
X78998035Y-44033806D01*
X79063687Y-43875309D01*
X79094223Y-43801587D01*
X79233866Y-43592597D01*
X79411597Y-43414866D01*
X79620587Y-43275223D01*
X79756618Y-43218878D01*
X79852806Y-43179035D01*
X80099324Y-43130000D01*
X80350676Y-43130000D01*
X80597194Y-43179035D01*
X80597194Y-43179035D01*
G37*
G36*
X75075318Y-42701153D02*
G01*
X75293885Y-42791687D01*
X75293887Y-42791688D01*
X75490593Y-42923122D01*
X75657878Y-43090407D01*
X75762303Y-43246691D01*
X75789313Y-43287115D01*
X75879847Y-43505682D01*
X75926000Y-43737710D01*
X75926000Y-43974290D01*
X75879847Y-44206318D01*
X75849192Y-44280325D01*
X75789312Y-44424887D01*
X75657878Y-44621593D01*
X75490593Y-44788878D01*
X75293887Y-44920312D01*
X75293886Y-44920313D01*
X75293885Y-44920313D01*
X75075318Y-45010847D01*
X74843290Y-45057000D01*
X74606710Y-45057000D01*
X74374682Y-45010847D01*
X74156115Y-44920313D01*
X74156114Y-44920313D01*
X74156113Y-44920312D01*
X73959407Y-44788878D01*
X73792122Y-44621593D01*
X73660688Y-44424887D01*
X73600808Y-44280325D01*
X73570153Y-44206318D01*
X73524000Y-43974290D01*
X73524000Y-43737710D01*
X73570153Y-43505682D01*
X73660687Y-43287115D01*
X73687697Y-43246691D01*
X73792122Y-43090407D01*
X73959407Y-42923122D01*
X74156113Y-42791688D01*
X74156115Y-42791687D01*
X74374682Y-42701153D01*
X74606710Y-42655000D01*
X74843290Y-42655000D01*
X75075318Y-42701153D01*
X75075318Y-42701153D01*
G37*
G36*
X49005443Y-42920519D02*
G01*
X49071627Y-42927037D01*
X49241466Y-42978557D01*
X49397991Y-43062222D01*
X49418828Y-43079323D01*
X49535186Y-43174814D01*
X49590026Y-43241638D01*
X49647778Y-43312009D01*
X49731443Y-43468534D01*
X49782963Y-43638373D01*
X49800359Y-43815000D01*
X49782963Y-43991627D01*
X49731443Y-44161466D01*
X49647778Y-44317991D01*
X49618448Y-44353729D01*
X49535186Y-44455186D01*
X49441981Y-44531676D01*
X49397991Y-44567778D01*
X49241466Y-44651443D01*
X49071627Y-44702963D01*
X49005443Y-44709481D01*
X48939260Y-44716000D01*
X48850740Y-44716000D01*
X48784557Y-44709481D01*
X48718373Y-44702963D01*
X48548534Y-44651443D01*
X48392009Y-44567778D01*
X48348019Y-44531676D01*
X48254814Y-44455186D01*
X48171552Y-44353729D01*
X48142222Y-44317991D01*
X48058557Y-44161466D01*
X48007037Y-43991627D01*
X47989641Y-43815000D01*
X48007037Y-43638373D01*
X48058557Y-43468534D01*
X48142222Y-43312009D01*
X48199974Y-43241638D01*
X48254814Y-43174814D01*
X48371172Y-43079323D01*
X48392009Y-43062222D01*
X48548534Y-42978557D01*
X48718373Y-42927037D01*
X48784557Y-42920519D01*
X48850740Y-42914000D01*
X48939260Y-42914000D01*
X49005443Y-42920519D01*
X49005443Y-42920519D01*
G37*
G36*
X51545443Y-42920519D02*
G01*
X51611627Y-42927037D01*
X51781466Y-42978557D01*
X51937991Y-43062222D01*
X51958828Y-43079323D01*
X52075186Y-43174814D01*
X52130026Y-43241638D01*
X52187778Y-43312009D01*
X52271443Y-43468534D01*
X52322963Y-43638373D01*
X52340359Y-43815000D01*
X52322963Y-43991627D01*
X52271443Y-44161466D01*
X52187778Y-44317991D01*
X52158448Y-44353729D01*
X52075186Y-44455186D01*
X51981981Y-44531676D01*
X51937991Y-44567778D01*
X51781466Y-44651443D01*
X51611627Y-44702963D01*
X51545443Y-44709481D01*
X51479260Y-44716000D01*
X51390740Y-44716000D01*
X51324557Y-44709481D01*
X51258373Y-44702963D01*
X51088534Y-44651443D01*
X50932009Y-44567778D01*
X50888019Y-44531676D01*
X50794814Y-44455186D01*
X50711552Y-44353729D01*
X50682222Y-44317991D01*
X50598557Y-44161466D01*
X50547037Y-43991627D01*
X50529641Y-43815000D01*
X50547037Y-43638373D01*
X50598557Y-43468534D01*
X50682222Y-43312009D01*
X50739974Y-43241638D01*
X50794814Y-43174814D01*
X50911172Y-43079323D01*
X50932009Y-43062222D01*
X51088534Y-42978557D01*
X51258373Y-42927037D01*
X51324557Y-42920519D01*
X51390740Y-42914000D01*
X51479260Y-42914000D01*
X51545443Y-42920519D01*
X51545443Y-42920519D01*
G37*
G36*
X58820499Y-43039445D02*
G01*
X58857995Y-43050820D01*
X58892554Y-43069292D01*
X58922847Y-43094153D01*
X58947708Y-43124446D01*
X58966180Y-43159005D01*
X58977555Y-43196501D01*
X58982000Y-43241638D01*
X58982000Y-43880362D01*
X58977555Y-43925499D01*
X58966180Y-43962995D01*
X58947708Y-43997554D01*
X58922847Y-44027847D01*
X58892554Y-44052708D01*
X58857995Y-44071180D01*
X58820499Y-44082555D01*
X58775362Y-44087000D01*
X58036638Y-44087000D01*
X57991501Y-44082555D01*
X57954005Y-44071180D01*
X57919446Y-44052708D01*
X57889153Y-44027847D01*
X57864292Y-43997554D01*
X57845820Y-43962995D01*
X57834445Y-43925499D01*
X57830000Y-43880362D01*
X57830000Y-43241638D01*
X57834445Y-43196501D01*
X57845820Y-43159005D01*
X57864292Y-43124446D01*
X57889153Y-43094153D01*
X57919446Y-43069292D01*
X57954005Y-43050820D01*
X57991501Y-43039445D01*
X58036638Y-43035000D01*
X58775362Y-43035000D01*
X58820499Y-43039445D01*
X58820499Y-43039445D01*
G37*
G36*
X57070499Y-43039445D02*
G01*
X57107995Y-43050820D01*
X57142554Y-43069292D01*
X57172847Y-43094153D01*
X57197708Y-43124446D01*
X57216180Y-43159005D01*
X57227555Y-43196501D01*
X57232000Y-43241638D01*
X57232000Y-43880362D01*
X57227555Y-43925499D01*
X57216180Y-43962995D01*
X57197708Y-43997554D01*
X57172847Y-44027847D01*
X57142554Y-44052708D01*
X57107995Y-44071180D01*
X57070499Y-44082555D01*
X57025362Y-44087000D01*
X56286638Y-44087000D01*
X56241501Y-44082555D01*
X56204005Y-44071180D01*
X56169446Y-44052708D01*
X56139153Y-44027847D01*
X56114292Y-43997554D01*
X56095820Y-43962995D01*
X56084445Y-43925499D01*
X56080000Y-43880362D01*
X56080000Y-43241638D01*
X56084445Y-43196501D01*
X56095820Y-43159005D01*
X56114292Y-43124446D01*
X56139153Y-43094153D01*
X56169446Y-43069292D01*
X56204005Y-43050820D01*
X56241501Y-43039445D01*
X56286638Y-43035000D01*
X57025362Y-43035000D01*
X57070499Y-43039445D01*
X57070499Y-43039445D01*
G37*
G36*
X64787000Y-42767000D02*
G01*
X60435000Y-42767000D01*
X60435000Y-41065000D01*
X64787000Y-41065000D01*
X64787000Y-42767000D01*
X64787000Y-42767000D01*
G37*
G36*
X51545443Y-40380519D02*
G01*
X51611627Y-40387037D01*
X51781466Y-40438557D01*
X51937991Y-40522222D01*
X51973729Y-40551552D01*
X52075186Y-40634814D01*
X52133082Y-40705362D01*
X52187778Y-40772009D01*
X52271443Y-40928534D01*
X52322963Y-41098373D01*
X52340359Y-41275000D01*
X52322963Y-41451627D01*
X52271443Y-41621466D01*
X52187778Y-41777991D01*
X52158448Y-41813729D01*
X52075186Y-41915186D01*
X51973729Y-41998448D01*
X51937991Y-42027778D01*
X51781466Y-42111443D01*
X51611627Y-42162963D01*
X51545443Y-42169481D01*
X51479260Y-42176000D01*
X51390740Y-42176000D01*
X51324557Y-42169481D01*
X51258373Y-42162963D01*
X51088534Y-42111443D01*
X50932009Y-42027778D01*
X50896271Y-41998448D01*
X50794814Y-41915186D01*
X50711552Y-41813729D01*
X50682222Y-41777991D01*
X50598557Y-41621466D01*
X50547037Y-41451627D01*
X50529641Y-41275000D01*
X50547037Y-41098373D01*
X50598557Y-40928534D01*
X50682222Y-40772009D01*
X50736918Y-40705362D01*
X50794814Y-40634814D01*
X50896271Y-40551552D01*
X50932009Y-40522222D01*
X51088534Y-40438557D01*
X51258373Y-40387037D01*
X51324557Y-40380519D01*
X51390740Y-40374000D01*
X51479260Y-40374000D01*
X51545443Y-40380519D01*
X51545443Y-40380519D01*
G37*
G36*
X49005443Y-40380519D02*
G01*
X49071627Y-40387037D01*
X49241466Y-40438557D01*
X49397991Y-40522222D01*
X49433729Y-40551552D01*
X49535186Y-40634814D01*
X49593082Y-40705362D01*
X49647778Y-40772009D01*
X49731443Y-40928534D01*
X49782963Y-41098373D01*
X49800359Y-41275000D01*
X49782963Y-41451627D01*
X49731443Y-41621466D01*
X49647778Y-41777991D01*
X49618448Y-41813729D01*
X49535186Y-41915186D01*
X49433729Y-41998448D01*
X49397991Y-42027778D01*
X49241466Y-42111443D01*
X49071627Y-42162963D01*
X49005443Y-42169481D01*
X48939260Y-42176000D01*
X48850740Y-42176000D01*
X48784557Y-42169481D01*
X48718373Y-42162963D01*
X48548534Y-42111443D01*
X48392009Y-42027778D01*
X48356271Y-41998448D01*
X48254814Y-41915186D01*
X48171552Y-41813729D01*
X48142222Y-41777991D01*
X48058557Y-41621466D01*
X48007037Y-41451627D01*
X47989641Y-41275000D01*
X48007037Y-41098373D01*
X48058557Y-40928534D01*
X48142222Y-40772009D01*
X48196918Y-40705362D01*
X48254814Y-40634814D01*
X48356271Y-40551552D01*
X48392009Y-40522222D01*
X48548534Y-40438557D01*
X48718373Y-40387037D01*
X48784557Y-40380519D01*
X48850740Y-40374000D01*
X48939260Y-40374000D01*
X49005443Y-40380519D01*
X49005443Y-40380519D01*
G37*
G36*
X70320000Y-41832000D02*
G01*
X68618000Y-41832000D01*
X68618000Y-40130000D01*
X70320000Y-40130000D01*
X70320000Y-41832000D01*
X70320000Y-41832000D01*
G37*
G36*
X57070499Y-39864445D02*
G01*
X57107995Y-39875820D01*
X57142554Y-39894292D01*
X57172847Y-39919153D01*
X57197708Y-39949446D01*
X57216180Y-39984005D01*
X57227555Y-40021501D01*
X57232000Y-40066638D01*
X57232000Y-40705362D01*
X57227555Y-40750499D01*
X57216180Y-40787995D01*
X57197708Y-40822554D01*
X57172847Y-40852847D01*
X57142554Y-40877708D01*
X57107995Y-40896180D01*
X57070499Y-40907555D01*
X57025362Y-40912000D01*
X56286638Y-40912000D01*
X56241501Y-40907555D01*
X56204005Y-40896180D01*
X56169446Y-40877708D01*
X56139153Y-40852847D01*
X56114292Y-40822554D01*
X56095820Y-40787995D01*
X56084445Y-40750499D01*
X56080000Y-40705362D01*
X56080000Y-40066638D01*
X56084445Y-40021501D01*
X56095820Y-39984005D01*
X56114292Y-39949446D01*
X56139153Y-39919153D01*
X56169446Y-39894292D01*
X56204005Y-39875820D01*
X56241501Y-39864445D01*
X56286638Y-39860000D01*
X57025362Y-39860000D01*
X57070499Y-39864445D01*
X57070499Y-39864445D01*
G37*
G36*
X58820499Y-39864445D02*
G01*
X58857995Y-39875820D01*
X58892554Y-39894292D01*
X58922847Y-39919153D01*
X58947708Y-39949446D01*
X58966180Y-39984005D01*
X58977555Y-40021501D01*
X58982000Y-40066638D01*
X58982000Y-40705362D01*
X58977555Y-40750499D01*
X58966180Y-40787995D01*
X58947708Y-40822554D01*
X58922847Y-40852847D01*
X58892554Y-40877708D01*
X58857995Y-40896180D01*
X58820499Y-40907555D01*
X58775362Y-40912000D01*
X58036638Y-40912000D01*
X57991501Y-40907555D01*
X57954005Y-40896180D01*
X57919446Y-40877708D01*
X57889153Y-40852847D01*
X57864292Y-40822554D01*
X57845820Y-40787995D01*
X57834445Y-40750499D01*
X57830000Y-40705362D01*
X57830000Y-40066638D01*
X57834445Y-40021501D01*
X57845820Y-39984005D01*
X57864292Y-39949446D01*
X57889153Y-39919153D01*
X57919446Y-39894292D01*
X57954005Y-39875820D01*
X57991501Y-39864445D01*
X58036638Y-39860000D01*
X58775362Y-39860000D01*
X58820499Y-39864445D01*
X58820499Y-39864445D01*
G37*
G36*
X75097194Y-38229035D02*
G01*
X75193382Y-38268878D01*
X75329413Y-38325223D01*
X75538403Y-38464866D01*
X75716134Y-38642597D01*
X75855777Y-38851587D01*
X75869244Y-38884100D01*
X75951965Y-39083806D01*
X76001000Y-39330324D01*
X76001000Y-39581676D01*
X75951965Y-39828194D01*
X75930498Y-39880020D01*
X75855777Y-40060413D01*
X75716134Y-40269403D01*
X75538403Y-40447134D01*
X75329413Y-40586777D01*
X75213440Y-40634814D01*
X75097194Y-40682965D01*
X74850676Y-40732000D01*
X74599324Y-40732000D01*
X74352806Y-40682965D01*
X74236560Y-40634814D01*
X74120587Y-40586777D01*
X73911597Y-40447134D01*
X73733866Y-40269403D01*
X73594223Y-40060413D01*
X73519502Y-39880020D01*
X73498035Y-39828194D01*
X73449000Y-39581676D01*
X73449000Y-39330324D01*
X73498035Y-39083806D01*
X73580756Y-38884100D01*
X73594223Y-38851587D01*
X73733866Y-38642597D01*
X73911597Y-38464866D01*
X74120587Y-38325223D01*
X74256618Y-38268878D01*
X74352806Y-38229035D01*
X74599324Y-38180000D01*
X74850676Y-38180000D01*
X75097194Y-38229035D01*
X75097194Y-38229035D01*
G37*
G36*
X80597194Y-37679035D02*
G01*
X80654345Y-37702708D01*
X80829413Y-37775223D01*
X81038403Y-37914866D01*
X81216134Y-38092597D01*
X81355777Y-38301587D01*
X81412122Y-38437618D01*
X81451965Y-38533806D01*
X81501000Y-38780324D01*
X81501000Y-39031676D01*
X81451965Y-39278194D01*
X81412122Y-39374382D01*
X81355777Y-39510413D01*
X81216134Y-39719403D01*
X81038403Y-39897134D01*
X80829413Y-40036777D01*
X80745122Y-40071691D01*
X80597194Y-40132965D01*
X80350676Y-40182000D01*
X80099324Y-40182000D01*
X79852806Y-40132965D01*
X79704878Y-40071691D01*
X79620587Y-40036777D01*
X79411597Y-39897134D01*
X79233866Y-39719403D01*
X79094223Y-39510413D01*
X79037878Y-39374382D01*
X78998035Y-39278194D01*
X78949000Y-39031676D01*
X78949000Y-38780324D01*
X78998035Y-38533806D01*
X79037878Y-38437618D01*
X79094223Y-38301587D01*
X79233866Y-38092597D01*
X79411597Y-37914866D01*
X79620587Y-37775223D01*
X79795655Y-37702708D01*
X79852806Y-37679035D01*
X80099324Y-37630000D01*
X80350676Y-37630000D01*
X80597194Y-37679035D01*
X80597194Y-37679035D01*
G37*
G36*
X51545443Y-37840519D02*
G01*
X51611627Y-37847037D01*
X51781466Y-37898557D01*
X51937991Y-37982222D01*
X51973729Y-38011552D01*
X52075186Y-38094814D01*
X52145095Y-38180000D01*
X52187778Y-38232009D01*
X52271443Y-38388534D01*
X52322963Y-38558373D01*
X52340359Y-38735000D01*
X52322963Y-38911627D01*
X52271443Y-39081466D01*
X52187778Y-39237991D01*
X52158448Y-39273729D01*
X52075186Y-39375186D01*
X51973729Y-39458448D01*
X51937991Y-39487778D01*
X51781466Y-39571443D01*
X51611627Y-39622963D01*
X51545442Y-39629482D01*
X51479260Y-39636000D01*
X51390740Y-39636000D01*
X51324558Y-39629482D01*
X51258373Y-39622963D01*
X51088534Y-39571443D01*
X50932009Y-39487778D01*
X50896271Y-39458448D01*
X50794814Y-39375186D01*
X50711552Y-39273729D01*
X50682222Y-39237991D01*
X50598557Y-39081466D01*
X50547037Y-38911627D01*
X50529641Y-38735000D01*
X50547037Y-38558373D01*
X50598557Y-38388534D01*
X50682222Y-38232009D01*
X50724905Y-38180000D01*
X50794814Y-38094814D01*
X50896271Y-38011552D01*
X50932009Y-37982222D01*
X51088534Y-37898557D01*
X51258373Y-37847037D01*
X51324557Y-37840519D01*
X51390740Y-37834000D01*
X51479260Y-37834000D01*
X51545443Y-37840519D01*
X51545443Y-37840519D01*
G37*
G36*
X49005443Y-37840519D02*
G01*
X49071627Y-37847037D01*
X49241466Y-37898557D01*
X49397991Y-37982222D01*
X49433729Y-38011552D01*
X49535186Y-38094814D01*
X49605095Y-38180000D01*
X49647778Y-38232009D01*
X49731443Y-38388534D01*
X49782963Y-38558373D01*
X49800359Y-38735000D01*
X49782963Y-38911627D01*
X49731443Y-39081466D01*
X49647778Y-39237991D01*
X49618448Y-39273729D01*
X49535186Y-39375186D01*
X49433729Y-39458448D01*
X49397991Y-39487778D01*
X49241466Y-39571443D01*
X49071627Y-39622963D01*
X49005442Y-39629482D01*
X48939260Y-39636000D01*
X48850740Y-39636000D01*
X48784558Y-39629482D01*
X48718373Y-39622963D01*
X48548534Y-39571443D01*
X48392009Y-39487778D01*
X48356271Y-39458448D01*
X48254814Y-39375186D01*
X48171552Y-39273729D01*
X48142222Y-39237991D01*
X48058557Y-39081466D01*
X48007037Y-38911627D01*
X47989641Y-38735000D01*
X48007037Y-38558373D01*
X48058557Y-38388534D01*
X48142222Y-38232009D01*
X48184905Y-38180000D01*
X48254814Y-38094814D01*
X48356271Y-38011552D01*
X48392009Y-37982222D01*
X48548534Y-37898557D01*
X48718373Y-37847037D01*
X48784557Y-37840519D01*
X48850740Y-37834000D01*
X48939260Y-37834000D01*
X49005443Y-37840519D01*
X49005443Y-37840519D01*
G37*
G36*
X69717228Y-37662703D02*
G01*
X69872100Y-37726853D01*
X70011481Y-37819985D01*
X70130015Y-37938519D01*
X70223147Y-38077900D01*
X70287297Y-38232772D01*
X70320000Y-38397184D01*
X70320000Y-38564816D01*
X70287297Y-38729228D01*
X70223147Y-38884100D01*
X70130015Y-39023481D01*
X70011481Y-39142015D01*
X69872100Y-39235147D01*
X69717228Y-39299297D01*
X69552816Y-39332000D01*
X69385184Y-39332000D01*
X69220772Y-39299297D01*
X69065900Y-39235147D01*
X68926519Y-39142015D01*
X68807985Y-39023481D01*
X68714853Y-38884100D01*
X68650703Y-38729228D01*
X68618000Y-38564816D01*
X68618000Y-38397184D01*
X68650703Y-38232772D01*
X68714853Y-38077900D01*
X68807985Y-37938519D01*
X68926519Y-37819985D01*
X69065900Y-37726853D01*
X69220772Y-37662703D01*
X69385184Y-37630000D01*
X69552816Y-37630000D01*
X69717228Y-37662703D01*
X69717228Y-37662703D01*
G37*
G36*
X58820499Y-36689445D02*
G01*
X58857995Y-36700820D01*
X58892554Y-36719292D01*
X58922847Y-36744153D01*
X58947708Y-36774446D01*
X58966180Y-36809005D01*
X58977555Y-36846501D01*
X58982000Y-36891638D01*
X58982000Y-37530362D01*
X58977555Y-37575499D01*
X58966180Y-37612995D01*
X58947708Y-37647554D01*
X58922847Y-37677847D01*
X58892554Y-37702708D01*
X58857995Y-37721180D01*
X58820499Y-37732555D01*
X58775362Y-37737000D01*
X58036638Y-37737000D01*
X57991501Y-37732555D01*
X57954005Y-37721180D01*
X57919446Y-37702708D01*
X57889153Y-37677847D01*
X57864292Y-37647554D01*
X57845820Y-37612995D01*
X57834445Y-37575499D01*
X57830000Y-37530362D01*
X57830000Y-36891638D01*
X57834445Y-36846501D01*
X57845820Y-36809005D01*
X57864292Y-36774446D01*
X57889153Y-36744153D01*
X57919446Y-36719292D01*
X57954005Y-36700820D01*
X57991501Y-36689445D01*
X58036638Y-36685000D01*
X58775362Y-36685000D01*
X58820499Y-36689445D01*
X58820499Y-36689445D01*
G37*
G36*
X57070499Y-36689445D02*
G01*
X57107995Y-36700820D01*
X57142554Y-36719292D01*
X57172847Y-36744153D01*
X57197708Y-36774446D01*
X57216180Y-36809005D01*
X57227555Y-36846501D01*
X57232000Y-36891638D01*
X57232000Y-37530362D01*
X57227555Y-37575499D01*
X57216180Y-37612995D01*
X57197708Y-37647554D01*
X57172847Y-37677847D01*
X57142554Y-37702708D01*
X57107995Y-37721180D01*
X57070499Y-37732555D01*
X57025362Y-37737000D01*
X56286638Y-37737000D01*
X56241501Y-37732555D01*
X56204005Y-37721180D01*
X56169446Y-37702708D01*
X56139153Y-37677847D01*
X56114292Y-37647554D01*
X56095820Y-37612995D01*
X56084445Y-37575499D01*
X56080000Y-37530362D01*
X56080000Y-36891638D01*
X56084445Y-36846501D01*
X56095820Y-36809005D01*
X56114292Y-36774446D01*
X56139153Y-36744153D01*
X56169446Y-36719292D01*
X56204005Y-36700820D01*
X56241501Y-36689445D01*
X56286638Y-36685000D01*
X57025362Y-36685000D01*
X57070499Y-36689445D01*
X57070499Y-36689445D01*
G37*
G36*
X64787000Y-37167000D02*
G01*
X60435000Y-37167000D01*
X60435000Y-35465000D01*
X64787000Y-35465000D01*
X64787000Y-37167000D01*
X64787000Y-37167000D01*
G37*
G36*
X51545442Y-35300518D02*
G01*
X51611627Y-35307037D01*
X51781466Y-35358557D01*
X51937991Y-35442222D01*
X51965746Y-35465000D01*
X52075186Y-35554814D01*
X52158448Y-35656271D01*
X52187778Y-35692009D01*
X52271443Y-35848534D01*
X52322963Y-36018373D01*
X52340359Y-36195000D01*
X52322963Y-36371627D01*
X52271443Y-36541466D01*
X52187778Y-36697991D01*
X52162064Y-36729323D01*
X52075186Y-36835186D01*
X51973729Y-36918448D01*
X51937991Y-36947778D01*
X51781466Y-37031443D01*
X51611627Y-37082963D01*
X51545443Y-37089481D01*
X51479260Y-37096000D01*
X51390740Y-37096000D01*
X51324557Y-37089481D01*
X51258373Y-37082963D01*
X51088534Y-37031443D01*
X50932009Y-36947778D01*
X50896271Y-36918448D01*
X50794814Y-36835186D01*
X50707936Y-36729323D01*
X50682222Y-36697991D01*
X50598557Y-36541466D01*
X50547037Y-36371627D01*
X50529641Y-36195000D01*
X50547037Y-36018373D01*
X50598557Y-35848534D01*
X50682222Y-35692009D01*
X50711552Y-35656271D01*
X50794814Y-35554814D01*
X50904254Y-35465000D01*
X50932009Y-35442222D01*
X51088534Y-35358557D01*
X51258373Y-35307037D01*
X51324558Y-35300518D01*
X51390740Y-35294000D01*
X51479260Y-35294000D01*
X51545442Y-35300518D01*
X51545442Y-35300518D01*
G37*
G36*
X49005442Y-35300518D02*
G01*
X49071627Y-35307037D01*
X49241466Y-35358557D01*
X49397991Y-35442222D01*
X49425746Y-35465000D01*
X49535186Y-35554814D01*
X49618448Y-35656271D01*
X49647778Y-35692009D01*
X49731443Y-35848534D01*
X49782963Y-36018373D01*
X49800359Y-36195000D01*
X49782963Y-36371627D01*
X49731443Y-36541466D01*
X49647778Y-36697991D01*
X49622064Y-36729323D01*
X49535186Y-36835186D01*
X49433729Y-36918448D01*
X49397991Y-36947778D01*
X49241466Y-37031443D01*
X49071627Y-37082963D01*
X49005443Y-37089481D01*
X48939260Y-37096000D01*
X48850740Y-37096000D01*
X48784557Y-37089481D01*
X48718373Y-37082963D01*
X48548534Y-37031443D01*
X48392009Y-36947778D01*
X48356271Y-36918448D01*
X48254814Y-36835186D01*
X48167936Y-36729323D01*
X48142222Y-36697991D01*
X48058557Y-36541466D01*
X48007037Y-36371627D01*
X47989641Y-36195000D01*
X48007037Y-36018373D01*
X48058557Y-35848534D01*
X48142222Y-35692009D01*
X48171552Y-35656271D01*
X48254814Y-35554814D01*
X48364254Y-35465000D01*
X48392009Y-35442222D01*
X48548534Y-35358557D01*
X48718373Y-35307037D01*
X48784558Y-35300518D01*
X48850740Y-35294000D01*
X48939260Y-35294000D01*
X49005442Y-35300518D01*
X49005442Y-35300518D01*
G37*
G36*
X73072499Y-33768445D02*
G01*
X73109995Y-33779820D01*
X73144554Y-33798292D01*
X73174847Y-33823153D01*
X73199708Y-33853446D01*
X73218180Y-33888005D01*
X73229555Y-33925501D01*
X73234000Y-33970638D01*
X73234000Y-34609362D01*
X73229555Y-34654499D01*
X73218180Y-34691995D01*
X73199708Y-34726554D01*
X73174847Y-34756847D01*
X73144554Y-34781708D01*
X73109995Y-34800180D01*
X73072499Y-34811555D01*
X73027362Y-34816000D01*
X72288638Y-34816000D01*
X72243501Y-34811555D01*
X72206005Y-34800180D01*
X72171446Y-34781708D01*
X72141153Y-34756847D01*
X72116292Y-34726554D01*
X72097820Y-34691995D01*
X72086445Y-34654499D01*
X72082000Y-34609362D01*
X72082000Y-33970638D01*
X72086445Y-33925501D01*
X72097820Y-33888005D01*
X72116292Y-33853446D01*
X72141153Y-33823153D01*
X72171446Y-33798292D01*
X72206005Y-33779820D01*
X72243501Y-33768445D01*
X72288638Y-33764000D01*
X73027362Y-33764000D01*
X73072499Y-33768445D01*
X73072499Y-33768445D01*
G37*
G36*
X76374499Y-33768445D02*
G01*
X76411995Y-33779820D01*
X76446554Y-33798292D01*
X76476847Y-33823153D01*
X76501708Y-33853446D01*
X76520180Y-33888005D01*
X76531555Y-33925501D01*
X76536000Y-33970638D01*
X76536000Y-34609362D01*
X76531555Y-34654499D01*
X76520180Y-34691995D01*
X76501708Y-34726554D01*
X76476847Y-34756847D01*
X76446554Y-34781708D01*
X76411995Y-34800180D01*
X76374499Y-34811555D01*
X76329362Y-34816000D01*
X75590638Y-34816000D01*
X75545501Y-34811555D01*
X75508005Y-34800180D01*
X75473446Y-34781708D01*
X75443153Y-34756847D01*
X75418292Y-34726554D01*
X75399820Y-34691995D01*
X75388445Y-34654499D01*
X75384000Y-34609362D01*
X75384000Y-33970638D01*
X75388445Y-33925501D01*
X75399820Y-33888005D01*
X75418292Y-33853446D01*
X75443153Y-33823153D01*
X75473446Y-33798292D01*
X75508005Y-33779820D01*
X75545501Y-33768445D01*
X75590638Y-33764000D01*
X76329362Y-33764000D01*
X76374499Y-33768445D01*
X76374499Y-33768445D01*
G37*
G36*
X74822499Y-33768445D02*
G01*
X74859995Y-33779820D01*
X74894554Y-33798292D01*
X74924847Y-33823153D01*
X74949708Y-33853446D01*
X74968180Y-33888005D01*
X74979555Y-33925501D01*
X74984000Y-33970638D01*
X74984000Y-34609362D01*
X74979555Y-34654499D01*
X74968180Y-34691995D01*
X74949708Y-34726554D01*
X74924847Y-34756847D01*
X74894554Y-34781708D01*
X74859995Y-34800180D01*
X74822499Y-34811555D01*
X74777362Y-34816000D01*
X74038638Y-34816000D01*
X73993501Y-34811555D01*
X73956005Y-34800180D01*
X73921446Y-34781708D01*
X73891153Y-34756847D01*
X73866292Y-34726554D01*
X73847820Y-34691995D01*
X73836445Y-34654499D01*
X73832000Y-34609362D01*
X73832000Y-33970638D01*
X73836445Y-33925501D01*
X73847820Y-33888005D01*
X73866292Y-33853446D01*
X73891153Y-33823153D01*
X73921446Y-33798292D01*
X73956005Y-33779820D01*
X73993501Y-33768445D01*
X74038638Y-33764000D01*
X74777362Y-33764000D01*
X74822499Y-33768445D01*
X74822499Y-33768445D01*
G37*
G36*
X79725999Y-33768445D02*
G01*
X79763495Y-33779820D01*
X79798054Y-33798292D01*
X79828347Y-33823153D01*
X79853208Y-33853446D01*
X79871680Y-33888005D01*
X79883055Y-33925501D01*
X79887500Y-33970638D01*
X79887500Y-34609362D01*
X79883055Y-34654499D01*
X79871680Y-34691995D01*
X79853208Y-34726554D01*
X79828347Y-34756847D01*
X79798054Y-34781708D01*
X79763495Y-34800180D01*
X79725999Y-34811555D01*
X79680862Y-34816000D01*
X78942138Y-34816000D01*
X78897001Y-34811555D01*
X78859505Y-34800180D01*
X78824946Y-34781708D01*
X78794653Y-34756847D01*
X78769792Y-34726554D01*
X78751320Y-34691995D01*
X78739945Y-34654499D01*
X78735500Y-34609362D01*
X78735500Y-33970638D01*
X78739945Y-33925501D01*
X78751320Y-33888005D01*
X78769792Y-33853446D01*
X78794653Y-33823153D01*
X78824946Y-33798292D01*
X78859505Y-33779820D01*
X78897001Y-33768445D01*
X78942138Y-33764000D01*
X79680862Y-33764000D01*
X79725999Y-33768445D01*
X79725999Y-33768445D01*
G37*
G36*
X81475999Y-33768445D02*
G01*
X81513495Y-33779820D01*
X81548054Y-33798292D01*
X81578347Y-33823153D01*
X81603208Y-33853446D01*
X81621680Y-33888005D01*
X81633055Y-33925501D01*
X81637500Y-33970638D01*
X81637500Y-34609362D01*
X81633055Y-34654499D01*
X81621680Y-34691995D01*
X81603208Y-34726554D01*
X81578347Y-34756847D01*
X81548054Y-34781708D01*
X81513495Y-34800180D01*
X81475999Y-34811555D01*
X81430862Y-34816000D01*
X80692138Y-34816000D01*
X80647001Y-34811555D01*
X80609505Y-34800180D01*
X80574946Y-34781708D01*
X80544653Y-34756847D01*
X80519792Y-34726554D01*
X80501320Y-34691995D01*
X80489945Y-34654499D01*
X80485500Y-34609362D01*
X80485500Y-33970638D01*
X80489945Y-33925501D01*
X80501320Y-33888005D01*
X80519792Y-33853446D01*
X80544653Y-33823153D01*
X80574946Y-33798292D01*
X80609505Y-33779820D01*
X80647001Y-33768445D01*
X80692138Y-33764000D01*
X81430862Y-33764000D01*
X81475999Y-33768445D01*
X81475999Y-33768445D01*
G37*
G36*
X78124499Y-33768445D02*
G01*
X78161995Y-33779820D01*
X78196554Y-33798292D01*
X78226847Y-33823153D01*
X78251708Y-33853446D01*
X78270180Y-33888005D01*
X78281555Y-33925501D01*
X78286000Y-33970638D01*
X78286000Y-34609362D01*
X78281555Y-34654499D01*
X78270180Y-34691995D01*
X78251708Y-34726554D01*
X78226847Y-34756847D01*
X78196554Y-34781708D01*
X78161995Y-34800180D01*
X78124499Y-34811555D01*
X78079362Y-34816000D01*
X77340638Y-34816000D01*
X77295501Y-34811555D01*
X77258005Y-34800180D01*
X77223446Y-34781708D01*
X77193153Y-34756847D01*
X77168292Y-34726554D01*
X77149820Y-34691995D01*
X77138445Y-34654499D01*
X77134000Y-34609362D01*
X77134000Y-33970638D01*
X77138445Y-33925501D01*
X77149820Y-33888005D01*
X77168292Y-33853446D01*
X77193153Y-33823153D01*
X77223446Y-33798292D01*
X77258005Y-33779820D01*
X77295501Y-33768445D01*
X77340638Y-33764000D01*
X78079362Y-33764000D01*
X78124499Y-33768445D01*
X78124499Y-33768445D01*
G37*
G36*
X68218499Y-33514445D02*
G01*
X68255995Y-33525820D01*
X68290554Y-33544292D01*
X68320847Y-33569153D01*
X68345708Y-33599446D01*
X68364180Y-33634005D01*
X68375555Y-33671501D01*
X68380000Y-33716638D01*
X68380000Y-34355362D01*
X68375555Y-34400499D01*
X68364180Y-34437995D01*
X68345708Y-34472554D01*
X68320847Y-34502847D01*
X68290554Y-34527708D01*
X68255995Y-34546180D01*
X68218499Y-34557555D01*
X68173362Y-34562000D01*
X67434638Y-34562000D01*
X67389501Y-34557555D01*
X67352005Y-34546180D01*
X67317446Y-34527708D01*
X67287153Y-34502847D01*
X67262292Y-34472554D01*
X67243820Y-34437995D01*
X67232445Y-34400499D01*
X67228000Y-34355362D01*
X67228000Y-33716638D01*
X67232445Y-33671501D01*
X67243820Y-33634005D01*
X67262292Y-33599446D01*
X67287153Y-33569153D01*
X67317446Y-33544292D01*
X67352005Y-33525820D01*
X67389501Y-33514445D01*
X67434638Y-33510000D01*
X68173362Y-33510000D01*
X68218499Y-33514445D01*
X68218499Y-33514445D01*
G37*
G36*
X60852499Y-33514445D02*
G01*
X60889995Y-33525820D01*
X60924554Y-33544292D01*
X60954847Y-33569153D01*
X60979708Y-33599446D01*
X60998180Y-33634005D01*
X61009555Y-33671501D01*
X61014000Y-33716638D01*
X61014000Y-34355362D01*
X61009555Y-34400499D01*
X60998180Y-34437995D01*
X60979708Y-34472554D01*
X60954847Y-34502847D01*
X60924554Y-34527708D01*
X60889995Y-34546180D01*
X60852499Y-34557555D01*
X60807362Y-34562000D01*
X60068638Y-34562000D01*
X60023501Y-34557555D01*
X59986005Y-34546180D01*
X59951446Y-34527708D01*
X59921153Y-34502847D01*
X59896292Y-34472554D01*
X59877820Y-34437995D01*
X59866445Y-34400499D01*
X59862000Y-34355362D01*
X59862000Y-33716638D01*
X59866445Y-33671501D01*
X59877820Y-33634005D01*
X59896292Y-33599446D01*
X59921153Y-33569153D01*
X59951446Y-33544292D01*
X59986005Y-33525820D01*
X60023501Y-33514445D01*
X60068638Y-33510000D01*
X60807362Y-33510000D01*
X60852499Y-33514445D01*
X60852499Y-33514445D01*
G37*
G36*
X66468499Y-33514445D02*
G01*
X66505995Y-33525820D01*
X66540554Y-33544292D01*
X66570847Y-33569153D01*
X66595708Y-33599446D01*
X66614180Y-33634005D01*
X66625555Y-33671501D01*
X66630000Y-33716638D01*
X66630000Y-34355362D01*
X66625555Y-34400499D01*
X66614180Y-34437995D01*
X66595708Y-34472554D01*
X66570847Y-34502847D01*
X66540554Y-34527708D01*
X66505995Y-34546180D01*
X66468499Y-34557555D01*
X66423362Y-34562000D01*
X65684638Y-34562000D01*
X65639501Y-34557555D01*
X65602005Y-34546180D01*
X65567446Y-34527708D01*
X65537153Y-34502847D01*
X65512292Y-34472554D01*
X65493820Y-34437995D01*
X65482445Y-34400499D01*
X65478000Y-34355362D01*
X65478000Y-33716638D01*
X65482445Y-33671501D01*
X65493820Y-33634005D01*
X65512292Y-33599446D01*
X65537153Y-33569153D01*
X65567446Y-33544292D01*
X65602005Y-33525820D01*
X65639501Y-33514445D01*
X65684638Y-33510000D01*
X66423362Y-33510000D01*
X66468499Y-33514445D01*
X66468499Y-33514445D01*
G37*
G36*
X59102499Y-33514445D02*
G01*
X59139995Y-33525820D01*
X59174554Y-33544292D01*
X59204847Y-33569153D01*
X59229708Y-33599446D01*
X59248180Y-33634005D01*
X59259555Y-33671501D01*
X59264000Y-33716638D01*
X59264000Y-34355362D01*
X59259555Y-34400499D01*
X59248180Y-34437995D01*
X59229708Y-34472554D01*
X59204847Y-34502847D01*
X59174554Y-34527708D01*
X59139995Y-34546180D01*
X59102499Y-34557555D01*
X59057362Y-34562000D01*
X58318638Y-34562000D01*
X58273501Y-34557555D01*
X58236005Y-34546180D01*
X58201446Y-34527708D01*
X58171153Y-34502847D01*
X58146292Y-34472554D01*
X58127820Y-34437995D01*
X58116445Y-34400499D01*
X58112000Y-34355362D01*
X58112000Y-33716638D01*
X58116445Y-33671501D01*
X58127820Y-33634005D01*
X58146292Y-33599446D01*
X58171153Y-33569153D01*
X58201446Y-33544292D01*
X58236005Y-33525820D01*
X58273501Y-33514445D01*
X58318638Y-33510000D01*
X59057362Y-33510000D01*
X59102499Y-33514445D01*
X59102499Y-33514445D01*
G37*
G36*
X49005443Y-32760519D02*
G01*
X49071627Y-32767037D01*
X49241466Y-32818557D01*
X49397991Y-32902222D01*
X49412336Y-32913995D01*
X49535186Y-33014814D01*
X49598075Y-33091446D01*
X49647778Y-33152009D01*
X49731443Y-33308534D01*
X49782963Y-33478373D01*
X49800359Y-33655000D01*
X49782963Y-33831627D01*
X49731443Y-34001466D01*
X49647778Y-34157991D01*
X49618448Y-34193729D01*
X49535186Y-34295186D01*
X49468017Y-34350309D01*
X49397991Y-34407778D01*
X49241466Y-34491443D01*
X49071627Y-34542963D01*
X49005442Y-34549482D01*
X48939260Y-34556000D01*
X48850740Y-34556000D01*
X48784558Y-34549482D01*
X48718373Y-34542963D01*
X48548534Y-34491443D01*
X48392009Y-34407778D01*
X48321983Y-34350309D01*
X48254814Y-34295186D01*
X48171552Y-34193729D01*
X48142222Y-34157991D01*
X48058557Y-34001466D01*
X48007037Y-33831627D01*
X47989641Y-33655000D01*
X48007037Y-33478373D01*
X48058557Y-33308534D01*
X48142222Y-33152009D01*
X48191925Y-33091446D01*
X48254814Y-33014814D01*
X48377664Y-32913995D01*
X48392009Y-32902222D01*
X48548534Y-32818557D01*
X48718373Y-32767037D01*
X48784557Y-32760519D01*
X48850740Y-32754000D01*
X48939260Y-32754000D01*
X49005443Y-32760519D01*
X49005443Y-32760519D01*
G37*
G36*
X51545443Y-32760519D02*
G01*
X51611627Y-32767037D01*
X51781466Y-32818557D01*
X51937991Y-32902222D01*
X51952336Y-32913995D01*
X52075186Y-33014814D01*
X52138075Y-33091446D01*
X52187778Y-33152009D01*
X52271443Y-33308534D01*
X52322963Y-33478373D01*
X52340359Y-33655000D01*
X52322963Y-33831627D01*
X52271443Y-34001466D01*
X52187778Y-34157991D01*
X52158448Y-34193729D01*
X52075186Y-34295186D01*
X52008017Y-34350309D01*
X51937991Y-34407778D01*
X51781466Y-34491443D01*
X51611627Y-34542963D01*
X51545442Y-34549482D01*
X51479260Y-34556000D01*
X51390740Y-34556000D01*
X51324558Y-34549482D01*
X51258373Y-34542963D01*
X51088534Y-34491443D01*
X50932009Y-34407778D01*
X50861983Y-34350309D01*
X50794814Y-34295186D01*
X50711552Y-34193729D01*
X50682222Y-34157991D01*
X50598557Y-34001466D01*
X50547037Y-33831627D01*
X50529641Y-33655000D01*
X50547037Y-33478373D01*
X50598557Y-33308534D01*
X50682222Y-33152009D01*
X50731925Y-33091446D01*
X50794814Y-33014814D01*
X50917664Y-32913995D01*
X50932009Y-32902222D01*
X51088534Y-32818557D01*
X51258373Y-32767037D01*
X51324557Y-32760519D01*
X51390740Y-32754000D01*
X51479260Y-32754000D01*
X51545443Y-32760519D01*
X51545443Y-32760519D01*
G37*
G36*
X62721999Y-33006445D02*
G01*
X62759495Y-33017820D01*
X62794054Y-33036292D01*
X62824347Y-33061153D01*
X62849208Y-33091446D01*
X62867680Y-33126005D01*
X62879055Y-33163501D01*
X62883500Y-33208638D01*
X62883500Y-33847362D01*
X62879055Y-33892499D01*
X62867680Y-33929995D01*
X62849208Y-33964554D01*
X62824347Y-33994847D01*
X62794054Y-34019708D01*
X62759495Y-34038180D01*
X62721999Y-34049555D01*
X62676862Y-34054000D01*
X61938138Y-34054000D01*
X61893001Y-34049555D01*
X61855505Y-34038180D01*
X61820946Y-34019708D01*
X61790653Y-33994847D01*
X61765792Y-33964554D01*
X61747320Y-33929995D01*
X61735945Y-33892499D01*
X61731500Y-33847362D01*
X61731500Y-33208638D01*
X61735945Y-33163501D01*
X61747320Y-33126005D01*
X61765792Y-33091446D01*
X61790653Y-33061153D01*
X61820946Y-33036292D01*
X61855505Y-33017820D01*
X61893001Y-33006445D01*
X61938138Y-33002000D01*
X62676862Y-33002000D01*
X62721999Y-33006445D01*
X62721999Y-33006445D01*
G37*
G36*
X64471999Y-33006445D02*
G01*
X64509495Y-33017820D01*
X64544054Y-33036292D01*
X64574347Y-33061153D01*
X64599208Y-33091446D01*
X64617680Y-33126005D01*
X64629055Y-33163501D01*
X64633500Y-33208638D01*
X64633500Y-33847362D01*
X64629055Y-33892499D01*
X64617680Y-33929995D01*
X64599208Y-33964554D01*
X64574347Y-33994847D01*
X64544054Y-34019708D01*
X64509495Y-34038180D01*
X64471999Y-34049555D01*
X64426862Y-34054000D01*
X63688138Y-34054000D01*
X63643001Y-34049555D01*
X63605505Y-34038180D01*
X63570946Y-34019708D01*
X63540653Y-33994847D01*
X63515792Y-33964554D01*
X63497320Y-33929995D01*
X63485945Y-33892499D01*
X63481500Y-33847362D01*
X63481500Y-33208638D01*
X63485945Y-33163501D01*
X63497320Y-33126005D01*
X63515792Y-33091446D01*
X63540653Y-33061153D01*
X63570946Y-33036292D01*
X63605505Y-33017820D01*
X63643001Y-33006445D01*
X63688138Y-33002000D01*
X64426862Y-33002000D01*
X64471999Y-33006445D01*
X64471999Y-33006445D01*
G37*
G36*
X59102499Y-31990445D02*
G01*
X59139995Y-32001820D01*
X59174554Y-32020292D01*
X59204847Y-32045153D01*
X59229708Y-32075446D01*
X59248180Y-32110005D01*
X59259555Y-32147501D01*
X59264000Y-32192638D01*
X59264000Y-32831362D01*
X59259555Y-32876499D01*
X59248180Y-32913995D01*
X59229708Y-32948554D01*
X59204847Y-32978847D01*
X59174554Y-33003708D01*
X59139995Y-33022180D01*
X59102499Y-33033555D01*
X59057362Y-33038000D01*
X58318638Y-33038000D01*
X58273501Y-33033555D01*
X58236005Y-33022180D01*
X58201446Y-33003708D01*
X58171153Y-32978847D01*
X58146292Y-32948554D01*
X58127820Y-32913995D01*
X58116445Y-32876499D01*
X58112000Y-32831362D01*
X58112000Y-32192638D01*
X58116445Y-32147501D01*
X58127820Y-32110005D01*
X58146292Y-32075446D01*
X58171153Y-32045153D01*
X58201446Y-32020292D01*
X58236005Y-32001820D01*
X58273501Y-31990445D01*
X58318638Y-31986000D01*
X59057362Y-31986000D01*
X59102499Y-31990445D01*
X59102499Y-31990445D01*
G37*
G36*
X60852499Y-31990445D02*
G01*
X60889995Y-32001820D01*
X60924554Y-32020292D01*
X60954847Y-32045153D01*
X60979708Y-32075446D01*
X60998180Y-32110005D01*
X61009555Y-32147501D01*
X61014000Y-32192638D01*
X61014000Y-32831362D01*
X61009555Y-32876499D01*
X60998180Y-32913995D01*
X60979708Y-32948554D01*
X60954847Y-32978847D01*
X60924554Y-33003708D01*
X60889995Y-33022180D01*
X60852499Y-33033555D01*
X60807362Y-33038000D01*
X60068638Y-33038000D01*
X60023501Y-33033555D01*
X59986005Y-33022180D01*
X59951446Y-33003708D01*
X59921153Y-32978847D01*
X59896292Y-32948554D01*
X59877820Y-32913995D01*
X59866445Y-32876499D01*
X59862000Y-32831362D01*
X59862000Y-32192638D01*
X59866445Y-32147501D01*
X59877820Y-32110005D01*
X59896292Y-32075446D01*
X59921153Y-32045153D01*
X59951446Y-32020292D01*
X59986005Y-32001820D01*
X60023501Y-31990445D01*
X60068638Y-31986000D01*
X60807362Y-31986000D01*
X60852499Y-31990445D01*
X60852499Y-31990445D01*
G37*
G36*
X66468499Y-31990445D02*
G01*
X66505995Y-32001820D01*
X66540554Y-32020292D01*
X66570847Y-32045153D01*
X66595708Y-32075446D01*
X66614180Y-32110005D01*
X66625555Y-32147501D01*
X66630000Y-32192638D01*
X66630000Y-32831362D01*
X66625555Y-32876499D01*
X66614180Y-32913995D01*
X66595708Y-32948554D01*
X66570847Y-32978847D01*
X66540554Y-33003708D01*
X66505995Y-33022180D01*
X66468499Y-33033555D01*
X66423362Y-33038000D01*
X65684638Y-33038000D01*
X65639501Y-33033555D01*
X65602005Y-33022180D01*
X65567446Y-33003708D01*
X65537153Y-32978847D01*
X65512292Y-32948554D01*
X65493820Y-32913995D01*
X65482445Y-32876499D01*
X65478000Y-32831362D01*
X65478000Y-32192638D01*
X65482445Y-32147501D01*
X65493820Y-32110005D01*
X65512292Y-32075446D01*
X65537153Y-32045153D01*
X65567446Y-32020292D01*
X65602005Y-32001820D01*
X65639501Y-31990445D01*
X65684638Y-31986000D01*
X66423362Y-31986000D01*
X66468499Y-31990445D01*
X66468499Y-31990445D01*
G37*
G36*
X68218499Y-31990445D02*
G01*
X68255995Y-32001820D01*
X68290554Y-32020292D01*
X68320847Y-32045153D01*
X68345708Y-32075446D01*
X68364180Y-32110005D01*
X68375555Y-32147501D01*
X68380000Y-32192638D01*
X68380000Y-32831362D01*
X68375555Y-32876499D01*
X68364180Y-32913995D01*
X68345708Y-32948554D01*
X68320847Y-32978847D01*
X68290554Y-33003708D01*
X68255995Y-33022180D01*
X68218499Y-33033555D01*
X68173362Y-33038000D01*
X67434638Y-33038000D01*
X67389501Y-33033555D01*
X67352005Y-33022180D01*
X67317446Y-33003708D01*
X67287153Y-32978847D01*
X67262292Y-32948554D01*
X67243820Y-32913995D01*
X67232445Y-32876499D01*
X67228000Y-32831362D01*
X67228000Y-32192638D01*
X67232445Y-32147501D01*
X67243820Y-32110005D01*
X67262292Y-32075446D01*
X67287153Y-32045153D01*
X67317446Y-32020292D01*
X67352005Y-32001820D01*
X67389501Y-31990445D01*
X67434638Y-31986000D01*
X68173362Y-31986000D01*
X68218499Y-31990445D01*
X68218499Y-31990445D01*
G37*
G36*
X64320000Y-32360500D02*
G01*
X61918000Y-32360500D01*
X61918000Y-30758500D01*
X64320000Y-30758500D01*
X64320000Y-32360500D01*
X64320000Y-32360500D01*
G37*
G36*
X74822499Y-30974445D02*
G01*
X74859995Y-30985820D01*
X74894554Y-31004292D01*
X74924847Y-31029153D01*
X74949708Y-31059446D01*
X74968180Y-31094005D01*
X74979555Y-31131501D01*
X74984000Y-31176638D01*
X74984000Y-31815362D01*
X74979555Y-31860499D01*
X74968180Y-31897995D01*
X74949708Y-31932554D01*
X74924847Y-31962847D01*
X74894554Y-31987708D01*
X74859995Y-32006180D01*
X74822499Y-32017555D01*
X74777362Y-32022000D01*
X74038638Y-32022000D01*
X73993501Y-32017555D01*
X73956005Y-32006180D01*
X73921446Y-31987708D01*
X73891153Y-31962847D01*
X73866292Y-31932554D01*
X73847820Y-31897995D01*
X73836445Y-31860499D01*
X73832000Y-31815362D01*
X73832000Y-31176638D01*
X73836445Y-31131501D01*
X73847820Y-31094005D01*
X73866292Y-31059446D01*
X73891153Y-31029153D01*
X73921446Y-31004292D01*
X73956005Y-30985820D01*
X73993501Y-30974445D01*
X74038638Y-30970000D01*
X74777362Y-30970000D01*
X74822499Y-30974445D01*
X74822499Y-30974445D01*
G37*
G36*
X81426499Y-30974445D02*
G01*
X81463995Y-30985820D01*
X81498554Y-31004292D01*
X81528847Y-31029153D01*
X81553708Y-31059446D01*
X81572180Y-31094005D01*
X81583555Y-31131501D01*
X81588000Y-31176638D01*
X81588000Y-31815362D01*
X81583555Y-31860499D01*
X81572180Y-31897995D01*
X81553708Y-31932554D01*
X81528847Y-31962847D01*
X81498554Y-31987708D01*
X81463995Y-32006180D01*
X81426499Y-32017555D01*
X81381362Y-32022000D01*
X80642638Y-32022000D01*
X80597501Y-32017555D01*
X80560005Y-32006180D01*
X80525446Y-31987708D01*
X80495153Y-31962847D01*
X80470292Y-31932554D01*
X80451820Y-31897995D01*
X80440445Y-31860499D01*
X80436000Y-31815362D01*
X80436000Y-31176638D01*
X80440445Y-31131501D01*
X80451820Y-31094005D01*
X80470292Y-31059446D01*
X80495153Y-31029153D01*
X80525446Y-31004292D01*
X80560005Y-30985820D01*
X80597501Y-30974445D01*
X80642638Y-30970000D01*
X81381362Y-30970000D01*
X81426499Y-30974445D01*
X81426499Y-30974445D01*
G37*
G36*
X79676499Y-30974445D02*
G01*
X79713995Y-30985820D01*
X79748554Y-31004292D01*
X79778847Y-31029153D01*
X79803708Y-31059446D01*
X79822180Y-31094005D01*
X79833555Y-31131501D01*
X79838000Y-31176638D01*
X79838000Y-31815362D01*
X79833555Y-31860499D01*
X79822180Y-31897995D01*
X79803708Y-31932554D01*
X79778847Y-31962847D01*
X79748554Y-31987708D01*
X79713995Y-32006180D01*
X79676499Y-32017555D01*
X79631362Y-32022000D01*
X78892638Y-32022000D01*
X78847501Y-32017555D01*
X78810005Y-32006180D01*
X78775446Y-31987708D01*
X78745153Y-31962847D01*
X78720292Y-31932554D01*
X78701820Y-31897995D01*
X78690445Y-31860499D01*
X78686000Y-31815362D01*
X78686000Y-31176638D01*
X78690445Y-31131501D01*
X78701820Y-31094005D01*
X78720292Y-31059446D01*
X78745153Y-31029153D01*
X78775446Y-31004292D01*
X78810005Y-30985820D01*
X78847501Y-30974445D01*
X78892638Y-30970000D01*
X79631362Y-30970000D01*
X79676499Y-30974445D01*
X79676499Y-30974445D01*
G37*
G36*
X73072499Y-30974445D02*
G01*
X73109995Y-30985820D01*
X73144554Y-31004292D01*
X73174847Y-31029153D01*
X73199708Y-31059446D01*
X73218180Y-31094005D01*
X73229555Y-31131501D01*
X73234000Y-31176638D01*
X73234000Y-31815362D01*
X73229555Y-31860499D01*
X73218180Y-31897995D01*
X73199708Y-31932554D01*
X73174847Y-31962847D01*
X73144554Y-31987708D01*
X73109995Y-32006180D01*
X73072499Y-32017555D01*
X73027362Y-32022000D01*
X72288638Y-32022000D01*
X72243501Y-32017555D01*
X72206005Y-32006180D01*
X72171446Y-31987708D01*
X72141153Y-31962847D01*
X72116292Y-31932554D01*
X72097820Y-31897995D01*
X72086445Y-31860499D01*
X72082000Y-31815362D01*
X72082000Y-31176638D01*
X72086445Y-31131501D01*
X72097820Y-31094005D01*
X72116292Y-31059446D01*
X72141153Y-31029153D01*
X72171446Y-31004292D01*
X72206005Y-30985820D01*
X72243501Y-30974445D01*
X72288638Y-30970000D01*
X73027362Y-30970000D01*
X73072499Y-30974445D01*
X73072499Y-30974445D01*
G37*
G36*
X78124499Y-30974445D02*
G01*
X78161995Y-30985820D01*
X78196554Y-31004292D01*
X78226847Y-31029153D01*
X78251708Y-31059446D01*
X78270180Y-31094005D01*
X78281555Y-31131501D01*
X78286000Y-31176638D01*
X78286000Y-31815362D01*
X78281555Y-31860499D01*
X78270180Y-31897995D01*
X78251708Y-31932554D01*
X78226847Y-31962847D01*
X78196554Y-31987708D01*
X78161995Y-32006180D01*
X78124499Y-32017555D01*
X78079362Y-32022000D01*
X77340638Y-32022000D01*
X77295501Y-32017555D01*
X77258005Y-32006180D01*
X77223446Y-31987708D01*
X77193153Y-31962847D01*
X77168292Y-31932554D01*
X77149820Y-31897995D01*
X77138445Y-31860499D01*
X77134000Y-31815362D01*
X77134000Y-31176638D01*
X77138445Y-31131501D01*
X77149820Y-31094005D01*
X77168292Y-31059446D01*
X77193153Y-31029153D01*
X77223446Y-31004292D01*
X77258005Y-30985820D01*
X77295501Y-30974445D01*
X77340638Y-30970000D01*
X78079362Y-30970000D01*
X78124499Y-30974445D01*
X78124499Y-30974445D01*
G37*
G36*
X76374499Y-30974445D02*
G01*
X76411995Y-30985820D01*
X76446554Y-31004292D01*
X76476847Y-31029153D01*
X76501708Y-31059446D01*
X76520180Y-31094005D01*
X76531555Y-31131501D01*
X76536000Y-31176638D01*
X76536000Y-31815362D01*
X76531555Y-31860499D01*
X76520180Y-31897995D01*
X76501708Y-31932554D01*
X76476847Y-31962847D01*
X76446554Y-31987708D01*
X76411995Y-32006180D01*
X76374499Y-32017555D01*
X76329362Y-32022000D01*
X75590638Y-32022000D01*
X75545501Y-32017555D01*
X75508005Y-32006180D01*
X75473446Y-31987708D01*
X75443153Y-31962847D01*
X75418292Y-31932554D01*
X75399820Y-31897995D01*
X75388445Y-31860499D01*
X75384000Y-31815362D01*
X75384000Y-31176638D01*
X75388445Y-31131501D01*
X75399820Y-31094005D01*
X75418292Y-31059446D01*
X75443153Y-31029153D01*
X75473446Y-31004292D01*
X75508005Y-30985820D01*
X75545501Y-30974445D01*
X75590638Y-30970000D01*
X76329362Y-30970000D01*
X76374499Y-30974445D01*
X76374499Y-30974445D01*
G37*
G36*
X51545442Y-30220518D02*
G01*
X51611627Y-30227037D01*
X51781466Y-30278557D01*
X51937991Y-30362222D01*
X51973729Y-30391552D01*
X52075186Y-30474814D01*
X52158448Y-30576271D01*
X52187778Y-30612009D01*
X52271443Y-30768534D01*
X52322963Y-30938373D01*
X52340359Y-31115000D01*
X52322963Y-31291627D01*
X52271443Y-31461466D01*
X52187778Y-31617991D01*
X52158448Y-31653729D01*
X52075186Y-31755186D01*
X52008017Y-31810309D01*
X51937991Y-31867778D01*
X51781466Y-31951443D01*
X51611627Y-32002963D01*
X51545443Y-32009481D01*
X51479260Y-32016000D01*
X51390740Y-32016000D01*
X51324557Y-32009481D01*
X51258373Y-32002963D01*
X51088534Y-31951443D01*
X50932009Y-31867778D01*
X50861983Y-31810309D01*
X50794814Y-31755186D01*
X50711552Y-31653729D01*
X50682222Y-31617991D01*
X50598557Y-31461466D01*
X50547037Y-31291627D01*
X50529641Y-31115000D01*
X50547037Y-30938373D01*
X50598557Y-30768534D01*
X50682222Y-30612009D01*
X50711552Y-30576271D01*
X50794814Y-30474814D01*
X50896271Y-30391552D01*
X50932009Y-30362222D01*
X51088534Y-30278557D01*
X51258373Y-30227037D01*
X51324558Y-30220518D01*
X51390740Y-30214000D01*
X51479260Y-30214000D01*
X51545442Y-30220518D01*
X51545442Y-30220518D01*
G37*
G36*
X49005442Y-30220518D02*
G01*
X49071627Y-30227037D01*
X49241466Y-30278557D01*
X49397991Y-30362222D01*
X49433729Y-30391552D01*
X49535186Y-30474814D01*
X49618448Y-30576271D01*
X49647778Y-30612009D01*
X49731443Y-30768534D01*
X49782963Y-30938373D01*
X49800359Y-31115000D01*
X49782963Y-31291627D01*
X49731443Y-31461466D01*
X49647778Y-31617991D01*
X49618448Y-31653729D01*
X49535186Y-31755186D01*
X49468017Y-31810309D01*
X49397991Y-31867778D01*
X49241466Y-31951443D01*
X49071627Y-32002963D01*
X49005443Y-32009481D01*
X48939260Y-32016000D01*
X48850740Y-32016000D01*
X48784557Y-32009481D01*
X48718373Y-32002963D01*
X48548534Y-31951443D01*
X48392009Y-31867778D01*
X48321983Y-31810309D01*
X48254814Y-31755186D01*
X48171552Y-31653729D01*
X48142222Y-31617991D01*
X48058557Y-31461466D01*
X48007037Y-31291627D01*
X47989641Y-31115000D01*
X48007037Y-30938373D01*
X48058557Y-30768534D01*
X48142222Y-30612009D01*
X48171552Y-30576271D01*
X48254814Y-30474814D01*
X48356271Y-30391552D01*
X48392009Y-30362222D01*
X48548534Y-30278557D01*
X48718373Y-30227037D01*
X48784558Y-30220518D01*
X48850740Y-30214000D01*
X48939260Y-30214000D01*
X49005442Y-30220518D01*
X49005442Y-30220518D01*
G37*
G36*
X51545443Y-27680519D02*
G01*
X51611627Y-27687037D01*
X51781466Y-27738557D01*
X51937991Y-27822222D01*
X51973729Y-27851552D01*
X52075186Y-27934814D01*
X52158448Y-28036271D01*
X52187778Y-28072009D01*
X52271443Y-28228534D01*
X52322963Y-28398373D01*
X52340359Y-28575000D01*
X52322963Y-28751627D01*
X52271443Y-28921466D01*
X52187778Y-29077991D01*
X52158448Y-29113729D01*
X52075186Y-29215186D01*
X51973729Y-29298448D01*
X51937991Y-29327778D01*
X51781466Y-29411443D01*
X51611627Y-29462963D01*
X51545443Y-29469481D01*
X51479260Y-29476000D01*
X51390740Y-29476000D01*
X51324557Y-29469481D01*
X51258373Y-29462963D01*
X51088534Y-29411443D01*
X50932009Y-29327778D01*
X50896271Y-29298448D01*
X50794814Y-29215186D01*
X50711552Y-29113729D01*
X50682222Y-29077991D01*
X50598557Y-28921466D01*
X50547037Y-28751627D01*
X50529641Y-28575000D01*
X50547037Y-28398373D01*
X50598557Y-28228534D01*
X50682222Y-28072009D01*
X50711552Y-28036271D01*
X50794814Y-27934814D01*
X50896271Y-27851552D01*
X50932009Y-27822222D01*
X51088534Y-27738557D01*
X51258373Y-27687037D01*
X51324557Y-27680519D01*
X51390740Y-27674000D01*
X51479260Y-27674000D01*
X51545443Y-27680519D01*
X51545443Y-27680519D01*
G37*
G36*
X49005443Y-27680519D02*
G01*
X49071627Y-27687037D01*
X49241466Y-27738557D01*
X49397991Y-27822222D01*
X49433729Y-27851552D01*
X49535186Y-27934814D01*
X49618448Y-28036271D01*
X49647778Y-28072009D01*
X49731443Y-28228534D01*
X49782963Y-28398373D01*
X49800359Y-28575000D01*
X49782963Y-28751627D01*
X49731443Y-28921466D01*
X49647778Y-29077991D01*
X49618448Y-29113729D01*
X49535186Y-29215186D01*
X49433729Y-29298448D01*
X49397991Y-29327778D01*
X49241466Y-29411443D01*
X49071627Y-29462963D01*
X49005443Y-29469481D01*
X48939260Y-29476000D01*
X48850740Y-29476000D01*
X48784557Y-29469481D01*
X48718373Y-29462963D01*
X48548534Y-29411443D01*
X48392009Y-29327778D01*
X48356271Y-29298448D01*
X48254814Y-29215186D01*
X48171552Y-29113729D01*
X48142222Y-29077991D01*
X48058557Y-28921466D01*
X48007037Y-28751627D01*
X47989641Y-28575000D01*
X48007037Y-28398373D01*
X48058557Y-28228534D01*
X48142222Y-28072009D01*
X48171552Y-28036271D01*
X48254814Y-27934814D01*
X48356271Y-27851552D01*
X48392009Y-27822222D01*
X48548534Y-27738557D01*
X48718373Y-27687037D01*
X48784557Y-27680519D01*
X48850740Y-27674000D01*
X48939260Y-27674000D01*
X49005443Y-27680519D01*
X49005443Y-27680519D01*
G37*
M02*
