M48
; DRILL file {KiCad (5.1.2)-2} date 2019/12/17 18:16:12
; FORMAT={-:-/ absolute / inch / decimal}
; #@! TF.CreationDate,2019-12-17T18:16:12+09:00
; #@! TF.GenerationSoftware,Kicad,Pcbnew,(5.1.2)-2
; #@! TF.FileFunction,Plated,1,2,PTH
FMAT,2
INCH
T1C0.0157
T2C0.0315
T3C0.0394
T4C0.0602
T5C0.0646
%
G90
G05
T1
X2.15Y-1.25
X2.15Y-1.425
X2.15Y-1.6
X2.15Y-1.8
X2.15Y-2.3
X2.1519Y-2.0313
X2.2Y-2.64
X2.225Y-1.12
X2.25Y-1.375
X2.335Y-1.405
X2.385Y-1.225
X2.44Y-1.935
X2.475Y-3.025
X2.49Y-1.37
X2.595Y-2.195
X2.645Y-1.415
X2.85Y-2.4
X2.85Y-2.575
X2.855Y-1.69
X2.93Y-2.275
X2.93Y-2.525
X2.95Y-1.3
X3.3Y-1.475
X3.3Y-2.525
T2
X3.145Y-1.8831
X3.145Y-2.08
X2.975Y-1.8831
X2.975Y-2.08
X2.295Y-1.79
X2.295Y-2.09
X2.595Y-1.79
X2.595Y-2.09
X2.735Y-1.515
X2.735Y-1.6134
T3
X1.925Y-1.125
X1.925Y-1.225
X1.925Y-1.325
X1.925Y-1.425
X1.925Y-1.525
X1.925Y-1.625
X1.925Y-1.725
X1.925Y-1.825
X1.925Y-1.925
X1.925Y-2.025
X1.925Y-2.125
X1.925Y-2.225
X1.925Y-2.325
X1.925Y-2.425
X1.925Y-2.525
X1.925Y-2.625
X1.925Y-2.725
X1.925Y-2.825
X1.925Y-2.925
X1.925Y-3.025
X2.025Y-1.125
X2.025Y-1.225
X2.025Y-1.325
X2.025Y-1.425
X2.025Y-1.525
X2.025Y-1.625
X2.025Y-1.725
X2.025Y-1.825
X2.025Y-1.925
X2.025Y-2.025
X2.025Y-2.125
X2.025Y-2.225
X2.025Y-2.325
X2.025Y-2.425
X2.025Y-2.525
X2.025Y-2.625
X2.025Y-2.725
X2.025Y-2.825
X2.025Y-2.925
X2.025Y-3.025
X2.805Y-1.84
X2.805Y-1.94
X2.805Y-2.04
T4
X2.9419Y-2.7766
X2.9419Y-1.7266
T5
X2.9419Y-2.6034
X3.1585Y-2.5817
X3.1585Y-2.7983
X2.9419Y-1.5534
X3.1585Y-1.5317
X3.1585Y-1.7483
T0
M30
