G04 #@! TF.GenerationSoftware,KiCad,Pcbnew,(5.1.2)-2*
G04 #@! TF.CreationDate,2019-12-17T18:16:02+09:00*
G04 #@! TF.ProjectId,simplecodec3,73696d70-6c65-4636-9f64-6563332e6b69,rev?*
G04 #@! TF.SameCoordinates,Original*
G04 #@! TF.FileFunction,Soldermask,Bot*
G04 #@! TF.FilePolarity,Negative*
%FSLAX46Y46*%
G04 Gerber Fmt 4.6, Leading zero omitted, Abs format (unit mm)*
G04 Created by KiCad (PCBNEW (5.1.2)-2) date 2019-12-17 18:16:02*
%MOMM*%
%LPD*%
G04 APERTURE LIST*
%ADD10C,0.100000*%
G04 APERTURE END LIST*
D10*
G36*
X52336000Y-77736000D02*
G01*
X50534000Y-77736000D01*
X50534000Y-75934000D01*
X52336000Y-75934000D01*
X52336000Y-77736000D01*
X52336000Y-77736000D01*
G37*
G36*
X49005442Y-75940518D02*
G01*
X49071627Y-75947037D01*
X49241466Y-75998557D01*
X49397991Y-76082222D01*
X49433729Y-76111552D01*
X49535186Y-76194814D01*
X49618448Y-76296271D01*
X49647778Y-76332009D01*
X49731443Y-76488534D01*
X49782963Y-76658373D01*
X49800359Y-76835000D01*
X49782963Y-77011627D01*
X49731443Y-77181466D01*
X49647778Y-77337991D01*
X49618448Y-77373729D01*
X49535186Y-77475186D01*
X49433729Y-77558448D01*
X49397991Y-77587778D01*
X49241466Y-77671443D01*
X49071627Y-77722963D01*
X49005443Y-77729481D01*
X48939260Y-77736000D01*
X48850740Y-77736000D01*
X48784557Y-77729481D01*
X48718373Y-77722963D01*
X48548534Y-77671443D01*
X48392009Y-77587778D01*
X48356271Y-77558448D01*
X48254814Y-77475186D01*
X48171552Y-77373729D01*
X48142222Y-77337991D01*
X48058557Y-77181466D01*
X48007037Y-77011627D01*
X47989641Y-76835000D01*
X48007037Y-76658373D01*
X48058557Y-76488534D01*
X48142222Y-76332009D01*
X48171552Y-76296271D01*
X48254814Y-76194814D01*
X48356271Y-76111552D01*
X48392009Y-76082222D01*
X48548534Y-75998557D01*
X48718373Y-75947037D01*
X48784558Y-75940518D01*
X48850740Y-75934000D01*
X48939260Y-75934000D01*
X49005442Y-75940518D01*
X49005442Y-75940518D01*
G37*
G36*
X49005443Y-73400519D02*
G01*
X49071627Y-73407037D01*
X49241466Y-73458557D01*
X49397991Y-73542222D01*
X49433729Y-73571552D01*
X49535186Y-73654814D01*
X49618448Y-73756271D01*
X49647778Y-73792009D01*
X49731443Y-73948534D01*
X49782963Y-74118373D01*
X49800359Y-74295000D01*
X49782963Y-74471627D01*
X49731443Y-74641466D01*
X49647778Y-74797991D01*
X49618448Y-74833729D01*
X49535186Y-74935186D01*
X49433729Y-75018448D01*
X49397991Y-75047778D01*
X49241466Y-75131443D01*
X49071627Y-75182963D01*
X49005442Y-75189482D01*
X48939260Y-75196000D01*
X48850740Y-75196000D01*
X48784558Y-75189482D01*
X48718373Y-75182963D01*
X48548534Y-75131443D01*
X48392009Y-75047778D01*
X48356271Y-75018448D01*
X48254814Y-74935186D01*
X48171552Y-74833729D01*
X48142222Y-74797991D01*
X48058557Y-74641466D01*
X48007037Y-74471627D01*
X47989641Y-74295000D01*
X48007037Y-74118373D01*
X48058557Y-73948534D01*
X48142222Y-73792009D01*
X48171552Y-73756271D01*
X48254814Y-73654814D01*
X48356271Y-73571552D01*
X48392009Y-73542222D01*
X48548534Y-73458557D01*
X48718373Y-73407037D01*
X48784557Y-73400519D01*
X48850740Y-73394000D01*
X48939260Y-73394000D01*
X49005443Y-73400519D01*
X49005443Y-73400519D01*
G37*
G36*
X51545443Y-73400519D02*
G01*
X51611627Y-73407037D01*
X51781466Y-73458557D01*
X51937991Y-73542222D01*
X51973729Y-73571552D01*
X52075186Y-73654814D01*
X52158448Y-73756271D01*
X52187778Y-73792009D01*
X52271443Y-73948534D01*
X52322963Y-74118373D01*
X52340359Y-74295000D01*
X52322963Y-74471627D01*
X52271443Y-74641466D01*
X52187778Y-74797991D01*
X52158448Y-74833729D01*
X52075186Y-74935186D01*
X51973729Y-75018448D01*
X51937991Y-75047778D01*
X51781466Y-75131443D01*
X51611627Y-75182963D01*
X51545442Y-75189482D01*
X51479260Y-75196000D01*
X51390740Y-75196000D01*
X51324558Y-75189482D01*
X51258373Y-75182963D01*
X51088534Y-75131443D01*
X50932009Y-75047778D01*
X50896271Y-75018448D01*
X50794814Y-74935186D01*
X50711552Y-74833729D01*
X50682222Y-74797991D01*
X50598557Y-74641466D01*
X50547037Y-74471627D01*
X50529641Y-74295000D01*
X50547037Y-74118373D01*
X50598557Y-73948534D01*
X50682222Y-73792009D01*
X50711552Y-73756271D01*
X50794814Y-73654814D01*
X50896271Y-73571552D01*
X50932009Y-73542222D01*
X51088534Y-73458557D01*
X51258373Y-73407037D01*
X51324557Y-73400519D01*
X51390740Y-73394000D01*
X51479260Y-73394000D01*
X51545443Y-73400519D01*
X51545443Y-73400519D01*
G37*
G36*
X49005442Y-70860518D02*
G01*
X49071627Y-70867037D01*
X49241466Y-70918557D01*
X49397991Y-71002222D01*
X49433729Y-71031552D01*
X49535186Y-71114814D01*
X49618448Y-71216271D01*
X49647778Y-71252009D01*
X49731443Y-71408534D01*
X49782963Y-71578373D01*
X49800359Y-71755000D01*
X49782963Y-71931627D01*
X49731443Y-72101466D01*
X49647778Y-72257991D01*
X49618448Y-72293729D01*
X49535186Y-72395186D01*
X49433729Y-72478448D01*
X49397991Y-72507778D01*
X49241466Y-72591443D01*
X49071627Y-72642963D01*
X49005443Y-72649481D01*
X48939260Y-72656000D01*
X48850740Y-72656000D01*
X48784557Y-72649481D01*
X48718373Y-72642963D01*
X48548534Y-72591443D01*
X48392009Y-72507778D01*
X48356271Y-72478448D01*
X48254814Y-72395186D01*
X48171552Y-72293729D01*
X48142222Y-72257991D01*
X48058557Y-72101466D01*
X48007037Y-71931627D01*
X47989641Y-71755000D01*
X48007037Y-71578373D01*
X48058557Y-71408534D01*
X48142222Y-71252009D01*
X48171552Y-71216271D01*
X48254814Y-71114814D01*
X48356271Y-71031552D01*
X48392009Y-71002222D01*
X48548534Y-70918557D01*
X48718373Y-70867037D01*
X48784558Y-70860518D01*
X48850740Y-70854000D01*
X48939260Y-70854000D01*
X49005442Y-70860518D01*
X49005442Y-70860518D01*
G37*
G36*
X51545442Y-70860518D02*
G01*
X51611627Y-70867037D01*
X51781466Y-70918557D01*
X51937991Y-71002222D01*
X51973729Y-71031552D01*
X52075186Y-71114814D01*
X52158448Y-71216271D01*
X52187778Y-71252009D01*
X52271443Y-71408534D01*
X52322963Y-71578373D01*
X52340359Y-71755000D01*
X52322963Y-71931627D01*
X52271443Y-72101466D01*
X52187778Y-72257991D01*
X52158448Y-72293729D01*
X52075186Y-72395186D01*
X51973729Y-72478448D01*
X51937991Y-72507778D01*
X51781466Y-72591443D01*
X51611627Y-72642963D01*
X51545443Y-72649481D01*
X51479260Y-72656000D01*
X51390740Y-72656000D01*
X51324557Y-72649481D01*
X51258373Y-72642963D01*
X51088534Y-72591443D01*
X50932009Y-72507778D01*
X50896271Y-72478448D01*
X50794814Y-72395186D01*
X50711552Y-72293729D01*
X50682222Y-72257991D01*
X50598557Y-72101466D01*
X50547037Y-71931627D01*
X50529641Y-71755000D01*
X50547037Y-71578373D01*
X50598557Y-71408534D01*
X50682222Y-71252009D01*
X50711552Y-71216271D01*
X50794814Y-71114814D01*
X50896271Y-71031552D01*
X50932009Y-71002222D01*
X51088534Y-70918557D01*
X51258373Y-70867037D01*
X51324558Y-70860518D01*
X51390740Y-70854000D01*
X51479260Y-70854000D01*
X51545442Y-70860518D01*
X51545442Y-70860518D01*
G37*
G36*
X80597194Y-69849035D02*
G01*
X80693382Y-69888878D01*
X80829413Y-69945223D01*
X81038403Y-70084866D01*
X81216134Y-70262597D01*
X81355777Y-70471587D01*
X81412122Y-70607618D01*
X81451965Y-70703806D01*
X81501000Y-70950324D01*
X81501000Y-71201676D01*
X81451965Y-71448194D01*
X81412122Y-71544382D01*
X81355777Y-71680413D01*
X81216134Y-71889403D01*
X81038403Y-72067134D01*
X80829413Y-72206777D01*
X80705775Y-72257989D01*
X80597194Y-72302965D01*
X80350676Y-72352000D01*
X80099324Y-72352000D01*
X79852806Y-72302965D01*
X79744225Y-72257989D01*
X79620587Y-72206777D01*
X79411597Y-72067134D01*
X79233866Y-71889403D01*
X79094223Y-71680413D01*
X79037878Y-71544382D01*
X78998035Y-71448194D01*
X78949000Y-71201676D01*
X78949000Y-70950324D01*
X78998035Y-70703806D01*
X79037878Y-70607618D01*
X79094223Y-70471587D01*
X79233866Y-70262597D01*
X79411597Y-70084866D01*
X79620587Y-69945223D01*
X79756618Y-69888878D01*
X79852806Y-69849035D01*
X80099324Y-69800000D01*
X80350676Y-69800000D01*
X80597194Y-69849035D01*
X80597194Y-69849035D01*
G37*
G36*
X75075318Y-69371153D02*
G01*
X75293885Y-69461687D01*
X75293887Y-69461688D01*
X75490593Y-69593122D01*
X75657878Y-69760407D01*
X75781367Y-69945223D01*
X75789313Y-69957115D01*
X75879847Y-70175682D01*
X75926000Y-70407710D01*
X75926000Y-70644290D01*
X75879847Y-70876318D01*
X75789313Y-71094885D01*
X75789312Y-71094887D01*
X75657878Y-71291593D01*
X75490593Y-71458878D01*
X75293887Y-71590312D01*
X75293886Y-71590313D01*
X75293885Y-71590313D01*
X75075318Y-71680847D01*
X74843290Y-71727000D01*
X74606710Y-71727000D01*
X74374682Y-71680847D01*
X74156115Y-71590313D01*
X74156114Y-71590313D01*
X74156113Y-71590312D01*
X73959407Y-71458878D01*
X73792122Y-71291593D01*
X73660688Y-71094887D01*
X73660687Y-71094885D01*
X73570153Y-70876318D01*
X73524000Y-70644290D01*
X73524000Y-70407710D01*
X73570153Y-70175682D01*
X73660687Y-69957115D01*
X73668633Y-69945223D01*
X73792122Y-69760407D01*
X73959407Y-69593122D01*
X74156113Y-69461688D01*
X74156115Y-69461687D01*
X74374682Y-69371153D01*
X74606710Y-69325000D01*
X74843290Y-69325000D01*
X75075318Y-69371153D01*
X75075318Y-69371153D01*
G37*
G36*
X51545442Y-68320518D02*
G01*
X51611627Y-68327037D01*
X51781466Y-68378557D01*
X51937991Y-68462222D01*
X51973729Y-68491552D01*
X52075186Y-68574814D01*
X52158448Y-68676271D01*
X52187778Y-68712009D01*
X52271443Y-68868534D01*
X52322963Y-69038373D01*
X52340359Y-69215000D01*
X52322963Y-69391627D01*
X52271443Y-69561466D01*
X52187778Y-69717991D01*
X52158448Y-69753729D01*
X52075186Y-69855186D01*
X51973729Y-69938448D01*
X51937991Y-69967778D01*
X51781466Y-70051443D01*
X51611627Y-70102963D01*
X51545442Y-70109482D01*
X51479260Y-70116000D01*
X51390740Y-70116000D01*
X51324558Y-70109482D01*
X51258373Y-70102963D01*
X51088534Y-70051443D01*
X50932009Y-69967778D01*
X50896271Y-69938448D01*
X50794814Y-69855186D01*
X50711552Y-69753729D01*
X50682222Y-69717991D01*
X50598557Y-69561466D01*
X50547037Y-69391627D01*
X50529641Y-69215000D01*
X50547037Y-69038373D01*
X50598557Y-68868534D01*
X50682222Y-68712009D01*
X50711552Y-68676271D01*
X50794814Y-68574814D01*
X50896271Y-68491552D01*
X50932009Y-68462222D01*
X51088534Y-68378557D01*
X51258373Y-68327037D01*
X51324558Y-68320518D01*
X51390740Y-68314000D01*
X51479260Y-68314000D01*
X51545442Y-68320518D01*
X51545442Y-68320518D01*
G37*
G36*
X49005442Y-68320518D02*
G01*
X49071627Y-68327037D01*
X49241466Y-68378557D01*
X49397991Y-68462222D01*
X49433729Y-68491552D01*
X49535186Y-68574814D01*
X49618448Y-68676271D01*
X49647778Y-68712009D01*
X49731443Y-68868534D01*
X49782963Y-69038373D01*
X49800359Y-69215000D01*
X49782963Y-69391627D01*
X49731443Y-69561466D01*
X49647778Y-69717991D01*
X49618448Y-69753729D01*
X49535186Y-69855186D01*
X49433729Y-69938448D01*
X49397991Y-69967778D01*
X49241466Y-70051443D01*
X49071627Y-70102963D01*
X49005442Y-70109482D01*
X48939260Y-70116000D01*
X48850740Y-70116000D01*
X48784558Y-70109482D01*
X48718373Y-70102963D01*
X48548534Y-70051443D01*
X48392009Y-69967778D01*
X48356271Y-69938448D01*
X48254814Y-69855186D01*
X48171552Y-69753729D01*
X48142222Y-69717991D01*
X48058557Y-69561466D01*
X48007037Y-69391627D01*
X47989641Y-69215000D01*
X48007037Y-69038373D01*
X48058557Y-68868534D01*
X48142222Y-68712009D01*
X48171552Y-68676271D01*
X48254814Y-68574814D01*
X48356271Y-68491552D01*
X48392009Y-68462222D01*
X48548534Y-68378557D01*
X48718373Y-68327037D01*
X48784558Y-68320518D01*
X48850740Y-68314000D01*
X48939260Y-68314000D01*
X49005442Y-68320518D01*
X49005442Y-68320518D01*
G37*
G36*
X51545443Y-65780519D02*
G01*
X51611627Y-65787037D01*
X51781466Y-65838557D01*
X51937991Y-65922222D01*
X51969638Y-65948194D01*
X52075186Y-66034814D01*
X52158448Y-66136271D01*
X52187778Y-66172009D01*
X52271443Y-66328534D01*
X52322963Y-66498373D01*
X52340359Y-66675000D01*
X52322963Y-66851627D01*
X52271443Y-67021466D01*
X52187778Y-67177991D01*
X52158448Y-67213729D01*
X52075186Y-67315186D01*
X51973729Y-67398448D01*
X51937991Y-67427778D01*
X51781466Y-67511443D01*
X51611627Y-67562963D01*
X51545443Y-67569481D01*
X51479260Y-67576000D01*
X51390740Y-67576000D01*
X51324557Y-67569481D01*
X51258373Y-67562963D01*
X51088534Y-67511443D01*
X50932009Y-67427778D01*
X50896271Y-67398448D01*
X50794814Y-67315186D01*
X50711552Y-67213729D01*
X50682222Y-67177991D01*
X50598557Y-67021466D01*
X50547037Y-66851627D01*
X50529641Y-66675000D01*
X50547037Y-66498373D01*
X50598557Y-66328534D01*
X50682222Y-66172009D01*
X50711552Y-66136271D01*
X50794814Y-66034814D01*
X50900362Y-65948194D01*
X50932009Y-65922222D01*
X51088534Y-65838557D01*
X51258373Y-65787037D01*
X51324557Y-65780519D01*
X51390740Y-65774000D01*
X51479260Y-65774000D01*
X51545443Y-65780519D01*
X51545443Y-65780519D01*
G37*
G36*
X49005443Y-65780519D02*
G01*
X49071627Y-65787037D01*
X49241466Y-65838557D01*
X49397991Y-65922222D01*
X49429638Y-65948194D01*
X49535186Y-66034814D01*
X49618448Y-66136271D01*
X49647778Y-66172009D01*
X49731443Y-66328534D01*
X49782963Y-66498373D01*
X49800359Y-66675000D01*
X49782963Y-66851627D01*
X49731443Y-67021466D01*
X49647778Y-67177991D01*
X49618448Y-67213729D01*
X49535186Y-67315186D01*
X49433729Y-67398448D01*
X49397991Y-67427778D01*
X49241466Y-67511443D01*
X49071627Y-67562963D01*
X49005443Y-67569481D01*
X48939260Y-67576000D01*
X48850740Y-67576000D01*
X48784557Y-67569481D01*
X48718373Y-67562963D01*
X48548534Y-67511443D01*
X48392009Y-67427778D01*
X48356271Y-67398448D01*
X48254814Y-67315186D01*
X48171552Y-67213729D01*
X48142222Y-67177991D01*
X48058557Y-67021466D01*
X48007037Y-66851627D01*
X47989641Y-66675000D01*
X48007037Y-66498373D01*
X48058557Y-66328534D01*
X48142222Y-66172009D01*
X48171552Y-66136271D01*
X48254814Y-66034814D01*
X48360362Y-65948194D01*
X48392009Y-65922222D01*
X48548534Y-65838557D01*
X48718373Y-65787037D01*
X48784557Y-65780519D01*
X48850740Y-65774000D01*
X48939260Y-65774000D01*
X49005443Y-65780519D01*
X49005443Y-65780519D01*
G37*
G36*
X75097194Y-64899035D02*
G01*
X75193382Y-64938878D01*
X75329413Y-64995223D01*
X75538403Y-65134866D01*
X75716134Y-65312597D01*
X75855777Y-65521587D01*
X75912122Y-65657618D01*
X75951965Y-65753806D01*
X76001000Y-66000324D01*
X76001000Y-66251676D01*
X75951965Y-66498194D01*
X75923409Y-66567134D01*
X75855777Y-66730413D01*
X75716134Y-66939403D01*
X75538403Y-67117134D01*
X75329413Y-67256777D01*
X75193382Y-67313122D01*
X75097194Y-67352965D01*
X74850676Y-67402000D01*
X74599324Y-67402000D01*
X74352806Y-67352965D01*
X74256618Y-67313122D01*
X74120587Y-67256777D01*
X73911597Y-67117134D01*
X73733866Y-66939403D01*
X73594223Y-66730413D01*
X73526591Y-66567134D01*
X73498035Y-66498194D01*
X73449000Y-66251676D01*
X73449000Y-66000324D01*
X73498035Y-65753806D01*
X73537878Y-65657618D01*
X73594223Y-65521587D01*
X73733866Y-65312597D01*
X73911597Y-65134866D01*
X74120587Y-64995223D01*
X74256618Y-64938878D01*
X74352806Y-64899035D01*
X74599324Y-64850000D01*
X74850676Y-64850000D01*
X75097194Y-64899035D01*
X75097194Y-64899035D01*
G37*
G36*
X80597194Y-64349035D02*
G01*
X80693382Y-64388878D01*
X80829413Y-64445223D01*
X81038403Y-64584866D01*
X81216134Y-64762597D01*
X81355777Y-64971587D01*
X81412122Y-65107618D01*
X81451965Y-65203806D01*
X81501000Y-65450324D01*
X81501000Y-65701676D01*
X81451965Y-65948194D01*
X81416086Y-66034814D01*
X81355777Y-66180413D01*
X81216134Y-66389403D01*
X81038403Y-66567134D01*
X80829413Y-66706777D01*
X80693382Y-66763122D01*
X80597194Y-66802965D01*
X80350676Y-66852000D01*
X80099324Y-66852000D01*
X79852806Y-66802965D01*
X79756618Y-66763122D01*
X79620587Y-66706777D01*
X79411597Y-66567134D01*
X79233866Y-66389403D01*
X79094223Y-66180413D01*
X79033914Y-66034814D01*
X78998035Y-65948194D01*
X78949000Y-65701676D01*
X78949000Y-65450324D01*
X78998035Y-65203806D01*
X79037878Y-65107618D01*
X79094223Y-64971587D01*
X79233866Y-64762597D01*
X79411597Y-64584866D01*
X79620587Y-64445223D01*
X79756618Y-64388878D01*
X79852806Y-64349035D01*
X80099324Y-64300000D01*
X80350676Y-64300000D01*
X80597194Y-64349035D01*
X80597194Y-64349035D01*
G37*
G36*
X51545443Y-63240519D02*
G01*
X51611627Y-63247037D01*
X51781466Y-63298557D01*
X51937991Y-63382222D01*
X51973729Y-63411552D01*
X52075186Y-63494814D01*
X52158448Y-63596271D01*
X52187778Y-63632009D01*
X52271443Y-63788534D01*
X52322963Y-63958373D01*
X52340359Y-64135000D01*
X52322963Y-64311627D01*
X52271443Y-64481466D01*
X52187778Y-64637991D01*
X52158448Y-64673729D01*
X52075186Y-64775186D01*
X51973729Y-64858448D01*
X51937991Y-64887778D01*
X51781466Y-64971443D01*
X51611627Y-65022963D01*
X51545442Y-65029482D01*
X51479260Y-65036000D01*
X51390740Y-65036000D01*
X51324558Y-65029482D01*
X51258373Y-65022963D01*
X51088534Y-64971443D01*
X50932009Y-64887778D01*
X50896271Y-64858448D01*
X50794814Y-64775186D01*
X50711552Y-64673729D01*
X50682222Y-64637991D01*
X50598557Y-64481466D01*
X50547037Y-64311627D01*
X50529641Y-64135000D01*
X50547037Y-63958373D01*
X50598557Y-63788534D01*
X50682222Y-63632009D01*
X50711552Y-63596271D01*
X50794814Y-63494814D01*
X50896271Y-63411552D01*
X50932009Y-63382222D01*
X51088534Y-63298557D01*
X51258373Y-63247037D01*
X51324557Y-63240519D01*
X51390740Y-63234000D01*
X51479260Y-63234000D01*
X51545443Y-63240519D01*
X51545443Y-63240519D01*
G37*
G36*
X49005443Y-63240519D02*
G01*
X49071627Y-63247037D01*
X49241466Y-63298557D01*
X49397991Y-63382222D01*
X49433729Y-63411552D01*
X49535186Y-63494814D01*
X49618448Y-63596271D01*
X49647778Y-63632009D01*
X49731443Y-63788534D01*
X49782963Y-63958373D01*
X49800359Y-64135000D01*
X49782963Y-64311627D01*
X49731443Y-64481466D01*
X49647778Y-64637991D01*
X49618448Y-64673729D01*
X49535186Y-64775186D01*
X49433729Y-64858448D01*
X49397991Y-64887778D01*
X49241466Y-64971443D01*
X49071627Y-65022963D01*
X49005442Y-65029482D01*
X48939260Y-65036000D01*
X48850740Y-65036000D01*
X48784558Y-65029482D01*
X48718373Y-65022963D01*
X48548534Y-64971443D01*
X48392009Y-64887778D01*
X48356271Y-64858448D01*
X48254814Y-64775186D01*
X48171552Y-64673729D01*
X48142222Y-64637991D01*
X48058557Y-64481466D01*
X48007037Y-64311627D01*
X47989641Y-64135000D01*
X48007037Y-63958373D01*
X48058557Y-63788534D01*
X48142222Y-63632009D01*
X48171552Y-63596271D01*
X48254814Y-63494814D01*
X48356271Y-63411552D01*
X48392009Y-63382222D01*
X48548534Y-63298557D01*
X48718373Y-63247037D01*
X48784557Y-63240519D01*
X48850740Y-63234000D01*
X48939260Y-63234000D01*
X49005443Y-63240519D01*
X49005443Y-63240519D01*
G37*
G36*
X51545443Y-60700519D02*
G01*
X51611627Y-60707037D01*
X51781466Y-60758557D01*
X51937991Y-60842222D01*
X51973729Y-60871552D01*
X52075186Y-60954814D01*
X52158448Y-61056271D01*
X52187778Y-61092009D01*
X52271443Y-61248534D01*
X52322963Y-61418373D01*
X52340359Y-61595000D01*
X52322963Y-61771627D01*
X52271443Y-61941466D01*
X52187778Y-62097991D01*
X52158448Y-62133729D01*
X52075186Y-62235186D01*
X51973729Y-62318448D01*
X51937991Y-62347778D01*
X51781466Y-62431443D01*
X51611627Y-62482963D01*
X51545443Y-62489481D01*
X51479260Y-62496000D01*
X51390740Y-62496000D01*
X51324557Y-62489481D01*
X51258373Y-62482963D01*
X51088534Y-62431443D01*
X50932009Y-62347778D01*
X50896271Y-62318448D01*
X50794814Y-62235186D01*
X50711552Y-62133729D01*
X50682222Y-62097991D01*
X50598557Y-61941466D01*
X50547037Y-61771627D01*
X50529641Y-61595000D01*
X50547037Y-61418373D01*
X50598557Y-61248534D01*
X50682222Y-61092009D01*
X50711552Y-61056271D01*
X50794814Y-60954814D01*
X50896271Y-60871552D01*
X50932009Y-60842222D01*
X51088534Y-60758557D01*
X51258373Y-60707037D01*
X51324557Y-60700519D01*
X51390740Y-60694000D01*
X51479260Y-60694000D01*
X51545443Y-60700519D01*
X51545443Y-60700519D01*
G37*
G36*
X49005443Y-60700519D02*
G01*
X49071627Y-60707037D01*
X49241466Y-60758557D01*
X49397991Y-60842222D01*
X49433729Y-60871552D01*
X49535186Y-60954814D01*
X49618448Y-61056271D01*
X49647778Y-61092009D01*
X49731443Y-61248534D01*
X49782963Y-61418373D01*
X49800359Y-61595000D01*
X49782963Y-61771627D01*
X49731443Y-61941466D01*
X49647778Y-62097991D01*
X49618448Y-62133729D01*
X49535186Y-62235186D01*
X49433729Y-62318448D01*
X49397991Y-62347778D01*
X49241466Y-62431443D01*
X49071627Y-62482963D01*
X49005443Y-62489481D01*
X48939260Y-62496000D01*
X48850740Y-62496000D01*
X48784557Y-62489481D01*
X48718373Y-62482963D01*
X48548534Y-62431443D01*
X48392009Y-62347778D01*
X48356271Y-62318448D01*
X48254814Y-62235186D01*
X48171552Y-62133729D01*
X48142222Y-62097991D01*
X48058557Y-61941466D01*
X48007037Y-61771627D01*
X47989641Y-61595000D01*
X48007037Y-61418373D01*
X48058557Y-61248534D01*
X48142222Y-61092009D01*
X48171552Y-61056271D01*
X48254814Y-60954814D01*
X48356271Y-60871552D01*
X48392009Y-60842222D01*
X48548534Y-60758557D01*
X48718373Y-60707037D01*
X48784557Y-60700519D01*
X48850740Y-60694000D01*
X48939260Y-60694000D01*
X49005443Y-60700519D01*
X49005443Y-60700519D01*
G37*
G36*
X51545442Y-58160518D02*
G01*
X51611627Y-58167037D01*
X51781466Y-58218557D01*
X51937991Y-58302222D01*
X51973729Y-58331552D01*
X52075186Y-58414814D01*
X52158448Y-58516271D01*
X52187778Y-58552009D01*
X52271443Y-58708534D01*
X52322963Y-58878373D01*
X52340359Y-59055000D01*
X52322963Y-59231627D01*
X52271443Y-59401466D01*
X52187778Y-59557991D01*
X52158448Y-59593729D01*
X52075186Y-59695186D01*
X51973729Y-59778448D01*
X51937991Y-59807778D01*
X51781466Y-59891443D01*
X51611627Y-59942963D01*
X51545442Y-59949482D01*
X51479260Y-59956000D01*
X51390740Y-59956000D01*
X51324558Y-59949482D01*
X51258373Y-59942963D01*
X51088534Y-59891443D01*
X50932009Y-59807778D01*
X50896271Y-59778448D01*
X50794814Y-59695186D01*
X50711552Y-59593729D01*
X50682222Y-59557991D01*
X50598557Y-59401466D01*
X50547037Y-59231627D01*
X50529641Y-59055000D01*
X50547037Y-58878373D01*
X50598557Y-58708534D01*
X50682222Y-58552009D01*
X50711552Y-58516271D01*
X50794814Y-58414814D01*
X50896271Y-58331552D01*
X50932009Y-58302222D01*
X51088534Y-58218557D01*
X51258373Y-58167037D01*
X51324558Y-58160518D01*
X51390740Y-58154000D01*
X51479260Y-58154000D01*
X51545442Y-58160518D01*
X51545442Y-58160518D01*
G37*
G36*
X49005442Y-58160518D02*
G01*
X49071627Y-58167037D01*
X49241466Y-58218557D01*
X49397991Y-58302222D01*
X49433729Y-58331552D01*
X49535186Y-58414814D01*
X49618448Y-58516271D01*
X49647778Y-58552009D01*
X49731443Y-58708534D01*
X49782963Y-58878373D01*
X49800359Y-59055000D01*
X49782963Y-59231627D01*
X49731443Y-59401466D01*
X49647778Y-59557991D01*
X49618448Y-59593729D01*
X49535186Y-59695186D01*
X49433729Y-59778448D01*
X49397991Y-59807778D01*
X49241466Y-59891443D01*
X49071627Y-59942963D01*
X49005442Y-59949482D01*
X48939260Y-59956000D01*
X48850740Y-59956000D01*
X48784558Y-59949482D01*
X48718373Y-59942963D01*
X48548534Y-59891443D01*
X48392009Y-59807778D01*
X48356271Y-59778448D01*
X48254814Y-59695186D01*
X48171552Y-59593729D01*
X48142222Y-59557991D01*
X48058557Y-59401466D01*
X48007037Y-59231627D01*
X47989641Y-59055000D01*
X48007037Y-58878373D01*
X48058557Y-58708534D01*
X48142222Y-58552009D01*
X48171552Y-58516271D01*
X48254814Y-58414814D01*
X48356271Y-58331552D01*
X48392009Y-58302222D01*
X48548534Y-58218557D01*
X48718373Y-58167037D01*
X48784558Y-58160518D01*
X48850740Y-58154000D01*
X48939260Y-58154000D01*
X49005442Y-58160518D01*
X49005442Y-58160518D01*
G37*
G36*
X51545443Y-55620519D02*
G01*
X51611627Y-55627037D01*
X51781466Y-55678557D01*
X51937991Y-55762222D01*
X51973729Y-55791552D01*
X52075186Y-55874814D01*
X52158448Y-55976271D01*
X52187778Y-56012009D01*
X52271443Y-56168534D01*
X52322963Y-56338373D01*
X52340359Y-56515000D01*
X52322963Y-56691627D01*
X52271443Y-56861466D01*
X52187778Y-57017991D01*
X52158448Y-57053729D01*
X52075186Y-57155186D01*
X51973729Y-57238448D01*
X51937991Y-57267778D01*
X51781466Y-57351443D01*
X51611627Y-57402963D01*
X51545443Y-57409481D01*
X51479260Y-57416000D01*
X51390740Y-57416000D01*
X51324557Y-57409481D01*
X51258373Y-57402963D01*
X51088534Y-57351443D01*
X50932009Y-57267778D01*
X50896271Y-57238448D01*
X50794814Y-57155186D01*
X50711552Y-57053729D01*
X50682222Y-57017991D01*
X50598557Y-56861466D01*
X50547037Y-56691627D01*
X50529641Y-56515000D01*
X50547037Y-56338373D01*
X50598557Y-56168534D01*
X50682222Y-56012009D01*
X50711552Y-55976271D01*
X50794814Y-55874814D01*
X50896271Y-55791552D01*
X50932009Y-55762222D01*
X51088534Y-55678557D01*
X51258373Y-55627037D01*
X51324557Y-55620519D01*
X51390740Y-55614000D01*
X51479260Y-55614000D01*
X51545443Y-55620519D01*
X51545443Y-55620519D01*
G37*
G36*
X49005443Y-55620519D02*
G01*
X49071627Y-55627037D01*
X49241466Y-55678557D01*
X49397991Y-55762222D01*
X49433729Y-55791552D01*
X49535186Y-55874814D01*
X49618448Y-55976271D01*
X49647778Y-56012009D01*
X49731443Y-56168534D01*
X49782963Y-56338373D01*
X49800359Y-56515000D01*
X49782963Y-56691627D01*
X49731443Y-56861466D01*
X49647778Y-57017991D01*
X49618448Y-57053729D01*
X49535186Y-57155186D01*
X49433729Y-57238448D01*
X49397991Y-57267778D01*
X49241466Y-57351443D01*
X49071627Y-57402963D01*
X49005443Y-57409481D01*
X48939260Y-57416000D01*
X48850740Y-57416000D01*
X48784557Y-57409481D01*
X48718373Y-57402963D01*
X48548534Y-57351443D01*
X48392009Y-57267778D01*
X48356271Y-57238448D01*
X48254814Y-57155186D01*
X48171552Y-57053729D01*
X48142222Y-57017991D01*
X48058557Y-56861466D01*
X48007037Y-56691627D01*
X47989641Y-56515000D01*
X48007037Y-56338373D01*
X48058557Y-56168534D01*
X48142222Y-56012009D01*
X48171552Y-55976271D01*
X48254814Y-55874814D01*
X48356271Y-55791552D01*
X48392009Y-55762222D01*
X48548534Y-55678557D01*
X48718373Y-55627037D01*
X48784557Y-55620519D01*
X48850740Y-55614000D01*
X48939260Y-55614000D01*
X49005443Y-55620519D01*
X49005443Y-55620519D01*
G37*
G36*
X51542493Y-53080228D02*
G01*
X51611627Y-53087037D01*
X51781466Y-53138557D01*
X51937991Y-53222222D01*
X51973729Y-53251552D01*
X52075186Y-53334814D01*
X52139549Y-53413242D01*
X52187778Y-53472009D01*
X52271443Y-53628534D01*
X52322963Y-53798373D01*
X52340359Y-53975000D01*
X52322963Y-54151627D01*
X52271443Y-54321466D01*
X52187778Y-54477991D01*
X52158448Y-54513729D01*
X52075186Y-54615186D01*
X51973729Y-54698448D01*
X51937991Y-54727778D01*
X51781466Y-54811443D01*
X51611627Y-54862963D01*
X51545443Y-54869481D01*
X51479260Y-54876000D01*
X51390740Y-54876000D01*
X51324557Y-54869481D01*
X51258373Y-54862963D01*
X51088534Y-54811443D01*
X50932009Y-54727778D01*
X50896271Y-54698448D01*
X50794814Y-54615186D01*
X50711552Y-54513729D01*
X50682222Y-54477991D01*
X50598557Y-54321466D01*
X50547037Y-54151627D01*
X50529641Y-53975000D01*
X50547037Y-53798373D01*
X50598557Y-53628534D01*
X50682222Y-53472009D01*
X50730451Y-53413242D01*
X50794814Y-53334814D01*
X50896271Y-53251552D01*
X50932009Y-53222222D01*
X51088534Y-53138557D01*
X51258373Y-53087037D01*
X51327507Y-53080228D01*
X51390740Y-53074000D01*
X51479260Y-53074000D01*
X51542493Y-53080228D01*
X51542493Y-53080228D01*
G37*
G36*
X49002493Y-53080228D02*
G01*
X49071627Y-53087037D01*
X49241466Y-53138557D01*
X49397991Y-53222222D01*
X49433729Y-53251552D01*
X49535186Y-53334814D01*
X49599549Y-53413242D01*
X49647778Y-53472009D01*
X49731443Y-53628534D01*
X49782963Y-53798373D01*
X49800359Y-53975000D01*
X49782963Y-54151627D01*
X49731443Y-54321466D01*
X49647778Y-54477991D01*
X49618448Y-54513729D01*
X49535186Y-54615186D01*
X49433729Y-54698448D01*
X49397991Y-54727778D01*
X49241466Y-54811443D01*
X49071627Y-54862963D01*
X49005443Y-54869481D01*
X48939260Y-54876000D01*
X48850740Y-54876000D01*
X48784557Y-54869481D01*
X48718373Y-54862963D01*
X48548534Y-54811443D01*
X48392009Y-54727778D01*
X48356271Y-54698448D01*
X48254814Y-54615186D01*
X48171552Y-54513729D01*
X48142222Y-54477991D01*
X48058557Y-54321466D01*
X48007037Y-54151627D01*
X47989641Y-53975000D01*
X48007037Y-53798373D01*
X48058557Y-53628534D01*
X48142222Y-53472009D01*
X48190451Y-53413242D01*
X48254814Y-53334814D01*
X48356271Y-53251552D01*
X48392009Y-53222222D01*
X48548534Y-53138557D01*
X48718373Y-53087037D01*
X48787507Y-53080228D01*
X48850740Y-53074000D01*
X48939260Y-53074000D01*
X49002493Y-53080228D01*
X49002493Y-53080228D01*
G37*
G36*
X58459823Y-52247313D02*
G01*
X58620242Y-52295976D01*
X58752906Y-52366886D01*
X58768078Y-52374996D01*
X58897659Y-52481341D01*
X59004004Y-52610922D01*
X59004005Y-52610924D01*
X59083024Y-52758758D01*
X59131687Y-52919177D01*
X59148117Y-53086000D01*
X59131687Y-53252823D01*
X59083024Y-53413242D01*
X59051612Y-53472009D01*
X59004004Y-53561078D01*
X58897659Y-53690659D01*
X58768078Y-53797004D01*
X58768076Y-53797005D01*
X58620242Y-53876024D01*
X58459823Y-53924687D01*
X58334804Y-53937000D01*
X58251196Y-53937000D01*
X58126177Y-53924687D01*
X57965758Y-53876024D01*
X57817924Y-53797005D01*
X57817922Y-53797004D01*
X57688341Y-53690659D01*
X57581996Y-53561078D01*
X57534388Y-53472009D01*
X57502976Y-53413242D01*
X57454313Y-53252823D01*
X57437883Y-53086000D01*
X57454313Y-52919177D01*
X57502976Y-52758758D01*
X57581995Y-52610924D01*
X57581996Y-52610922D01*
X57688341Y-52481341D01*
X57817922Y-52374996D01*
X57833094Y-52366886D01*
X57965758Y-52295976D01*
X58126177Y-52247313D01*
X58251196Y-52235000D01*
X58334804Y-52235000D01*
X58459823Y-52247313D01*
X58459823Y-52247313D01*
G37*
G36*
X66079823Y-52247313D02*
G01*
X66240242Y-52295976D01*
X66372906Y-52366886D01*
X66388078Y-52374996D01*
X66517659Y-52481341D01*
X66624004Y-52610922D01*
X66624005Y-52610924D01*
X66703024Y-52758758D01*
X66751687Y-52919177D01*
X66768117Y-53086000D01*
X66751687Y-53252823D01*
X66703024Y-53413242D01*
X66671612Y-53472009D01*
X66624004Y-53561078D01*
X66517659Y-53690659D01*
X66388078Y-53797004D01*
X66388076Y-53797005D01*
X66240242Y-53876024D01*
X66079823Y-53924687D01*
X65954804Y-53937000D01*
X65871196Y-53937000D01*
X65746177Y-53924687D01*
X65585758Y-53876024D01*
X65437924Y-53797005D01*
X65437922Y-53797004D01*
X65308341Y-53690659D01*
X65201996Y-53561078D01*
X65154388Y-53472009D01*
X65122976Y-53413242D01*
X65074313Y-53252823D01*
X65057883Y-53086000D01*
X65074313Y-52919177D01*
X65122976Y-52758758D01*
X65201995Y-52610924D01*
X65201996Y-52610922D01*
X65308341Y-52481341D01*
X65437922Y-52374996D01*
X65453094Y-52366886D01*
X65585758Y-52295976D01*
X65746177Y-52247313D01*
X65871196Y-52235000D01*
X65954804Y-52235000D01*
X66079823Y-52247313D01*
X66079823Y-52247313D01*
G37*
G36*
X80131228Y-52013703D02*
G01*
X80286100Y-52077853D01*
X80425481Y-52170985D01*
X80544015Y-52289519D01*
X80637147Y-52428900D01*
X80701297Y-52583772D01*
X80734000Y-52748184D01*
X80734000Y-52915816D01*
X80701297Y-53080228D01*
X80637147Y-53235100D01*
X80544015Y-53374481D01*
X80425481Y-53493015D01*
X80286100Y-53586147D01*
X80131228Y-53650297D01*
X79966816Y-53683000D01*
X79799184Y-53683000D01*
X79634772Y-53650297D01*
X79479900Y-53586147D01*
X79340519Y-53493015D01*
X79221985Y-53374481D01*
X79128853Y-53235100D01*
X79064703Y-53080228D01*
X79032000Y-52915816D01*
X79032000Y-52748184D01*
X79064703Y-52583772D01*
X79128853Y-52428900D01*
X79221985Y-52289519D01*
X79340519Y-52170985D01*
X79479900Y-52077853D01*
X79634772Y-52013703D01*
X79799184Y-51981000D01*
X79966816Y-51981000D01*
X80131228Y-52013703D01*
X80131228Y-52013703D01*
G37*
G36*
X75813228Y-52013703D02*
G01*
X75968100Y-52077853D01*
X76107481Y-52170985D01*
X76226015Y-52289519D01*
X76319147Y-52428900D01*
X76383297Y-52583772D01*
X76416000Y-52748184D01*
X76416000Y-52915816D01*
X76383297Y-53080228D01*
X76319147Y-53235100D01*
X76226015Y-53374481D01*
X76107481Y-53493015D01*
X75968100Y-53586147D01*
X75813228Y-53650297D01*
X75648816Y-53683000D01*
X75481184Y-53683000D01*
X75316772Y-53650297D01*
X75161900Y-53586147D01*
X75022519Y-53493015D01*
X74903985Y-53374481D01*
X74810853Y-53235100D01*
X74746703Y-53080228D01*
X74714000Y-52915816D01*
X74714000Y-52748184D01*
X74746703Y-52583772D01*
X74810853Y-52428900D01*
X74903985Y-52289519D01*
X75022519Y-52170985D01*
X75161900Y-52077853D01*
X75316772Y-52013703D01*
X75481184Y-51981000D01*
X75648816Y-51981000D01*
X75813228Y-52013703D01*
X75813228Y-52013703D01*
G37*
G36*
X71357443Y-50921519D02*
G01*
X71423627Y-50928037D01*
X71593466Y-50979557D01*
X71749991Y-51063222D01*
X71785729Y-51092552D01*
X71887186Y-51175814D01*
X71954939Y-51258373D01*
X71999778Y-51313009D01*
X72083443Y-51469534D01*
X72134963Y-51639373D01*
X72152359Y-51816000D01*
X72134963Y-51992627D01*
X72109919Y-52075185D01*
X72083442Y-52162468D01*
X72069913Y-52187778D01*
X71999778Y-52318991D01*
X71996518Y-52322963D01*
X71887186Y-52456186D01*
X71785729Y-52539448D01*
X71749991Y-52568778D01*
X71593466Y-52652443D01*
X71423627Y-52703963D01*
X71357443Y-52710481D01*
X71291260Y-52717000D01*
X71202740Y-52717000D01*
X71136558Y-52710482D01*
X71070373Y-52703963D01*
X70900534Y-52652443D01*
X70744009Y-52568778D01*
X70708271Y-52539448D01*
X70606814Y-52456186D01*
X70497482Y-52322963D01*
X70494222Y-52318991D01*
X70424087Y-52187778D01*
X70410558Y-52162468D01*
X70384081Y-52075185D01*
X70359037Y-51992627D01*
X70341641Y-51816000D01*
X70359037Y-51639373D01*
X70410557Y-51469534D01*
X70494222Y-51313009D01*
X70539061Y-51258373D01*
X70606814Y-51175814D01*
X70708271Y-51092552D01*
X70744009Y-51063222D01*
X70900534Y-50979557D01*
X71070373Y-50928037D01*
X71136557Y-50921519D01*
X71202740Y-50915000D01*
X71291260Y-50915000D01*
X71357443Y-50921519D01*
X71357443Y-50921519D01*
G37*
G36*
X51545442Y-50540518D02*
G01*
X51611627Y-50547037D01*
X51781466Y-50598557D01*
X51937991Y-50682222D01*
X51973729Y-50711552D01*
X52075186Y-50794814D01*
X52158448Y-50896271D01*
X52187778Y-50932009D01*
X52271443Y-51088534D01*
X52322963Y-51258373D01*
X52340359Y-51435000D01*
X52322963Y-51611627D01*
X52271443Y-51781466D01*
X52187778Y-51937991D01*
X52158448Y-51973729D01*
X52075186Y-52075186D01*
X51973729Y-52158448D01*
X51937991Y-52187778D01*
X51781466Y-52271443D01*
X51611627Y-52322963D01*
X51545443Y-52329481D01*
X51479260Y-52336000D01*
X51390740Y-52336000D01*
X51324558Y-52329482D01*
X51258373Y-52322963D01*
X51088534Y-52271443D01*
X50932009Y-52187778D01*
X50896271Y-52158448D01*
X50794814Y-52075186D01*
X50711552Y-51973729D01*
X50682222Y-51937991D01*
X50598557Y-51781466D01*
X50547037Y-51611627D01*
X50529641Y-51435000D01*
X50547037Y-51258373D01*
X50598557Y-51088534D01*
X50682222Y-50932009D01*
X50711552Y-50896271D01*
X50794814Y-50794814D01*
X50896271Y-50711552D01*
X50932009Y-50682222D01*
X51088534Y-50598557D01*
X51258373Y-50547037D01*
X51324558Y-50540518D01*
X51390740Y-50534000D01*
X51479260Y-50534000D01*
X51545442Y-50540518D01*
X51545442Y-50540518D01*
G37*
G36*
X49005442Y-50540518D02*
G01*
X49071627Y-50547037D01*
X49241466Y-50598557D01*
X49397991Y-50682222D01*
X49433729Y-50711552D01*
X49535186Y-50794814D01*
X49618448Y-50896271D01*
X49647778Y-50932009D01*
X49731443Y-51088534D01*
X49782963Y-51258373D01*
X49800359Y-51435000D01*
X49782963Y-51611627D01*
X49731443Y-51781466D01*
X49647778Y-51937991D01*
X49618448Y-51973729D01*
X49535186Y-52075186D01*
X49433729Y-52158448D01*
X49397991Y-52187778D01*
X49241466Y-52271443D01*
X49071627Y-52322963D01*
X49005443Y-52329481D01*
X48939260Y-52336000D01*
X48850740Y-52336000D01*
X48784558Y-52329482D01*
X48718373Y-52322963D01*
X48548534Y-52271443D01*
X48392009Y-52187778D01*
X48356271Y-52158448D01*
X48254814Y-52075186D01*
X48171552Y-51973729D01*
X48142222Y-51937991D01*
X48058557Y-51781466D01*
X48007037Y-51611627D01*
X47989641Y-51435000D01*
X48007037Y-51258373D01*
X48058557Y-51088534D01*
X48142222Y-50932009D01*
X48171552Y-50896271D01*
X48254814Y-50794814D01*
X48356271Y-50711552D01*
X48392009Y-50682222D01*
X48548534Y-50598557D01*
X48718373Y-50547037D01*
X48784558Y-50540518D01*
X48850740Y-50534000D01*
X48939260Y-50534000D01*
X49005442Y-50540518D01*
X49005442Y-50540518D01*
G37*
G36*
X71357442Y-48381518D02*
G01*
X71423627Y-48388037D01*
X71593466Y-48439557D01*
X71749991Y-48523222D01*
X71785729Y-48552552D01*
X71887186Y-48635814D01*
X71954939Y-48718373D01*
X71999778Y-48773009D01*
X72083443Y-48929534D01*
X72134963Y-49099373D01*
X72152359Y-49276000D01*
X72134963Y-49452627D01*
X72083443Y-49622466D01*
X71999778Y-49778991D01*
X71996518Y-49782963D01*
X71887186Y-49916186D01*
X71785729Y-49999448D01*
X71749991Y-50028778D01*
X71593466Y-50112443D01*
X71423627Y-50163963D01*
X71357443Y-50170481D01*
X71291260Y-50177000D01*
X71202740Y-50177000D01*
X71136557Y-50170481D01*
X71070373Y-50163963D01*
X70900534Y-50112443D01*
X70744009Y-50028778D01*
X70708271Y-49999448D01*
X70606814Y-49916186D01*
X70497482Y-49782963D01*
X70494222Y-49778991D01*
X70410557Y-49622466D01*
X70359037Y-49452627D01*
X70341641Y-49276000D01*
X70359037Y-49099373D01*
X70410557Y-48929534D01*
X70494222Y-48773009D01*
X70539061Y-48718373D01*
X70606814Y-48635814D01*
X70708271Y-48552552D01*
X70744009Y-48523222D01*
X70900534Y-48439557D01*
X71070373Y-48388037D01*
X71136558Y-48381518D01*
X71202740Y-48375000D01*
X71291260Y-48375000D01*
X71357442Y-48381518D01*
X71357442Y-48381518D01*
G37*
G36*
X49005442Y-48000518D02*
G01*
X49071627Y-48007037D01*
X49241466Y-48058557D01*
X49397991Y-48142222D01*
X49433729Y-48171552D01*
X49535186Y-48254814D01*
X49618448Y-48356271D01*
X49647778Y-48392009D01*
X49731443Y-48548534D01*
X49782963Y-48718373D01*
X49800359Y-48895000D01*
X49782963Y-49071627D01*
X49731443Y-49241466D01*
X49647778Y-49397991D01*
X49618448Y-49433729D01*
X49535186Y-49535186D01*
X49433729Y-49618448D01*
X49397991Y-49647778D01*
X49241466Y-49731443D01*
X49071627Y-49782963D01*
X49005443Y-49789481D01*
X48939260Y-49796000D01*
X48850740Y-49796000D01*
X48784557Y-49789481D01*
X48718373Y-49782963D01*
X48548534Y-49731443D01*
X48392009Y-49647778D01*
X48356271Y-49618448D01*
X48254814Y-49535186D01*
X48171552Y-49433729D01*
X48142222Y-49397991D01*
X48058557Y-49241466D01*
X48007037Y-49071627D01*
X47989641Y-48895000D01*
X48007037Y-48718373D01*
X48058557Y-48548534D01*
X48142222Y-48392009D01*
X48171552Y-48356271D01*
X48254814Y-48254814D01*
X48356271Y-48171552D01*
X48392009Y-48142222D01*
X48548534Y-48058557D01*
X48718373Y-48007037D01*
X48784558Y-48000518D01*
X48850740Y-47994000D01*
X48939260Y-47994000D01*
X49005442Y-48000518D01*
X49005442Y-48000518D01*
G37*
G36*
X51545442Y-48000518D02*
G01*
X51611627Y-48007037D01*
X51781466Y-48058557D01*
X51937991Y-48142222D01*
X51973729Y-48171552D01*
X52075186Y-48254814D01*
X52158448Y-48356271D01*
X52187778Y-48392009D01*
X52271443Y-48548534D01*
X52322963Y-48718373D01*
X52340359Y-48895000D01*
X52322963Y-49071627D01*
X52271443Y-49241466D01*
X52187778Y-49397991D01*
X52158448Y-49433729D01*
X52075186Y-49535186D01*
X51973729Y-49618448D01*
X51937991Y-49647778D01*
X51781466Y-49731443D01*
X51611627Y-49782963D01*
X51545443Y-49789481D01*
X51479260Y-49796000D01*
X51390740Y-49796000D01*
X51324557Y-49789481D01*
X51258373Y-49782963D01*
X51088534Y-49731443D01*
X50932009Y-49647778D01*
X50896271Y-49618448D01*
X50794814Y-49535186D01*
X50711552Y-49433729D01*
X50682222Y-49397991D01*
X50598557Y-49241466D01*
X50547037Y-49071627D01*
X50529641Y-48895000D01*
X50547037Y-48718373D01*
X50598557Y-48548534D01*
X50682222Y-48392009D01*
X50711552Y-48356271D01*
X50794814Y-48254814D01*
X50896271Y-48171552D01*
X50932009Y-48142222D01*
X51088534Y-48058557D01*
X51258373Y-48007037D01*
X51324557Y-48000519D01*
X51390740Y-47994000D01*
X51479260Y-47994000D01*
X51545442Y-48000518D01*
X51545442Y-48000518D01*
G37*
G36*
X80131228Y-47013703D02*
G01*
X80286100Y-47077853D01*
X80425481Y-47170985D01*
X80544015Y-47289519D01*
X80637147Y-47428900D01*
X80701297Y-47583772D01*
X80734000Y-47748184D01*
X80734000Y-47915816D01*
X80701297Y-48080228D01*
X80637147Y-48235100D01*
X80544015Y-48374481D01*
X80425481Y-48493015D01*
X80286100Y-48586147D01*
X80131228Y-48650297D01*
X79966816Y-48683000D01*
X79799184Y-48683000D01*
X79634772Y-48650297D01*
X79479900Y-48586147D01*
X79340519Y-48493015D01*
X79221985Y-48374481D01*
X79128853Y-48235100D01*
X79064703Y-48080228D01*
X79032000Y-47915816D01*
X79032000Y-47748184D01*
X79064703Y-47583772D01*
X79128853Y-47428900D01*
X79221985Y-47289519D01*
X79340519Y-47170985D01*
X79479900Y-47077853D01*
X79634772Y-47013703D01*
X79799184Y-46981000D01*
X79966816Y-46981000D01*
X80131228Y-47013703D01*
X80131228Y-47013703D01*
G37*
G36*
X75813228Y-47013703D02*
G01*
X75968100Y-47077853D01*
X76107481Y-47170985D01*
X76226015Y-47289519D01*
X76319147Y-47428900D01*
X76383297Y-47583772D01*
X76416000Y-47748184D01*
X76416000Y-47915816D01*
X76383297Y-48080228D01*
X76319147Y-48235100D01*
X76226015Y-48374481D01*
X76107481Y-48493015D01*
X75968100Y-48586147D01*
X75813228Y-48650297D01*
X75648816Y-48683000D01*
X75481184Y-48683000D01*
X75316772Y-48650297D01*
X75161900Y-48586147D01*
X75022519Y-48493015D01*
X74903985Y-48374481D01*
X74810853Y-48235100D01*
X74746703Y-48080228D01*
X74714000Y-47915816D01*
X74714000Y-47748184D01*
X74746703Y-47583772D01*
X74810853Y-47428900D01*
X74903985Y-47289519D01*
X75022519Y-47170985D01*
X75161900Y-47077853D01*
X75316772Y-47013703D01*
X75481184Y-46981000D01*
X75648816Y-46981000D01*
X75813228Y-47013703D01*
X75813228Y-47013703D01*
G37*
G36*
X72148000Y-47637000D02*
G01*
X70346000Y-47637000D01*
X70346000Y-45835000D01*
X72148000Y-45835000D01*
X72148000Y-47637000D01*
X72148000Y-47637000D01*
G37*
G36*
X49005443Y-45460519D02*
G01*
X49071627Y-45467037D01*
X49241466Y-45518557D01*
X49397991Y-45602222D01*
X49433729Y-45631552D01*
X49535186Y-45714814D01*
X49599549Y-45793242D01*
X49647778Y-45852009D01*
X49731443Y-46008534D01*
X49782963Y-46178373D01*
X49800359Y-46355000D01*
X49782963Y-46531627D01*
X49731443Y-46701466D01*
X49647778Y-46857991D01*
X49618448Y-46893729D01*
X49535186Y-46995186D01*
X49434456Y-47077852D01*
X49397991Y-47107778D01*
X49241466Y-47191443D01*
X49071627Y-47242963D01*
X49005442Y-47249482D01*
X48939260Y-47256000D01*
X48850740Y-47256000D01*
X48784558Y-47249482D01*
X48718373Y-47242963D01*
X48548534Y-47191443D01*
X48392009Y-47107778D01*
X48355544Y-47077852D01*
X48254814Y-46995186D01*
X48171552Y-46893729D01*
X48142222Y-46857991D01*
X48058557Y-46701466D01*
X48007037Y-46531627D01*
X47989641Y-46355000D01*
X48007037Y-46178373D01*
X48058557Y-46008534D01*
X48142222Y-45852009D01*
X48190451Y-45793242D01*
X48254814Y-45714814D01*
X48356271Y-45631552D01*
X48392009Y-45602222D01*
X48548534Y-45518557D01*
X48718373Y-45467037D01*
X48784557Y-45460519D01*
X48850740Y-45454000D01*
X48939260Y-45454000D01*
X49005443Y-45460519D01*
X49005443Y-45460519D01*
G37*
G36*
X51545443Y-45460519D02*
G01*
X51611627Y-45467037D01*
X51781466Y-45518557D01*
X51937991Y-45602222D01*
X51973729Y-45631552D01*
X52075186Y-45714814D01*
X52139549Y-45793242D01*
X52187778Y-45852009D01*
X52271443Y-46008534D01*
X52322963Y-46178373D01*
X52340359Y-46355000D01*
X52322963Y-46531627D01*
X52271443Y-46701466D01*
X52187778Y-46857991D01*
X52158448Y-46893729D01*
X52075186Y-46995186D01*
X51974456Y-47077852D01*
X51937991Y-47107778D01*
X51781466Y-47191443D01*
X51611627Y-47242963D01*
X51545442Y-47249482D01*
X51479260Y-47256000D01*
X51390740Y-47256000D01*
X51324558Y-47249482D01*
X51258373Y-47242963D01*
X51088534Y-47191443D01*
X50932009Y-47107778D01*
X50895544Y-47077852D01*
X50794814Y-46995186D01*
X50711552Y-46893729D01*
X50682222Y-46857991D01*
X50598557Y-46701466D01*
X50547037Y-46531627D01*
X50529641Y-46355000D01*
X50547037Y-46178373D01*
X50598557Y-46008534D01*
X50682222Y-45852009D01*
X50730451Y-45793242D01*
X50794814Y-45714814D01*
X50896271Y-45631552D01*
X50932009Y-45602222D01*
X51088534Y-45518557D01*
X51258373Y-45467037D01*
X51324557Y-45460519D01*
X51390740Y-45454000D01*
X51479260Y-45454000D01*
X51545443Y-45460519D01*
X51545443Y-45460519D01*
G37*
G36*
X58459823Y-44627313D02*
G01*
X58620242Y-44675976D01*
X58752906Y-44746886D01*
X58768078Y-44754996D01*
X58897659Y-44861341D01*
X59004004Y-44990922D01*
X59004005Y-44990924D01*
X59083024Y-45138758D01*
X59131687Y-45299177D01*
X59148117Y-45466000D01*
X59131687Y-45632823D01*
X59083024Y-45793242D01*
X59051612Y-45852009D01*
X59004004Y-45941078D01*
X58897659Y-46070659D01*
X58768078Y-46177004D01*
X58768076Y-46177005D01*
X58620242Y-46256024D01*
X58459823Y-46304687D01*
X58334804Y-46317000D01*
X58251196Y-46317000D01*
X58126177Y-46304687D01*
X57965758Y-46256024D01*
X57817924Y-46177005D01*
X57817922Y-46177004D01*
X57688341Y-46070659D01*
X57581996Y-45941078D01*
X57534388Y-45852009D01*
X57502976Y-45793242D01*
X57454313Y-45632823D01*
X57437883Y-45466000D01*
X57454313Y-45299177D01*
X57502976Y-45138758D01*
X57581995Y-44990924D01*
X57581996Y-44990922D01*
X57688341Y-44861341D01*
X57817922Y-44754996D01*
X57833094Y-44746886D01*
X57965758Y-44675976D01*
X58126177Y-44627313D01*
X58251196Y-44615000D01*
X58334804Y-44615000D01*
X58459823Y-44627313D01*
X58459823Y-44627313D01*
G37*
G36*
X66764000Y-46317000D02*
G01*
X65062000Y-46317000D01*
X65062000Y-44615000D01*
X66764000Y-44615000D01*
X66764000Y-46317000D01*
X66764000Y-46317000D01*
G37*
G36*
X80597194Y-43179035D02*
G01*
X80693382Y-43218878D01*
X80829413Y-43275223D01*
X81038403Y-43414866D01*
X81216134Y-43592597D01*
X81355777Y-43801587D01*
X81412122Y-43937618D01*
X81451965Y-44033806D01*
X81501000Y-44280324D01*
X81501000Y-44531676D01*
X81451965Y-44778194D01*
X81417524Y-44861341D01*
X81355777Y-45010413D01*
X81216134Y-45219403D01*
X81038403Y-45397134D01*
X80829413Y-45536777D01*
X80693382Y-45593122D01*
X80597194Y-45632965D01*
X80350676Y-45682000D01*
X80099324Y-45682000D01*
X79852806Y-45632965D01*
X79756618Y-45593122D01*
X79620587Y-45536777D01*
X79411597Y-45397134D01*
X79233866Y-45219403D01*
X79094223Y-45010413D01*
X79032476Y-44861341D01*
X78998035Y-44778194D01*
X78949000Y-44531676D01*
X78949000Y-44280324D01*
X78998035Y-44033806D01*
X79037878Y-43937618D01*
X79094223Y-43801587D01*
X79233866Y-43592597D01*
X79411597Y-43414866D01*
X79620587Y-43275223D01*
X79756618Y-43218878D01*
X79852806Y-43179035D01*
X80099324Y-43130000D01*
X80350676Y-43130000D01*
X80597194Y-43179035D01*
X80597194Y-43179035D01*
G37*
G36*
X75075318Y-42701153D02*
G01*
X75293885Y-42791687D01*
X75293887Y-42791688D01*
X75490593Y-42923122D01*
X75657878Y-43090407D01*
X75781367Y-43275223D01*
X75789313Y-43287115D01*
X75879847Y-43505682D01*
X75926000Y-43737710D01*
X75926000Y-43974290D01*
X75879847Y-44206318D01*
X75849192Y-44280325D01*
X75789312Y-44424887D01*
X75657878Y-44621593D01*
X75490593Y-44788878D01*
X75293887Y-44920312D01*
X75293886Y-44920313D01*
X75293885Y-44920313D01*
X75075318Y-45010847D01*
X74843290Y-45057000D01*
X74606710Y-45057000D01*
X74374682Y-45010847D01*
X74156115Y-44920313D01*
X74156114Y-44920313D01*
X74156113Y-44920312D01*
X73959407Y-44788878D01*
X73792122Y-44621593D01*
X73660688Y-44424887D01*
X73600808Y-44280325D01*
X73570153Y-44206318D01*
X73524000Y-43974290D01*
X73524000Y-43737710D01*
X73570153Y-43505682D01*
X73660687Y-43287115D01*
X73668633Y-43275223D01*
X73792122Y-43090407D01*
X73959407Y-42923122D01*
X74156113Y-42791688D01*
X74156115Y-42791687D01*
X74374682Y-42701153D01*
X74606710Y-42655000D01*
X74843290Y-42655000D01*
X75075318Y-42701153D01*
X75075318Y-42701153D01*
G37*
G36*
X51545443Y-42920519D02*
G01*
X51611627Y-42927037D01*
X51781466Y-42978557D01*
X51937991Y-43062222D01*
X51972334Y-43090407D01*
X52075186Y-43174814D01*
X52157588Y-43275223D01*
X52187778Y-43312009D01*
X52271443Y-43468534D01*
X52322963Y-43638373D01*
X52340359Y-43815000D01*
X52322963Y-43991627D01*
X52271443Y-44161466D01*
X52187778Y-44317991D01*
X52158448Y-44353729D01*
X52075186Y-44455186D01*
X51981981Y-44531676D01*
X51937991Y-44567778D01*
X51781466Y-44651443D01*
X51611627Y-44702963D01*
X51545443Y-44709481D01*
X51479260Y-44716000D01*
X51390740Y-44716000D01*
X51324557Y-44709481D01*
X51258373Y-44702963D01*
X51088534Y-44651443D01*
X50932009Y-44567778D01*
X50888019Y-44531676D01*
X50794814Y-44455186D01*
X50711552Y-44353729D01*
X50682222Y-44317991D01*
X50598557Y-44161466D01*
X50547037Y-43991627D01*
X50529641Y-43815000D01*
X50547037Y-43638373D01*
X50598557Y-43468534D01*
X50682222Y-43312009D01*
X50712412Y-43275223D01*
X50794814Y-43174814D01*
X50897666Y-43090407D01*
X50932009Y-43062222D01*
X51088534Y-42978557D01*
X51258373Y-42927037D01*
X51324557Y-42920519D01*
X51390740Y-42914000D01*
X51479260Y-42914000D01*
X51545443Y-42920519D01*
X51545443Y-42920519D01*
G37*
G36*
X49005443Y-42920519D02*
G01*
X49071627Y-42927037D01*
X49241466Y-42978557D01*
X49397991Y-43062222D01*
X49432334Y-43090407D01*
X49535186Y-43174814D01*
X49617588Y-43275223D01*
X49647778Y-43312009D01*
X49731443Y-43468534D01*
X49782963Y-43638373D01*
X49800359Y-43815000D01*
X49782963Y-43991627D01*
X49731443Y-44161466D01*
X49647778Y-44317991D01*
X49618448Y-44353729D01*
X49535186Y-44455186D01*
X49441981Y-44531676D01*
X49397991Y-44567778D01*
X49241466Y-44651443D01*
X49071627Y-44702963D01*
X49005443Y-44709481D01*
X48939260Y-44716000D01*
X48850740Y-44716000D01*
X48784557Y-44709481D01*
X48718373Y-44702963D01*
X48548534Y-44651443D01*
X48392009Y-44567778D01*
X48348019Y-44531676D01*
X48254814Y-44455186D01*
X48171552Y-44353729D01*
X48142222Y-44317991D01*
X48058557Y-44161466D01*
X48007037Y-43991627D01*
X47989641Y-43815000D01*
X48007037Y-43638373D01*
X48058557Y-43468534D01*
X48142222Y-43312009D01*
X48172412Y-43275223D01*
X48254814Y-43174814D01*
X48357666Y-43090407D01*
X48392009Y-43062222D01*
X48548534Y-42978557D01*
X48718373Y-42927037D01*
X48784557Y-42920519D01*
X48850740Y-42914000D01*
X48939260Y-42914000D01*
X49005443Y-42920519D01*
X49005443Y-42920519D01*
G37*
G36*
X49005443Y-40380519D02*
G01*
X49071627Y-40387037D01*
X49241466Y-40438557D01*
X49397991Y-40522222D01*
X49433729Y-40551552D01*
X49535186Y-40634814D01*
X49614943Y-40732000D01*
X49647778Y-40772009D01*
X49731443Y-40928534D01*
X49782963Y-41098373D01*
X49800359Y-41275000D01*
X49782963Y-41451627D01*
X49731443Y-41621466D01*
X49647778Y-41777991D01*
X49618448Y-41813729D01*
X49535186Y-41915186D01*
X49433729Y-41998448D01*
X49397991Y-42027778D01*
X49241466Y-42111443D01*
X49071627Y-42162963D01*
X49005443Y-42169481D01*
X48939260Y-42176000D01*
X48850740Y-42176000D01*
X48784557Y-42169481D01*
X48718373Y-42162963D01*
X48548534Y-42111443D01*
X48392009Y-42027778D01*
X48356271Y-41998448D01*
X48254814Y-41915186D01*
X48171552Y-41813729D01*
X48142222Y-41777991D01*
X48058557Y-41621466D01*
X48007037Y-41451627D01*
X47989641Y-41275000D01*
X48007037Y-41098373D01*
X48058557Y-40928534D01*
X48142222Y-40772009D01*
X48175057Y-40732000D01*
X48254814Y-40634814D01*
X48356271Y-40551552D01*
X48392009Y-40522222D01*
X48548534Y-40438557D01*
X48718373Y-40387037D01*
X48784557Y-40380519D01*
X48850740Y-40374000D01*
X48939260Y-40374000D01*
X49005443Y-40380519D01*
X49005443Y-40380519D01*
G37*
G36*
X51545443Y-40380519D02*
G01*
X51611627Y-40387037D01*
X51781466Y-40438557D01*
X51937991Y-40522222D01*
X51973729Y-40551552D01*
X52075186Y-40634814D01*
X52154943Y-40732000D01*
X52187778Y-40772009D01*
X52271443Y-40928534D01*
X52322963Y-41098373D01*
X52340359Y-41275000D01*
X52322963Y-41451627D01*
X52271443Y-41621466D01*
X52187778Y-41777991D01*
X52158448Y-41813729D01*
X52075186Y-41915186D01*
X51973729Y-41998448D01*
X51937991Y-42027778D01*
X51781466Y-42111443D01*
X51611627Y-42162963D01*
X51545443Y-42169481D01*
X51479260Y-42176000D01*
X51390740Y-42176000D01*
X51324557Y-42169481D01*
X51258373Y-42162963D01*
X51088534Y-42111443D01*
X50932009Y-42027778D01*
X50896271Y-41998448D01*
X50794814Y-41915186D01*
X50711552Y-41813729D01*
X50682222Y-41777991D01*
X50598557Y-41621466D01*
X50547037Y-41451627D01*
X50529641Y-41275000D01*
X50547037Y-41098373D01*
X50598557Y-40928534D01*
X50682222Y-40772009D01*
X50715057Y-40732000D01*
X50794814Y-40634814D01*
X50896271Y-40551552D01*
X50932009Y-40522222D01*
X51088534Y-40438557D01*
X51258373Y-40387037D01*
X51324557Y-40380519D01*
X51390740Y-40374000D01*
X51479260Y-40374000D01*
X51545443Y-40380519D01*
X51545443Y-40380519D01*
G37*
G36*
X70320000Y-41832000D02*
G01*
X68618000Y-41832000D01*
X68618000Y-40130000D01*
X70320000Y-40130000D01*
X70320000Y-41832000D01*
X70320000Y-41832000D01*
G37*
G36*
X75097194Y-38229035D02*
G01*
X75193382Y-38268878D01*
X75329413Y-38325223D01*
X75538403Y-38464866D01*
X75716134Y-38642597D01*
X75855777Y-38851587D01*
X75869244Y-38884100D01*
X75951965Y-39083806D01*
X76001000Y-39330324D01*
X76001000Y-39581676D01*
X75951965Y-39828194D01*
X75923409Y-39897134D01*
X75855777Y-40060413D01*
X75716134Y-40269403D01*
X75538403Y-40447134D01*
X75329413Y-40586777D01*
X75213440Y-40634814D01*
X75097194Y-40682965D01*
X74850676Y-40732000D01*
X74599324Y-40732000D01*
X74352806Y-40682965D01*
X74236560Y-40634814D01*
X74120587Y-40586777D01*
X73911597Y-40447134D01*
X73733866Y-40269403D01*
X73594223Y-40060413D01*
X73526591Y-39897134D01*
X73498035Y-39828194D01*
X73449000Y-39581676D01*
X73449000Y-39330324D01*
X73498035Y-39083806D01*
X73580756Y-38884100D01*
X73594223Y-38851587D01*
X73733866Y-38642597D01*
X73911597Y-38464866D01*
X74120587Y-38325223D01*
X74256618Y-38268878D01*
X74352806Y-38229035D01*
X74599324Y-38180000D01*
X74850676Y-38180000D01*
X75097194Y-38229035D01*
X75097194Y-38229035D01*
G37*
G36*
X80597194Y-37679035D02*
G01*
X80693382Y-37718878D01*
X80829413Y-37775223D01*
X81038403Y-37914866D01*
X81216134Y-38092597D01*
X81355777Y-38301587D01*
X81412122Y-38437618D01*
X81451965Y-38533806D01*
X81501000Y-38780324D01*
X81501000Y-39031676D01*
X81451965Y-39278194D01*
X81412122Y-39374382D01*
X81355777Y-39510413D01*
X81216134Y-39719403D01*
X81038403Y-39897134D01*
X80829413Y-40036777D01*
X80693382Y-40093122D01*
X80597194Y-40132965D01*
X80350676Y-40182000D01*
X80099324Y-40182000D01*
X79852806Y-40132965D01*
X79756618Y-40093122D01*
X79620587Y-40036777D01*
X79411597Y-39897134D01*
X79233866Y-39719403D01*
X79094223Y-39510413D01*
X79037878Y-39374382D01*
X78998035Y-39278194D01*
X78949000Y-39031676D01*
X78949000Y-38780324D01*
X78998035Y-38533806D01*
X79037878Y-38437618D01*
X79094223Y-38301587D01*
X79233866Y-38092597D01*
X79411597Y-37914866D01*
X79620587Y-37775223D01*
X79756618Y-37718878D01*
X79852806Y-37679035D01*
X80099324Y-37630000D01*
X80350676Y-37630000D01*
X80597194Y-37679035D01*
X80597194Y-37679035D01*
G37*
G36*
X49005443Y-37840519D02*
G01*
X49071627Y-37847037D01*
X49241466Y-37898557D01*
X49397991Y-37982222D01*
X49433729Y-38011552D01*
X49535186Y-38094814D01*
X49605095Y-38180000D01*
X49647778Y-38232009D01*
X49731443Y-38388534D01*
X49782963Y-38558373D01*
X49800359Y-38735000D01*
X49782963Y-38911627D01*
X49731443Y-39081466D01*
X49647778Y-39237991D01*
X49618448Y-39273729D01*
X49535186Y-39375186D01*
X49433729Y-39458448D01*
X49397991Y-39487778D01*
X49241466Y-39571443D01*
X49071627Y-39622963D01*
X49005442Y-39629482D01*
X48939260Y-39636000D01*
X48850740Y-39636000D01*
X48784558Y-39629482D01*
X48718373Y-39622963D01*
X48548534Y-39571443D01*
X48392009Y-39487778D01*
X48356271Y-39458448D01*
X48254814Y-39375186D01*
X48171552Y-39273729D01*
X48142222Y-39237991D01*
X48058557Y-39081466D01*
X48007037Y-38911627D01*
X47989641Y-38735000D01*
X48007037Y-38558373D01*
X48058557Y-38388534D01*
X48142222Y-38232009D01*
X48184905Y-38180000D01*
X48254814Y-38094814D01*
X48356271Y-38011552D01*
X48392009Y-37982222D01*
X48548534Y-37898557D01*
X48718373Y-37847037D01*
X48784557Y-37840519D01*
X48850740Y-37834000D01*
X48939260Y-37834000D01*
X49005443Y-37840519D01*
X49005443Y-37840519D01*
G37*
G36*
X51545443Y-37840519D02*
G01*
X51611627Y-37847037D01*
X51781466Y-37898557D01*
X51937991Y-37982222D01*
X51973729Y-38011552D01*
X52075186Y-38094814D01*
X52145095Y-38180000D01*
X52187778Y-38232009D01*
X52271443Y-38388534D01*
X52322963Y-38558373D01*
X52340359Y-38735000D01*
X52322963Y-38911627D01*
X52271443Y-39081466D01*
X52187778Y-39237991D01*
X52158448Y-39273729D01*
X52075186Y-39375186D01*
X51973729Y-39458448D01*
X51937991Y-39487778D01*
X51781466Y-39571443D01*
X51611627Y-39622963D01*
X51545442Y-39629482D01*
X51479260Y-39636000D01*
X51390740Y-39636000D01*
X51324558Y-39629482D01*
X51258373Y-39622963D01*
X51088534Y-39571443D01*
X50932009Y-39487778D01*
X50896271Y-39458448D01*
X50794814Y-39375186D01*
X50711552Y-39273729D01*
X50682222Y-39237991D01*
X50598557Y-39081466D01*
X50547037Y-38911627D01*
X50529641Y-38735000D01*
X50547037Y-38558373D01*
X50598557Y-38388534D01*
X50682222Y-38232009D01*
X50724905Y-38180000D01*
X50794814Y-38094814D01*
X50896271Y-38011552D01*
X50932009Y-37982222D01*
X51088534Y-37898557D01*
X51258373Y-37847037D01*
X51324557Y-37840519D01*
X51390740Y-37834000D01*
X51479260Y-37834000D01*
X51545443Y-37840519D01*
X51545443Y-37840519D01*
G37*
G36*
X69717228Y-37662703D02*
G01*
X69872100Y-37726853D01*
X70011481Y-37819985D01*
X70130015Y-37938519D01*
X70223147Y-38077900D01*
X70287297Y-38232772D01*
X70320000Y-38397184D01*
X70320000Y-38564816D01*
X70287297Y-38729228D01*
X70223147Y-38884100D01*
X70130015Y-39023481D01*
X70011481Y-39142015D01*
X69872100Y-39235147D01*
X69717228Y-39299297D01*
X69552816Y-39332000D01*
X69385184Y-39332000D01*
X69220772Y-39299297D01*
X69065900Y-39235147D01*
X68926519Y-39142015D01*
X68807985Y-39023481D01*
X68714853Y-38884100D01*
X68650703Y-38729228D01*
X68618000Y-38564816D01*
X68618000Y-38397184D01*
X68650703Y-38232772D01*
X68714853Y-38077900D01*
X68807985Y-37938519D01*
X68926519Y-37819985D01*
X69065900Y-37726853D01*
X69220772Y-37662703D01*
X69385184Y-37630000D01*
X69552816Y-37630000D01*
X69717228Y-37662703D01*
X69717228Y-37662703D01*
G37*
G36*
X51545442Y-35300518D02*
G01*
X51611627Y-35307037D01*
X51781466Y-35358557D01*
X51937991Y-35442222D01*
X51973729Y-35471552D01*
X52075186Y-35554814D01*
X52158448Y-35656271D01*
X52187778Y-35692009D01*
X52271443Y-35848534D01*
X52322963Y-36018373D01*
X52340359Y-36195000D01*
X52322963Y-36371627D01*
X52271443Y-36541466D01*
X52187778Y-36697991D01*
X52158448Y-36733729D01*
X52075186Y-36835186D01*
X51973729Y-36918448D01*
X51937991Y-36947778D01*
X51781466Y-37031443D01*
X51611627Y-37082963D01*
X51545443Y-37089481D01*
X51479260Y-37096000D01*
X51390740Y-37096000D01*
X51324557Y-37089481D01*
X51258373Y-37082963D01*
X51088534Y-37031443D01*
X50932009Y-36947778D01*
X50896271Y-36918448D01*
X50794814Y-36835186D01*
X50711552Y-36733729D01*
X50682222Y-36697991D01*
X50598557Y-36541466D01*
X50547037Y-36371627D01*
X50529641Y-36195000D01*
X50547037Y-36018373D01*
X50598557Y-35848534D01*
X50682222Y-35692009D01*
X50711552Y-35656271D01*
X50794814Y-35554814D01*
X50896271Y-35471552D01*
X50932009Y-35442222D01*
X51088534Y-35358557D01*
X51258373Y-35307037D01*
X51324558Y-35300518D01*
X51390740Y-35294000D01*
X51479260Y-35294000D01*
X51545442Y-35300518D01*
X51545442Y-35300518D01*
G37*
G36*
X49005442Y-35300518D02*
G01*
X49071627Y-35307037D01*
X49241466Y-35358557D01*
X49397991Y-35442222D01*
X49433729Y-35471552D01*
X49535186Y-35554814D01*
X49618448Y-35656271D01*
X49647778Y-35692009D01*
X49731443Y-35848534D01*
X49782963Y-36018373D01*
X49800359Y-36195000D01*
X49782963Y-36371627D01*
X49731443Y-36541466D01*
X49647778Y-36697991D01*
X49618448Y-36733729D01*
X49535186Y-36835186D01*
X49433729Y-36918448D01*
X49397991Y-36947778D01*
X49241466Y-37031443D01*
X49071627Y-37082963D01*
X49005443Y-37089481D01*
X48939260Y-37096000D01*
X48850740Y-37096000D01*
X48784557Y-37089481D01*
X48718373Y-37082963D01*
X48548534Y-37031443D01*
X48392009Y-36947778D01*
X48356271Y-36918448D01*
X48254814Y-36835186D01*
X48171552Y-36733729D01*
X48142222Y-36697991D01*
X48058557Y-36541466D01*
X48007037Y-36371627D01*
X47989641Y-36195000D01*
X48007037Y-36018373D01*
X48058557Y-35848534D01*
X48142222Y-35692009D01*
X48171552Y-35656271D01*
X48254814Y-35554814D01*
X48356271Y-35471552D01*
X48392009Y-35442222D01*
X48548534Y-35358557D01*
X48718373Y-35307037D01*
X48784558Y-35300518D01*
X48850740Y-35294000D01*
X48939260Y-35294000D01*
X49005442Y-35300518D01*
X49005442Y-35300518D01*
G37*
G36*
X49005443Y-32760519D02*
G01*
X49071627Y-32767037D01*
X49241466Y-32818557D01*
X49397991Y-32902222D01*
X49433729Y-32931552D01*
X49535186Y-33014814D01*
X49618448Y-33116271D01*
X49647778Y-33152009D01*
X49731443Y-33308534D01*
X49782963Y-33478373D01*
X49800359Y-33655000D01*
X49782963Y-33831627D01*
X49731443Y-34001466D01*
X49647778Y-34157991D01*
X49618448Y-34193729D01*
X49535186Y-34295186D01*
X49433729Y-34378448D01*
X49397991Y-34407778D01*
X49241466Y-34491443D01*
X49071627Y-34542963D01*
X49005442Y-34549482D01*
X48939260Y-34556000D01*
X48850740Y-34556000D01*
X48784558Y-34549482D01*
X48718373Y-34542963D01*
X48548534Y-34491443D01*
X48392009Y-34407778D01*
X48356271Y-34378448D01*
X48254814Y-34295186D01*
X48171552Y-34193729D01*
X48142222Y-34157991D01*
X48058557Y-34001466D01*
X48007037Y-33831627D01*
X47989641Y-33655000D01*
X48007037Y-33478373D01*
X48058557Y-33308534D01*
X48142222Y-33152009D01*
X48171552Y-33116271D01*
X48254814Y-33014814D01*
X48356271Y-32931552D01*
X48392009Y-32902222D01*
X48548534Y-32818557D01*
X48718373Y-32767037D01*
X48784557Y-32760519D01*
X48850740Y-32754000D01*
X48939260Y-32754000D01*
X49005443Y-32760519D01*
X49005443Y-32760519D01*
G37*
G36*
X51545443Y-32760519D02*
G01*
X51611627Y-32767037D01*
X51781466Y-32818557D01*
X51937991Y-32902222D01*
X51973729Y-32931552D01*
X52075186Y-33014814D01*
X52158448Y-33116271D01*
X52187778Y-33152009D01*
X52271443Y-33308534D01*
X52322963Y-33478373D01*
X52340359Y-33655000D01*
X52322963Y-33831627D01*
X52271443Y-34001466D01*
X52187778Y-34157991D01*
X52158448Y-34193729D01*
X52075186Y-34295186D01*
X51973729Y-34378448D01*
X51937991Y-34407778D01*
X51781466Y-34491443D01*
X51611627Y-34542963D01*
X51545442Y-34549482D01*
X51479260Y-34556000D01*
X51390740Y-34556000D01*
X51324558Y-34549482D01*
X51258373Y-34542963D01*
X51088534Y-34491443D01*
X50932009Y-34407778D01*
X50896271Y-34378448D01*
X50794814Y-34295186D01*
X50711552Y-34193729D01*
X50682222Y-34157991D01*
X50598557Y-34001466D01*
X50547037Y-33831627D01*
X50529641Y-33655000D01*
X50547037Y-33478373D01*
X50598557Y-33308534D01*
X50682222Y-33152009D01*
X50711552Y-33116271D01*
X50794814Y-33014814D01*
X50896271Y-32931552D01*
X50932009Y-32902222D01*
X51088534Y-32818557D01*
X51258373Y-32767037D01*
X51324557Y-32760519D01*
X51390740Y-32754000D01*
X51479260Y-32754000D01*
X51545443Y-32760519D01*
X51545443Y-32760519D01*
G37*
G36*
X51545442Y-30220518D02*
G01*
X51611627Y-30227037D01*
X51781466Y-30278557D01*
X51937991Y-30362222D01*
X51973729Y-30391552D01*
X52075186Y-30474814D01*
X52158448Y-30576271D01*
X52187778Y-30612009D01*
X52271443Y-30768534D01*
X52322963Y-30938373D01*
X52340359Y-31115000D01*
X52322963Y-31291627D01*
X52271443Y-31461466D01*
X52187778Y-31617991D01*
X52158448Y-31653729D01*
X52075186Y-31755186D01*
X51973729Y-31838448D01*
X51937991Y-31867778D01*
X51781466Y-31951443D01*
X51611627Y-32002963D01*
X51545443Y-32009481D01*
X51479260Y-32016000D01*
X51390740Y-32016000D01*
X51324557Y-32009481D01*
X51258373Y-32002963D01*
X51088534Y-31951443D01*
X50932009Y-31867778D01*
X50896271Y-31838448D01*
X50794814Y-31755186D01*
X50711552Y-31653729D01*
X50682222Y-31617991D01*
X50598557Y-31461466D01*
X50547037Y-31291627D01*
X50529641Y-31115000D01*
X50547037Y-30938373D01*
X50598557Y-30768534D01*
X50682222Y-30612009D01*
X50711552Y-30576271D01*
X50794814Y-30474814D01*
X50896271Y-30391552D01*
X50932009Y-30362222D01*
X51088534Y-30278557D01*
X51258373Y-30227037D01*
X51324558Y-30220518D01*
X51390740Y-30214000D01*
X51479260Y-30214000D01*
X51545442Y-30220518D01*
X51545442Y-30220518D01*
G37*
G36*
X49005442Y-30220518D02*
G01*
X49071627Y-30227037D01*
X49241466Y-30278557D01*
X49397991Y-30362222D01*
X49433729Y-30391552D01*
X49535186Y-30474814D01*
X49618448Y-30576271D01*
X49647778Y-30612009D01*
X49731443Y-30768534D01*
X49782963Y-30938373D01*
X49800359Y-31115000D01*
X49782963Y-31291627D01*
X49731443Y-31461466D01*
X49647778Y-31617991D01*
X49618448Y-31653729D01*
X49535186Y-31755186D01*
X49433729Y-31838448D01*
X49397991Y-31867778D01*
X49241466Y-31951443D01*
X49071627Y-32002963D01*
X49005443Y-32009481D01*
X48939260Y-32016000D01*
X48850740Y-32016000D01*
X48784557Y-32009481D01*
X48718373Y-32002963D01*
X48548534Y-31951443D01*
X48392009Y-31867778D01*
X48356271Y-31838448D01*
X48254814Y-31755186D01*
X48171552Y-31653729D01*
X48142222Y-31617991D01*
X48058557Y-31461466D01*
X48007037Y-31291627D01*
X47989641Y-31115000D01*
X48007037Y-30938373D01*
X48058557Y-30768534D01*
X48142222Y-30612009D01*
X48171552Y-30576271D01*
X48254814Y-30474814D01*
X48356271Y-30391552D01*
X48392009Y-30362222D01*
X48548534Y-30278557D01*
X48718373Y-30227037D01*
X48784558Y-30220518D01*
X48850740Y-30214000D01*
X48939260Y-30214000D01*
X49005442Y-30220518D01*
X49005442Y-30220518D01*
G37*
G36*
X51545443Y-27680519D02*
G01*
X51611627Y-27687037D01*
X51781466Y-27738557D01*
X51937991Y-27822222D01*
X51973729Y-27851552D01*
X52075186Y-27934814D01*
X52158448Y-28036271D01*
X52187778Y-28072009D01*
X52271443Y-28228534D01*
X52322963Y-28398373D01*
X52340359Y-28575000D01*
X52322963Y-28751627D01*
X52271443Y-28921466D01*
X52187778Y-29077991D01*
X52158448Y-29113729D01*
X52075186Y-29215186D01*
X51973729Y-29298448D01*
X51937991Y-29327778D01*
X51781466Y-29411443D01*
X51611627Y-29462963D01*
X51545443Y-29469481D01*
X51479260Y-29476000D01*
X51390740Y-29476000D01*
X51324557Y-29469481D01*
X51258373Y-29462963D01*
X51088534Y-29411443D01*
X50932009Y-29327778D01*
X50896271Y-29298448D01*
X50794814Y-29215186D01*
X50711552Y-29113729D01*
X50682222Y-29077991D01*
X50598557Y-28921466D01*
X50547037Y-28751627D01*
X50529641Y-28575000D01*
X50547037Y-28398373D01*
X50598557Y-28228534D01*
X50682222Y-28072009D01*
X50711552Y-28036271D01*
X50794814Y-27934814D01*
X50896271Y-27851552D01*
X50932009Y-27822222D01*
X51088534Y-27738557D01*
X51258373Y-27687037D01*
X51324557Y-27680519D01*
X51390740Y-27674000D01*
X51479260Y-27674000D01*
X51545443Y-27680519D01*
X51545443Y-27680519D01*
G37*
G36*
X49005443Y-27680519D02*
G01*
X49071627Y-27687037D01*
X49241466Y-27738557D01*
X49397991Y-27822222D01*
X49433729Y-27851552D01*
X49535186Y-27934814D01*
X49618448Y-28036271D01*
X49647778Y-28072009D01*
X49731443Y-28228534D01*
X49782963Y-28398373D01*
X49800359Y-28575000D01*
X49782963Y-28751627D01*
X49731443Y-28921466D01*
X49647778Y-29077991D01*
X49618448Y-29113729D01*
X49535186Y-29215186D01*
X49433729Y-29298448D01*
X49397991Y-29327778D01*
X49241466Y-29411443D01*
X49071627Y-29462963D01*
X49005443Y-29469481D01*
X48939260Y-29476000D01*
X48850740Y-29476000D01*
X48784557Y-29469481D01*
X48718373Y-29462963D01*
X48548534Y-29411443D01*
X48392009Y-29327778D01*
X48356271Y-29298448D01*
X48254814Y-29215186D01*
X48171552Y-29113729D01*
X48142222Y-29077991D01*
X48058557Y-28921466D01*
X48007037Y-28751627D01*
X47989641Y-28575000D01*
X48007037Y-28398373D01*
X48058557Y-28228534D01*
X48142222Y-28072009D01*
X48171552Y-28036271D01*
X48254814Y-27934814D01*
X48356271Y-27851552D01*
X48392009Y-27822222D01*
X48548534Y-27738557D01*
X48718373Y-27687037D01*
X48784557Y-27680519D01*
X48850740Y-27674000D01*
X48939260Y-27674000D01*
X49005443Y-27680519D01*
X49005443Y-27680519D01*
G37*
M02*
