G04 #@! TF.GenerationSoftware,KiCad,Pcbnew,(5.1.2)-2*
G04 #@! TF.CreationDate,2019-12-17T18:16:02+09:00*
G04 #@! TF.ProjectId,simplecodec3,73696d70-6c65-4636-9f64-6563332e6b69,rev?*
G04 #@! TF.SameCoordinates,Original*
G04 #@! TF.FileFunction,Legend,Top*
G04 #@! TF.FilePolarity,Positive*
%FSLAX46Y46*%
G04 Gerber Fmt 4.6, Leading zero omitted, Abs format (unit mm)*
G04 Created by KiCad (PCBNEW (5.1.2)-2) date 2019-12-17 18:16:02*
%MOMM*%
%LPD*%
G04 APERTURE LIST*
%ADD10C,0.150000*%
%ADD11C,0.120000*%
%ADD12C,0.200000*%
%ADD13C,0.100000*%
%ADD14C,0.254000*%
G04 APERTURE END LIST*
D10*
X70993452Y-15962380D02*
X70517261Y-15962380D01*
X70469642Y-16438571D01*
X70517261Y-16390952D01*
X70612500Y-16343333D01*
X70850595Y-16343333D01*
X70945833Y-16390952D01*
X70993452Y-16438571D01*
X71041071Y-16533809D01*
X71041071Y-16771904D01*
X70993452Y-16867142D01*
X70945833Y-16914761D01*
X70850595Y-16962380D01*
X70612500Y-16962380D01*
X70517261Y-16914761D01*
X70469642Y-16867142D01*
X71898214Y-15962380D02*
X71707738Y-15962380D01*
X71612500Y-16010000D01*
X71564880Y-16057619D01*
X71469642Y-16200476D01*
X71422023Y-16390952D01*
X71422023Y-16771904D01*
X71469642Y-16867142D01*
X71517261Y-16914761D01*
X71612500Y-16962380D01*
X71802976Y-16962380D01*
X71898214Y-16914761D01*
X71945833Y-16867142D01*
X71993452Y-16771904D01*
X71993452Y-16533809D01*
X71945833Y-16438571D01*
X71898214Y-16390952D01*
X71802976Y-16343333D01*
X71612500Y-16343333D01*
X71517261Y-16390952D01*
X71469642Y-16438571D01*
X71422023Y-16533809D01*
X72422023Y-16867142D02*
X72469642Y-16914761D01*
X72422023Y-16962380D01*
X72374404Y-16914761D01*
X72422023Y-16867142D01*
X72422023Y-16962380D01*
X73374404Y-15962380D02*
X72898214Y-15962380D01*
X72850595Y-16438571D01*
X72898214Y-16390952D01*
X72993452Y-16343333D01*
X73231547Y-16343333D01*
X73326785Y-16390952D01*
X73374404Y-16438571D01*
X73422023Y-16533809D01*
X73422023Y-16771904D01*
X73374404Y-16867142D01*
X73326785Y-16914761D01*
X73231547Y-16962380D01*
X72993452Y-16962380D01*
X72898214Y-16914761D01*
X72850595Y-16867142D01*
X74374404Y-16962380D02*
X73802976Y-16962380D01*
X74088690Y-16962380D02*
X74088690Y-15962380D01*
X73993452Y-16105238D01*
X73898214Y-16200476D01*
X73802976Y-16248095D01*
X75279166Y-15962380D02*
X74802976Y-15962380D01*
X74755357Y-16438571D01*
X74802976Y-16390952D01*
X74898214Y-16343333D01*
X75136309Y-16343333D01*
X75231547Y-16390952D01*
X75279166Y-16438571D01*
X75326785Y-16533809D01*
X75326785Y-16771904D01*
X75279166Y-16867142D01*
X75231547Y-16914761D01*
X75136309Y-16962380D01*
X74898214Y-16962380D01*
X74802976Y-16914761D01*
X74755357Y-16867142D01*
X76517261Y-16962380D02*
X76517261Y-16295714D01*
X76517261Y-16390952D02*
X76564880Y-16343333D01*
X76660119Y-16295714D01*
X76802976Y-16295714D01*
X76898214Y-16343333D01*
X76945833Y-16438571D01*
X76945833Y-16962380D01*
X76945833Y-16438571D02*
X76993452Y-16343333D01*
X77088690Y-16295714D01*
X77231547Y-16295714D01*
X77326785Y-16343333D01*
X77374404Y-16438571D01*
X77374404Y-16962380D01*
X77850595Y-16962380D02*
X77850595Y-16295714D01*
X77850595Y-16390952D02*
X77898214Y-16343333D01*
X77993452Y-16295714D01*
X78136309Y-16295714D01*
X78231547Y-16343333D01*
X78279166Y-16438571D01*
X78279166Y-16962380D01*
X78279166Y-16438571D02*
X78326785Y-16343333D01*
X78422023Y-16295714D01*
X78564880Y-16295714D01*
X78660119Y-16343333D01*
X78707738Y-16438571D01*
X78707738Y-16962380D01*
D11*
X46355000Y-17780000D02*
X102870000Y-17780000D01*
X46355000Y-22225000D02*
X46355000Y-17193579D01*
X102870000Y-22225000D02*
X102870000Y-17193579D01*
X102870000Y-17780000D02*
X101743496Y-18366421D01*
X102870000Y-17780000D02*
X101743496Y-17193579D01*
X46355000Y-17780000D02*
X47481504Y-18366421D01*
X46355000Y-17780000D02*
X47481504Y-17193579D01*
X57783000Y-62312733D02*
X57783000Y-62655267D01*
X58803000Y-62312733D02*
X58803000Y-62655267D01*
X58803000Y-65957267D02*
X58803000Y-65614733D01*
X57783000Y-65957267D02*
X57783000Y-65614733D01*
X73361733Y-32006000D02*
X73704267Y-32006000D01*
X73361733Y-30986000D02*
X73704267Y-30986000D01*
X73361733Y-33780000D02*
X73704267Y-33780000D01*
X73361733Y-34800000D02*
X73704267Y-34800000D01*
X60327000Y-62312733D02*
X60327000Y-62655267D01*
X59307000Y-62312733D02*
X59307000Y-62655267D01*
X60327000Y-65614733D02*
X60327000Y-65957267D01*
X59307000Y-65614733D02*
X59307000Y-65957267D01*
X72519000Y-57067267D02*
X72519000Y-56724733D01*
X71499000Y-57067267D02*
X71499000Y-56724733D01*
X66757733Y-34546000D02*
X67100267Y-34546000D01*
X66757733Y-33526000D02*
X67100267Y-33526000D01*
X70737000Y-63417267D02*
X70737000Y-63074733D01*
X71757000Y-63417267D02*
X71757000Y-63074733D01*
X69975000Y-57067267D02*
X69975000Y-56724733D01*
X70995000Y-57067267D02*
X70995000Y-56724733D01*
X66757733Y-32002000D02*
X67100267Y-32002000D01*
X66757733Y-33022000D02*
X67100267Y-33022000D01*
X70233000Y-63417267D02*
X70233000Y-63074733D01*
X69213000Y-63417267D02*
X69213000Y-63074733D01*
X59734267Y-34546000D02*
X59391733Y-34546000D01*
X59734267Y-33526000D02*
X59391733Y-33526000D01*
X59734267Y-32002000D02*
X59391733Y-32002000D01*
X59734267Y-33022000D02*
X59391733Y-33022000D01*
X78013000Y-46712000D02*
X81753000Y-46712000D01*
X78013000Y-53952000D02*
X81753000Y-53952000D01*
X81753000Y-53952000D02*
X81753000Y-46712000D01*
X78013000Y-53952000D02*
X78013000Y-46712000D01*
X73695000Y-53952000D02*
X73695000Y-46712000D01*
X77435000Y-53952000D02*
X77435000Y-46712000D01*
X73695000Y-53952000D02*
X77435000Y-53952000D01*
X73695000Y-46712000D02*
X77435000Y-46712000D01*
X63011233Y-33018000D02*
X63353767Y-33018000D01*
X63011233Y-34038000D02*
X63353767Y-34038000D01*
X72739000Y-39731000D02*
G75*
G03X72739000Y-39731000I-3270000J0D01*
G01*
X66239000Y-39731000D02*
X72699000Y-39731000D01*
X66239000Y-39691000D02*
X72699000Y-39691000D01*
X66239000Y-39651000D02*
X72699000Y-39651000D01*
X66241000Y-39611000D02*
X72697000Y-39611000D01*
X66242000Y-39571000D02*
X72696000Y-39571000D01*
X66245000Y-39531000D02*
X72693000Y-39531000D01*
X66247000Y-39491000D02*
X68429000Y-39491000D01*
X70509000Y-39491000D02*
X72691000Y-39491000D01*
X66251000Y-39451000D02*
X68429000Y-39451000D01*
X70509000Y-39451000D02*
X72687000Y-39451000D01*
X66254000Y-39411000D02*
X68429000Y-39411000D01*
X70509000Y-39411000D02*
X72684000Y-39411000D01*
X66258000Y-39371000D02*
X68429000Y-39371000D01*
X70509000Y-39371000D02*
X72680000Y-39371000D01*
X66263000Y-39331000D02*
X68429000Y-39331000D01*
X70509000Y-39331000D02*
X72675000Y-39331000D01*
X66268000Y-39291000D02*
X68429000Y-39291000D01*
X70509000Y-39291000D02*
X72670000Y-39291000D01*
X66274000Y-39251000D02*
X68429000Y-39251000D01*
X70509000Y-39251000D02*
X72664000Y-39251000D01*
X66280000Y-39211000D02*
X68429000Y-39211000D01*
X70509000Y-39211000D02*
X72658000Y-39211000D01*
X66287000Y-39171000D02*
X68429000Y-39171000D01*
X70509000Y-39171000D02*
X72651000Y-39171000D01*
X66294000Y-39131000D02*
X68429000Y-39131000D01*
X70509000Y-39131000D02*
X72644000Y-39131000D01*
X66302000Y-39091000D02*
X68429000Y-39091000D01*
X70509000Y-39091000D02*
X72636000Y-39091000D01*
X66310000Y-39051000D02*
X68429000Y-39051000D01*
X70509000Y-39051000D02*
X72628000Y-39051000D01*
X66319000Y-39010000D02*
X68429000Y-39010000D01*
X70509000Y-39010000D02*
X72619000Y-39010000D01*
X66328000Y-38970000D02*
X68429000Y-38970000D01*
X70509000Y-38970000D02*
X72610000Y-38970000D01*
X66338000Y-38930000D02*
X68429000Y-38930000D01*
X70509000Y-38930000D02*
X72600000Y-38930000D01*
X66348000Y-38890000D02*
X68429000Y-38890000D01*
X70509000Y-38890000D02*
X72590000Y-38890000D01*
X66359000Y-38850000D02*
X68429000Y-38850000D01*
X70509000Y-38850000D02*
X72579000Y-38850000D01*
X66371000Y-38810000D02*
X68429000Y-38810000D01*
X70509000Y-38810000D02*
X72567000Y-38810000D01*
X66383000Y-38770000D02*
X68429000Y-38770000D01*
X70509000Y-38770000D02*
X72555000Y-38770000D01*
X66395000Y-38730000D02*
X68429000Y-38730000D01*
X70509000Y-38730000D02*
X72543000Y-38730000D01*
X66408000Y-38690000D02*
X68429000Y-38690000D01*
X70509000Y-38690000D02*
X72530000Y-38690000D01*
X66422000Y-38650000D02*
X68429000Y-38650000D01*
X70509000Y-38650000D02*
X72516000Y-38650000D01*
X66436000Y-38610000D02*
X68429000Y-38610000D01*
X70509000Y-38610000D02*
X72502000Y-38610000D01*
X66451000Y-38570000D02*
X68429000Y-38570000D01*
X70509000Y-38570000D02*
X72487000Y-38570000D01*
X66467000Y-38530000D02*
X68429000Y-38530000D01*
X70509000Y-38530000D02*
X72471000Y-38530000D01*
X66483000Y-38490000D02*
X68429000Y-38490000D01*
X70509000Y-38490000D02*
X72455000Y-38490000D01*
X66499000Y-38450000D02*
X68429000Y-38450000D01*
X70509000Y-38450000D02*
X72439000Y-38450000D01*
X66517000Y-38410000D02*
X68429000Y-38410000D01*
X70509000Y-38410000D02*
X72421000Y-38410000D01*
X66535000Y-38370000D02*
X68429000Y-38370000D01*
X70509000Y-38370000D02*
X72403000Y-38370000D01*
X66553000Y-38330000D02*
X68429000Y-38330000D01*
X70509000Y-38330000D02*
X72385000Y-38330000D01*
X66573000Y-38290000D02*
X68429000Y-38290000D01*
X70509000Y-38290000D02*
X72365000Y-38290000D01*
X66593000Y-38250000D02*
X68429000Y-38250000D01*
X70509000Y-38250000D02*
X72345000Y-38250000D01*
X66613000Y-38210000D02*
X68429000Y-38210000D01*
X70509000Y-38210000D02*
X72325000Y-38210000D01*
X66635000Y-38170000D02*
X68429000Y-38170000D01*
X70509000Y-38170000D02*
X72303000Y-38170000D01*
X66657000Y-38130000D02*
X68429000Y-38130000D01*
X70509000Y-38130000D02*
X72281000Y-38130000D01*
X66679000Y-38090000D02*
X68429000Y-38090000D01*
X70509000Y-38090000D02*
X72259000Y-38090000D01*
X66703000Y-38050000D02*
X68429000Y-38050000D01*
X70509000Y-38050000D02*
X72235000Y-38050000D01*
X66727000Y-38010000D02*
X68429000Y-38010000D01*
X70509000Y-38010000D02*
X72211000Y-38010000D01*
X66753000Y-37970000D02*
X68429000Y-37970000D01*
X70509000Y-37970000D02*
X72185000Y-37970000D01*
X66779000Y-37930000D02*
X68429000Y-37930000D01*
X70509000Y-37930000D02*
X72159000Y-37930000D01*
X66805000Y-37890000D02*
X68429000Y-37890000D01*
X70509000Y-37890000D02*
X72133000Y-37890000D01*
X66833000Y-37850000D02*
X68429000Y-37850000D01*
X70509000Y-37850000D02*
X72105000Y-37850000D01*
X66862000Y-37810000D02*
X68429000Y-37810000D01*
X70509000Y-37810000D02*
X72076000Y-37810000D01*
X66891000Y-37770000D02*
X68429000Y-37770000D01*
X70509000Y-37770000D02*
X72047000Y-37770000D01*
X66921000Y-37730000D02*
X68429000Y-37730000D01*
X70509000Y-37730000D02*
X72017000Y-37730000D01*
X66953000Y-37690000D02*
X68429000Y-37690000D01*
X70509000Y-37690000D02*
X71985000Y-37690000D01*
X66985000Y-37650000D02*
X68429000Y-37650000D01*
X70509000Y-37650000D02*
X71953000Y-37650000D01*
X67019000Y-37610000D02*
X68429000Y-37610000D01*
X70509000Y-37610000D02*
X71919000Y-37610000D01*
X67053000Y-37570000D02*
X68429000Y-37570000D01*
X70509000Y-37570000D02*
X71885000Y-37570000D01*
X67089000Y-37530000D02*
X68429000Y-37530000D01*
X70509000Y-37530000D02*
X71849000Y-37530000D01*
X67126000Y-37490000D02*
X68429000Y-37490000D01*
X70509000Y-37490000D02*
X71812000Y-37490000D01*
X67164000Y-37450000D02*
X68429000Y-37450000D01*
X70509000Y-37450000D02*
X71774000Y-37450000D01*
X67204000Y-37410000D02*
X71734000Y-37410000D01*
X67245000Y-37370000D02*
X71693000Y-37370000D01*
X67287000Y-37330000D02*
X71651000Y-37330000D01*
X67332000Y-37290000D02*
X71606000Y-37290000D01*
X67377000Y-37250000D02*
X71561000Y-37250000D01*
X67425000Y-37210000D02*
X71513000Y-37210000D01*
X67474000Y-37170000D02*
X71464000Y-37170000D01*
X67525000Y-37130000D02*
X71413000Y-37130000D01*
X67579000Y-37090000D02*
X71359000Y-37090000D01*
X67635000Y-37050000D02*
X71303000Y-37050000D01*
X67693000Y-37010000D02*
X71245000Y-37010000D01*
X67755000Y-36970000D02*
X71183000Y-36970000D01*
X67819000Y-36930000D02*
X71119000Y-36930000D01*
X67888000Y-36890000D02*
X71050000Y-36890000D01*
X67960000Y-36850000D02*
X70978000Y-36850000D01*
X68037000Y-36810000D02*
X70901000Y-36810000D01*
X68119000Y-36770000D02*
X70819000Y-36770000D01*
X68207000Y-36730000D02*
X70731000Y-36730000D01*
X68304000Y-36690000D02*
X70634000Y-36690000D01*
X68410000Y-36650000D02*
X70528000Y-36650000D01*
X68529000Y-36610000D02*
X70409000Y-36610000D01*
X68667000Y-36570000D02*
X70271000Y-36570000D01*
X68836000Y-36530000D02*
X70102000Y-36530000D01*
X69067000Y-36490000D02*
X69871000Y-36490000D01*
X67630000Y-43231241D02*
X67630000Y-42601241D01*
X67315000Y-42916241D02*
X67945000Y-42916241D01*
D12*
X59487000Y-70194000D02*
X62687000Y-70194000D01*
X62687000Y-70194000D02*
X62687000Y-75094000D01*
X62687000Y-75094000D02*
X59487000Y-75094000D01*
X59487000Y-75094000D02*
X59487000Y-70194000D01*
X57637000Y-70064000D02*
X59137000Y-70064000D01*
D13*
X65111000Y-40616000D02*
X65111000Y-37616000D01*
X60111000Y-40616000D02*
X60111000Y-37616000D01*
D12*
X65211000Y-36016000D02*
X65211000Y-36016000D01*
X65211000Y-35816000D02*
X65211000Y-35816000D01*
X65211000Y-35816000D02*
G75*
G02X65211000Y-36016000I0J-100000D01*
G01*
X65211000Y-36016000D02*
G75*
G02X65211000Y-35816000I0J100000D01*
G01*
X66493000Y-63194000D02*
X62793000Y-63194000D01*
X62793000Y-63194000D02*
X62793000Y-56694000D01*
X62793000Y-56694000D02*
X66493000Y-56694000D01*
X66493000Y-56694000D02*
X66493000Y-63194000D01*
X68318000Y-63444000D02*
X66843000Y-63444000D01*
D11*
X52765000Y-27245000D02*
X47565000Y-27245000D01*
X52765000Y-75565000D02*
X52765000Y-27245000D01*
X47565000Y-78165000D02*
X47565000Y-27245000D01*
X52765000Y-75565000D02*
X50165000Y-75565000D01*
X50165000Y-75565000D02*
X50165000Y-78165000D01*
X50165000Y-78165000D02*
X47565000Y-78165000D01*
X52765000Y-76835000D02*
X52765000Y-78165000D01*
X52765000Y-78165000D02*
X51435000Y-78165000D01*
D14*
X73014000Y-39395000D02*
G75*
G03X73014000Y-39395000I-107000J0D01*
G01*
X78672000Y-44656000D02*
X76025000Y-44656000D01*
X78672000Y-38656000D02*
X76025000Y-38656000D01*
X85725000Y-44656000D02*
X81782000Y-44656000D01*
X85725000Y-38656000D02*
X81782000Y-38656000D01*
X85725000Y-44656000D02*
X88225000Y-44656000D01*
X85725000Y-38656000D02*
X85725000Y-44656000D01*
X88225000Y-38656000D02*
X85725000Y-38656000D01*
X88225000Y-38656000D02*
X88225000Y-44656000D01*
X88225000Y-65326000D02*
X88225000Y-71326000D01*
X88225000Y-65326000D02*
X85725000Y-65326000D01*
X85725000Y-65326000D02*
X85725000Y-71326000D01*
X85725000Y-71326000D02*
X88225000Y-71326000D01*
X85725000Y-65326000D02*
X81782000Y-65326000D01*
X85725000Y-71326000D02*
X81782000Y-71326000D01*
X78672000Y-65326000D02*
X76025000Y-65326000D01*
X78672000Y-71326000D02*
X76025000Y-71326000D01*
X73014000Y-66065000D02*
G75*
G03X73014000Y-66065000I-107000J0D01*
G01*
D11*
X61719000Y-32559500D02*
X61719000Y-30559500D01*
X64519000Y-32559500D02*
X61719000Y-32559500D01*
X64519000Y-30559500D02*
X64519000Y-32559500D01*
X61719000Y-30559500D02*
X64519000Y-30559500D01*
X77006267Y-30986000D02*
X76663733Y-30986000D01*
X77006267Y-32006000D02*
X76663733Y-32006000D01*
X77006267Y-34800000D02*
X76663733Y-34800000D01*
X77006267Y-33780000D02*
X76663733Y-33780000D01*
X79965733Y-32006000D02*
X80308267Y-32006000D01*
X79965733Y-30986000D02*
X80308267Y-30986000D01*
X67100267Y-72388000D02*
X66757733Y-72388000D01*
X67100267Y-73408000D02*
X66757733Y-73408000D01*
X80015233Y-33780000D02*
X80357767Y-33780000D01*
X80015233Y-34800000D02*
X80357767Y-34800000D01*
X67100267Y-75186000D02*
X66757733Y-75186000D01*
X67100267Y-74166000D02*
X66757733Y-74166000D01*
X58629733Y-60454000D02*
X58972267Y-60454000D01*
X58629733Y-59434000D02*
X58972267Y-59434000D01*
X58629733Y-57910000D02*
X58972267Y-57910000D01*
X58629733Y-58930000D02*
X58972267Y-58930000D01*
X58629733Y-56386000D02*
X58972267Y-56386000D01*
X58629733Y-57406000D02*
X58972267Y-57406000D01*
X58629733Y-55882000D02*
X58972267Y-55882000D01*
X58629733Y-54862000D02*
X58972267Y-54862000D01*
X57359733Y-43051000D02*
X57702267Y-43051000D01*
X57359733Y-44071000D02*
X57702267Y-44071000D01*
X57359733Y-39876000D02*
X57702267Y-39876000D01*
X57359733Y-40896000D02*
X57702267Y-40896000D01*
X57702267Y-36701000D02*
X57359733Y-36701000D01*
X57702267Y-37721000D02*
X57359733Y-37721000D01*
X75139733Y-60323000D02*
X75482267Y-60323000D01*
X75139733Y-61343000D02*
X75482267Y-61343000D01*
X75468267Y-58672000D02*
X75125733Y-58672000D01*
X75468267Y-59692000D02*
X75125733Y-59692000D01*
X69917000Y-53146000D02*
X72577000Y-53146000D01*
X69917000Y-48006000D02*
X69917000Y-53146000D01*
X72577000Y-48006000D02*
X72577000Y-53146000D01*
X69917000Y-48006000D02*
X72577000Y-48006000D01*
X69917000Y-46736000D02*
X69917000Y-45406000D01*
X69917000Y-45406000D02*
X71247000Y-45406000D01*
X69053000Y-48326000D02*
X69053000Y-46556000D01*
X69053000Y-46556000D02*
X55453000Y-46556000D01*
X55453000Y-46556000D02*
X55453000Y-52096000D01*
X55453000Y-52096000D02*
X69053000Y-52096000D01*
X69053000Y-52096000D02*
X69053000Y-50326000D01*
X69053000Y-50326000D02*
G75*
G02X69053000Y-48326000I0J1000000D01*
G01*
D10*
X57380142Y-62650666D02*
X57427761Y-62698285D01*
X57475380Y-62841142D01*
X57475380Y-62936380D01*
X57427761Y-63079238D01*
X57332523Y-63174476D01*
X57237285Y-63222095D01*
X57046809Y-63269714D01*
X56903952Y-63269714D01*
X56713476Y-63222095D01*
X56618238Y-63174476D01*
X56523000Y-63079238D01*
X56475380Y-62936380D01*
X56475380Y-62841142D01*
X56523000Y-62698285D01*
X56570619Y-62650666D01*
X57475380Y-61698285D02*
X57475380Y-62269714D01*
X57475380Y-61984000D02*
X56475380Y-61984000D01*
X56618238Y-62079238D01*
X56713476Y-62174476D01*
X56761095Y-62269714D01*
X57220142Y-65952666D02*
X57267761Y-66000285D01*
X57315380Y-66143142D01*
X57315380Y-66238380D01*
X57267761Y-66381238D01*
X57172523Y-66476476D01*
X57077285Y-66524095D01*
X56886809Y-66571714D01*
X56743952Y-66571714D01*
X56553476Y-66524095D01*
X56458238Y-66476476D01*
X56363000Y-66381238D01*
X56315380Y-66238380D01*
X56315380Y-66143142D01*
X56363000Y-66000285D01*
X56410619Y-65952666D01*
X56410619Y-65571714D02*
X56363000Y-65524095D01*
X56315380Y-65428857D01*
X56315380Y-65190761D01*
X56363000Y-65095523D01*
X56410619Y-65047904D01*
X56505857Y-65000285D01*
X56601095Y-65000285D01*
X56743952Y-65047904D01*
X57315380Y-65619333D01*
X57315380Y-65000285D01*
X73366333Y-30583142D02*
X73318714Y-30630761D01*
X73175857Y-30678380D01*
X73080619Y-30678380D01*
X72937761Y-30630761D01*
X72842523Y-30535523D01*
X72794904Y-30440285D01*
X72747285Y-30249809D01*
X72747285Y-30106952D01*
X72794904Y-29916476D01*
X72842523Y-29821238D01*
X72937761Y-29726000D01*
X73080619Y-29678380D01*
X73175857Y-29678380D01*
X73318714Y-29726000D01*
X73366333Y-29773619D01*
X73699666Y-29678380D02*
X74318714Y-29678380D01*
X73985380Y-30059333D01*
X74128238Y-30059333D01*
X74223476Y-30106952D01*
X74271095Y-30154571D01*
X74318714Y-30249809D01*
X74318714Y-30487904D01*
X74271095Y-30583142D01*
X74223476Y-30630761D01*
X74128238Y-30678380D01*
X73842523Y-30678380D01*
X73747285Y-30630761D01*
X73699666Y-30583142D01*
X73366333Y-33377142D02*
X73318714Y-33424761D01*
X73175857Y-33472380D01*
X73080619Y-33472380D01*
X72937761Y-33424761D01*
X72842523Y-33329523D01*
X72794904Y-33234285D01*
X72747285Y-33043809D01*
X72747285Y-32900952D01*
X72794904Y-32710476D01*
X72842523Y-32615238D01*
X72937761Y-32520000D01*
X73080619Y-32472380D01*
X73175857Y-32472380D01*
X73318714Y-32520000D01*
X73366333Y-32567619D01*
X74223476Y-32805714D02*
X74223476Y-33472380D01*
X73985380Y-32424761D02*
X73747285Y-33139047D01*
X74366333Y-33139047D01*
X61698142Y-64682666D02*
X61745761Y-64730285D01*
X61793380Y-64873142D01*
X61793380Y-64968380D01*
X61745761Y-65111238D01*
X61650523Y-65206476D01*
X61555285Y-65254095D01*
X61364809Y-65301714D01*
X61221952Y-65301714D01*
X61031476Y-65254095D01*
X60936238Y-65206476D01*
X60841000Y-65111238D01*
X60793380Y-64968380D01*
X60793380Y-64873142D01*
X60841000Y-64730285D01*
X60888619Y-64682666D01*
X60793380Y-63777904D02*
X60793380Y-64254095D01*
X61269571Y-64301714D01*
X61221952Y-64254095D01*
X61174333Y-64158857D01*
X61174333Y-63920761D01*
X61221952Y-63825523D01*
X61269571Y-63777904D01*
X61364809Y-63730285D01*
X61602904Y-63730285D01*
X61698142Y-63777904D01*
X61745761Y-63825523D01*
X61793380Y-63920761D01*
X61793380Y-64158857D01*
X61745761Y-64254095D01*
X61698142Y-64301714D01*
X61698142Y-66714666D02*
X61745761Y-66762285D01*
X61793380Y-66905142D01*
X61793380Y-67000380D01*
X61745761Y-67143238D01*
X61650523Y-67238476D01*
X61555285Y-67286095D01*
X61364809Y-67333714D01*
X61221952Y-67333714D01*
X61031476Y-67286095D01*
X60936238Y-67238476D01*
X60841000Y-67143238D01*
X60793380Y-67000380D01*
X60793380Y-66905142D01*
X60841000Y-66762285D01*
X60888619Y-66714666D01*
X60793380Y-65857523D02*
X60793380Y-66048000D01*
X60841000Y-66143238D01*
X60888619Y-66190857D01*
X61031476Y-66286095D01*
X61221952Y-66333714D01*
X61602904Y-66333714D01*
X61698142Y-66286095D01*
X61745761Y-66238476D01*
X61793380Y-66143238D01*
X61793380Y-65952761D01*
X61745761Y-65857523D01*
X61698142Y-65809904D01*
X61602904Y-65762285D01*
X61364809Y-65762285D01*
X61269571Y-65809904D01*
X61221952Y-65857523D01*
X61174333Y-65952761D01*
X61174333Y-66143238D01*
X61221952Y-66238476D01*
X61269571Y-66286095D01*
X61364809Y-66333714D01*
X68032333Y-64619142D02*
X67984714Y-64666761D01*
X67841857Y-64714380D01*
X67746619Y-64714380D01*
X67603761Y-64666761D01*
X67508523Y-64571523D01*
X67460904Y-64476285D01*
X67413285Y-64285809D01*
X67413285Y-64142952D01*
X67460904Y-63952476D01*
X67508523Y-63857238D01*
X67603761Y-63762000D01*
X67746619Y-63714380D01*
X67841857Y-63714380D01*
X67984714Y-63762000D01*
X68032333Y-63809619D01*
X68365666Y-63714380D02*
X69032333Y-63714380D01*
X68603761Y-64714380D01*
X72366142Y-54522666D02*
X72413761Y-54570285D01*
X72461380Y-54713142D01*
X72461380Y-54808380D01*
X72413761Y-54951238D01*
X72318523Y-55046476D01*
X72223285Y-55094095D01*
X72032809Y-55141714D01*
X71889952Y-55141714D01*
X71699476Y-55094095D01*
X71604238Y-55046476D01*
X71509000Y-54951238D01*
X71461380Y-54808380D01*
X71461380Y-54713142D01*
X71509000Y-54570285D01*
X71556619Y-54522666D01*
X71889952Y-53951238D02*
X71842333Y-54046476D01*
X71794714Y-54094095D01*
X71699476Y-54141714D01*
X71651857Y-54141714D01*
X71556619Y-54094095D01*
X71509000Y-54046476D01*
X71461380Y-53951238D01*
X71461380Y-53760761D01*
X71509000Y-53665523D01*
X71556619Y-53617904D01*
X71651857Y-53570285D01*
X71699476Y-53570285D01*
X71794714Y-53617904D01*
X71842333Y-53665523D01*
X71889952Y-53760761D01*
X71889952Y-53951238D01*
X71937571Y-54046476D01*
X71985190Y-54094095D01*
X72080428Y-54141714D01*
X72270904Y-54141714D01*
X72366142Y-54094095D01*
X72413761Y-54046476D01*
X72461380Y-53951238D01*
X72461380Y-53760761D01*
X72413761Y-53665523D01*
X72366142Y-53617904D01*
X72270904Y-53570285D01*
X72080428Y-53570285D01*
X71985190Y-53617904D01*
X71937571Y-53665523D01*
X71889952Y-53760761D01*
X69302333Y-33885142D02*
X69254714Y-33932761D01*
X69111857Y-33980380D01*
X69016619Y-33980380D01*
X68873761Y-33932761D01*
X68778523Y-33837523D01*
X68730904Y-33742285D01*
X68683285Y-33551809D01*
X68683285Y-33408952D01*
X68730904Y-33218476D01*
X68778523Y-33123238D01*
X68873761Y-33028000D01*
X69016619Y-32980380D01*
X69111857Y-32980380D01*
X69254714Y-33028000D01*
X69302333Y-33075619D01*
X69778523Y-33980380D02*
X69969000Y-33980380D01*
X70064238Y-33932761D01*
X70111857Y-33885142D01*
X70207095Y-33742285D01*
X70254714Y-33551809D01*
X70254714Y-33170857D01*
X70207095Y-33075619D01*
X70159476Y-33028000D01*
X70064238Y-32980380D01*
X69873761Y-32980380D01*
X69778523Y-33028000D01*
X69730904Y-33075619D01*
X69683285Y-33170857D01*
X69683285Y-33408952D01*
X69730904Y-33504190D01*
X69778523Y-33551809D01*
X69873761Y-33599428D01*
X70064238Y-33599428D01*
X70159476Y-33551809D01*
X70207095Y-33504190D01*
X70254714Y-33408952D01*
X71604142Y-67190857D02*
X71651761Y-67238476D01*
X71699380Y-67381333D01*
X71699380Y-67476571D01*
X71651761Y-67619428D01*
X71556523Y-67714666D01*
X71461285Y-67762285D01*
X71270809Y-67809904D01*
X71127952Y-67809904D01*
X70937476Y-67762285D01*
X70842238Y-67714666D01*
X70747000Y-67619428D01*
X70699380Y-67476571D01*
X70699380Y-67381333D01*
X70747000Y-67238476D01*
X70794619Y-67190857D01*
X71699380Y-66238476D02*
X71699380Y-66809904D01*
X71699380Y-66524190D02*
X70699380Y-66524190D01*
X70842238Y-66619428D01*
X70937476Y-66714666D01*
X70985095Y-66809904D01*
X70699380Y-65619428D02*
X70699380Y-65524190D01*
X70747000Y-65428952D01*
X70794619Y-65381333D01*
X70889857Y-65333714D01*
X71080333Y-65286095D01*
X71318428Y-65286095D01*
X71508904Y-65333714D01*
X71604142Y-65381333D01*
X71651761Y-65428952D01*
X71699380Y-65524190D01*
X71699380Y-65619428D01*
X71651761Y-65714666D01*
X71604142Y-65762285D01*
X71508904Y-65809904D01*
X71318428Y-65857523D01*
X71080333Y-65857523D01*
X70889857Y-65809904D01*
X70794619Y-65762285D01*
X70747000Y-65714666D01*
X70699380Y-65619428D01*
X73017142Y-62587142D02*
X72969523Y-62634761D01*
X72826666Y-62682380D01*
X72731428Y-62682380D01*
X72588571Y-62634761D01*
X72493333Y-62539523D01*
X72445714Y-62444285D01*
X72398095Y-62253809D01*
X72398095Y-62110952D01*
X72445714Y-61920476D01*
X72493333Y-61825238D01*
X72588571Y-61730000D01*
X72731428Y-61682380D01*
X72826666Y-61682380D01*
X72969523Y-61730000D01*
X73017142Y-61777619D01*
X73969523Y-62682380D02*
X73398095Y-62682380D01*
X73683809Y-62682380D02*
X73683809Y-61682380D01*
X73588571Y-61825238D01*
X73493333Y-61920476D01*
X73398095Y-61968095D01*
X74921904Y-62682380D02*
X74350476Y-62682380D01*
X74636190Y-62682380D02*
X74636190Y-61682380D01*
X74540952Y-61825238D01*
X74445714Y-61920476D01*
X74350476Y-61968095D01*
X70842142Y-54236857D02*
X70889761Y-54284476D01*
X70937380Y-54427333D01*
X70937380Y-54522571D01*
X70889761Y-54665428D01*
X70794523Y-54760666D01*
X70699285Y-54808285D01*
X70508809Y-54855904D01*
X70365952Y-54855904D01*
X70175476Y-54808285D01*
X70080238Y-54760666D01*
X69985000Y-54665428D01*
X69937380Y-54522571D01*
X69937380Y-54427333D01*
X69985000Y-54284476D01*
X70032619Y-54236857D01*
X70937380Y-53284476D02*
X70937380Y-53855904D01*
X70937380Y-53570190D02*
X69937380Y-53570190D01*
X70080238Y-53665428D01*
X70175476Y-53760666D01*
X70223095Y-53855904D01*
X70032619Y-52903523D02*
X69985000Y-52855904D01*
X69937380Y-52760666D01*
X69937380Y-52522571D01*
X69985000Y-52427333D01*
X70032619Y-52379714D01*
X70127857Y-52332095D01*
X70223095Y-52332095D01*
X70365952Y-52379714D01*
X70937380Y-52951142D01*
X70937380Y-52332095D01*
X68318142Y-31345142D02*
X68270523Y-31392761D01*
X68127666Y-31440380D01*
X68032428Y-31440380D01*
X67889571Y-31392761D01*
X67794333Y-31297523D01*
X67746714Y-31202285D01*
X67699095Y-31011809D01*
X67699095Y-30868952D01*
X67746714Y-30678476D01*
X67794333Y-30583238D01*
X67889571Y-30488000D01*
X68032428Y-30440380D01*
X68127666Y-30440380D01*
X68270523Y-30488000D01*
X68318142Y-30535619D01*
X69270523Y-31440380D02*
X68699095Y-31440380D01*
X68984809Y-31440380D02*
X68984809Y-30440380D01*
X68889571Y-30583238D01*
X68794333Y-30678476D01*
X68699095Y-30726095D01*
X69603857Y-30440380D02*
X70222904Y-30440380D01*
X69889571Y-30821333D01*
X70032428Y-30821333D01*
X70127666Y-30868952D01*
X70175285Y-30916571D01*
X70222904Y-31011809D01*
X70222904Y-31249904D01*
X70175285Y-31345142D01*
X70127666Y-31392761D01*
X70032428Y-31440380D01*
X69746714Y-31440380D01*
X69651476Y-31392761D01*
X69603857Y-31345142D01*
X70080142Y-66936857D02*
X70127761Y-66984476D01*
X70175380Y-67127333D01*
X70175380Y-67222571D01*
X70127761Y-67365428D01*
X70032523Y-67460666D01*
X69937285Y-67508285D01*
X69746809Y-67555904D01*
X69603952Y-67555904D01*
X69413476Y-67508285D01*
X69318238Y-67460666D01*
X69223000Y-67365428D01*
X69175380Y-67222571D01*
X69175380Y-67127333D01*
X69223000Y-66984476D01*
X69270619Y-66936857D01*
X70175380Y-65984476D02*
X70175380Y-66555904D01*
X70175380Y-66270190D02*
X69175380Y-66270190D01*
X69318238Y-66365428D01*
X69413476Y-66460666D01*
X69461095Y-66555904D01*
X69508714Y-65127333D02*
X70175380Y-65127333D01*
X69127761Y-65365428D02*
X69842047Y-65603523D01*
X69842047Y-64984476D01*
X55745142Y-34393142D02*
X55697523Y-34440761D01*
X55554666Y-34488380D01*
X55459428Y-34488380D01*
X55316571Y-34440761D01*
X55221333Y-34345523D01*
X55173714Y-34250285D01*
X55126095Y-34059809D01*
X55126095Y-33916952D01*
X55173714Y-33726476D01*
X55221333Y-33631238D01*
X55316571Y-33536000D01*
X55459428Y-33488380D01*
X55554666Y-33488380D01*
X55697523Y-33536000D01*
X55745142Y-33583619D01*
X56697523Y-34488380D02*
X56126095Y-34488380D01*
X56411809Y-34488380D02*
X56411809Y-33488380D01*
X56316571Y-33631238D01*
X56221333Y-33726476D01*
X56126095Y-33774095D01*
X57602285Y-33488380D02*
X57126095Y-33488380D01*
X57078476Y-33964571D01*
X57126095Y-33916952D01*
X57221333Y-33869333D01*
X57459428Y-33869333D01*
X57554666Y-33916952D01*
X57602285Y-33964571D01*
X57649904Y-34059809D01*
X57649904Y-34297904D01*
X57602285Y-34393142D01*
X57554666Y-34440761D01*
X57459428Y-34488380D01*
X57221333Y-34488380D01*
X57126095Y-34440761D01*
X57078476Y-34393142D01*
X55745142Y-32869142D02*
X55697523Y-32916761D01*
X55554666Y-32964380D01*
X55459428Y-32964380D01*
X55316571Y-32916761D01*
X55221333Y-32821523D01*
X55173714Y-32726285D01*
X55126095Y-32535809D01*
X55126095Y-32392952D01*
X55173714Y-32202476D01*
X55221333Y-32107238D01*
X55316571Y-32012000D01*
X55459428Y-31964380D01*
X55554666Y-31964380D01*
X55697523Y-32012000D01*
X55745142Y-32059619D01*
X56697523Y-32964380D02*
X56126095Y-32964380D01*
X56411809Y-32964380D02*
X56411809Y-31964380D01*
X56316571Y-32107238D01*
X56221333Y-32202476D01*
X56126095Y-32250095D01*
X57554666Y-31964380D02*
X57364190Y-31964380D01*
X57268952Y-32012000D01*
X57221333Y-32059619D01*
X57126095Y-32202476D01*
X57078476Y-32392952D01*
X57078476Y-32773904D01*
X57126095Y-32869142D01*
X57173714Y-32916761D01*
X57268952Y-32964380D01*
X57459428Y-32964380D01*
X57554666Y-32916761D01*
X57602285Y-32869142D01*
X57649904Y-32773904D01*
X57649904Y-32535809D01*
X57602285Y-32440571D01*
X57554666Y-32392952D01*
X57459428Y-32345333D01*
X57268952Y-32345333D01*
X57173714Y-32392952D01*
X57126095Y-32440571D01*
X57078476Y-32535809D01*
X80494142Y-45600857D02*
X80541761Y-45648476D01*
X80589380Y-45791333D01*
X80589380Y-45886571D01*
X80541761Y-46029428D01*
X80446523Y-46124666D01*
X80351285Y-46172285D01*
X80160809Y-46219904D01*
X80017952Y-46219904D01*
X79827476Y-46172285D01*
X79732238Y-46124666D01*
X79637000Y-46029428D01*
X79589380Y-45886571D01*
X79589380Y-45791333D01*
X79637000Y-45648476D01*
X79684619Y-45600857D01*
X80589380Y-44648476D02*
X80589380Y-45219904D01*
X80589380Y-44934190D02*
X79589380Y-44934190D01*
X79732238Y-45029428D01*
X79827476Y-45124666D01*
X79875095Y-45219904D01*
X79589380Y-44315142D02*
X79589380Y-43648476D01*
X80589380Y-44077047D01*
X76176142Y-45600857D02*
X76223761Y-45648476D01*
X76271380Y-45791333D01*
X76271380Y-45886571D01*
X76223761Y-46029428D01*
X76128523Y-46124666D01*
X76033285Y-46172285D01*
X75842809Y-46219904D01*
X75699952Y-46219904D01*
X75509476Y-46172285D01*
X75414238Y-46124666D01*
X75319000Y-46029428D01*
X75271380Y-45886571D01*
X75271380Y-45791333D01*
X75319000Y-45648476D01*
X75366619Y-45600857D01*
X76271380Y-44648476D02*
X76271380Y-45219904D01*
X76271380Y-44934190D02*
X75271380Y-44934190D01*
X75414238Y-45029428D01*
X75509476Y-45124666D01*
X75557095Y-45219904D01*
X75699952Y-44077047D02*
X75652333Y-44172285D01*
X75604714Y-44219904D01*
X75509476Y-44267523D01*
X75461857Y-44267523D01*
X75366619Y-44219904D01*
X75319000Y-44172285D01*
X75271380Y-44077047D01*
X75271380Y-43886571D01*
X75319000Y-43791333D01*
X75366619Y-43743714D01*
X75461857Y-43696095D01*
X75509476Y-43696095D01*
X75604714Y-43743714D01*
X75652333Y-43791333D01*
X75699952Y-43886571D01*
X75699952Y-44077047D01*
X75747571Y-44172285D01*
X75795190Y-44219904D01*
X75890428Y-44267523D01*
X76080904Y-44267523D01*
X76176142Y-44219904D01*
X76223761Y-44172285D01*
X76271380Y-44077047D01*
X76271380Y-43886571D01*
X76223761Y-43791333D01*
X76176142Y-43743714D01*
X76080904Y-43696095D01*
X75890428Y-43696095D01*
X75795190Y-43743714D01*
X75747571Y-43791333D01*
X75699952Y-43886571D01*
X65397142Y-30456142D02*
X65349523Y-30503761D01*
X65206666Y-30551380D01*
X65111428Y-30551380D01*
X64968571Y-30503761D01*
X64873333Y-30408523D01*
X64825714Y-30313285D01*
X64778095Y-30122809D01*
X64778095Y-29979952D01*
X64825714Y-29789476D01*
X64873333Y-29694238D01*
X64968571Y-29599000D01*
X65111428Y-29551380D01*
X65206666Y-29551380D01*
X65349523Y-29599000D01*
X65397142Y-29646619D01*
X66349523Y-30551380D02*
X65778095Y-30551380D01*
X66063809Y-30551380D02*
X66063809Y-29551380D01*
X65968571Y-29694238D01*
X65873333Y-29789476D01*
X65778095Y-29837095D01*
X66825714Y-30551380D02*
X67016190Y-30551380D01*
X67111428Y-30503761D01*
X67159047Y-30456142D01*
X67254285Y-30313285D01*
X67301904Y-30122809D01*
X67301904Y-29741857D01*
X67254285Y-29646619D01*
X67206666Y-29599000D01*
X67111428Y-29551380D01*
X66920952Y-29551380D01*
X66825714Y-29599000D01*
X66778095Y-29646619D01*
X66730476Y-29741857D01*
X66730476Y-29979952D01*
X66778095Y-30075190D01*
X66825714Y-30122809D01*
X66920952Y-30170428D01*
X67111428Y-30170428D01*
X67206666Y-30122809D01*
X67254285Y-30075190D01*
X67301904Y-29979952D01*
X73636142Y-37853857D02*
X73683761Y-37901476D01*
X73731380Y-38044333D01*
X73731380Y-38139571D01*
X73683761Y-38282428D01*
X73588523Y-38377666D01*
X73493285Y-38425285D01*
X73302809Y-38472904D01*
X73159952Y-38472904D01*
X72969476Y-38425285D01*
X72874238Y-38377666D01*
X72779000Y-38282428D01*
X72731380Y-38139571D01*
X72731380Y-38044333D01*
X72779000Y-37901476D01*
X72826619Y-37853857D01*
X72826619Y-37472904D02*
X72779000Y-37425285D01*
X72731380Y-37330047D01*
X72731380Y-37091952D01*
X72779000Y-36996714D01*
X72826619Y-36949095D01*
X72921857Y-36901476D01*
X73017095Y-36901476D01*
X73159952Y-36949095D01*
X73731380Y-37520523D01*
X73731380Y-36901476D01*
X72731380Y-36282428D02*
X72731380Y-36187190D01*
X72779000Y-36091952D01*
X72826619Y-36044333D01*
X72921857Y-35996714D01*
X73112333Y-35949095D01*
X73350428Y-35949095D01*
X73540904Y-35996714D01*
X73636142Y-36044333D01*
X73683761Y-36091952D01*
X73731380Y-36187190D01*
X73731380Y-36282428D01*
X73683761Y-36377666D01*
X73636142Y-36425285D01*
X73540904Y-36472904D01*
X73350428Y-36520523D01*
X73112333Y-36520523D01*
X72921857Y-36472904D01*
X72826619Y-36425285D01*
X72779000Y-36377666D01*
X72731380Y-36282428D01*
D14*
X59847238Y-73218523D02*
X59847238Y-71948523D01*
X61177714Y-73097571D02*
X61117238Y-73158047D01*
X60935809Y-73218523D01*
X60814857Y-73218523D01*
X60633428Y-73158047D01*
X60512476Y-73037095D01*
X60452000Y-72916142D01*
X60391523Y-72674238D01*
X60391523Y-72492809D01*
X60452000Y-72250904D01*
X60512476Y-72129952D01*
X60633428Y-72009000D01*
X60814857Y-71948523D01*
X60935809Y-71948523D01*
X61117238Y-72009000D01*
X61177714Y-72069476D01*
X62387238Y-73218523D02*
X61661523Y-73218523D01*
X62024380Y-73218523D02*
X62024380Y-71948523D01*
X61903428Y-72129952D01*
X61782476Y-72250904D01*
X61661523Y-72311380D01*
X61471238Y-39690523D02*
X61471238Y-38420523D01*
X62801714Y-39569571D02*
X62741238Y-39630047D01*
X62559809Y-39690523D01*
X62438857Y-39690523D01*
X62257428Y-39630047D01*
X62136476Y-39509095D01*
X62076000Y-39388142D01*
X62015523Y-39146238D01*
X62015523Y-38964809D01*
X62076000Y-38722904D01*
X62136476Y-38601952D01*
X62257428Y-38481000D01*
X62438857Y-38420523D01*
X62559809Y-38420523D01*
X62741238Y-38481000D01*
X62801714Y-38541476D01*
X63285523Y-38541476D02*
X63346000Y-38481000D01*
X63466952Y-38420523D01*
X63769333Y-38420523D01*
X63890285Y-38481000D01*
X63950761Y-38541476D01*
X64011238Y-38662428D01*
X64011238Y-38783380D01*
X63950761Y-38964809D01*
X63225047Y-39690523D01*
X64011238Y-39690523D01*
X63403238Y-60518523D02*
X63403238Y-59248523D01*
X64733714Y-60397571D02*
X64673238Y-60458047D01*
X64491809Y-60518523D01*
X64370857Y-60518523D01*
X64189428Y-60458047D01*
X64068476Y-60337095D01*
X64008000Y-60216142D01*
X63947523Y-59974238D01*
X63947523Y-59792809D01*
X64008000Y-59550904D01*
X64068476Y-59429952D01*
X64189428Y-59309000D01*
X64370857Y-59248523D01*
X64491809Y-59248523D01*
X64673238Y-59309000D01*
X64733714Y-59369476D01*
X65157047Y-59248523D02*
X65943238Y-59248523D01*
X65519904Y-59732333D01*
X65701333Y-59732333D01*
X65822285Y-59792809D01*
X65882761Y-59853285D01*
X65943238Y-59974238D01*
X65943238Y-60276619D01*
X65882761Y-60397571D01*
X65822285Y-60458047D01*
X65701333Y-60518523D01*
X65338476Y-60518523D01*
X65217523Y-60458047D01*
X65157047Y-60397571D01*
D10*
X49831666Y-78617380D02*
X49831666Y-79331666D01*
X49784047Y-79474523D01*
X49688809Y-79569761D01*
X49545952Y-79617380D01*
X49450714Y-79617380D01*
X50831666Y-79617380D02*
X50260238Y-79617380D01*
X50545952Y-79617380D02*
X50545952Y-78617380D01*
X50450714Y-78760238D01*
X50355476Y-78855476D01*
X50260238Y-78903095D01*
D14*
X76842523Y-41715333D02*
X77749666Y-41715333D01*
X77931095Y-41775809D01*
X78052047Y-41896761D01*
X78112523Y-42078190D01*
X78112523Y-42199142D01*
X76963476Y-41171047D02*
X76903000Y-41110571D01*
X76842523Y-40989619D01*
X76842523Y-40687238D01*
X76903000Y-40566285D01*
X76963476Y-40505809D01*
X77084428Y-40445333D01*
X77205380Y-40445333D01*
X77386809Y-40505809D01*
X78112523Y-41231523D01*
X78112523Y-40445333D01*
X76842523Y-68385333D02*
X77749666Y-68385333D01*
X77931095Y-68445809D01*
X78052047Y-68566761D01*
X78112523Y-68748190D01*
X78112523Y-68869142D01*
X76842523Y-67901523D02*
X76842523Y-67115333D01*
X77326333Y-67538666D01*
X77326333Y-67357238D01*
X77386809Y-67236285D01*
X77447285Y-67175809D01*
X77568238Y-67115333D01*
X77870619Y-67115333D01*
X77991571Y-67175809D01*
X78052047Y-67236285D01*
X78112523Y-67357238D01*
X78112523Y-67720095D01*
X78052047Y-67841047D01*
X77991571Y-67901523D01*
D10*
X62285666Y-29233880D02*
X62285666Y-29948166D01*
X62238047Y-30091023D01*
X62142809Y-30186261D01*
X61999952Y-30233880D01*
X61904714Y-30233880D01*
X62761857Y-30233880D02*
X62761857Y-29233880D01*
X63142809Y-29233880D01*
X63238047Y-29281500D01*
X63285666Y-29329119D01*
X63333285Y-29424357D01*
X63333285Y-29567214D01*
X63285666Y-29662452D01*
X63238047Y-29710071D01*
X63142809Y-29757690D01*
X62761857Y-29757690D01*
X64285666Y-30233880D02*
X63714238Y-30233880D01*
X63999952Y-30233880D02*
X63999952Y-29233880D01*
X63904714Y-29376738D01*
X63809476Y-29471976D01*
X63714238Y-29519595D01*
X76414333Y-30424380D02*
X76081000Y-29948190D01*
X75842904Y-30424380D02*
X75842904Y-29424380D01*
X76223857Y-29424380D01*
X76319095Y-29472000D01*
X76366714Y-29519619D01*
X76414333Y-29614857D01*
X76414333Y-29757714D01*
X76366714Y-29852952D01*
X76319095Y-29900571D01*
X76223857Y-29948190D01*
X75842904Y-29948190D01*
X77366714Y-30424380D02*
X76795285Y-30424380D01*
X77081000Y-30424380D02*
X77081000Y-29424380D01*
X76985761Y-29567238D01*
X76890523Y-29662476D01*
X76795285Y-29710095D01*
X76414333Y-33472380D02*
X76081000Y-32996190D01*
X75842904Y-33472380D02*
X75842904Y-32472380D01*
X76223857Y-32472380D01*
X76319095Y-32520000D01*
X76366714Y-32567619D01*
X76414333Y-32662857D01*
X76414333Y-32805714D01*
X76366714Y-32900952D01*
X76319095Y-32948571D01*
X76223857Y-32996190D01*
X75842904Y-32996190D01*
X76795285Y-32567619D02*
X76842904Y-32520000D01*
X76938142Y-32472380D01*
X77176238Y-32472380D01*
X77271476Y-32520000D01*
X77319095Y-32567619D01*
X77366714Y-32662857D01*
X77366714Y-32758095D01*
X77319095Y-32900952D01*
X76747666Y-33472380D01*
X77366714Y-33472380D01*
X79970333Y-30518380D02*
X79637000Y-30042190D01*
X79398904Y-30518380D02*
X79398904Y-29518380D01*
X79779857Y-29518380D01*
X79875095Y-29566000D01*
X79922714Y-29613619D01*
X79970333Y-29708857D01*
X79970333Y-29851714D01*
X79922714Y-29946952D01*
X79875095Y-29994571D01*
X79779857Y-30042190D01*
X79398904Y-30042190D01*
X80303666Y-29518380D02*
X80922714Y-29518380D01*
X80589380Y-29899333D01*
X80732238Y-29899333D01*
X80827476Y-29946952D01*
X80875095Y-29994571D01*
X80922714Y-30089809D01*
X80922714Y-30327904D01*
X80875095Y-30423142D01*
X80827476Y-30470761D01*
X80732238Y-30518380D01*
X80446523Y-30518380D01*
X80351285Y-30470761D01*
X80303666Y-30423142D01*
X69556333Y-73604380D02*
X69223000Y-73128190D01*
X68984904Y-73604380D02*
X68984904Y-72604380D01*
X69365857Y-72604380D01*
X69461095Y-72652000D01*
X69508714Y-72699619D01*
X69556333Y-72794857D01*
X69556333Y-72937714D01*
X69508714Y-73032952D01*
X69461095Y-73080571D01*
X69365857Y-73128190D01*
X68984904Y-73128190D01*
X70413476Y-72937714D02*
X70413476Y-73604380D01*
X70175380Y-72556761D02*
X69937285Y-73271047D01*
X70556333Y-73271047D01*
X80019833Y-33312380D02*
X79686500Y-32836190D01*
X79448404Y-33312380D02*
X79448404Y-32312380D01*
X79829357Y-32312380D01*
X79924595Y-32360000D01*
X79972214Y-32407619D01*
X80019833Y-32502857D01*
X80019833Y-32645714D01*
X79972214Y-32740952D01*
X79924595Y-32788571D01*
X79829357Y-32836190D01*
X79448404Y-32836190D01*
X80924595Y-32312380D02*
X80448404Y-32312380D01*
X80400785Y-32788571D01*
X80448404Y-32740952D01*
X80543642Y-32693333D01*
X80781738Y-32693333D01*
X80876976Y-32740952D01*
X80924595Y-32788571D01*
X80972214Y-32883809D01*
X80972214Y-33121904D01*
X80924595Y-33217142D01*
X80876976Y-33264761D01*
X80781738Y-33312380D01*
X80543642Y-33312380D01*
X80448404Y-33264761D01*
X80400785Y-33217142D01*
X69556333Y-75382380D02*
X69223000Y-74906190D01*
X68984904Y-75382380D02*
X68984904Y-74382380D01*
X69365857Y-74382380D01*
X69461095Y-74430000D01*
X69508714Y-74477619D01*
X69556333Y-74572857D01*
X69556333Y-74715714D01*
X69508714Y-74810952D01*
X69461095Y-74858571D01*
X69365857Y-74906190D01*
X68984904Y-74906190D01*
X70413476Y-74382380D02*
X70223000Y-74382380D01*
X70127761Y-74430000D01*
X70080142Y-74477619D01*
X69984904Y-74620476D01*
X69937285Y-74810952D01*
X69937285Y-75191904D01*
X69984904Y-75287142D01*
X70032523Y-75334761D01*
X70127761Y-75382380D01*
X70318238Y-75382380D01*
X70413476Y-75334761D01*
X70461095Y-75287142D01*
X70508714Y-75191904D01*
X70508714Y-74953809D01*
X70461095Y-74858571D01*
X70413476Y-74810952D01*
X70318238Y-74763333D01*
X70127761Y-74763333D01*
X70032523Y-74810952D01*
X69984904Y-74858571D01*
X69937285Y-74953809D01*
X55840333Y-60396380D02*
X55507000Y-59920190D01*
X55268904Y-60396380D02*
X55268904Y-59396380D01*
X55649857Y-59396380D01*
X55745095Y-59444000D01*
X55792714Y-59491619D01*
X55840333Y-59586857D01*
X55840333Y-59729714D01*
X55792714Y-59824952D01*
X55745095Y-59872571D01*
X55649857Y-59920190D01*
X55268904Y-59920190D01*
X56173666Y-59396380D02*
X56840333Y-59396380D01*
X56411761Y-60396380D01*
X55840333Y-58872380D02*
X55507000Y-58396190D01*
X55268904Y-58872380D02*
X55268904Y-57872380D01*
X55649857Y-57872380D01*
X55745095Y-57920000D01*
X55792714Y-57967619D01*
X55840333Y-58062857D01*
X55840333Y-58205714D01*
X55792714Y-58300952D01*
X55745095Y-58348571D01*
X55649857Y-58396190D01*
X55268904Y-58396190D01*
X56411761Y-58300952D02*
X56316523Y-58253333D01*
X56268904Y-58205714D01*
X56221285Y-58110476D01*
X56221285Y-58062857D01*
X56268904Y-57967619D01*
X56316523Y-57920000D01*
X56411761Y-57872380D01*
X56602238Y-57872380D01*
X56697476Y-57920000D01*
X56745095Y-57967619D01*
X56792714Y-58062857D01*
X56792714Y-58110476D01*
X56745095Y-58205714D01*
X56697476Y-58253333D01*
X56602238Y-58300952D01*
X56411761Y-58300952D01*
X56316523Y-58348571D01*
X56268904Y-58396190D01*
X56221285Y-58491428D01*
X56221285Y-58681904D01*
X56268904Y-58777142D01*
X56316523Y-58824761D01*
X56411761Y-58872380D01*
X56602238Y-58872380D01*
X56697476Y-58824761D01*
X56745095Y-58777142D01*
X56792714Y-58681904D01*
X56792714Y-58491428D01*
X56745095Y-58396190D01*
X56697476Y-58348571D01*
X56602238Y-58300952D01*
X55840333Y-57348380D02*
X55507000Y-56872190D01*
X55268904Y-57348380D02*
X55268904Y-56348380D01*
X55649857Y-56348380D01*
X55745095Y-56396000D01*
X55792714Y-56443619D01*
X55840333Y-56538857D01*
X55840333Y-56681714D01*
X55792714Y-56776952D01*
X55745095Y-56824571D01*
X55649857Y-56872190D01*
X55268904Y-56872190D01*
X56316523Y-57348380D02*
X56507000Y-57348380D01*
X56602238Y-57300761D01*
X56649857Y-57253142D01*
X56745095Y-57110285D01*
X56792714Y-56919809D01*
X56792714Y-56538857D01*
X56745095Y-56443619D01*
X56697476Y-56396000D01*
X56602238Y-56348380D01*
X56411761Y-56348380D01*
X56316523Y-56396000D01*
X56268904Y-56443619D01*
X56221285Y-56538857D01*
X56221285Y-56776952D01*
X56268904Y-56872190D01*
X56316523Y-56919809D01*
X56411761Y-56967428D01*
X56602238Y-56967428D01*
X56697476Y-56919809D01*
X56745095Y-56872190D01*
X56792714Y-56776952D01*
X55110142Y-55824380D02*
X54776809Y-55348190D01*
X54538714Y-55824380D02*
X54538714Y-54824380D01*
X54919666Y-54824380D01*
X55014904Y-54872000D01*
X55062523Y-54919619D01*
X55110142Y-55014857D01*
X55110142Y-55157714D01*
X55062523Y-55252952D01*
X55014904Y-55300571D01*
X54919666Y-55348190D01*
X54538714Y-55348190D01*
X56062523Y-55824380D02*
X55491095Y-55824380D01*
X55776809Y-55824380D02*
X55776809Y-54824380D01*
X55681571Y-54967238D01*
X55586333Y-55062476D01*
X55491095Y-55110095D01*
X56681571Y-54824380D02*
X56776809Y-54824380D01*
X56872047Y-54872000D01*
X56919666Y-54919619D01*
X56967285Y-55014857D01*
X57014904Y-55205333D01*
X57014904Y-55443428D01*
X56967285Y-55633904D01*
X56919666Y-55729142D01*
X56872047Y-55776761D01*
X56776809Y-55824380D01*
X56681571Y-55824380D01*
X56586333Y-55776761D01*
X56538714Y-55729142D01*
X56491095Y-55633904D01*
X56443476Y-55443428D01*
X56443476Y-55205333D01*
X56491095Y-55014857D01*
X56538714Y-54919619D01*
X56586333Y-54872000D01*
X56681571Y-54824380D01*
X56888142Y-42583380D02*
X56554809Y-42107190D01*
X56316714Y-42583380D02*
X56316714Y-41583380D01*
X56697666Y-41583380D01*
X56792904Y-41631000D01*
X56840523Y-41678619D01*
X56888142Y-41773857D01*
X56888142Y-41916714D01*
X56840523Y-42011952D01*
X56792904Y-42059571D01*
X56697666Y-42107190D01*
X56316714Y-42107190D01*
X57840523Y-42583380D02*
X57269095Y-42583380D01*
X57554809Y-42583380D02*
X57554809Y-41583380D01*
X57459571Y-41726238D01*
X57364333Y-41821476D01*
X57269095Y-41869095D01*
X58792904Y-42583380D02*
X58221476Y-42583380D01*
X58507190Y-42583380D02*
X58507190Y-41583380D01*
X58411952Y-41726238D01*
X58316714Y-41821476D01*
X58221476Y-41869095D01*
X56888142Y-39408380D02*
X56554809Y-38932190D01*
X56316714Y-39408380D02*
X56316714Y-38408380D01*
X56697666Y-38408380D01*
X56792904Y-38456000D01*
X56840523Y-38503619D01*
X56888142Y-38598857D01*
X56888142Y-38741714D01*
X56840523Y-38836952D01*
X56792904Y-38884571D01*
X56697666Y-38932190D01*
X56316714Y-38932190D01*
X57840523Y-39408380D02*
X57269095Y-39408380D01*
X57554809Y-39408380D02*
X57554809Y-38408380D01*
X57459571Y-38551238D01*
X57364333Y-38646476D01*
X57269095Y-38694095D01*
X58221476Y-38503619D02*
X58269095Y-38456000D01*
X58364333Y-38408380D01*
X58602428Y-38408380D01*
X58697666Y-38456000D01*
X58745285Y-38503619D01*
X58792904Y-38598857D01*
X58792904Y-38694095D01*
X58745285Y-38836952D01*
X58173857Y-39408380D01*
X58792904Y-39408380D01*
X56888142Y-36266380D02*
X56554809Y-35790190D01*
X56316714Y-36266380D02*
X56316714Y-35266380D01*
X56697666Y-35266380D01*
X56792904Y-35314000D01*
X56840523Y-35361619D01*
X56888142Y-35456857D01*
X56888142Y-35599714D01*
X56840523Y-35694952D01*
X56792904Y-35742571D01*
X56697666Y-35790190D01*
X56316714Y-35790190D01*
X57840523Y-36266380D02*
X57269095Y-36266380D01*
X57554809Y-36266380D02*
X57554809Y-35266380D01*
X57459571Y-35409238D01*
X57364333Y-35504476D01*
X57269095Y-35552095D01*
X58173857Y-35266380D02*
X58792904Y-35266380D01*
X58459571Y-35647333D01*
X58602428Y-35647333D01*
X58697666Y-35694952D01*
X58745285Y-35742571D01*
X58792904Y-35837809D01*
X58792904Y-36075904D01*
X58745285Y-36171142D01*
X58697666Y-36218761D01*
X58602428Y-36266380D01*
X58316714Y-36266380D01*
X58221476Y-36218761D01*
X58173857Y-36171142D01*
X77716142Y-61285380D02*
X77382809Y-60809190D01*
X77144714Y-61285380D02*
X77144714Y-60285380D01*
X77525666Y-60285380D01*
X77620904Y-60333000D01*
X77668523Y-60380619D01*
X77716142Y-60475857D01*
X77716142Y-60618714D01*
X77668523Y-60713952D01*
X77620904Y-60761571D01*
X77525666Y-60809190D01*
X77144714Y-60809190D01*
X78668523Y-61285380D02*
X78097095Y-61285380D01*
X78382809Y-61285380D02*
X78382809Y-60285380D01*
X78287571Y-60428238D01*
X78192333Y-60523476D01*
X78097095Y-60571095D01*
X79525666Y-60618714D02*
X79525666Y-61285380D01*
X79287571Y-60237761D02*
X79049476Y-60952047D01*
X79668523Y-60952047D01*
X77716142Y-59761380D02*
X77382809Y-59285190D01*
X77144714Y-59761380D02*
X77144714Y-58761380D01*
X77525666Y-58761380D01*
X77620904Y-58809000D01*
X77668523Y-58856619D01*
X77716142Y-58951857D01*
X77716142Y-59094714D01*
X77668523Y-59189952D01*
X77620904Y-59237571D01*
X77525666Y-59285190D01*
X77144714Y-59285190D01*
X78668523Y-59761380D02*
X78097095Y-59761380D01*
X78382809Y-59761380D02*
X78382809Y-58761380D01*
X78287571Y-58904238D01*
X78192333Y-58999476D01*
X78097095Y-59047095D01*
X79573285Y-58761380D02*
X79097095Y-58761380D01*
X79049476Y-59237571D01*
X79097095Y-59189952D01*
X79192333Y-59142333D01*
X79430428Y-59142333D01*
X79525666Y-59189952D01*
X79573285Y-59237571D01*
X79620904Y-59332809D01*
X79620904Y-59570904D01*
X79573285Y-59666142D01*
X79525666Y-59713761D01*
X79430428Y-59761380D01*
X79192333Y-59761380D01*
X79097095Y-59713761D01*
X79049476Y-59666142D01*
X69913666Y-44810761D02*
X70056523Y-44858380D01*
X70294619Y-44858380D01*
X70389857Y-44810761D01*
X70437476Y-44763142D01*
X70485095Y-44667904D01*
X70485095Y-44572666D01*
X70437476Y-44477428D01*
X70389857Y-44429809D01*
X70294619Y-44382190D01*
X70104142Y-44334571D01*
X70008904Y-44286952D01*
X69961285Y-44239333D01*
X69913666Y-44144095D01*
X69913666Y-44048857D01*
X69961285Y-43953619D01*
X70008904Y-43906000D01*
X70104142Y-43858380D01*
X70342238Y-43858380D01*
X70485095Y-43906000D01*
X70818428Y-43858380D02*
X71056523Y-44858380D01*
X71247000Y-44144095D01*
X71437476Y-44858380D01*
X71675571Y-43858380D01*
X72580333Y-44858380D02*
X72008904Y-44858380D01*
X72294619Y-44858380D02*
X72294619Y-43858380D01*
X72199380Y-44001238D01*
X72104142Y-44096476D01*
X72008904Y-44144095D01*
X69505380Y-50135523D02*
X70505380Y-49468857D01*
X69505380Y-49468857D02*
X70505380Y-50135523D01*
X70505380Y-48564095D02*
X70505380Y-49135523D01*
X70505380Y-48849809D02*
X69505380Y-48849809D01*
X69648238Y-48945047D01*
X69743476Y-49040285D01*
X69791095Y-49135523D01*
M02*
