G04 #@! TF.GenerationSoftware,KiCad,Pcbnew,(5.1.2)-2*
G04 #@! TF.CreationDate,2019-12-17T18:16:02+09:00*
G04 #@! TF.ProjectId,simplecodec3,73696d70-6c65-4636-9f64-6563332e6b69,rev?*
G04 #@! TF.SameCoordinates,Original*
G04 #@! TF.FileFunction,Copper,L2,Bot*
G04 #@! TF.FilePolarity,Positive*
%FSLAX46Y46*%
G04 Gerber Fmt 4.6, Leading zero omitted, Abs format (unit mm)*
G04 Created by KiCad (PCBNEW (5.1.2)-2) date 2019-12-17 18:16:02*
%MOMM*%
%LPD*%
G04 APERTURE LIST*
%ADD10C,1.600000*%
%ADD11R,1.600000X1.600000*%
%ADD12R,1.700000X1.700000*%
%ADD13O,1.700000X1.700000*%
%ADD14C,2.300000*%
%ADD15C,2.450000*%
%ADD16O,1.600000X1.600000*%
%ADD17C,0.800000*%
%ADD18C,0.203200*%
%ADD19C,0.254000*%
G04 APERTURE END LIST*
D10*
X79883000Y-47832000D03*
X79883000Y-52832000D03*
X75565000Y-52832000D03*
X75565000Y-47832000D03*
D11*
X69469000Y-40981000D03*
D10*
X69469000Y-38481000D03*
D12*
X51435000Y-76835000D03*
D13*
X48895000Y-76835000D03*
X51435000Y-74295000D03*
X48895000Y-74295000D03*
X51435000Y-71755000D03*
X48895000Y-71755000D03*
X51435000Y-69215000D03*
X48895000Y-69215000D03*
X51435000Y-66675000D03*
X48895000Y-66675000D03*
X51435000Y-64135000D03*
X48895000Y-64135000D03*
X51435000Y-61595000D03*
X48895000Y-61595000D03*
X51435000Y-59055000D03*
X48895000Y-59055000D03*
X51435000Y-56515000D03*
X48895000Y-56515000D03*
X51435000Y-53975000D03*
X48895000Y-53975000D03*
X51435000Y-51435000D03*
X48895000Y-51435000D03*
X51435000Y-48895000D03*
X48895000Y-48895000D03*
X51435000Y-46355000D03*
X48895000Y-46355000D03*
X51435000Y-43815000D03*
X48895000Y-43815000D03*
X51435000Y-41275000D03*
X48895000Y-41275000D03*
X51435000Y-38735000D03*
X48895000Y-38735000D03*
X51435000Y-36195000D03*
X48895000Y-36195000D03*
X51435000Y-33655000D03*
X48895000Y-33655000D03*
X51435000Y-31115000D03*
X48895000Y-31115000D03*
X51435000Y-28575000D03*
X48895000Y-28575000D03*
D14*
X74725000Y-43856000D03*
D15*
X80225000Y-44406000D03*
X80225000Y-38906000D03*
X74725000Y-39456000D03*
X74725000Y-66126000D03*
X80225000Y-65576000D03*
X80225000Y-71076000D03*
D14*
X74725000Y-70526000D03*
D12*
X71247000Y-46736000D03*
D13*
X71247000Y-49276000D03*
X71247000Y-51816000D03*
D11*
X65913000Y-45466000D03*
D16*
X58293000Y-53086000D03*
X58293000Y-45466000D03*
X65913000Y-53086000D03*
D17*
X54610000Y-36195000D03*
X54610000Y-40640000D03*
X54610000Y-45720000D03*
X62865000Y-76835000D03*
X72390000Y-60960000D03*
X72390000Y-65405000D03*
X59309000Y-35687000D03*
X56515000Y-28448000D03*
X61976000Y-49149000D03*
X83820000Y-37465000D03*
X83820000Y-64135000D03*
X74930000Y-33020000D03*
X74422000Y-64135000D03*
X74422000Y-57785000D03*
X65913000Y-55753000D03*
X60579000Y-31115000D03*
X55880000Y-67056000D03*
X72517000Y-42926000D03*
X67183000Y-35941000D03*
X63246000Y-34798000D03*
X54657900Y-51595400D03*
X57150000Y-34925000D03*
X54610000Y-31750000D03*
X54610000Y-58420000D03*
D18*
X51435000Y-46355000D02*
X51435000Y-45199900D01*
X48895000Y-41275000D02*
X48895000Y-42430100D01*
X48895000Y-42430100D02*
X49183900Y-42430100D01*
X49183900Y-42430100D02*
X50050100Y-43296300D01*
X50050100Y-43296300D02*
X50050100Y-44084300D01*
X50050100Y-44084300D02*
X51165700Y-45199900D01*
X51165700Y-45199900D02*
X51435000Y-45199900D01*
X48895000Y-53975000D02*
X48895000Y-52819900D01*
X51435000Y-46355000D02*
X51435000Y-47510100D01*
X51435000Y-47510100D02*
X51146100Y-47510100D01*
X51146100Y-47510100D02*
X50279900Y-48376300D01*
X50279900Y-48376300D02*
X50279900Y-51704200D01*
X50279900Y-51704200D02*
X49164200Y-52819900D01*
X49164200Y-52819900D02*
X48895000Y-52819900D01*
X59309000Y-35687000D02*
X58293000Y-36703000D01*
X58293000Y-36703000D02*
X58293000Y-45466000D01*
X51435000Y-66675000D02*
X51435000Y-65519900D01*
X48895000Y-61595000D02*
X48895000Y-62750100D01*
X48895000Y-62750100D02*
X49183900Y-62750100D01*
X49183900Y-62750100D02*
X50050100Y-63616300D01*
X50050100Y-63616300D02*
X50050100Y-64404300D01*
X50050100Y-64404300D02*
X51165700Y-65519900D01*
X51165700Y-65519900D02*
X51435000Y-65519900D01*
X51435000Y-28575000D02*
X52590100Y-28575000D01*
X56515000Y-28448000D02*
X52717100Y-28448000D01*
X52717100Y-28448000D02*
X52590100Y-28575000D01*
X71247000Y-46736000D02*
X70091900Y-46736000D01*
X65913000Y-53086000D02*
X65913000Y-51980900D01*
X65913000Y-51980900D02*
X70091900Y-47802000D01*
X70091900Y-47802000D02*
X70091900Y-46736000D01*
X74422000Y-56515000D02*
X74422000Y-57785000D01*
X65913000Y-55753000D02*
X66478700Y-55753000D01*
X66478700Y-55753000D02*
X67367700Y-54864000D01*
X67367700Y-54864000D02*
X74041000Y-54864000D01*
X74041000Y-54864000D02*
X74422000Y-55245000D01*
X74422000Y-55245000D02*
X74422000Y-56515000D01*
X65913000Y-55753000D02*
X65151000Y-56515000D01*
X65151000Y-56515000D02*
X51435000Y-56515000D01*
X55880000Y-67056000D02*
X55880000Y-75094200D01*
X55880000Y-75094200D02*
X54139200Y-76835000D01*
X54139200Y-76835000D02*
X51435000Y-76835000D01*
X74422000Y-57785000D02*
X74422000Y-64135000D01*
X65913000Y-55753000D02*
X56007000Y-45847000D01*
X56007000Y-45847000D02*
X56007000Y-33274000D01*
X56007000Y-33274000D02*
X58166000Y-31115000D01*
X58166000Y-31115000D02*
X60579000Y-31115000D01*
X74422000Y-56515000D02*
X74422000Y-57785000D01*
X73152000Y-65405000D02*
X74422000Y-64135000D01*
X72390000Y-65405000D02*
X73152000Y-65405000D01*
X76677500Y-47832000D02*
X79883000Y-47832000D01*
X75565000Y-47832000D02*
X76677500Y-47832000D01*
X76677500Y-47832000D02*
X76677500Y-64173500D01*
X76677500Y-64173500D02*
X74725000Y-66126000D01*
X69469000Y-38481000D02*
X67183000Y-36195000D01*
X67183000Y-36195000D02*
X67183000Y-35941000D01*
X48895000Y-74295000D02*
X48895000Y-73139900D01*
X65442300Y-34798000D02*
X61017200Y-30372900D01*
X61017200Y-30372900D02*
X58307800Y-30372900D01*
X58307800Y-30372900D02*
X53602800Y-35077900D01*
X53602800Y-35077900D02*
X53602800Y-38234400D01*
X53602800Y-38234400D02*
X51832200Y-40005000D01*
X51832200Y-40005000D02*
X48507100Y-40005000D01*
X48507100Y-40005000D02*
X47270800Y-41241300D01*
X47270800Y-41241300D02*
X47270800Y-71785000D01*
X47270800Y-71785000D02*
X48625700Y-73139900D01*
X48625700Y-73139900D02*
X48895000Y-73139900D01*
X65442300Y-34798000D02*
X65913000Y-34798000D01*
X65913000Y-34798000D02*
X65913000Y-38428200D01*
X65913000Y-38428200D02*
X68465800Y-40981000D01*
X68465800Y-40981000D02*
X69469000Y-40981000D01*
X63246000Y-34798000D02*
X65442300Y-34798000D01*
X51435000Y-69215000D02*
X51435000Y-68059900D01*
X58293000Y-53086000D02*
X57187900Y-53086000D01*
X57187900Y-53086000D02*
X54914100Y-55359800D01*
X54914100Y-55359800D02*
X50899800Y-55359800D01*
X50899800Y-55359800D02*
X50279800Y-55979800D01*
X50279800Y-55979800D02*
X50279800Y-57050200D01*
X50279800Y-57050200D02*
X51014600Y-57785000D01*
X51014600Y-57785000D02*
X51808800Y-57785000D01*
X51808800Y-57785000D02*
X52630200Y-58606400D01*
X52630200Y-58606400D02*
X52630200Y-67133900D01*
X52630200Y-67133900D02*
X51704200Y-68059900D01*
X51704200Y-68059900D02*
X51435000Y-68059900D01*
X54657900Y-51595400D02*
X53548300Y-52705000D01*
X53548300Y-52705000D02*
X51026800Y-52705000D01*
X51026800Y-52705000D02*
X50279800Y-53452000D01*
X50279800Y-53452000D02*
X50279800Y-54227600D01*
X50279800Y-54227600D02*
X49147600Y-55359800D01*
X49147600Y-55359800D02*
X48355700Y-55359800D01*
X48355700Y-55359800D02*
X47719200Y-55996300D01*
X47719200Y-55996300D02*
X47719200Y-62959200D01*
X47719200Y-62959200D02*
X48895000Y-64135000D01*
X54610000Y-31750000D02*
X52705000Y-33655000D01*
X52705000Y-33655000D02*
X51435000Y-33655000D01*
D19*
G36*
X85598000Y-79248000D02*
G01*
X46482000Y-79248000D01*
X46482000Y-41241300D01*
X46530636Y-41241300D01*
X46534200Y-41277483D01*
X46534201Y-71748807D01*
X46530636Y-71785000D01*
X46544859Y-71929398D01*
X46586978Y-72068247D01*
X46610306Y-72111890D01*
X46655377Y-72196213D01*
X46747426Y-72308375D01*
X46775532Y-72331441D01*
X47769589Y-73325499D01*
X47654294Y-73465986D01*
X47516401Y-73723966D01*
X47431487Y-74003889D01*
X47402815Y-74295000D01*
X47431487Y-74586111D01*
X47516401Y-74866034D01*
X47654294Y-75124014D01*
X47839866Y-75350134D01*
X48065986Y-75535706D01*
X48120791Y-75565000D01*
X48065986Y-75594294D01*
X47839866Y-75779866D01*
X47654294Y-76005986D01*
X47516401Y-76263966D01*
X47431487Y-76543889D01*
X47402815Y-76835000D01*
X47431487Y-77126111D01*
X47516401Y-77406034D01*
X47654294Y-77664014D01*
X47839866Y-77890134D01*
X48065986Y-78075706D01*
X48323966Y-78213599D01*
X48603889Y-78298513D01*
X48822050Y-78320000D01*
X48967950Y-78320000D01*
X49186111Y-78298513D01*
X49466034Y-78213599D01*
X49724014Y-78075706D01*
X49950134Y-77890134D01*
X49974607Y-77860313D01*
X49995498Y-77929180D01*
X50054463Y-78039494D01*
X50133815Y-78136185D01*
X50230506Y-78215537D01*
X50340820Y-78274502D01*
X50460518Y-78310812D01*
X50585000Y-78323072D01*
X52285000Y-78323072D01*
X52409482Y-78310812D01*
X52529180Y-78274502D01*
X52639494Y-78215537D01*
X52736185Y-78136185D01*
X52815537Y-78039494D01*
X52874502Y-77929180D01*
X52910812Y-77809482D01*
X52923072Y-77685000D01*
X52923072Y-77571600D01*
X54103017Y-77571600D01*
X54139200Y-77575164D01*
X54175383Y-77571600D01*
X54175386Y-77571600D01*
X54283599Y-77560942D01*
X54422449Y-77518822D01*
X54550413Y-77450424D01*
X54662575Y-77358375D01*
X54685645Y-77330264D01*
X56375269Y-75640641D01*
X56403375Y-75617575D01*
X56495424Y-75505413D01*
X56563822Y-75377449D01*
X56605942Y-75238599D01*
X56616600Y-75130386D01*
X56620164Y-75094200D01*
X56616600Y-75058014D01*
X56616600Y-70350193D01*
X72940000Y-70350193D01*
X72940000Y-70701807D01*
X73008596Y-71046665D01*
X73143153Y-71371515D01*
X73338500Y-71663871D01*
X73587129Y-71912500D01*
X73879485Y-72107847D01*
X74204335Y-72242404D01*
X74549193Y-72311000D01*
X74900807Y-72311000D01*
X75245665Y-72242404D01*
X75570515Y-72107847D01*
X75862871Y-71912500D01*
X76111500Y-71663871D01*
X76306847Y-71371515D01*
X76441404Y-71046665D01*
X76472008Y-70892806D01*
X78365000Y-70892806D01*
X78365000Y-71259194D01*
X78436479Y-71618542D01*
X78576689Y-71957041D01*
X78780243Y-72261681D01*
X79039319Y-72520757D01*
X79343959Y-72724311D01*
X79682458Y-72864521D01*
X80041806Y-72936000D01*
X80408194Y-72936000D01*
X80767542Y-72864521D01*
X81106041Y-72724311D01*
X81410681Y-72520757D01*
X81669757Y-72261681D01*
X81873311Y-71957041D01*
X82013521Y-71618542D01*
X82085000Y-71259194D01*
X82085000Y-70892806D01*
X82013521Y-70533458D01*
X81873311Y-70194959D01*
X81669757Y-69890319D01*
X81410681Y-69631243D01*
X81106041Y-69427689D01*
X80767542Y-69287479D01*
X80408194Y-69216000D01*
X80041806Y-69216000D01*
X79682458Y-69287479D01*
X79343959Y-69427689D01*
X79039319Y-69631243D01*
X78780243Y-69890319D01*
X78576689Y-70194959D01*
X78436479Y-70533458D01*
X78365000Y-70892806D01*
X76472008Y-70892806D01*
X76510000Y-70701807D01*
X76510000Y-70350193D01*
X76441404Y-70005335D01*
X76306847Y-69680485D01*
X76111500Y-69388129D01*
X75862871Y-69139500D01*
X75570515Y-68944153D01*
X75245665Y-68809596D01*
X74900807Y-68741000D01*
X74549193Y-68741000D01*
X74204335Y-68809596D01*
X73879485Y-68944153D01*
X73587129Y-69139500D01*
X73338500Y-69388129D01*
X73143153Y-69680485D01*
X73008596Y-70005335D01*
X72940000Y-70350193D01*
X56616600Y-70350193D01*
X56616600Y-67783111D01*
X56683937Y-67715774D01*
X56797205Y-67546256D01*
X56875226Y-67357898D01*
X56915000Y-67157939D01*
X56915000Y-66954061D01*
X56875226Y-66754102D01*
X56797205Y-66565744D01*
X56683937Y-66396226D01*
X56539774Y-66252063D01*
X56370256Y-66138795D01*
X56181898Y-66060774D01*
X55981939Y-66021000D01*
X55778061Y-66021000D01*
X55578102Y-66060774D01*
X55389744Y-66138795D01*
X55220226Y-66252063D01*
X55076063Y-66396226D01*
X54962795Y-66565744D01*
X54884774Y-66754102D01*
X54845000Y-66954061D01*
X54845000Y-67157939D01*
X54884774Y-67357898D01*
X54962795Y-67546256D01*
X55076063Y-67715774D01*
X55143400Y-67783111D01*
X55143401Y-74789089D01*
X53834091Y-76098400D01*
X52923072Y-76098400D01*
X52923072Y-75985000D01*
X52910812Y-75860518D01*
X52874502Y-75740820D01*
X52815537Y-75630506D01*
X52736185Y-75533815D01*
X52639494Y-75454463D01*
X52529180Y-75395498D01*
X52460313Y-75374607D01*
X52490134Y-75350134D01*
X52675706Y-75124014D01*
X52813599Y-74866034D01*
X52898513Y-74586111D01*
X52927185Y-74295000D01*
X52898513Y-74003889D01*
X52813599Y-73723966D01*
X52675706Y-73465986D01*
X52490134Y-73239866D01*
X52264014Y-73054294D01*
X52209209Y-73025000D01*
X52264014Y-72995706D01*
X52490134Y-72810134D01*
X52675706Y-72584014D01*
X52813599Y-72326034D01*
X52898513Y-72046111D01*
X52927185Y-71755000D01*
X52898513Y-71463889D01*
X52813599Y-71183966D01*
X52675706Y-70925986D01*
X52490134Y-70699866D01*
X52264014Y-70514294D01*
X52209209Y-70485000D01*
X52264014Y-70455706D01*
X52490134Y-70270134D01*
X52675706Y-70044014D01*
X52813599Y-69786034D01*
X52898513Y-69506111D01*
X52927185Y-69215000D01*
X52898513Y-68923889D01*
X52813599Y-68643966D01*
X52675706Y-68385986D01*
X52560366Y-68245444D01*
X53125469Y-67680341D01*
X53153575Y-67657275D01*
X53245624Y-67545113D01*
X53314022Y-67417149D01*
X53356142Y-67278299D01*
X53366800Y-67170086D01*
X53370364Y-67133900D01*
X53366800Y-67097714D01*
X53366800Y-60858061D01*
X71355000Y-60858061D01*
X71355000Y-61061939D01*
X71394774Y-61261898D01*
X71472795Y-61450256D01*
X71586063Y-61619774D01*
X71730226Y-61763937D01*
X71899744Y-61877205D01*
X72088102Y-61955226D01*
X72288061Y-61995000D01*
X72491939Y-61995000D01*
X72691898Y-61955226D01*
X72880256Y-61877205D01*
X73049774Y-61763937D01*
X73193937Y-61619774D01*
X73307205Y-61450256D01*
X73385226Y-61261898D01*
X73425000Y-61061939D01*
X73425000Y-60858061D01*
X73385226Y-60658102D01*
X73307205Y-60469744D01*
X73193937Y-60300226D01*
X73049774Y-60156063D01*
X72880256Y-60042795D01*
X72691898Y-59964774D01*
X72491939Y-59925000D01*
X72288061Y-59925000D01*
X72088102Y-59964774D01*
X71899744Y-60042795D01*
X71730226Y-60156063D01*
X71586063Y-60300226D01*
X71472795Y-60469744D01*
X71394774Y-60658102D01*
X71355000Y-60858061D01*
X53366800Y-60858061D01*
X53366800Y-58642583D01*
X53370364Y-58606399D01*
X53366800Y-58570214D01*
X53356142Y-58462001D01*
X53314022Y-58323151D01*
X53311302Y-58318061D01*
X53575000Y-58318061D01*
X53575000Y-58521939D01*
X53614774Y-58721898D01*
X53692795Y-58910256D01*
X53806063Y-59079774D01*
X53950226Y-59223937D01*
X54119744Y-59337205D01*
X54308102Y-59415226D01*
X54508061Y-59455000D01*
X54711939Y-59455000D01*
X54911898Y-59415226D01*
X55100256Y-59337205D01*
X55269774Y-59223937D01*
X55413937Y-59079774D01*
X55527205Y-58910256D01*
X55605226Y-58721898D01*
X55645000Y-58521939D01*
X55645000Y-58318061D01*
X55605226Y-58118102D01*
X55527205Y-57929744D01*
X55413937Y-57760226D01*
X55269774Y-57616063D01*
X55100256Y-57502795D01*
X54911898Y-57424774D01*
X54711939Y-57385000D01*
X54508061Y-57385000D01*
X54308102Y-57424774D01*
X54119744Y-57502795D01*
X53950226Y-57616063D01*
X53806063Y-57760226D01*
X53692795Y-57929744D01*
X53614774Y-58118102D01*
X53575000Y-58318061D01*
X53311302Y-58318061D01*
X53279823Y-58259169D01*
X53245624Y-58195186D01*
X53176642Y-58111132D01*
X53176637Y-58111127D01*
X53153574Y-58083025D01*
X53125473Y-58059963D01*
X52555723Y-57490214D01*
X52675706Y-57344014D01*
X52725102Y-57251600D01*
X65114817Y-57251600D01*
X65151000Y-57255164D01*
X65187183Y-57251600D01*
X65187186Y-57251600D01*
X65295399Y-57240942D01*
X65434249Y-57198822D01*
X65562213Y-57130424D01*
X65674375Y-57038375D01*
X65697445Y-57010264D01*
X65919709Y-56788000D01*
X66014939Y-56788000D01*
X66214898Y-56748226D01*
X66403256Y-56670205D01*
X66572774Y-56556937D01*
X66662818Y-56466893D01*
X66761949Y-56436822D01*
X66889913Y-56368424D01*
X67002075Y-56276375D01*
X67025145Y-56248264D01*
X67672810Y-55600600D01*
X73685400Y-55600600D01*
X73685401Y-56478805D01*
X73685400Y-56478815D01*
X73685400Y-57057889D01*
X73618063Y-57125226D01*
X73504795Y-57294744D01*
X73426774Y-57483102D01*
X73387000Y-57683061D01*
X73387000Y-57886939D01*
X73426774Y-58086898D01*
X73504795Y-58275256D01*
X73618063Y-58444774D01*
X73685400Y-58512111D01*
X73685401Y-63407888D01*
X73618063Y-63475226D01*
X73504795Y-63644744D01*
X73426774Y-63833102D01*
X73387000Y-64033061D01*
X73387000Y-64128290D01*
X72968520Y-64546771D01*
X72880256Y-64487795D01*
X72691898Y-64409774D01*
X72491939Y-64370000D01*
X72288061Y-64370000D01*
X72088102Y-64409774D01*
X71899744Y-64487795D01*
X71730226Y-64601063D01*
X71586063Y-64745226D01*
X71472795Y-64914744D01*
X71394774Y-65103102D01*
X71355000Y-65303061D01*
X71355000Y-65506939D01*
X71394774Y-65706898D01*
X71472795Y-65895256D01*
X71586063Y-66064774D01*
X71730226Y-66208937D01*
X71899744Y-66322205D01*
X72088102Y-66400226D01*
X72288061Y-66440000D01*
X72491939Y-66440000D01*
X72691898Y-66400226D01*
X72868552Y-66327053D01*
X72936479Y-66668542D01*
X73076689Y-67007041D01*
X73280243Y-67311681D01*
X73539319Y-67570757D01*
X73843959Y-67774311D01*
X74182458Y-67914521D01*
X74541806Y-67986000D01*
X74908194Y-67986000D01*
X75267542Y-67914521D01*
X75606041Y-67774311D01*
X75910681Y-67570757D01*
X76169757Y-67311681D01*
X76373311Y-67007041D01*
X76513521Y-66668542D01*
X76585000Y-66309194D01*
X76585000Y-65942806D01*
X76513521Y-65583458D01*
X76453692Y-65439017D01*
X76499903Y-65392806D01*
X78365000Y-65392806D01*
X78365000Y-65759194D01*
X78436479Y-66118542D01*
X78576689Y-66457041D01*
X78780243Y-66761681D01*
X79039319Y-67020757D01*
X79343959Y-67224311D01*
X79682458Y-67364521D01*
X80041806Y-67436000D01*
X80408194Y-67436000D01*
X80767542Y-67364521D01*
X81106041Y-67224311D01*
X81410681Y-67020757D01*
X81669757Y-66761681D01*
X81873311Y-66457041D01*
X82013521Y-66118542D01*
X82085000Y-65759194D01*
X82085000Y-65392806D01*
X82013521Y-65033458D01*
X81873311Y-64694959D01*
X81669757Y-64390319D01*
X81410681Y-64131243D01*
X81106041Y-63927689D01*
X80767542Y-63787479D01*
X80408194Y-63716000D01*
X80041806Y-63716000D01*
X79682458Y-63787479D01*
X79343959Y-63927689D01*
X79039319Y-64131243D01*
X78780243Y-64390319D01*
X78576689Y-64694959D01*
X78436479Y-65033458D01*
X78365000Y-65392806D01*
X76499903Y-65392806D01*
X77172769Y-64719941D01*
X77200875Y-64696875D01*
X77292924Y-64584713D01*
X77361322Y-64456749D01*
X77403442Y-64317899D01*
X77414100Y-64209686D01*
X77414100Y-64209684D01*
X77417664Y-64173500D01*
X77414100Y-64137317D01*
X77414100Y-52690665D01*
X78448000Y-52690665D01*
X78448000Y-52973335D01*
X78503147Y-53250574D01*
X78611320Y-53511727D01*
X78768363Y-53746759D01*
X78968241Y-53946637D01*
X79203273Y-54103680D01*
X79464426Y-54211853D01*
X79741665Y-54267000D01*
X80024335Y-54267000D01*
X80301574Y-54211853D01*
X80562727Y-54103680D01*
X80797759Y-53946637D01*
X80997637Y-53746759D01*
X81154680Y-53511727D01*
X81262853Y-53250574D01*
X81318000Y-52973335D01*
X81318000Y-52690665D01*
X81262853Y-52413426D01*
X81154680Y-52152273D01*
X80997637Y-51917241D01*
X80797759Y-51717363D01*
X80562727Y-51560320D01*
X80301574Y-51452147D01*
X80024335Y-51397000D01*
X79741665Y-51397000D01*
X79464426Y-51452147D01*
X79203273Y-51560320D01*
X78968241Y-51717363D01*
X78768363Y-51917241D01*
X78611320Y-52152273D01*
X78503147Y-52413426D01*
X78448000Y-52690665D01*
X77414100Y-52690665D01*
X77414100Y-48568600D01*
X78649321Y-48568600D01*
X78768363Y-48746759D01*
X78968241Y-48946637D01*
X79203273Y-49103680D01*
X79464426Y-49211853D01*
X79741665Y-49267000D01*
X80024335Y-49267000D01*
X80301574Y-49211853D01*
X80562727Y-49103680D01*
X80797759Y-48946637D01*
X80997637Y-48746759D01*
X81154680Y-48511727D01*
X81262853Y-48250574D01*
X81318000Y-47973335D01*
X81318000Y-47690665D01*
X81262853Y-47413426D01*
X81154680Y-47152273D01*
X80997637Y-46917241D01*
X80797759Y-46717363D01*
X80562727Y-46560320D01*
X80301574Y-46452147D01*
X80024335Y-46397000D01*
X79741665Y-46397000D01*
X79464426Y-46452147D01*
X79203273Y-46560320D01*
X78968241Y-46717363D01*
X78768363Y-46917241D01*
X78649321Y-47095400D01*
X76798679Y-47095400D01*
X76679637Y-46917241D01*
X76479759Y-46717363D01*
X76244727Y-46560320D01*
X75983574Y-46452147D01*
X75706335Y-46397000D01*
X75423665Y-46397000D01*
X75146426Y-46452147D01*
X74885273Y-46560320D01*
X74650241Y-46717363D01*
X74450363Y-46917241D01*
X74293320Y-47152273D01*
X74185147Y-47413426D01*
X74130000Y-47690665D01*
X74130000Y-47973335D01*
X74185147Y-48250574D01*
X74293320Y-48511727D01*
X74450363Y-48746759D01*
X74650241Y-48946637D01*
X74885273Y-49103680D01*
X75146426Y-49211853D01*
X75423665Y-49267000D01*
X75706335Y-49267000D01*
X75940900Y-49220341D01*
X75940900Y-51443659D01*
X75706335Y-51397000D01*
X75423665Y-51397000D01*
X75146426Y-51452147D01*
X74885273Y-51560320D01*
X74650241Y-51717363D01*
X74450363Y-51917241D01*
X74293320Y-52152273D01*
X74185147Y-52413426D01*
X74130000Y-52690665D01*
X74130000Y-52973335D01*
X74185147Y-53250574D01*
X74293320Y-53511727D01*
X74450363Y-53746759D01*
X74650241Y-53946637D01*
X74885273Y-54103680D01*
X75146426Y-54211853D01*
X75423665Y-54267000D01*
X75706335Y-54267000D01*
X75940900Y-54220341D01*
X75940901Y-63868389D01*
X75428358Y-64380932D01*
X75457000Y-64236939D01*
X75457000Y-64033061D01*
X75417226Y-63833102D01*
X75339205Y-63644744D01*
X75225937Y-63475226D01*
X75158600Y-63407889D01*
X75158600Y-58512111D01*
X75225937Y-58444774D01*
X75339205Y-58275256D01*
X75417226Y-58086898D01*
X75457000Y-57886939D01*
X75457000Y-57683061D01*
X75417226Y-57483102D01*
X75339205Y-57294744D01*
X75225937Y-57125226D01*
X75158600Y-57057889D01*
X75158600Y-55281175D01*
X75162163Y-55244999D01*
X75158600Y-55208823D01*
X75158600Y-55208814D01*
X75147942Y-55100601D01*
X75105822Y-54961751D01*
X75037424Y-54833787D01*
X74945374Y-54721625D01*
X74917263Y-54698555D01*
X74587446Y-54368737D01*
X74564375Y-54340625D01*
X74452213Y-54248576D01*
X74324249Y-54180178D01*
X74185399Y-54138058D01*
X74077186Y-54127400D01*
X74077183Y-54127400D01*
X74041000Y-54123836D01*
X74004817Y-54127400D01*
X67403886Y-54127400D01*
X67367700Y-54123836D01*
X67331514Y-54127400D01*
X67223301Y-54138058D01*
X67084451Y-54180178D01*
X66956487Y-54248576D01*
X66935121Y-54266111D01*
X66844325Y-54340625D01*
X66821259Y-54368731D01*
X66368565Y-54821425D01*
X66214898Y-54757774D01*
X66014939Y-54718000D01*
X65919710Y-54718000D01*
X65709622Y-54507912D01*
X65842508Y-54521000D01*
X65983492Y-54521000D01*
X66194309Y-54500236D01*
X66464808Y-54418182D01*
X66714101Y-54284932D01*
X66932608Y-54105608D01*
X67111932Y-53887101D01*
X67245182Y-53637808D01*
X67327236Y-53367309D01*
X67354943Y-53086000D01*
X67327236Y-52804691D01*
X67245182Y-52534192D01*
X67111932Y-52284899D01*
X67020009Y-52172890D01*
X69805524Y-52172890D01*
X69850175Y-52320099D01*
X69975359Y-52582920D01*
X70149412Y-52816269D01*
X70365645Y-53011178D01*
X70615748Y-53160157D01*
X70890109Y-53257481D01*
X71120000Y-53136814D01*
X71120000Y-51943000D01*
X71374000Y-51943000D01*
X71374000Y-53136814D01*
X71603891Y-53257481D01*
X71878252Y-53160157D01*
X72128355Y-53011178D01*
X72344588Y-52816269D01*
X72518641Y-52582920D01*
X72643825Y-52320099D01*
X72688476Y-52172890D01*
X72567155Y-51943000D01*
X71374000Y-51943000D01*
X71120000Y-51943000D01*
X69926845Y-51943000D01*
X69805524Y-52172890D01*
X67020009Y-52172890D01*
X66932608Y-52066392D01*
X66897791Y-52037818D01*
X69765216Y-49170393D01*
X69754815Y-49276000D01*
X69783487Y-49567111D01*
X69868401Y-49847034D01*
X70006294Y-50105014D01*
X70191866Y-50331134D01*
X70417986Y-50516706D01*
X70482523Y-50551201D01*
X70365645Y-50620822D01*
X70149412Y-50815731D01*
X69975359Y-51049080D01*
X69850175Y-51311901D01*
X69805524Y-51459110D01*
X69926845Y-51689000D01*
X71120000Y-51689000D01*
X71120000Y-51669000D01*
X71374000Y-51669000D01*
X71374000Y-51689000D01*
X72567155Y-51689000D01*
X72688476Y-51459110D01*
X72643825Y-51311901D01*
X72518641Y-51049080D01*
X72344588Y-50815731D01*
X72128355Y-50620822D01*
X72011477Y-50551201D01*
X72076014Y-50516706D01*
X72302134Y-50331134D01*
X72487706Y-50105014D01*
X72625599Y-49847034D01*
X72710513Y-49567111D01*
X72739185Y-49276000D01*
X72710513Y-48984889D01*
X72625599Y-48704966D01*
X72487706Y-48446986D01*
X72302134Y-48220866D01*
X72272313Y-48196393D01*
X72341180Y-48175502D01*
X72451494Y-48116537D01*
X72548185Y-48037185D01*
X72627537Y-47940494D01*
X72686502Y-47830180D01*
X72722812Y-47710482D01*
X72735072Y-47586000D01*
X72735072Y-45886000D01*
X72722812Y-45761518D01*
X72686502Y-45641820D01*
X72627537Y-45531506D01*
X72548185Y-45434815D01*
X72451494Y-45355463D01*
X72341180Y-45296498D01*
X72221482Y-45260188D01*
X72097000Y-45247928D01*
X70397000Y-45247928D01*
X70272518Y-45260188D01*
X70152820Y-45296498D01*
X70042506Y-45355463D01*
X69945815Y-45434815D01*
X69866463Y-45531506D01*
X69807498Y-45641820D01*
X69771188Y-45761518D01*
X69758928Y-45886000D01*
X69758928Y-46078755D01*
X69680687Y-46120576D01*
X69568525Y-46212625D01*
X69476476Y-46324787D01*
X69408078Y-46452751D01*
X69365958Y-46591601D01*
X69351736Y-46736000D01*
X69355301Y-46772196D01*
X69355300Y-47496890D01*
X65417732Y-51434459D01*
X65389626Y-51457525D01*
X65366560Y-51485631D01*
X65366558Y-51485633D01*
X65297576Y-51569688D01*
X65229178Y-51697653D01*
X65187059Y-51836502D01*
X65185979Y-51847472D01*
X65111899Y-51887068D01*
X64893392Y-52066392D01*
X64714068Y-52284899D01*
X64580818Y-52534192D01*
X64498764Y-52804691D01*
X64471057Y-53086000D01*
X64491088Y-53289379D01*
X58018604Y-46816895D01*
X58166000Y-46735915D01*
X58166000Y-45593000D01*
X58420000Y-45593000D01*
X58420000Y-46735915D01*
X58642039Y-46857904D01*
X58776087Y-46817246D01*
X59030420Y-46697037D01*
X59256414Y-46529519D01*
X59445385Y-46321131D01*
X59590070Y-46079881D01*
X59684909Y-45815040D01*
X59563624Y-45593000D01*
X58420000Y-45593000D01*
X58166000Y-45593000D01*
X57022376Y-45593000D01*
X56941949Y-45740240D01*
X56743600Y-45541891D01*
X56743600Y-45116960D01*
X56901091Y-45116960D01*
X57022376Y-45339000D01*
X58166000Y-45339000D01*
X58166000Y-44196085D01*
X58420000Y-44196085D01*
X58420000Y-45339000D01*
X59563624Y-45339000D01*
X59684909Y-45116960D01*
X59590070Y-44852119D01*
X59478449Y-44666000D01*
X64474928Y-44666000D01*
X64474928Y-46266000D01*
X64487188Y-46390482D01*
X64523498Y-46510180D01*
X64582463Y-46620494D01*
X64661815Y-46717185D01*
X64758506Y-46796537D01*
X64868820Y-46855502D01*
X64988518Y-46891812D01*
X65113000Y-46904072D01*
X66713000Y-46904072D01*
X66837482Y-46891812D01*
X66957180Y-46855502D01*
X67067494Y-46796537D01*
X67164185Y-46717185D01*
X67243537Y-46620494D01*
X67302502Y-46510180D01*
X67338812Y-46390482D01*
X67351072Y-46266000D01*
X67351072Y-44666000D01*
X67338812Y-44541518D01*
X67302502Y-44421820D01*
X67243537Y-44311506D01*
X67164185Y-44214815D01*
X67067494Y-44135463D01*
X66957180Y-44076498D01*
X66837482Y-44040188D01*
X66713000Y-44027928D01*
X65113000Y-44027928D01*
X64988518Y-44040188D01*
X64868820Y-44076498D01*
X64758506Y-44135463D01*
X64661815Y-44214815D01*
X64582463Y-44311506D01*
X64523498Y-44421820D01*
X64487188Y-44541518D01*
X64474928Y-44666000D01*
X59478449Y-44666000D01*
X59445385Y-44610869D01*
X59256414Y-44402481D01*
X59030420Y-44234963D01*
X58776087Y-44114754D01*
X58642039Y-44074096D01*
X58420000Y-44196085D01*
X58166000Y-44196085D01*
X57943961Y-44074096D01*
X57809913Y-44114754D01*
X57555580Y-44234963D01*
X57329586Y-44402481D01*
X57140615Y-44610869D01*
X56995930Y-44852119D01*
X56901091Y-45116960D01*
X56743600Y-45116960D01*
X56743600Y-42824061D01*
X71482000Y-42824061D01*
X71482000Y-43027939D01*
X71521774Y-43227898D01*
X71599795Y-43416256D01*
X71713063Y-43585774D01*
X71857226Y-43729937D01*
X72026744Y-43843205D01*
X72215102Y-43921226D01*
X72415061Y-43961000D01*
X72618939Y-43961000D01*
X72818898Y-43921226D01*
X72940000Y-43871064D01*
X72940000Y-44031807D01*
X73008596Y-44376665D01*
X73143153Y-44701515D01*
X73338500Y-44993871D01*
X73587129Y-45242500D01*
X73879485Y-45437847D01*
X74204335Y-45572404D01*
X74549193Y-45641000D01*
X74900807Y-45641000D01*
X75245665Y-45572404D01*
X75570515Y-45437847D01*
X75862871Y-45242500D01*
X76111500Y-44993871D01*
X76306847Y-44701515D01*
X76441404Y-44376665D01*
X76472008Y-44222806D01*
X78365000Y-44222806D01*
X78365000Y-44589194D01*
X78436479Y-44948542D01*
X78576689Y-45287041D01*
X78780243Y-45591681D01*
X79039319Y-45850757D01*
X79343959Y-46054311D01*
X79682458Y-46194521D01*
X80041806Y-46266000D01*
X80408194Y-46266000D01*
X80767542Y-46194521D01*
X81106041Y-46054311D01*
X81410681Y-45850757D01*
X81669757Y-45591681D01*
X81873311Y-45287041D01*
X82013521Y-44948542D01*
X82085000Y-44589194D01*
X82085000Y-44222806D01*
X82013521Y-43863458D01*
X81873311Y-43524959D01*
X81669757Y-43220319D01*
X81410681Y-42961243D01*
X81106041Y-42757689D01*
X80767542Y-42617479D01*
X80408194Y-42546000D01*
X80041806Y-42546000D01*
X79682458Y-42617479D01*
X79343959Y-42757689D01*
X79039319Y-42961243D01*
X78780243Y-43220319D01*
X78576689Y-43524959D01*
X78436479Y-43863458D01*
X78365000Y-44222806D01*
X76472008Y-44222806D01*
X76510000Y-44031807D01*
X76510000Y-43680193D01*
X76441404Y-43335335D01*
X76306847Y-43010485D01*
X76111500Y-42718129D01*
X75862871Y-42469500D01*
X75570515Y-42274153D01*
X75245665Y-42139596D01*
X74900807Y-42071000D01*
X74549193Y-42071000D01*
X74204335Y-42139596D01*
X73879485Y-42274153D01*
X73587129Y-42469500D01*
X73488883Y-42567746D01*
X73434205Y-42435744D01*
X73320937Y-42266226D01*
X73176774Y-42122063D01*
X73007256Y-42008795D01*
X72818898Y-41930774D01*
X72618939Y-41891000D01*
X72415061Y-41891000D01*
X72215102Y-41930774D01*
X72026744Y-42008795D01*
X71857226Y-42122063D01*
X71713063Y-42266226D01*
X71599795Y-42435744D01*
X71521774Y-42624102D01*
X71482000Y-42824061D01*
X56743600Y-42824061D01*
X56743600Y-35876940D01*
X56848102Y-35920226D01*
X57048061Y-35960000D01*
X57251939Y-35960000D01*
X57451898Y-35920226D01*
X57640256Y-35842205D01*
X57809774Y-35728937D01*
X57953937Y-35584774D01*
X58067205Y-35415256D01*
X58145226Y-35226898D01*
X58185000Y-35026939D01*
X58185000Y-34823061D01*
X58145226Y-34623102D01*
X58067205Y-34434744D01*
X57953937Y-34265226D01*
X57809774Y-34121063D01*
X57640256Y-34007795D01*
X57451898Y-33929774D01*
X57251939Y-33890000D01*
X57048061Y-33890000D01*
X56848102Y-33929774D01*
X56743600Y-33973060D01*
X56743600Y-33579109D01*
X58471110Y-31851600D01*
X59851889Y-31851600D01*
X59919226Y-31918937D01*
X60088744Y-32032205D01*
X60277102Y-32110226D01*
X60477061Y-32150000D01*
X60680939Y-32150000D01*
X60880898Y-32110226D01*
X61069256Y-32032205D01*
X61238774Y-31918937D01*
X61380151Y-31777560D01*
X63369974Y-33767383D01*
X63347939Y-33763000D01*
X63144061Y-33763000D01*
X62944102Y-33802774D01*
X62755744Y-33880795D01*
X62586226Y-33994063D01*
X62442063Y-34138226D01*
X62328795Y-34307744D01*
X62250774Y-34496102D01*
X62211000Y-34696061D01*
X62211000Y-34899939D01*
X62250774Y-35099898D01*
X62328795Y-35288256D01*
X62442063Y-35457774D01*
X62586226Y-35601937D01*
X62755744Y-35715205D01*
X62944102Y-35793226D01*
X63144061Y-35833000D01*
X63347939Y-35833000D01*
X63547898Y-35793226D01*
X63736256Y-35715205D01*
X63905774Y-35601937D01*
X63973111Y-35534600D01*
X65176400Y-35534600D01*
X65176401Y-38392007D01*
X65172836Y-38428200D01*
X65178037Y-38480999D01*
X65187059Y-38572599D01*
X65229179Y-38711449D01*
X65297577Y-38839413D01*
X65389626Y-38951575D01*
X65417732Y-38974641D01*
X67919354Y-41476263D01*
X67942425Y-41504375D01*
X68030928Y-41577008D01*
X68030928Y-41781000D01*
X68043188Y-41905482D01*
X68079498Y-42025180D01*
X68138463Y-42135494D01*
X68217815Y-42232185D01*
X68314506Y-42311537D01*
X68424820Y-42370502D01*
X68544518Y-42406812D01*
X68669000Y-42419072D01*
X70269000Y-42419072D01*
X70393482Y-42406812D01*
X70513180Y-42370502D01*
X70623494Y-42311537D01*
X70720185Y-42232185D01*
X70799537Y-42135494D01*
X70858502Y-42025180D01*
X70894812Y-41905482D01*
X70907072Y-41781000D01*
X70907072Y-40181000D01*
X70894812Y-40056518D01*
X70858502Y-39936820D01*
X70799537Y-39826506D01*
X70720185Y-39729815D01*
X70623494Y-39650463D01*
X70513180Y-39591498D01*
X70417057Y-39562339D01*
X70583637Y-39395759D01*
X70665791Y-39272806D01*
X72865000Y-39272806D01*
X72865000Y-39639194D01*
X72936479Y-39998542D01*
X73076689Y-40337041D01*
X73280243Y-40641681D01*
X73539319Y-40900757D01*
X73843959Y-41104311D01*
X74182458Y-41244521D01*
X74541806Y-41316000D01*
X74908194Y-41316000D01*
X75267542Y-41244521D01*
X75606041Y-41104311D01*
X75910681Y-40900757D01*
X76169757Y-40641681D01*
X76373311Y-40337041D01*
X76513521Y-39998542D01*
X76585000Y-39639194D01*
X76585000Y-39272806D01*
X76513521Y-38913458D01*
X76434551Y-38722806D01*
X78365000Y-38722806D01*
X78365000Y-39089194D01*
X78436479Y-39448542D01*
X78576689Y-39787041D01*
X78780243Y-40091681D01*
X79039319Y-40350757D01*
X79343959Y-40554311D01*
X79682458Y-40694521D01*
X80041806Y-40766000D01*
X80408194Y-40766000D01*
X80767542Y-40694521D01*
X81106041Y-40554311D01*
X81410681Y-40350757D01*
X81669757Y-40091681D01*
X81873311Y-39787041D01*
X82013521Y-39448542D01*
X82085000Y-39089194D01*
X82085000Y-38722806D01*
X82013521Y-38363458D01*
X81873311Y-38024959D01*
X81669757Y-37720319D01*
X81410681Y-37461243D01*
X81106041Y-37257689D01*
X80767542Y-37117479D01*
X80408194Y-37046000D01*
X80041806Y-37046000D01*
X79682458Y-37117479D01*
X79343959Y-37257689D01*
X79039319Y-37461243D01*
X78780243Y-37720319D01*
X78576689Y-38024959D01*
X78436479Y-38363458D01*
X78365000Y-38722806D01*
X76434551Y-38722806D01*
X76373311Y-38574959D01*
X76169757Y-38270319D01*
X75910681Y-38011243D01*
X75606041Y-37807689D01*
X75267542Y-37667479D01*
X74908194Y-37596000D01*
X74541806Y-37596000D01*
X74182458Y-37667479D01*
X73843959Y-37807689D01*
X73539319Y-38011243D01*
X73280243Y-38270319D01*
X73076689Y-38574959D01*
X72936479Y-38913458D01*
X72865000Y-39272806D01*
X70665791Y-39272806D01*
X70740680Y-39160727D01*
X70848853Y-38899574D01*
X70904000Y-38622335D01*
X70904000Y-38339665D01*
X70848853Y-38062426D01*
X70740680Y-37801273D01*
X70583637Y-37566241D01*
X70383759Y-37366363D01*
X70148727Y-37209320D01*
X69887574Y-37101147D01*
X69610335Y-37046000D01*
X69327665Y-37046000D01*
X69117512Y-37087803D01*
X68193885Y-36164176D01*
X68218000Y-36042939D01*
X68218000Y-35839061D01*
X68178226Y-35639102D01*
X68100205Y-35450744D01*
X67986937Y-35281226D01*
X67842774Y-35137063D01*
X67673256Y-35023795D01*
X67484898Y-34945774D01*
X67284939Y-34906000D01*
X67081061Y-34906000D01*
X66881102Y-34945774D01*
X66692744Y-35023795D01*
X66649600Y-35052623D01*
X66649600Y-34834186D01*
X66653164Y-34798000D01*
X66638942Y-34653601D01*
X66596822Y-34514751D01*
X66528424Y-34386787D01*
X66436375Y-34274625D01*
X66324213Y-34182576D01*
X66196249Y-34114178D01*
X66057399Y-34072058D01*
X65949186Y-34061400D01*
X65913000Y-34057836D01*
X65876814Y-34061400D01*
X65747409Y-34061400D01*
X61563646Y-29877637D01*
X61540575Y-29849525D01*
X61428413Y-29757476D01*
X61300449Y-29689078D01*
X61161599Y-29646958D01*
X61053386Y-29636300D01*
X61053383Y-29636300D01*
X61017200Y-29632736D01*
X60981017Y-29636300D01*
X58343986Y-29636300D01*
X58307800Y-29632736D01*
X58271614Y-29636300D01*
X58163401Y-29646958D01*
X58024551Y-29689078D01*
X57936016Y-29736401D01*
X57896587Y-29757476D01*
X57825634Y-29815706D01*
X57784425Y-29849525D01*
X57761359Y-29877631D01*
X55609729Y-32029262D01*
X55645000Y-31851939D01*
X55645000Y-31648061D01*
X55605226Y-31448102D01*
X55527205Y-31259744D01*
X55413937Y-31090226D01*
X55269774Y-30946063D01*
X55100256Y-30832795D01*
X54911898Y-30754774D01*
X54711939Y-30715000D01*
X54508061Y-30715000D01*
X54308102Y-30754774D01*
X54119744Y-30832795D01*
X53950226Y-30946063D01*
X53806063Y-31090226D01*
X53692795Y-31259744D01*
X53614774Y-31448102D01*
X53575000Y-31648061D01*
X53575000Y-31743290D01*
X52593037Y-32725254D01*
X52490134Y-32599866D01*
X52264014Y-32414294D01*
X52209209Y-32385000D01*
X52264014Y-32355706D01*
X52490134Y-32170134D01*
X52675706Y-31944014D01*
X52813599Y-31686034D01*
X52898513Y-31406111D01*
X52927185Y-31115000D01*
X52898513Y-30823889D01*
X52813599Y-30543966D01*
X52675706Y-30285986D01*
X52490134Y-30059866D01*
X52264014Y-29874294D01*
X52199477Y-29839799D01*
X52316355Y-29770178D01*
X52532588Y-29575269D01*
X52706641Y-29341920D01*
X52831825Y-29079099D01*
X52876476Y-28931890D01*
X52755155Y-28702000D01*
X51562000Y-28702000D01*
X51562000Y-28722000D01*
X51308000Y-28722000D01*
X51308000Y-28702000D01*
X51288000Y-28702000D01*
X51288000Y-28448000D01*
X51308000Y-28448000D01*
X51308000Y-27254186D01*
X51562000Y-27254186D01*
X51562000Y-28448000D01*
X52755155Y-28448000D01*
X52876476Y-28218110D01*
X52831825Y-28070901D01*
X52706641Y-27808080D01*
X52532588Y-27574731D01*
X52316355Y-27379822D01*
X52066252Y-27230843D01*
X51791891Y-27133519D01*
X51562000Y-27254186D01*
X51308000Y-27254186D01*
X51078109Y-27133519D01*
X50803748Y-27230843D01*
X50553645Y-27379822D01*
X50337412Y-27574731D01*
X50166584Y-27803756D01*
X50135706Y-27745986D01*
X49950134Y-27519866D01*
X49724014Y-27334294D01*
X49466034Y-27196401D01*
X49186111Y-27111487D01*
X48967950Y-27090000D01*
X48822050Y-27090000D01*
X48603889Y-27111487D01*
X48323966Y-27196401D01*
X48065986Y-27334294D01*
X47839866Y-27519866D01*
X47654294Y-27745986D01*
X47516401Y-28003966D01*
X47431487Y-28283889D01*
X47402815Y-28575000D01*
X47431487Y-28866111D01*
X47516401Y-29146034D01*
X47654294Y-29404014D01*
X47839866Y-29630134D01*
X48065986Y-29815706D01*
X48120791Y-29845000D01*
X48065986Y-29874294D01*
X47839866Y-30059866D01*
X47654294Y-30285986D01*
X47516401Y-30543966D01*
X47431487Y-30823889D01*
X47402815Y-31115000D01*
X47431487Y-31406111D01*
X47516401Y-31686034D01*
X47654294Y-31944014D01*
X47839866Y-32170134D01*
X48065986Y-32355706D01*
X48120791Y-32385000D01*
X48065986Y-32414294D01*
X47839866Y-32599866D01*
X47654294Y-32825986D01*
X47516401Y-33083966D01*
X47431487Y-33363889D01*
X47402815Y-33655000D01*
X47431487Y-33946111D01*
X47516401Y-34226034D01*
X47654294Y-34484014D01*
X47839866Y-34710134D01*
X48065986Y-34895706D01*
X48130523Y-34930201D01*
X48013645Y-34999822D01*
X47797412Y-35194731D01*
X47623359Y-35428080D01*
X47498175Y-35690901D01*
X47453524Y-35838110D01*
X47574845Y-36068000D01*
X48768000Y-36068000D01*
X48768000Y-36048000D01*
X49022000Y-36048000D01*
X49022000Y-36068000D01*
X49042000Y-36068000D01*
X49042000Y-36322000D01*
X49022000Y-36322000D01*
X49022000Y-36342000D01*
X48768000Y-36342000D01*
X48768000Y-36322000D01*
X47574845Y-36322000D01*
X47453524Y-36551890D01*
X47498175Y-36699099D01*
X47623359Y-36961920D01*
X47797412Y-37195269D01*
X48013645Y-37390178D01*
X48130523Y-37459799D01*
X48065986Y-37494294D01*
X47839866Y-37679866D01*
X47654294Y-37905986D01*
X47516401Y-38163966D01*
X47431487Y-38443889D01*
X47402815Y-38735000D01*
X47431487Y-39026111D01*
X47516401Y-39306034D01*
X47654294Y-39564014D01*
X47767921Y-39702469D01*
X46775532Y-40694859D01*
X46747425Y-40717926D01*
X46724359Y-40746032D01*
X46724358Y-40746033D01*
X46655377Y-40830087D01*
X46655376Y-40830088D01*
X46586978Y-40958052D01*
X46544858Y-41096902D01*
X46534200Y-41205114D01*
X46530636Y-41241300D01*
X46482000Y-41241300D01*
X46482000Y-26162000D01*
X85598000Y-26162000D01*
X85598000Y-79248000D01*
X85598000Y-79248000D01*
G37*
X85598000Y-79248000D02*
X46482000Y-79248000D01*
X46482000Y-41241300D01*
X46530636Y-41241300D01*
X46534200Y-41277483D01*
X46534201Y-71748807D01*
X46530636Y-71785000D01*
X46544859Y-71929398D01*
X46586978Y-72068247D01*
X46610306Y-72111890D01*
X46655377Y-72196213D01*
X46747426Y-72308375D01*
X46775532Y-72331441D01*
X47769589Y-73325499D01*
X47654294Y-73465986D01*
X47516401Y-73723966D01*
X47431487Y-74003889D01*
X47402815Y-74295000D01*
X47431487Y-74586111D01*
X47516401Y-74866034D01*
X47654294Y-75124014D01*
X47839866Y-75350134D01*
X48065986Y-75535706D01*
X48120791Y-75565000D01*
X48065986Y-75594294D01*
X47839866Y-75779866D01*
X47654294Y-76005986D01*
X47516401Y-76263966D01*
X47431487Y-76543889D01*
X47402815Y-76835000D01*
X47431487Y-77126111D01*
X47516401Y-77406034D01*
X47654294Y-77664014D01*
X47839866Y-77890134D01*
X48065986Y-78075706D01*
X48323966Y-78213599D01*
X48603889Y-78298513D01*
X48822050Y-78320000D01*
X48967950Y-78320000D01*
X49186111Y-78298513D01*
X49466034Y-78213599D01*
X49724014Y-78075706D01*
X49950134Y-77890134D01*
X49974607Y-77860313D01*
X49995498Y-77929180D01*
X50054463Y-78039494D01*
X50133815Y-78136185D01*
X50230506Y-78215537D01*
X50340820Y-78274502D01*
X50460518Y-78310812D01*
X50585000Y-78323072D01*
X52285000Y-78323072D01*
X52409482Y-78310812D01*
X52529180Y-78274502D01*
X52639494Y-78215537D01*
X52736185Y-78136185D01*
X52815537Y-78039494D01*
X52874502Y-77929180D01*
X52910812Y-77809482D01*
X52923072Y-77685000D01*
X52923072Y-77571600D01*
X54103017Y-77571600D01*
X54139200Y-77575164D01*
X54175383Y-77571600D01*
X54175386Y-77571600D01*
X54283599Y-77560942D01*
X54422449Y-77518822D01*
X54550413Y-77450424D01*
X54662575Y-77358375D01*
X54685645Y-77330264D01*
X56375269Y-75640641D01*
X56403375Y-75617575D01*
X56495424Y-75505413D01*
X56563822Y-75377449D01*
X56605942Y-75238599D01*
X56616600Y-75130386D01*
X56620164Y-75094200D01*
X56616600Y-75058014D01*
X56616600Y-70350193D01*
X72940000Y-70350193D01*
X72940000Y-70701807D01*
X73008596Y-71046665D01*
X73143153Y-71371515D01*
X73338500Y-71663871D01*
X73587129Y-71912500D01*
X73879485Y-72107847D01*
X74204335Y-72242404D01*
X74549193Y-72311000D01*
X74900807Y-72311000D01*
X75245665Y-72242404D01*
X75570515Y-72107847D01*
X75862871Y-71912500D01*
X76111500Y-71663871D01*
X76306847Y-71371515D01*
X76441404Y-71046665D01*
X76472008Y-70892806D01*
X78365000Y-70892806D01*
X78365000Y-71259194D01*
X78436479Y-71618542D01*
X78576689Y-71957041D01*
X78780243Y-72261681D01*
X79039319Y-72520757D01*
X79343959Y-72724311D01*
X79682458Y-72864521D01*
X80041806Y-72936000D01*
X80408194Y-72936000D01*
X80767542Y-72864521D01*
X81106041Y-72724311D01*
X81410681Y-72520757D01*
X81669757Y-72261681D01*
X81873311Y-71957041D01*
X82013521Y-71618542D01*
X82085000Y-71259194D01*
X82085000Y-70892806D01*
X82013521Y-70533458D01*
X81873311Y-70194959D01*
X81669757Y-69890319D01*
X81410681Y-69631243D01*
X81106041Y-69427689D01*
X80767542Y-69287479D01*
X80408194Y-69216000D01*
X80041806Y-69216000D01*
X79682458Y-69287479D01*
X79343959Y-69427689D01*
X79039319Y-69631243D01*
X78780243Y-69890319D01*
X78576689Y-70194959D01*
X78436479Y-70533458D01*
X78365000Y-70892806D01*
X76472008Y-70892806D01*
X76510000Y-70701807D01*
X76510000Y-70350193D01*
X76441404Y-70005335D01*
X76306847Y-69680485D01*
X76111500Y-69388129D01*
X75862871Y-69139500D01*
X75570515Y-68944153D01*
X75245665Y-68809596D01*
X74900807Y-68741000D01*
X74549193Y-68741000D01*
X74204335Y-68809596D01*
X73879485Y-68944153D01*
X73587129Y-69139500D01*
X73338500Y-69388129D01*
X73143153Y-69680485D01*
X73008596Y-70005335D01*
X72940000Y-70350193D01*
X56616600Y-70350193D01*
X56616600Y-67783111D01*
X56683937Y-67715774D01*
X56797205Y-67546256D01*
X56875226Y-67357898D01*
X56915000Y-67157939D01*
X56915000Y-66954061D01*
X56875226Y-66754102D01*
X56797205Y-66565744D01*
X56683937Y-66396226D01*
X56539774Y-66252063D01*
X56370256Y-66138795D01*
X56181898Y-66060774D01*
X55981939Y-66021000D01*
X55778061Y-66021000D01*
X55578102Y-66060774D01*
X55389744Y-66138795D01*
X55220226Y-66252063D01*
X55076063Y-66396226D01*
X54962795Y-66565744D01*
X54884774Y-66754102D01*
X54845000Y-66954061D01*
X54845000Y-67157939D01*
X54884774Y-67357898D01*
X54962795Y-67546256D01*
X55076063Y-67715774D01*
X55143400Y-67783111D01*
X55143401Y-74789089D01*
X53834091Y-76098400D01*
X52923072Y-76098400D01*
X52923072Y-75985000D01*
X52910812Y-75860518D01*
X52874502Y-75740820D01*
X52815537Y-75630506D01*
X52736185Y-75533815D01*
X52639494Y-75454463D01*
X52529180Y-75395498D01*
X52460313Y-75374607D01*
X52490134Y-75350134D01*
X52675706Y-75124014D01*
X52813599Y-74866034D01*
X52898513Y-74586111D01*
X52927185Y-74295000D01*
X52898513Y-74003889D01*
X52813599Y-73723966D01*
X52675706Y-73465986D01*
X52490134Y-73239866D01*
X52264014Y-73054294D01*
X52209209Y-73025000D01*
X52264014Y-72995706D01*
X52490134Y-72810134D01*
X52675706Y-72584014D01*
X52813599Y-72326034D01*
X52898513Y-72046111D01*
X52927185Y-71755000D01*
X52898513Y-71463889D01*
X52813599Y-71183966D01*
X52675706Y-70925986D01*
X52490134Y-70699866D01*
X52264014Y-70514294D01*
X52209209Y-70485000D01*
X52264014Y-70455706D01*
X52490134Y-70270134D01*
X52675706Y-70044014D01*
X52813599Y-69786034D01*
X52898513Y-69506111D01*
X52927185Y-69215000D01*
X52898513Y-68923889D01*
X52813599Y-68643966D01*
X52675706Y-68385986D01*
X52560366Y-68245444D01*
X53125469Y-67680341D01*
X53153575Y-67657275D01*
X53245624Y-67545113D01*
X53314022Y-67417149D01*
X53356142Y-67278299D01*
X53366800Y-67170086D01*
X53370364Y-67133900D01*
X53366800Y-67097714D01*
X53366800Y-60858061D01*
X71355000Y-60858061D01*
X71355000Y-61061939D01*
X71394774Y-61261898D01*
X71472795Y-61450256D01*
X71586063Y-61619774D01*
X71730226Y-61763937D01*
X71899744Y-61877205D01*
X72088102Y-61955226D01*
X72288061Y-61995000D01*
X72491939Y-61995000D01*
X72691898Y-61955226D01*
X72880256Y-61877205D01*
X73049774Y-61763937D01*
X73193937Y-61619774D01*
X73307205Y-61450256D01*
X73385226Y-61261898D01*
X73425000Y-61061939D01*
X73425000Y-60858061D01*
X73385226Y-60658102D01*
X73307205Y-60469744D01*
X73193937Y-60300226D01*
X73049774Y-60156063D01*
X72880256Y-60042795D01*
X72691898Y-59964774D01*
X72491939Y-59925000D01*
X72288061Y-59925000D01*
X72088102Y-59964774D01*
X71899744Y-60042795D01*
X71730226Y-60156063D01*
X71586063Y-60300226D01*
X71472795Y-60469744D01*
X71394774Y-60658102D01*
X71355000Y-60858061D01*
X53366800Y-60858061D01*
X53366800Y-58642583D01*
X53370364Y-58606399D01*
X53366800Y-58570214D01*
X53356142Y-58462001D01*
X53314022Y-58323151D01*
X53311302Y-58318061D01*
X53575000Y-58318061D01*
X53575000Y-58521939D01*
X53614774Y-58721898D01*
X53692795Y-58910256D01*
X53806063Y-59079774D01*
X53950226Y-59223937D01*
X54119744Y-59337205D01*
X54308102Y-59415226D01*
X54508061Y-59455000D01*
X54711939Y-59455000D01*
X54911898Y-59415226D01*
X55100256Y-59337205D01*
X55269774Y-59223937D01*
X55413937Y-59079774D01*
X55527205Y-58910256D01*
X55605226Y-58721898D01*
X55645000Y-58521939D01*
X55645000Y-58318061D01*
X55605226Y-58118102D01*
X55527205Y-57929744D01*
X55413937Y-57760226D01*
X55269774Y-57616063D01*
X55100256Y-57502795D01*
X54911898Y-57424774D01*
X54711939Y-57385000D01*
X54508061Y-57385000D01*
X54308102Y-57424774D01*
X54119744Y-57502795D01*
X53950226Y-57616063D01*
X53806063Y-57760226D01*
X53692795Y-57929744D01*
X53614774Y-58118102D01*
X53575000Y-58318061D01*
X53311302Y-58318061D01*
X53279823Y-58259169D01*
X53245624Y-58195186D01*
X53176642Y-58111132D01*
X53176637Y-58111127D01*
X53153574Y-58083025D01*
X53125473Y-58059963D01*
X52555723Y-57490214D01*
X52675706Y-57344014D01*
X52725102Y-57251600D01*
X65114817Y-57251600D01*
X65151000Y-57255164D01*
X65187183Y-57251600D01*
X65187186Y-57251600D01*
X65295399Y-57240942D01*
X65434249Y-57198822D01*
X65562213Y-57130424D01*
X65674375Y-57038375D01*
X65697445Y-57010264D01*
X65919709Y-56788000D01*
X66014939Y-56788000D01*
X66214898Y-56748226D01*
X66403256Y-56670205D01*
X66572774Y-56556937D01*
X66662818Y-56466893D01*
X66761949Y-56436822D01*
X66889913Y-56368424D01*
X67002075Y-56276375D01*
X67025145Y-56248264D01*
X67672810Y-55600600D01*
X73685400Y-55600600D01*
X73685401Y-56478805D01*
X73685400Y-56478815D01*
X73685400Y-57057889D01*
X73618063Y-57125226D01*
X73504795Y-57294744D01*
X73426774Y-57483102D01*
X73387000Y-57683061D01*
X73387000Y-57886939D01*
X73426774Y-58086898D01*
X73504795Y-58275256D01*
X73618063Y-58444774D01*
X73685400Y-58512111D01*
X73685401Y-63407888D01*
X73618063Y-63475226D01*
X73504795Y-63644744D01*
X73426774Y-63833102D01*
X73387000Y-64033061D01*
X73387000Y-64128290D01*
X72968520Y-64546771D01*
X72880256Y-64487795D01*
X72691898Y-64409774D01*
X72491939Y-64370000D01*
X72288061Y-64370000D01*
X72088102Y-64409774D01*
X71899744Y-64487795D01*
X71730226Y-64601063D01*
X71586063Y-64745226D01*
X71472795Y-64914744D01*
X71394774Y-65103102D01*
X71355000Y-65303061D01*
X71355000Y-65506939D01*
X71394774Y-65706898D01*
X71472795Y-65895256D01*
X71586063Y-66064774D01*
X71730226Y-66208937D01*
X71899744Y-66322205D01*
X72088102Y-66400226D01*
X72288061Y-66440000D01*
X72491939Y-66440000D01*
X72691898Y-66400226D01*
X72868552Y-66327053D01*
X72936479Y-66668542D01*
X73076689Y-67007041D01*
X73280243Y-67311681D01*
X73539319Y-67570757D01*
X73843959Y-67774311D01*
X74182458Y-67914521D01*
X74541806Y-67986000D01*
X74908194Y-67986000D01*
X75267542Y-67914521D01*
X75606041Y-67774311D01*
X75910681Y-67570757D01*
X76169757Y-67311681D01*
X76373311Y-67007041D01*
X76513521Y-66668542D01*
X76585000Y-66309194D01*
X76585000Y-65942806D01*
X76513521Y-65583458D01*
X76453692Y-65439017D01*
X76499903Y-65392806D01*
X78365000Y-65392806D01*
X78365000Y-65759194D01*
X78436479Y-66118542D01*
X78576689Y-66457041D01*
X78780243Y-66761681D01*
X79039319Y-67020757D01*
X79343959Y-67224311D01*
X79682458Y-67364521D01*
X80041806Y-67436000D01*
X80408194Y-67436000D01*
X80767542Y-67364521D01*
X81106041Y-67224311D01*
X81410681Y-67020757D01*
X81669757Y-66761681D01*
X81873311Y-66457041D01*
X82013521Y-66118542D01*
X82085000Y-65759194D01*
X82085000Y-65392806D01*
X82013521Y-65033458D01*
X81873311Y-64694959D01*
X81669757Y-64390319D01*
X81410681Y-64131243D01*
X81106041Y-63927689D01*
X80767542Y-63787479D01*
X80408194Y-63716000D01*
X80041806Y-63716000D01*
X79682458Y-63787479D01*
X79343959Y-63927689D01*
X79039319Y-64131243D01*
X78780243Y-64390319D01*
X78576689Y-64694959D01*
X78436479Y-65033458D01*
X78365000Y-65392806D01*
X76499903Y-65392806D01*
X77172769Y-64719941D01*
X77200875Y-64696875D01*
X77292924Y-64584713D01*
X77361322Y-64456749D01*
X77403442Y-64317899D01*
X77414100Y-64209686D01*
X77414100Y-64209684D01*
X77417664Y-64173500D01*
X77414100Y-64137317D01*
X77414100Y-52690665D01*
X78448000Y-52690665D01*
X78448000Y-52973335D01*
X78503147Y-53250574D01*
X78611320Y-53511727D01*
X78768363Y-53746759D01*
X78968241Y-53946637D01*
X79203273Y-54103680D01*
X79464426Y-54211853D01*
X79741665Y-54267000D01*
X80024335Y-54267000D01*
X80301574Y-54211853D01*
X80562727Y-54103680D01*
X80797759Y-53946637D01*
X80997637Y-53746759D01*
X81154680Y-53511727D01*
X81262853Y-53250574D01*
X81318000Y-52973335D01*
X81318000Y-52690665D01*
X81262853Y-52413426D01*
X81154680Y-52152273D01*
X80997637Y-51917241D01*
X80797759Y-51717363D01*
X80562727Y-51560320D01*
X80301574Y-51452147D01*
X80024335Y-51397000D01*
X79741665Y-51397000D01*
X79464426Y-51452147D01*
X79203273Y-51560320D01*
X78968241Y-51717363D01*
X78768363Y-51917241D01*
X78611320Y-52152273D01*
X78503147Y-52413426D01*
X78448000Y-52690665D01*
X77414100Y-52690665D01*
X77414100Y-48568600D01*
X78649321Y-48568600D01*
X78768363Y-48746759D01*
X78968241Y-48946637D01*
X79203273Y-49103680D01*
X79464426Y-49211853D01*
X79741665Y-49267000D01*
X80024335Y-49267000D01*
X80301574Y-49211853D01*
X80562727Y-49103680D01*
X80797759Y-48946637D01*
X80997637Y-48746759D01*
X81154680Y-48511727D01*
X81262853Y-48250574D01*
X81318000Y-47973335D01*
X81318000Y-47690665D01*
X81262853Y-47413426D01*
X81154680Y-47152273D01*
X80997637Y-46917241D01*
X80797759Y-46717363D01*
X80562727Y-46560320D01*
X80301574Y-46452147D01*
X80024335Y-46397000D01*
X79741665Y-46397000D01*
X79464426Y-46452147D01*
X79203273Y-46560320D01*
X78968241Y-46717363D01*
X78768363Y-46917241D01*
X78649321Y-47095400D01*
X76798679Y-47095400D01*
X76679637Y-46917241D01*
X76479759Y-46717363D01*
X76244727Y-46560320D01*
X75983574Y-46452147D01*
X75706335Y-46397000D01*
X75423665Y-46397000D01*
X75146426Y-46452147D01*
X74885273Y-46560320D01*
X74650241Y-46717363D01*
X74450363Y-46917241D01*
X74293320Y-47152273D01*
X74185147Y-47413426D01*
X74130000Y-47690665D01*
X74130000Y-47973335D01*
X74185147Y-48250574D01*
X74293320Y-48511727D01*
X74450363Y-48746759D01*
X74650241Y-48946637D01*
X74885273Y-49103680D01*
X75146426Y-49211853D01*
X75423665Y-49267000D01*
X75706335Y-49267000D01*
X75940900Y-49220341D01*
X75940900Y-51443659D01*
X75706335Y-51397000D01*
X75423665Y-51397000D01*
X75146426Y-51452147D01*
X74885273Y-51560320D01*
X74650241Y-51717363D01*
X74450363Y-51917241D01*
X74293320Y-52152273D01*
X74185147Y-52413426D01*
X74130000Y-52690665D01*
X74130000Y-52973335D01*
X74185147Y-53250574D01*
X74293320Y-53511727D01*
X74450363Y-53746759D01*
X74650241Y-53946637D01*
X74885273Y-54103680D01*
X75146426Y-54211853D01*
X75423665Y-54267000D01*
X75706335Y-54267000D01*
X75940900Y-54220341D01*
X75940901Y-63868389D01*
X75428358Y-64380932D01*
X75457000Y-64236939D01*
X75457000Y-64033061D01*
X75417226Y-63833102D01*
X75339205Y-63644744D01*
X75225937Y-63475226D01*
X75158600Y-63407889D01*
X75158600Y-58512111D01*
X75225937Y-58444774D01*
X75339205Y-58275256D01*
X75417226Y-58086898D01*
X75457000Y-57886939D01*
X75457000Y-57683061D01*
X75417226Y-57483102D01*
X75339205Y-57294744D01*
X75225937Y-57125226D01*
X75158600Y-57057889D01*
X75158600Y-55281175D01*
X75162163Y-55244999D01*
X75158600Y-55208823D01*
X75158600Y-55208814D01*
X75147942Y-55100601D01*
X75105822Y-54961751D01*
X75037424Y-54833787D01*
X74945374Y-54721625D01*
X74917263Y-54698555D01*
X74587446Y-54368737D01*
X74564375Y-54340625D01*
X74452213Y-54248576D01*
X74324249Y-54180178D01*
X74185399Y-54138058D01*
X74077186Y-54127400D01*
X74077183Y-54127400D01*
X74041000Y-54123836D01*
X74004817Y-54127400D01*
X67403886Y-54127400D01*
X67367700Y-54123836D01*
X67331514Y-54127400D01*
X67223301Y-54138058D01*
X67084451Y-54180178D01*
X66956487Y-54248576D01*
X66935121Y-54266111D01*
X66844325Y-54340625D01*
X66821259Y-54368731D01*
X66368565Y-54821425D01*
X66214898Y-54757774D01*
X66014939Y-54718000D01*
X65919710Y-54718000D01*
X65709622Y-54507912D01*
X65842508Y-54521000D01*
X65983492Y-54521000D01*
X66194309Y-54500236D01*
X66464808Y-54418182D01*
X66714101Y-54284932D01*
X66932608Y-54105608D01*
X67111932Y-53887101D01*
X67245182Y-53637808D01*
X67327236Y-53367309D01*
X67354943Y-53086000D01*
X67327236Y-52804691D01*
X67245182Y-52534192D01*
X67111932Y-52284899D01*
X67020009Y-52172890D01*
X69805524Y-52172890D01*
X69850175Y-52320099D01*
X69975359Y-52582920D01*
X70149412Y-52816269D01*
X70365645Y-53011178D01*
X70615748Y-53160157D01*
X70890109Y-53257481D01*
X71120000Y-53136814D01*
X71120000Y-51943000D01*
X71374000Y-51943000D01*
X71374000Y-53136814D01*
X71603891Y-53257481D01*
X71878252Y-53160157D01*
X72128355Y-53011178D01*
X72344588Y-52816269D01*
X72518641Y-52582920D01*
X72643825Y-52320099D01*
X72688476Y-52172890D01*
X72567155Y-51943000D01*
X71374000Y-51943000D01*
X71120000Y-51943000D01*
X69926845Y-51943000D01*
X69805524Y-52172890D01*
X67020009Y-52172890D01*
X66932608Y-52066392D01*
X66897791Y-52037818D01*
X69765216Y-49170393D01*
X69754815Y-49276000D01*
X69783487Y-49567111D01*
X69868401Y-49847034D01*
X70006294Y-50105014D01*
X70191866Y-50331134D01*
X70417986Y-50516706D01*
X70482523Y-50551201D01*
X70365645Y-50620822D01*
X70149412Y-50815731D01*
X69975359Y-51049080D01*
X69850175Y-51311901D01*
X69805524Y-51459110D01*
X69926845Y-51689000D01*
X71120000Y-51689000D01*
X71120000Y-51669000D01*
X71374000Y-51669000D01*
X71374000Y-51689000D01*
X72567155Y-51689000D01*
X72688476Y-51459110D01*
X72643825Y-51311901D01*
X72518641Y-51049080D01*
X72344588Y-50815731D01*
X72128355Y-50620822D01*
X72011477Y-50551201D01*
X72076014Y-50516706D01*
X72302134Y-50331134D01*
X72487706Y-50105014D01*
X72625599Y-49847034D01*
X72710513Y-49567111D01*
X72739185Y-49276000D01*
X72710513Y-48984889D01*
X72625599Y-48704966D01*
X72487706Y-48446986D01*
X72302134Y-48220866D01*
X72272313Y-48196393D01*
X72341180Y-48175502D01*
X72451494Y-48116537D01*
X72548185Y-48037185D01*
X72627537Y-47940494D01*
X72686502Y-47830180D01*
X72722812Y-47710482D01*
X72735072Y-47586000D01*
X72735072Y-45886000D01*
X72722812Y-45761518D01*
X72686502Y-45641820D01*
X72627537Y-45531506D01*
X72548185Y-45434815D01*
X72451494Y-45355463D01*
X72341180Y-45296498D01*
X72221482Y-45260188D01*
X72097000Y-45247928D01*
X70397000Y-45247928D01*
X70272518Y-45260188D01*
X70152820Y-45296498D01*
X70042506Y-45355463D01*
X69945815Y-45434815D01*
X69866463Y-45531506D01*
X69807498Y-45641820D01*
X69771188Y-45761518D01*
X69758928Y-45886000D01*
X69758928Y-46078755D01*
X69680687Y-46120576D01*
X69568525Y-46212625D01*
X69476476Y-46324787D01*
X69408078Y-46452751D01*
X69365958Y-46591601D01*
X69351736Y-46736000D01*
X69355301Y-46772196D01*
X69355300Y-47496890D01*
X65417732Y-51434459D01*
X65389626Y-51457525D01*
X65366560Y-51485631D01*
X65366558Y-51485633D01*
X65297576Y-51569688D01*
X65229178Y-51697653D01*
X65187059Y-51836502D01*
X65185979Y-51847472D01*
X65111899Y-51887068D01*
X64893392Y-52066392D01*
X64714068Y-52284899D01*
X64580818Y-52534192D01*
X64498764Y-52804691D01*
X64471057Y-53086000D01*
X64491088Y-53289379D01*
X58018604Y-46816895D01*
X58166000Y-46735915D01*
X58166000Y-45593000D01*
X58420000Y-45593000D01*
X58420000Y-46735915D01*
X58642039Y-46857904D01*
X58776087Y-46817246D01*
X59030420Y-46697037D01*
X59256414Y-46529519D01*
X59445385Y-46321131D01*
X59590070Y-46079881D01*
X59684909Y-45815040D01*
X59563624Y-45593000D01*
X58420000Y-45593000D01*
X58166000Y-45593000D01*
X57022376Y-45593000D01*
X56941949Y-45740240D01*
X56743600Y-45541891D01*
X56743600Y-45116960D01*
X56901091Y-45116960D01*
X57022376Y-45339000D01*
X58166000Y-45339000D01*
X58166000Y-44196085D01*
X58420000Y-44196085D01*
X58420000Y-45339000D01*
X59563624Y-45339000D01*
X59684909Y-45116960D01*
X59590070Y-44852119D01*
X59478449Y-44666000D01*
X64474928Y-44666000D01*
X64474928Y-46266000D01*
X64487188Y-46390482D01*
X64523498Y-46510180D01*
X64582463Y-46620494D01*
X64661815Y-46717185D01*
X64758506Y-46796537D01*
X64868820Y-46855502D01*
X64988518Y-46891812D01*
X65113000Y-46904072D01*
X66713000Y-46904072D01*
X66837482Y-46891812D01*
X66957180Y-46855502D01*
X67067494Y-46796537D01*
X67164185Y-46717185D01*
X67243537Y-46620494D01*
X67302502Y-46510180D01*
X67338812Y-46390482D01*
X67351072Y-46266000D01*
X67351072Y-44666000D01*
X67338812Y-44541518D01*
X67302502Y-44421820D01*
X67243537Y-44311506D01*
X67164185Y-44214815D01*
X67067494Y-44135463D01*
X66957180Y-44076498D01*
X66837482Y-44040188D01*
X66713000Y-44027928D01*
X65113000Y-44027928D01*
X64988518Y-44040188D01*
X64868820Y-44076498D01*
X64758506Y-44135463D01*
X64661815Y-44214815D01*
X64582463Y-44311506D01*
X64523498Y-44421820D01*
X64487188Y-44541518D01*
X64474928Y-44666000D01*
X59478449Y-44666000D01*
X59445385Y-44610869D01*
X59256414Y-44402481D01*
X59030420Y-44234963D01*
X58776087Y-44114754D01*
X58642039Y-44074096D01*
X58420000Y-44196085D01*
X58166000Y-44196085D01*
X57943961Y-44074096D01*
X57809913Y-44114754D01*
X57555580Y-44234963D01*
X57329586Y-44402481D01*
X57140615Y-44610869D01*
X56995930Y-44852119D01*
X56901091Y-45116960D01*
X56743600Y-45116960D01*
X56743600Y-42824061D01*
X71482000Y-42824061D01*
X71482000Y-43027939D01*
X71521774Y-43227898D01*
X71599795Y-43416256D01*
X71713063Y-43585774D01*
X71857226Y-43729937D01*
X72026744Y-43843205D01*
X72215102Y-43921226D01*
X72415061Y-43961000D01*
X72618939Y-43961000D01*
X72818898Y-43921226D01*
X72940000Y-43871064D01*
X72940000Y-44031807D01*
X73008596Y-44376665D01*
X73143153Y-44701515D01*
X73338500Y-44993871D01*
X73587129Y-45242500D01*
X73879485Y-45437847D01*
X74204335Y-45572404D01*
X74549193Y-45641000D01*
X74900807Y-45641000D01*
X75245665Y-45572404D01*
X75570515Y-45437847D01*
X75862871Y-45242500D01*
X76111500Y-44993871D01*
X76306847Y-44701515D01*
X76441404Y-44376665D01*
X76472008Y-44222806D01*
X78365000Y-44222806D01*
X78365000Y-44589194D01*
X78436479Y-44948542D01*
X78576689Y-45287041D01*
X78780243Y-45591681D01*
X79039319Y-45850757D01*
X79343959Y-46054311D01*
X79682458Y-46194521D01*
X80041806Y-46266000D01*
X80408194Y-46266000D01*
X80767542Y-46194521D01*
X81106041Y-46054311D01*
X81410681Y-45850757D01*
X81669757Y-45591681D01*
X81873311Y-45287041D01*
X82013521Y-44948542D01*
X82085000Y-44589194D01*
X82085000Y-44222806D01*
X82013521Y-43863458D01*
X81873311Y-43524959D01*
X81669757Y-43220319D01*
X81410681Y-42961243D01*
X81106041Y-42757689D01*
X80767542Y-42617479D01*
X80408194Y-42546000D01*
X80041806Y-42546000D01*
X79682458Y-42617479D01*
X79343959Y-42757689D01*
X79039319Y-42961243D01*
X78780243Y-43220319D01*
X78576689Y-43524959D01*
X78436479Y-43863458D01*
X78365000Y-44222806D01*
X76472008Y-44222806D01*
X76510000Y-44031807D01*
X76510000Y-43680193D01*
X76441404Y-43335335D01*
X76306847Y-43010485D01*
X76111500Y-42718129D01*
X75862871Y-42469500D01*
X75570515Y-42274153D01*
X75245665Y-42139596D01*
X74900807Y-42071000D01*
X74549193Y-42071000D01*
X74204335Y-42139596D01*
X73879485Y-42274153D01*
X73587129Y-42469500D01*
X73488883Y-42567746D01*
X73434205Y-42435744D01*
X73320937Y-42266226D01*
X73176774Y-42122063D01*
X73007256Y-42008795D01*
X72818898Y-41930774D01*
X72618939Y-41891000D01*
X72415061Y-41891000D01*
X72215102Y-41930774D01*
X72026744Y-42008795D01*
X71857226Y-42122063D01*
X71713063Y-42266226D01*
X71599795Y-42435744D01*
X71521774Y-42624102D01*
X71482000Y-42824061D01*
X56743600Y-42824061D01*
X56743600Y-35876940D01*
X56848102Y-35920226D01*
X57048061Y-35960000D01*
X57251939Y-35960000D01*
X57451898Y-35920226D01*
X57640256Y-35842205D01*
X57809774Y-35728937D01*
X57953937Y-35584774D01*
X58067205Y-35415256D01*
X58145226Y-35226898D01*
X58185000Y-35026939D01*
X58185000Y-34823061D01*
X58145226Y-34623102D01*
X58067205Y-34434744D01*
X57953937Y-34265226D01*
X57809774Y-34121063D01*
X57640256Y-34007795D01*
X57451898Y-33929774D01*
X57251939Y-33890000D01*
X57048061Y-33890000D01*
X56848102Y-33929774D01*
X56743600Y-33973060D01*
X56743600Y-33579109D01*
X58471110Y-31851600D01*
X59851889Y-31851600D01*
X59919226Y-31918937D01*
X60088744Y-32032205D01*
X60277102Y-32110226D01*
X60477061Y-32150000D01*
X60680939Y-32150000D01*
X60880898Y-32110226D01*
X61069256Y-32032205D01*
X61238774Y-31918937D01*
X61380151Y-31777560D01*
X63369974Y-33767383D01*
X63347939Y-33763000D01*
X63144061Y-33763000D01*
X62944102Y-33802774D01*
X62755744Y-33880795D01*
X62586226Y-33994063D01*
X62442063Y-34138226D01*
X62328795Y-34307744D01*
X62250774Y-34496102D01*
X62211000Y-34696061D01*
X62211000Y-34899939D01*
X62250774Y-35099898D01*
X62328795Y-35288256D01*
X62442063Y-35457774D01*
X62586226Y-35601937D01*
X62755744Y-35715205D01*
X62944102Y-35793226D01*
X63144061Y-35833000D01*
X63347939Y-35833000D01*
X63547898Y-35793226D01*
X63736256Y-35715205D01*
X63905774Y-35601937D01*
X63973111Y-35534600D01*
X65176400Y-35534600D01*
X65176401Y-38392007D01*
X65172836Y-38428200D01*
X65178037Y-38480999D01*
X65187059Y-38572599D01*
X65229179Y-38711449D01*
X65297577Y-38839413D01*
X65389626Y-38951575D01*
X65417732Y-38974641D01*
X67919354Y-41476263D01*
X67942425Y-41504375D01*
X68030928Y-41577008D01*
X68030928Y-41781000D01*
X68043188Y-41905482D01*
X68079498Y-42025180D01*
X68138463Y-42135494D01*
X68217815Y-42232185D01*
X68314506Y-42311537D01*
X68424820Y-42370502D01*
X68544518Y-42406812D01*
X68669000Y-42419072D01*
X70269000Y-42419072D01*
X70393482Y-42406812D01*
X70513180Y-42370502D01*
X70623494Y-42311537D01*
X70720185Y-42232185D01*
X70799537Y-42135494D01*
X70858502Y-42025180D01*
X70894812Y-41905482D01*
X70907072Y-41781000D01*
X70907072Y-40181000D01*
X70894812Y-40056518D01*
X70858502Y-39936820D01*
X70799537Y-39826506D01*
X70720185Y-39729815D01*
X70623494Y-39650463D01*
X70513180Y-39591498D01*
X70417057Y-39562339D01*
X70583637Y-39395759D01*
X70665791Y-39272806D01*
X72865000Y-39272806D01*
X72865000Y-39639194D01*
X72936479Y-39998542D01*
X73076689Y-40337041D01*
X73280243Y-40641681D01*
X73539319Y-40900757D01*
X73843959Y-41104311D01*
X74182458Y-41244521D01*
X74541806Y-41316000D01*
X74908194Y-41316000D01*
X75267542Y-41244521D01*
X75606041Y-41104311D01*
X75910681Y-40900757D01*
X76169757Y-40641681D01*
X76373311Y-40337041D01*
X76513521Y-39998542D01*
X76585000Y-39639194D01*
X76585000Y-39272806D01*
X76513521Y-38913458D01*
X76434551Y-38722806D01*
X78365000Y-38722806D01*
X78365000Y-39089194D01*
X78436479Y-39448542D01*
X78576689Y-39787041D01*
X78780243Y-40091681D01*
X79039319Y-40350757D01*
X79343959Y-40554311D01*
X79682458Y-40694521D01*
X80041806Y-40766000D01*
X80408194Y-40766000D01*
X80767542Y-40694521D01*
X81106041Y-40554311D01*
X81410681Y-40350757D01*
X81669757Y-40091681D01*
X81873311Y-39787041D01*
X82013521Y-39448542D01*
X82085000Y-39089194D01*
X82085000Y-38722806D01*
X82013521Y-38363458D01*
X81873311Y-38024959D01*
X81669757Y-37720319D01*
X81410681Y-37461243D01*
X81106041Y-37257689D01*
X80767542Y-37117479D01*
X80408194Y-37046000D01*
X80041806Y-37046000D01*
X79682458Y-37117479D01*
X79343959Y-37257689D01*
X79039319Y-37461243D01*
X78780243Y-37720319D01*
X78576689Y-38024959D01*
X78436479Y-38363458D01*
X78365000Y-38722806D01*
X76434551Y-38722806D01*
X76373311Y-38574959D01*
X76169757Y-38270319D01*
X75910681Y-38011243D01*
X75606041Y-37807689D01*
X75267542Y-37667479D01*
X74908194Y-37596000D01*
X74541806Y-37596000D01*
X74182458Y-37667479D01*
X73843959Y-37807689D01*
X73539319Y-38011243D01*
X73280243Y-38270319D01*
X73076689Y-38574959D01*
X72936479Y-38913458D01*
X72865000Y-39272806D01*
X70665791Y-39272806D01*
X70740680Y-39160727D01*
X70848853Y-38899574D01*
X70904000Y-38622335D01*
X70904000Y-38339665D01*
X70848853Y-38062426D01*
X70740680Y-37801273D01*
X70583637Y-37566241D01*
X70383759Y-37366363D01*
X70148727Y-37209320D01*
X69887574Y-37101147D01*
X69610335Y-37046000D01*
X69327665Y-37046000D01*
X69117512Y-37087803D01*
X68193885Y-36164176D01*
X68218000Y-36042939D01*
X68218000Y-35839061D01*
X68178226Y-35639102D01*
X68100205Y-35450744D01*
X67986937Y-35281226D01*
X67842774Y-35137063D01*
X67673256Y-35023795D01*
X67484898Y-34945774D01*
X67284939Y-34906000D01*
X67081061Y-34906000D01*
X66881102Y-34945774D01*
X66692744Y-35023795D01*
X66649600Y-35052623D01*
X66649600Y-34834186D01*
X66653164Y-34798000D01*
X66638942Y-34653601D01*
X66596822Y-34514751D01*
X66528424Y-34386787D01*
X66436375Y-34274625D01*
X66324213Y-34182576D01*
X66196249Y-34114178D01*
X66057399Y-34072058D01*
X65949186Y-34061400D01*
X65913000Y-34057836D01*
X65876814Y-34061400D01*
X65747409Y-34061400D01*
X61563646Y-29877637D01*
X61540575Y-29849525D01*
X61428413Y-29757476D01*
X61300449Y-29689078D01*
X61161599Y-29646958D01*
X61053386Y-29636300D01*
X61053383Y-29636300D01*
X61017200Y-29632736D01*
X60981017Y-29636300D01*
X58343986Y-29636300D01*
X58307800Y-29632736D01*
X58271614Y-29636300D01*
X58163401Y-29646958D01*
X58024551Y-29689078D01*
X57936016Y-29736401D01*
X57896587Y-29757476D01*
X57825634Y-29815706D01*
X57784425Y-29849525D01*
X57761359Y-29877631D01*
X55609729Y-32029262D01*
X55645000Y-31851939D01*
X55645000Y-31648061D01*
X55605226Y-31448102D01*
X55527205Y-31259744D01*
X55413937Y-31090226D01*
X55269774Y-30946063D01*
X55100256Y-30832795D01*
X54911898Y-30754774D01*
X54711939Y-30715000D01*
X54508061Y-30715000D01*
X54308102Y-30754774D01*
X54119744Y-30832795D01*
X53950226Y-30946063D01*
X53806063Y-31090226D01*
X53692795Y-31259744D01*
X53614774Y-31448102D01*
X53575000Y-31648061D01*
X53575000Y-31743290D01*
X52593037Y-32725254D01*
X52490134Y-32599866D01*
X52264014Y-32414294D01*
X52209209Y-32385000D01*
X52264014Y-32355706D01*
X52490134Y-32170134D01*
X52675706Y-31944014D01*
X52813599Y-31686034D01*
X52898513Y-31406111D01*
X52927185Y-31115000D01*
X52898513Y-30823889D01*
X52813599Y-30543966D01*
X52675706Y-30285986D01*
X52490134Y-30059866D01*
X52264014Y-29874294D01*
X52199477Y-29839799D01*
X52316355Y-29770178D01*
X52532588Y-29575269D01*
X52706641Y-29341920D01*
X52831825Y-29079099D01*
X52876476Y-28931890D01*
X52755155Y-28702000D01*
X51562000Y-28702000D01*
X51562000Y-28722000D01*
X51308000Y-28722000D01*
X51308000Y-28702000D01*
X51288000Y-28702000D01*
X51288000Y-28448000D01*
X51308000Y-28448000D01*
X51308000Y-27254186D01*
X51562000Y-27254186D01*
X51562000Y-28448000D01*
X52755155Y-28448000D01*
X52876476Y-28218110D01*
X52831825Y-28070901D01*
X52706641Y-27808080D01*
X52532588Y-27574731D01*
X52316355Y-27379822D01*
X52066252Y-27230843D01*
X51791891Y-27133519D01*
X51562000Y-27254186D01*
X51308000Y-27254186D01*
X51078109Y-27133519D01*
X50803748Y-27230843D01*
X50553645Y-27379822D01*
X50337412Y-27574731D01*
X50166584Y-27803756D01*
X50135706Y-27745986D01*
X49950134Y-27519866D01*
X49724014Y-27334294D01*
X49466034Y-27196401D01*
X49186111Y-27111487D01*
X48967950Y-27090000D01*
X48822050Y-27090000D01*
X48603889Y-27111487D01*
X48323966Y-27196401D01*
X48065986Y-27334294D01*
X47839866Y-27519866D01*
X47654294Y-27745986D01*
X47516401Y-28003966D01*
X47431487Y-28283889D01*
X47402815Y-28575000D01*
X47431487Y-28866111D01*
X47516401Y-29146034D01*
X47654294Y-29404014D01*
X47839866Y-29630134D01*
X48065986Y-29815706D01*
X48120791Y-29845000D01*
X48065986Y-29874294D01*
X47839866Y-30059866D01*
X47654294Y-30285986D01*
X47516401Y-30543966D01*
X47431487Y-30823889D01*
X47402815Y-31115000D01*
X47431487Y-31406111D01*
X47516401Y-31686034D01*
X47654294Y-31944014D01*
X47839866Y-32170134D01*
X48065986Y-32355706D01*
X48120791Y-32385000D01*
X48065986Y-32414294D01*
X47839866Y-32599866D01*
X47654294Y-32825986D01*
X47516401Y-33083966D01*
X47431487Y-33363889D01*
X47402815Y-33655000D01*
X47431487Y-33946111D01*
X47516401Y-34226034D01*
X47654294Y-34484014D01*
X47839866Y-34710134D01*
X48065986Y-34895706D01*
X48130523Y-34930201D01*
X48013645Y-34999822D01*
X47797412Y-35194731D01*
X47623359Y-35428080D01*
X47498175Y-35690901D01*
X47453524Y-35838110D01*
X47574845Y-36068000D01*
X48768000Y-36068000D01*
X48768000Y-36048000D01*
X49022000Y-36048000D01*
X49022000Y-36068000D01*
X49042000Y-36068000D01*
X49042000Y-36322000D01*
X49022000Y-36322000D01*
X49022000Y-36342000D01*
X48768000Y-36342000D01*
X48768000Y-36322000D01*
X47574845Y-36322000D01*
X47453524Y-36551890D01*
X47498175Y-36699099D01*
X47623359Y-36961920D01*
X47797412Y-37195269D01*
X48013645Y-37390178D01*
X48130523Y-37459799D01*
X48065986Y-37494294D01*
X47839866Y-37679866D01*
X47654294Y-37905986D01*
X47516401Y-38163966D01*
X47431487Y-38443889D01*
X47402815Y-38735000D01*
X47431487Y-39026111D01*
X47516401Y-39306034D01*
X47654294Y-39564014D01*
X47767921Y-39702469D01*
X46775532Y-40694859D01*
X46747425Y-40717926D01*
X46724359Y-40746032D01*
X46724358Y-40746033D01*
X46655377Y-40830087D01*
X46655376Y-40830088D01*
X46586978Y-40958052D01*
X46544858Y-41096902D01*
X46534200Y-41205114D01*
X46530636Y-41241300D01*
X46482000Y-41241300D01*
X46482000Y-26162000D01*
X85598000Y-26162000D01*
X85598000Y-79248000D01*
G36*
X49022000Y-71628000D02*
G01*
X49042000Y-71628000D01*
X49042000Y-71882000D01*
X49022000Y-71882000D01*
X49022000Y-71902000D01*
X48768000Y-71902000D01*
X48768000Y-71882000D01*
X48748000Y-71882000D01*
X48748000Y-71628000D01*
X48768000Y-71628000D01*
X48768000Y-71608000D01*
X49022000Y-71608000D01*
X49022000Y-71628000D01*
X49022000Y-71628000D01*
G37*
X49022000Y-71628000D02*
X49042000Y-71628000D01*
X49042000Y-71882000D01*
X49022000Y-71882000D01*
X49022000Y-71902000D01*
X48768000Y-71902000D01*
X48768000Y-71882000D01*
X48748000Y-71882000D01*
X48748000Y-71628000D01*
X48768000Y-71628000D01*
X48768000Y-71608000D01*
X49022000Y-71608000D01*
X49022000Y-71628000D01*
G36*
X51562000Y-66548000D02*
G01*
X51582000Y-66548000D01*
X51582000Y-66802000D01*
X51562000Y-66802000D01*
X51562000Y-66822000D01*
X51308000Y-66822000D01*
X51308000Y-66802000D01*
X51288000Y-66802000D01*
X51288000Y-66548000D01*
X51308000Y-66548000D01*
X51308000Y-66528000D01*
X51562000Y-66528000D01*
X51562000Y-66548000D01*
X51562000Y-66548000D01*
G37*
X51562000Y-66548000D02*
X51582000Y-66548000D01*
X51582000Y-66802000D01*
X51562000Y-66802000D01*
X51562000Y-66822000D01*
X51308000Y-66822000D01*
X51308000Y-66802000D01*
X51288000Y-66802000D01*
X51288000Y-66548000D01*
X51308000Y-66548000D01*
X51308000Y-66528000D01*
X51562000Y-66528000D01*
X51562000Y-66548000D01*
G36*
X49022000Y-61468000D02*
G01*
X49042000Y-61468000D01*
X49042000Y-61722000D01*
X49022000Y-61722000D01*
X49022000Y-61742000D01*
X48768000Y-61742000D01*
X48768000Y-61722000D01*
X48748000Y-61722000D01*
X48748000Y-61468000D01*
X48768000Y-61468000D01*
X48768000Y-61448000D01*
X49022000Y-61448000D01*
X49022000Y-61468000D01*
X49022000Y-61468000D01*
G37*
X49022000Y-61468000D02*
X49042000Y-61468000D01*
X49042000Y-61722000D01*
X49022000Y-61722000D01*
X49022000Y-61742000D01*
X48768000Y-61742000D01*
X48768000Y-61722000D01*
X48748000Y-61722000D01*
X48748000Y-61468000D01*
X48768000Y-61468000D01*
X48768000Y-61448000D01*
X49022000Y-61448000D01*
X49022000Y-61468000D01*
G36*
X55270400Y-45810817D02*
G01*
X55266836Y-45847000D01*
X55270400Y-45883183D01*
X55270400Y-45883185D01*
X55281058Y-45991398D01*
X55323178Y-46130248D01*
X55391576Y-46258212D01*
X55483625Y-46370374D01*
X55511732Y-46393441D01*
X64871290Y-55753000D01*
X64845891Y-55778400D01*
X55537209Y-55778400D01*
X57244819Y-54070791D01*
X57273392Y-54105608D01*
X57491899Y-54284932D01*
X57741192Y-54418182D01*
X58011691Y-54500236D01*
X58222508Y-54521000D01*
X58363492Y-54521000D01*
X58574309Y-54500236D01*
X58844808Y-54418182D01*
X59094101Y-54284932D01*
X59312608Y-54105608D01*
X59491932Y-53887101D01*
X59625182Y-53637808D01*
X59707236Y-53367309D01*
X59734943Y-53086000D01*
X59707236Y-52804691D01*
X59625182Y-52534192D01*
X59491932Y-52284899D01*
X59312608Y-52066392D01*
X59094101Y-51887068D01*
X58844808Y-51753818D01*
X58574309Y-51671764D01*
X58363492Y-51651000D01*
X58222508Y-51651000D01*
X58011691Y-51671764D01*
X57741192Y-51753818D01*
X57491899Y-51887068D01*
X57273392Y-52066392D01*
X57094068Y-52284899D01*
X57054472Y-52358977D01*
X57043501Y-52360058D01*
X56904651Y-52402178D01*
X56868031Y-52421752D01*
X56776687Y-52470576D01*
X56725475Y-52512605D01*
X56664525Y-52562625D01*
X56641459Y-52590731D01*
X54608991Y-54623200D01*
X52772353Y-54623200D01*
X52813599Y-54546034D01*
X52898513Y-54266111D01*
X52927185Y-53975000D01*
X52898513Y-53683889D01*
X52825015Y-53441600D01*
X53512117Y-53441600D01*
X53548300Y-53445164D01*
X53584483Y-53441600D01*
X53584486Y-53441600D01*
X53692699Y-53430942D01*
X53831549Y-53388822D01*
X53959513Y-53320424D01*
X54071675Y-53228375D01*
X54094746Y-53200263D01*
X54664609Y-52630400D01*
X54759839Y-52630400D01*
X54959798Y-52590626D01*
X55148156Y-52512605D01*
X55317674Y-52399337D01*
X55461837Y-52255174D01*
X55575105Y-52085656D01*
X55653126Y-51897298D01*
X55692900Y-51697339D01*
X55692900Y-51493461D01*
X55653126Y-51293502D01*
X55575105Y-51105144D01*
X55461837Y-50935626D01*
X55317674Y-50791463D01*
X55148156Y-50678195D01*
X54959798Y-50600174D01*
X54759839Y-50560400D01*
X54555961Y-50560400D01*
X54356002Y-50600174D01*
X54167644Y-50678195D01*
X53998126Y-50791463D01*
X53853963Y-50935626D01*
X53740695Y-51105144D01*
X53662674Y-51293502D01*
X53622900Y-51493461D01*
X53622900Y-51588691D01*
X53243191Y-51968400D01*
X52825015Y-51968400D01*
X52898513Y-51726111D01*
X52927185Y-51435000D01*
X52898513Y-51143889D01*
X52813599Y-50863966D01*
X52675706Y-50605986D01*
X52490134Y-50379866D01*
X52264014Y-50194294D01*
X52209209Y-50165000D01*
X52264014Y-50135706D01*
X52490134Y-49950134D01*
X52675706Y-49724014D01*
X52813599Y-49466034D01*
X52898513Y-49186111D01*
X52927185Y-48895000D01*
X52898513Y-48603889D01*
X52813599Y-48323966D01*
X52675706Y-48065986D01*
X52490134Y-47839866D01*
X52264014Y-47654294D01*
X52199477Y-47619799D01*
X52316355Y-47550178D01*
X52532588Y-47355269D01*
X52706641Y-47121920D01*
X52831825Y-46859099D01*
X52876476Y-46711890D01*
X52755155Y-46482000D01*
X51562000Y-46482000D01*
X51562000Y-46502000D01*
X51308000Y-46502000D01*
X51308000Y-46482000D01*
X51288000Y-46482000D01*
X51288000Y-46228000D01*
X51308000Y-46228000D01*
X51308000Y-46208000D01*
X51562000Y-46208000D01*
X51562000Y-46228000D01*
X52755155Y-46228000D01*
X52876476Y-45998110D01*
X52831825Y-45850901D01*
X52706641Y-45588080D01*
X52532588Y-45354731D01*
X52316355Y-45159822D01*
X52199477Y-45090201D01*
X52264014Y-45055706D01*
X52490134Y-44870134D01*
X52675706Y-44644014D01*
X52813599Y-44386034D01*
X52898513Y-44106111D01*
X52927185Y-43815000D01*
X52898513Y-43523889D01*
X52813599Y-43243966D01*
X52675706Y-42985986D01*
X52490134Y-42759866D01*
X52264014Y-42574294D01*
X52209209Y-42545000D01*
X52264014Y-42515706D01*
X52490134Y-42330134D01*
X52675706Y-42104014D01*
X52813599Y-41846034D01*
X52898513Y-41566111D01*
X52927185Y-41275000D01*
X52898513Y-40983889D01*
X52813599Y-40703966D01*
X52675706Y-40445986D01*
X52566271Y-40312639D01*
X54098069Y-38780841D01*
X54126175Y-38757775D01*
X54164196Y-38711447D01*
X54218224Y-38645613D01*
X54255989Y-38574959D01*
X54286622Y-38517649D01*
X54328742Y-38378799D01*
X54339400Y-38270586D01*
X54342964Y-38234400D01*
X54339400Y-38198214D01*
X54339400Y-35383009D01*
X55270401Y-34452008D01*
X55270400Y-45810817D01*
X55270400Y-45810817D01*
G37*
X55270400Y-45810817D02*
X55266836Y-45847000D01*
X55270400Y-45883183D01*
X55270400Y-45883185D01*
X55281058Y-45991398D01*
X55323178Y-46130248D01*
X55391576Y-46258212D01*
X55483625Y-46370374D01*
X55511732Y-46393441D01*
X64871290Y-55753000D01*
X64845891Y-55778400D01*
X55537209Y-55778400D01*
X57244819Y-54070791D01*
X57273392Y-54105608D01*
X57491899Y-54284932D01*
X57741192Y-54418182D01*
X58011691Y-54500236D01*
X58222508Y-54521000D01*
X58363492Y-54521000D01*
X58574309Y-54500236D01*
X58844808Y-54418182D01*
X59094101Y-54284932D01*
X59312608Y-54105608D01*
X59491932Y-53887101D01*
X59625182Y-53637808D01*
X59707236Y-53367309D01*
X59734943Y-53086000D01*
X59707236Y-52804691D01*
X59625182Y-52534192D01*
X59491932Y-52284899D01*
X59312608Y-52066392D01*
X59094101Y-51887068D01*
X58844808Y-51753818D01*
X58574309Y-51671764D01*
X58363492Y-51651000D01*
X58222508Y-51651000D01*
X58011691Y-51671764D01*
X57741192Y-51753818D01*
X57491899Y-51887068D01*
X57273392Y-52066392D01*
X57094068Y-52284899D01*
X57054472Y-52358977D01*
X57043501Y-52360058D01*
X56904651Y-52402178D01*
X56868031Y-52421752D01*
X56776687Y-52470576D01*
X56725475Y-52512605D01*
X56664525Y-52562625D01*
X56641459Y-52590731D01*
X54608991Y-54623200D01*
X52772353Y-54623200D01*
X52813599Y-54546034D01*
X52898513Y-54266111D01*
X52927185Y-53975000D01*
X52898513Y-53683889D01*
X52825015Y-53441600D01*
X53512117Y-53441600D01*
X53548300Y-53445164D01*
X53584483Y-53441600D01*
X53584486Y-53441600D01*
X53692699Y-53430942D01*
X53831549Y-53388822D01*
X53959513Y-53320424D01*
X54071675Y-53228375D01*
X54094746Y-53200263D01*
X54664609Y-52630400D01*
X54759839Y-52630400D01*
X54959798Y-52590626D01*
X55148156Y-52512605D01*
X55317674Y-52399337D01*
X55461837Y-52255174D01*
X55575105Y-52085656D01*
X55653126Y-51897298D01*
X55692900Y-51697339D01*
X55692900Y-51493461D01*
X55653126Y-51293502D01*
X55575105Y-51105144D01*
X55461837Y-50935626D01*
X55317674Y-50791463D01*
X55148156Y-50678195D01*
X54959798Y-50600174D01*
X54759839Y-50560400D01*
X54555961Y-50560400D01*
X54356002Y-50600174D01*
X54167644Y-50678195D01*
X53998126Y-50791463D01*
X53853963Y-50935626D01*
X53740695Y-51105144D01*
X53662674Y-51293502D01*
X53622900Y-51493461D01*
X53622900Y-51588691D01*
X53243191Y-51968400D01*
X52825015Y-51968400D01*
X52898513Y-51726111D01*
X52927185Y-51435000D01*
X52898513Y-51143889D01*
X52813599Y-50863966D01*
X52675706Y-50605986D01*
X52490134Y-50379866D01*
X52264014Y-50194294D01*
X52209209Y-50165000D01*
X52264014Y-50135706D01*
X52490134Y-49950134D01*
X52675706Y-49724014D01*
X52813599Y-49466034D01*
X52898513Y-49186111D01*
X52927185Y-48895000D01*
X52898513Y-48603889D01*
X52813599Y-48323966D01*
X52675706Y-48065986D01*
X52490134Y-47839866D01*
X52264014Y-47654294D01*
X52199477Y-47619799D01*
X52316355Y-47550178D01*
X52532588Y-47355269D01*
X52706641Y-47121920D01*
X52831825Y-46859099D01*
X52876476Y-46711890D01*
X52755155Y-46482000D01*
X51562000Y-46482000D01*
X51562000Y-46502000D01*
X51308000Y-46502000D01*
X51308000Y-46482000D01*
X51288000Y-46482000D01*
X51288000Y-46228000D01*
X51308000Y-46228000D01*
X51308000Y-46208000D01*
X51562000Y-46208000D01*
X51562000Y-46228000D01*
X52755155Y-46228000D01*
X52876476Y-45998110D01*
X52831825Y-45850901D01*
X52706641Y-45588080D01*
X52532588Y-45354731D01*
X52316355Y-45159822D01*
X52199477Y-45090201D01*
X52264014Y-45055706D01*
X52490134Y-44870134D01*
X52675706Y-44644014D01*
X52813599Y-44386034D01*
X52898513Y-44106111D01*
X52927185Y-43815000D01*
X52898513Y-43523889D01*
X52813599Y-43243966D01*
X52675706Y-42985986D01*
X52490134Y-42759866D01*
X52264014Y-42574294D01*
X52209209Y-42545000D01*
X52264014Y-42515706D01*
X52490134Y-42330134D01*
X52675706Y-42104014D01*
X52813599Y-41846034D01*
X52898513Y-41566111D01*
X52927185Y-41275000D01*
X52898513Y-40983889D01*
X52813599Y-40703966D01*
X52675706Y-40445986D01*
X52566271Y-40312639D01*
X54098069Y-38780841D01*
X54126175Y-38757775D01*
X54164196Y-38711447D01*
X54218224Y-38645613D01*
X54255989Y-38574959D01*
X54286622Y-38517649D01*
X54328742Y-38378799D01*
X54339400Y-38270586D01*
X54342964Y-38234400D01*
X54339400Y-38198214D01*
X54339400Y-35383009D01*
X55270401Y-34452008D01*
X55270400Y-45810817D01*
G36*
X49022000Y-53848000D02*
G01*
X49042000Y-53848000D01*
X49042000Y-54102000D01*
X49022000Y-54102000D01*
X49022000Y-54122000D01*
X48768000Y-54122000D01*
X48768000Y-54102000D01*
X48748000Y-54102000D01*
X48748000Y-53848000D01*
X48768000Y-53848000D01*
X48768000Y-53828000D01*
X49022000Y-53828000D01*
X49022000Y-53848000D01*
X49022000Y-53848000D01*
G37*
X49022000Y-53848000D02*
X49042000Y-53848000D01*
X49042000Y-54102000D01*
X49022000Y-54102000D01*
X49022000Y-54122000D01*
X48768000Y-54122000D01*
X48768000Y-54102000D01*
X48748000Y-54102000D01*
X48748000Y-53848000D01*
X48768000Y-53848000D01*
X48768000Y-53828000D01*
X49022000Y-53828000D01*
X49022000Y-53848000D01*
G36*
X49022000Y-41148000D02*
G01*
X49042000Y-41148000D01*
X49042000Y-41402000D01*
X49022000Y-41402000D01*
X49022000Y-41422000D01*
X48768000Y-41422000D01*
X48768000Y-41402000D01*
X48748000Y-41402000D01*
X48748000Y-41148000D01*
X48768000Y-41148000D01*
X48768000Y-41128000D01*
X49022000Y-41128000D01*
X49022000Y-41148000D01*
X49022000Y-41148000D01*
G37*
X49022000Y-41148000D02*
X49042000Y-41148000D01*
X49042000Y-41402000D01*
X49022000Y-41402000D01*
X49022000Y-41422000D01*
X48768000Y-41422000D01*
X48768000Y-41402000D01*
X48748000Y-41402000D01*
X48748000Y-41148000D01*
X48768000Y-41148000D01*
X48768000Y-41128000D01*
X49022000Y-41128000D01*
X49022000Y-41148000D01*
G36*
X73533000Y-42523629D02*
G01*
X73338500Y-42718129D01*
X73143153Y-43010485D01*
X73008596Y-43335335D01*
X72940000Y-43680193D01*
X72940000Y-44031807D01*
X72997921Y-44323000D01*
X71247000Y-44323000D01*
X71247000Y-41402000D01*
X73533000Y-41402000D01*
X73533000Y-42523629D01*
X73533000Y-42523629D01*
G37*
X73533000Y-42523629D02*
X73338500Y-42718129D01*
X73143153Y-43010485D01*
X73008596Y-43335335D01*
X72940000Y-43680193D01*
X72940000Y-44031807D01*
X72997921Y-44323000D01*
X71247000Y-44323000D01*
X71247000Y-41402000D01*
X73533000Y-41402000D01*
X73533000Y-42523629D01*
G36*
X70993000Y-39878000D02*
G01*
X70827062Y-39878000D01*
X70799537Y-39826506D01*
X70720185Y-39729815D01*
X70623494Y-39650463D01*
X70513180Y-39591498D01*
X70393482Y-39555188D01*
X70269000Y-39542928D01*
X70261785Y-39542928D01*
X70282097Y-39473702D01*
X69469000Y-38660605D01*
X68655903Y-39473702D01*
X68676215Y-39542928D01*
X68669000Y-39542928D01*
X68544518Y-39555188D01*
X68424820Y-39591498D01*
X68314506Y-39650463D01*
X68238966Y-39712457D01*
X67078021Y-38551512D01*
X68028783Y-38551512D01*
X68070213Y-38831130D01*
X68165397Y-39097292D01*
X68232329Y-39222514D01*
X68476298Y-39294097D01*
X69289395Y-38481000D01*
X69648605Y-38481000D01*
X70461702Y-39294097D01*
X70705671Y-39222514D01*
X70826571Y-38967004D01*
X70895300Y-38692816D01*
X70909217Y-38410488D01*
X70867787Y-38130870D01*
X70772603Y-37864708D01*
X70705671Y-37739486D01*
X70461702Y-37667903D01*
X69648605Y-38481000D01*
X69289395Y-38481000D01*
X68476298Y-37667903D01*
X68232329Y-37739486D01*
X68111429Y-37994996D01*
X68042700Y-38269184D01*
X68028783Y-38551512D01*
X67078021Y-38551512D01*
X66802000Y-38275491D01*
X66802000Y-37488298D01*
X68655903Y-37488298D01*
X69469000Y-38301395D01*
X70282097Y-37488298D01*
X70210514Y-37244329D01*
X69955004Y-37123429D01*
X69680816Y-37054700D01*
X69398488Y-37040783D01*
X69118870Y-37082213D01*
X68852708Y-37177397D01*
X68727486Y-37244329D01*
X68655903Y-37488298D01*
X66802000Y-37488298D01*
X66802000Y-35052000D01*
X70993000Y-35052000D01*
X70993000Y-39878000D01*
X70993000Y-39878000D01*
G37*
X70993000Y-39878000D02*
X70827062Y-39878000D01*
X70799537Y-39826506D01*
X70720185Y-39729815D01*
X70623494Y-39650463D01*
X70513180Y-39591498D01*
X70393482Y-39555188D01*
X70269000Y-39542928D01*
X70261785Y-39542928D01*
X70282097Y-39473702D01*
X69469000Y-38660605D01*
X68655903Y-39473702D01*
X68676215Y-39542928D01*
X68669000Y-39542928D01*
X68544518Y-39555188D01*
X68424820Y-39591498D01*
X68314506Y-39650463D01*
X68238966Y-39712457D01*
X67078021Y-38551512D01*
X68028783Y-38551512D01*
X68070213Y-38831130D01*
X68165397Y-39097292D01*
X68232329Y-39222514D01*
X68476298Y-39294097D01*
X69289395Y-38481000D01*
X69648605Y-38481000D01*
X70461702Y-39294097D01*
X70705671Y-39222514D01*
X70826571Y-38967004D01*
X70895300Y-38692816D01*
X70909217Y-38410488D01*
X70867787Y-38130870D01*
X70772603Y-37864708D01*
X70705671Y-37739486D01*
X70461702Y-37667903D01*
X69648605Y-38481000D01*
X69289395Y-38481000D01*
X68476298Y-37667903D01*
X68232329Y-37739486D01*
X68111429Y-37994996D01*
X68042700Y-38269184D01*
X68028783Y-38551512D01*
X67078021Y-38551512D01*
X66802000Y-38275491D01*
X66802000Y-37488298D01*
X68655903Y-37488298D01*
X69469000Y-38301395D01*
X70282097Y-37488298D01*
X70210514Y-37244329D01*
X69955004Y-37123429D01*
X69680816Y-37054700D01*
X69398488Y-37040783D01*
X69118870Y-37082213D01*
X68852708Y-37177397D01*
X68727486Y-37244329D01*
X68655903Y-37488298D01*
X66802000Y-37488298D01*
X66802000Y-35052000D01*
X70993000Y-35052000D01*
X70993000Y-39878000D01*
G36*
X73533000Y-62738000D02*
G01*
X71247000Y-62738000D01*
X71247000Y-59817000D01*
X73533000Y-59817000D01*
X73533000Y-62738000D01*
X73533000Y-62738000D01*
G37*
X73533000Y-62738000D02*
X71247000Y-62738000D01*
X71247000Y-59817000D01*
X73533000Y-59817000D01*
X73533000Y-62738000D01*
G36*
X84328000Y-36559651D02*
G01*
X84310256Y-36547795D01*
X84121898Y-36469774D01*
X83921939Y-36430000D01*
X83718061Y-36430000D01*
X83518102Y-36469774D01*
X83329744Y-36547795D01*
X83160226Y-36661063D01*
X83016063Y-36805226D01*
X82902795Y-36974744D01*
X82824774Y-37163102D01*
X82785000Y-37363061D01*
X82785000Y-37566939D01*
X82824774Y-37766898D01*
X82902795Y-37955256D01*
X83016063Y-38124774D01*
X83160226Y-38268937D01*
X83329744Y-38382205D01*
X83518102Y-38460226D01*
X83718061Y-38500000D01*
X83921939Y-38500000D01*
X84121898Y-38460226D01*
X84310256Y-38382205D01*
X84328000Y-38370349D01*
X84328000Y-63229651D01*
X84310256Y-63217795D01*
X84121898Y-63139774D01*
X83921939Y-63100000D01*
X83718061Y-63100000D01*
X83518102Y-63139774D01*
X83329744Y-63217795D01*
X83160226Y-63331063D01*
X83016063Y-63475226D01*
X82902795Y-63644744D01*
X82824774Y-63833102D01*
X82785000Y-64033061D01*
X82785000Y-64236939D01*
X82824774Y-64436898D01*
X82902795Y-64625256D01*
X83016063Y-64794774D01*
X83160226Y-64938937D01*
X83329744Y-65052205D01*
X83518102Y-65130226D01*
X83718061Y-65170000D01*
X83921939Y-65170000D01*
X84121898Y-65130226D01*
X84310256Y-65052205D01*
X84328000Y-65040349D01*
X84328000Y-73533000D01*
X68072000Y-73533000D01*
X68072000Y-70350193D01*
X72940000Y-70350193D01*
X72940000Y-70701807D01*
X73008596Y-71046665D01*
X73143153Y-71371515D01*
X73338500Y-71663871D01*
X73587129Y-71912500D01*
X73879485Y-72107847D01*
X74204335Y-72242404D01*
X74549193Y-72311000D01*
X74900807Y-72311000D01*
X75245665Y-72242404D01*
X75570515Y-72107847D01*
X75862871Y-71912500D01*
X76111500Y-71663871D01*
X76306847Y-71371515D01*
X76441404Y-71046665D01*
X76472008Y-70892806D01*
X78365000Y-70892806D01*
X78365000Y-71259194D01*
X78436479Y-71618542D01*
X78576689Y-71957041D01*
X78780243Y-72261681D01*
X79039319Y-72520757D01*
X79343959Y-72724311D01*
X79682458Y-72864521D01*
X80041806Y-72936000D01*
X80408194Y-72936000D01*
X80767542Y-72864521D01*
X81106041Y-72724311D01*
X81410681Y-72520757D01*
X81669757Y-72261681D01*
X81873311Y-71957041D01*
X82013521Y-71618542D01*
X82085000Y-71259194D01*
X82085000Y-70892806D01*
X82013521Y-70533458D01*
X81873311Y-70194959D01*
X81669757Y-69890319D01*
X81410681Y-69631243D01*
X81106041Y-69427689D01*
X80767542Y-69287479D01*
X80408194Y-69216000D01*
X80041806Y-69216000D01*
X79682458Y-69287479D01*
X79343959Y-69427689D01*
X79039319Y-69631243D01*
X78780243Y-69890319D01*
X78576689Y-70194959D01*
X78436479Y-70533458D01*
X78365000Y-70892806D01*
X76472008Y-70892806D01*
X76510000Y-70701807D01*
X76510000Y-70350193D01*
X76441404Y-70005335D01*
X76306847Y-69680485D01*
X76111500Y-69388129D01*
X75862871Y-69139500D01*
X75570515Y-68944153D01*
X75245665Y-68809596D01*
X74900807Y-68741000D01*
X74549193Y-68741000D01*
X74204335Y-68809596D01*
X73879485Y-68944153D01*
X73587129Y-69139500D01*
X73338500Y-69388129D01*
X73143153Y-69680485D01*
X73008596Y-70005335D01*
X72940000Y-70350193D01*
X68072000Y-70350193D01*
X68072000Y-67421793D01*
X73608812Y-67421793D01*
X73731714Y-67709207D01*
X74059668Y-67872566D01*
X74413190Y-67968807D01*
X74778695Y-67994228D01*
X75142136Y-67947855D01*
X75489548Y-67831469D01*
X75718286Y-67709207D01*
X75841188Y-67421793D01*
X74725000Y-66305605D01*
X73608812Y-67421793D01*
X68072000Y-67421793D01*
X68072000Y-55600600D01*
X73685400Y-55600600D01*
X73685401Y-56478805D01*
X73685400Y-56478815D01*
X73685400Y-57057889D01*
X73618063Y-57125226D01*
X73504795Y-57294744D01*
X73426774Y-57483102D01*
X73387000Y-57683061D01*
X73387000Y-57886939D01*
X73426774Y-58086898D01*
X73504795Y-58275256D01*
X73618063Y-58444774D01*
X73685400Y-58512111D01*
X73685401Y-63407888D01*
X73618063Y-63475226D01*
X73504795Y-63644744D01*
X73426774Y-63833102D01*
X73387000Y-64033061D01*
X73387000Y-64128290D01*
X72968520Y-64546771D01*
X72880256Y-64487795D01*
X72691898Y-64409774D01*
X72491939Y-64370000D01*
X72288061Y-64370000D01*
X72088102Y-64409774D01*
X71899744Y-64487795D01*
X71730226Y-64601063D01*
X71586063Y-64745226D01*
X71472795Y-64914744D01*
X71394774Y-65103102D01*
X71355000Y-65303061D01*
X71355000Y-65506939D01*
X71394774Y-65706898D01*
X71472795Y-65895256D01*
X71586063Y-66064774D01*
X71730226Y-66208937D01*
X71899744Y-66322205D01*
X72088102Y-66400226D01*
X72288061Y-66440000D01*
X72491939Y-66440000D01*
X72691898Y-66400226D01*
X72875222Y-66324290D01*
X72903145Y-66543136D01*
X73019531Y-66890548D01*
X73141793Y-67119286D01*
X73429207Y-67242188D01*
X74545395Y-66126000D01*
X74904605Y-66126000D01*
X76020793Y-67242188D01*
X76308207Y-67119286D01*
X76471566Y-66791332D01*
X76567807Y-66437810D01*
X76593228Y-66072305D01*
X76546855Y-65708864D01*
X76440973Y-65392806D01*
X78365000Y-65392806D01*
X78365000Y-65759194D01*
X78436479Y-66118542D01*
X78576689Y-66457041D01*
X78780243Y-66761681D01*
X79039319Y-67020757D01*
X79343959Y-67224311D01*
X79682458Y-67364521D01*
X80041806Y-67436000D01*
X80408194Y-67436000D01*
X80767542Y-67364521D01*
X81106041Y-67224311D01*
X81410681Y-67020757D01*
X81669757Y-66761681D01*
X81873311Y-66457041D01*
X82013521Y-66118542D01*
X82085000Y-65759194D01*
X82085000Y-65392806D01*
X82013521Y-65033458D01*
X81873311Y-64694959D01*
X81669757Y-64390319D01*
X81410681Y-64131243D01*
X81106041Y-63927689D01*
X80767542Y-63787479D01*
X80408194Y-63716000D01*
X80041806Y-63716000D01*
X79682458Y-63787479D01*
X79343959Y-63927689D01*
X79039319Y-64131243D01*
X78780243Y-64390319D01*
X78576689Y-64694959D01*
X78436479Y-65033458D01*
X78365000Y-65392806D01*
X76440973Y-65392806D01*
X76430469Y-65361452D01*
X76308207Y-65132714D01*
X76020793Y-65009812D01*
X74904605Y-66126000D01*
X74545395Y-66126000D01*
X74531253Y-66111858D01*
X74710858Y-65932253D01*
X74725000Y-65946395D01*
X75841188Y-64830207D01*
X75718286Y-64542793D01*
X75425201Y-64396803D01*
X75457000Y-64236939D01*
X75457000Y-64033061D01*
X75417226Y-63833102D01*
X75339205Y-63644744D01*
X75225937Y-63475226D01*
X75158600Y-63407889D01*
X75158600Y-58512111D01*
X75225937Y-58444774D01*
X75339205Y-58275256D01*
X75417226Y-58086898D01*
X75457000Y-57886939D01*
X75457000Y-57683061D01*
X75417226Y-57483102D01*
X75339205Y-57294744D01*
X75225937Y-57125226D01*
X75158600Y-57057889D01*
X75158600Y-55281175D01*
X75162163Y-55244999D01*
X75158600Y-55208823D01*
X75158600Y-55208814D01*
X75147942Y-55100601D01*
X75105822Y-54961751D01*
X75037424Y-54833787D01*
X74945374Y-54721625D01*
X74917263Y-54698555D01*
X74587446Y-54368737D01*
X74564375Y-54340625D01*
X74452213Y-54248576D01*
X74324249Y-54180178D01*
X74185399Y-54138058D01*
X74077186Y-54127400D01*
X74077183Y-54127400D01*
X74041000Y-54123836D01*
X74004817Y-54127400D01*
X68072000Y-54127400D01*
X68072000Y-50863609D01*
X69765216Y-49170393D01*
X69754815Y-49276000D01*
X69783487Y-49567111D01*
X69868401Y-49847034D01*
X70006294Y-50105014D01*
X70191866Y-50331134D01*
X70417986Y-50516706D01*
X70472791Y-50546000D01*
X70417986Y-50575294D01*
X70191866Y-50760866D01*
X70006294Y-50986986D01*
X69868401Y-51244966D01*
X69783487Y-51524889D01*
X69754815Y-51816000D01*
X69783487Y-52107111D01*
X69868401Y-52387034D01*
X70006294Y-52645014D01*
X70191866Y-52871134D01*
X70417986Y-53056706D01*
X70675966Y-53194599D01*
X70955889Y-53279513D01*
X71174050Y-53301000D01*
X71319950Y-53301000D01*
X71538111Y-53279513D01*
X71818034Y-53194599D01*
X72076014Y-53056706D01*
X72302134Y-52871134D01*
X72450241Y-52690665D01*
X74130000Y-52690665D01*
X74130000Y-52973335D01*
X74185147Y-53250574D01*
X74293320Y-53511727D01*
X74450363Y-53746759D01*
X74650241Y-53946637D01*
X74885273Y-54103680D01*
X75146426Y-54211853D01*
X75423665Y-54267000D01*
X75706335Y-54267000D01*
X75983574Y-54211853D01*
X76244727Y-54103680D01*
X76479759Y-53946637D01*
X76679637Y-53746759D01*
X76836680Y-53511727D01*
X76944853Y-53250574D01*
X77000000Y-52973335D01*
X77000000Y-52690665D01*
X78448000Y-52690665D01*
X78448000Y-52973335D01*
X78503147Y-53250574D01*
X78611320Y-53511727D01*
X78768363Y-53746759D01*
X78968241Y-53946637D01*
X79203273Y-54103680D01*
X79464426Y-54211853D01*
X79741665Y-54267000D01*
X80024335Y-54267000D01*
X80301574Y-54211853D01*
X80562727Y-54103680D01*
X80797759Y-53946637D01*
X80997637Y-53746759D01*
X81154680Y-53511727D01*
X81262853Y-53250574D01*
X81318000Y-52973335D01*
X81318000Y-52690665D01*
X81262853Y-52413426D01*
X81154680Y-52152273D01*
X80997637Y-51917241D01*
X80797759Y-51717363D01*
X80562727Y-51560320D01*
X80301574Y-51452147D01*
X80024335Y-51397000D01*
X79741665Y-51397000D01*
X79464426Y-51452147D01*
X79203273Y-51560320D01*
X78968241Y-51717363D01*
X78768363Y-51917241D01*
X78611320Y-52152273D01*
X78503147Y-52413426D01*
X78448000Y-52690665D01*
X77000000Y-52690665D01*
X76944853Y-52413426D01*
X76836680Y-52152273D01*
X76679637Y-51917241D01*
X76479759Y-51717363D01*
X76244727Y-51560320D01*
X75983574Y-51452147D01*
X75706335Y-51397000D01*
X75423665Y-51397000D01*
X75146426Y-51452147D01*
X74885273Y-51560320D01*
X74650241Y-51717363D01*
X74450363Y-51917241D01*
X74293320Y-52152273D01*
X74185147Y-52413426D01*
X74130000Y-52690665D01*
X72450241Y-52690665D01*
X72487706Y-52645014D01*
X72625599Y-52387034D01*
X72710513Y-52107111D01*
X72739185Y-51816000D01*
X72710513Y-51524889D01*
X72625599Y-51244966D01*
X72487706Y-50986986D01*
X72302134Y-50760866D01*
X72076014Y-50575294D01*
X72021209Y-50546000D01*
X72076014Y-50516706D01*
X72302134Y-50331134D01*
X72487706Y-50105014D01*
X72625599Y-49847034D01*
X72710513Y-49567111D01*
X72739185Y-49276000D01*
X72710513Y-48984889D01*
X72661921Y-48824702D01*
X74751903Y-48824702D01*
X74823486Y-49068671D01*
X75078996Y-49189571D01*
X75353184Y-49258300D01*
X75635512Y-49272217D01*
X75915130Y-49230787D01*
X76181292Y-49135603D01*
X76306514Y-49068671D01*
X76378097Y-48824702D01*
X79069903Y-48824702D01*
X79141486Y-49068671D01*
X79396996Y-49189571D01*
X79671184Y-49258300D01*
X79953512Y-49272217D01*
X80233130Y-49230787D01*
X80499292Y-49135603D01*
X80624514Y-49068671D01*
X80696097Y-48824702D01*
X79883000Y-48011605D01*
X79069903Y-48824702D01*
X76378097Y-48824702D01*
X75565000Y-48011605D01*
X74751903Y-48824702D01*
X72661921Y-48824702D01*
X72625599Y-48704966D01*
X72487706Y-48446986D01*
X72302134Y-48220866D01*
X72272313Y-48196393D01*
X72341180Y-48175502D01*
X72451494Y-48116537D01*
X72548185Y-48037185D01*
X72627537Y-47940494D01*
X72647839Y-47902512D01*
X74124783Y-47902512D01*
X74166213Y-48182130D01*
X74261397Y-48448292D01*
X74328329Y-48573514D01*
X74572298Y-48645097D01*
X75385395Y-47832000D01*
X75744605Y-47832000D01*
X76557702Y-48645097D01*
X76801671Y-48573514D01*
X76922571Y-48318004D01*
X76991300Y-48043816D01*
X76998265Y-47902512D01*
X78442783Y-47902512D01*
X78484213Y-48182130D01*
X78579397Y-48448292D01*
X78646329Y-48573514D01*
X78890298Y-48645097D01*
X79703395Y-47832000D01*
X80062605Y-47832000D01*
X80875702Y-48645097D01*
X81119671Y-48573514D01*
X81240571Y-48318004D01*
X81309300Y-48043816D01*
X81323217Y-47761488D01*
X81281787Y-47481870D01*
X81186603Y-47215708D01*
X81119671Y-47090486D01*
X80875702Y-47018903D01*
X80062605Y-47832000D01*
X79703395Y-47832000D01*
X78890298Y-47018903D01*
X78646329Y-47090486D01*
X78525429Y-47345996D01*
X78456700Y-47620184D01*
X78442783Y-47902512D01*
X76998265Y-47902512D01*
X77005217Y-47761488D01*
X76963787Y-47481870D01*
X76868603Y-47215708D01*
X76801671Y-47090486D01*
X76557702Y-47018903D01*
X75744605Y-47832000D01*
X75385395Y-47832000D01*
X74572298Y-47018903D01*
X74328329Y-47090486D01*
X74207429Y-47345996D01*
X74138700Y-47620184D01*
X74124783Y-47902512D01*
X72647839Y-47902512D01*
X72686502Y-47830180D01*
X72722812Y-47710482D01*
X72735072Y-47586000D01*
X72735072Y-46839298D01*
X74751903Y-46839298D01*
X75565000Y-47652395D01*
X76378097Y-46839298D01*
X79069903Y-46839298D01*
X79883000Y-47652395D01*
X80696097Y-46839298D01*
X80624514Y-46595329D01*
X80369004Y-46474429D01*
X80094816Y-46405700D01*
X79812488Y-46391783D01*
X79532870Y-46433213D01*
X79266708Y-46528397D01*
X79141486Y-46595329D01*
X79069903Y-46839298D01*
X76378097Y-46839298D01*
X76306514Y-46595329D01*
X76051004Y-46474429D01*
X75776816Y-46405700D01*
X75494488Y-46391783D01*
X75214870Y-46433213D01*
X74948708Y-46528397D01*
X74823486Y-46595329D01*
X74751903Y-46839298D01*
X72735072Y-46839298D01*
X72735072Y-45886000D01*
X72722812Y-45761518D01*
X72686502Y-45641820D01*
X72627537Y-45531506D01*
X72548185Y-45434815D01*
X72451494Y-45355463D01*
X72341180Y-45296498D01*
X72221482Y-45260188D01*
X72097000Y-45247928D01*
X70397000Y-45247928D01*
X70272518Y-45260188D01*
X70152820Y-45296498D01*
X70042506Y-45355463D01*
X69945815Y-45434815D01*
X69866463Y-45531506D01*
X69807498Y-45641820D01*
X69771188Y-45761518D01*
X69758928Y-45886000D01*
X69758928Y-46078755D01*
X69680687Y-46120576D01*
X69568525Y-46212625D01*
X69476476Y-46324787D01*
X69408078Y-46452751D01*
X69365958Y-46591601D01*
X69351736Y-46736000D01*
X69355301Y-46772196D01*
X69355300Y-47496890D01*
X68072000Y-48780190D01*
X68072000Y-43680193D01*
X72940000Y-43680193D01*
X72940000Y-44031807D01*
X73008596Y-44376665D01*
X73143153Y-44701515D01*
X73338500Y-44993871D01*
X73587129Y-45242500D01*
X73879485Y-45437847D01*
X74204335Y-45572404D01*
X74549193Y-45641000D01*
X74900807Y-45641000D01*
X75245665Y-45572404D01*
X75570515Y-45437847D01*
X75862871Y-45242500D01*
X76111500Y-44993871D01*
X76306847Y-44701515D01*
X76441404Y-44376665D01*
X76472008Y-44222806D01*
X78365000Y-44222806D01*
X78365000Y-44589194D01*
X78436479Y-44948542D01*
X78576689Y-45287041D01*
X78780243Y-45591681D01*
X79039319Y-45850757D01*
X79343959Y-46054311D01*
X79682458Y-46194521D01*
X80041806Y-46266000D01*
X80408194Y-46266000D01*
X80767542Y-46194521D01*
X81106041Y-46054311D01*
X81410681Y-45850757D01*
X81669757Y-45591681D01*
X81873311Y-45287041D01*
X82013521Y-44948542D01*
X82085000Y-44589194D01*
X82085000Y-44222806D01*
X82013521Y-43863458D01*
X81873311Y-43524959D01*
X81669757Y-43220319D01*
X81410681Y-42961243D01*
X81106041Y-42757689D01*
X80767542Y-42617479D01*
X80408194Y-42546000D01*
X80041806Y-42546000D01*
X79682458Y-42617479D01*
X79343959Y-42757689D01*
X79039319Y-42961243D01*
X78780243Y-43220319D01*
X78576689Y-43524959D01*
X78436479Y-43863458D01*
X78365000Y-44222806D01*
X76472008Y-44222806D01*
X76510000Y-44031807D01*
X76510000Y-43680193D01*
X76441404Y-43335335D01*
X76306847Y-43010485D01*
X76111500Y-42718129D01*
X75862871Y-42469500D01*
X75570515Y-42274153D01*
X75245665Y-42139596D01*
X74900807Y-42071000D01*
X74549193Y-42071000D01*
X74204335Y-42139596D01*
X73879485Y-42274153D01*
X73587129Y-42469500D01*
X73338500Y-42718129D01*
X73143153Y-43010485D01*
X73008596Y-43335335D01*
X72940000Y-43680193D01*
X68072000Y-43680193D01*
X68072000Y-42000462D01*
X68079498Y-42025180D01*
X68138463Y-42135494D01*
X68217815Y-42232185D01*
X68314506Y-42311537D01*
X68424820Y-42370502D01*
X68544518Y-42406812D01*
X68669000Y-42419072D01*
X70269000Y-42419072D01*
X70393482Y-42406812D01*
X70513180Y-42370502D01*
X70623494Y-42311537D01*
X70720185Y-42232185D01*
X70799537Y-42135494D01*
X70858502Y-42025180D01*
X70894812Y-41905482D01*
X70907072Y-41781000D01*
X70907072Y-40751793D01*
X73608812Y-40751793D01*
X73731714Y-41039207D01*
X74059668Y-41202566D01*
X74413190Y-41298807D01*
X74778695Y-41324228D01*
X75142136Y-41277855D01*
X75489548Y-41161469D01*
X75718286Y-41039207D01*
X75841188Y-40751793D01*
X74725000Y-39635605D01*
X73608812Y-40751793D01*
X70907072Y-40751793D01*
X70907072Y-40181000D01*
X70894812Y-40056518D01*
X70858502Y-39936820D01*
X70799537Y-39826506D01*
X70720185Y-39729815D01*
X70623494Y-39650463D01*
X70513180Y-39591498D01*
X70393482Y-39555188D01*
X70269000Y-39542928D01*
X70261785Y-39542928D01*
X70271536Y-39509695D01*
X72856772Y-39509695D01*
X72903145Y-39873136D01*
X73019531Y-40220548D01*
X73141793Y-40449286D01*
X73429207Y-40572188D01*
X74545395Y-39456000D01*
X74904605Y-39456000D01*
X76020793Y-40572188D01*
X76308207Y-40449286D01*
X76471566Y-40121332D01*
X76567807Y-39767810D01*
X76593228Y-39402305D01*
X76546855Y-39038864D01*
X76440973Y-38722806D01*
X78365000Y-38722806D01*
X78365000Y-39089194D01*
X78436479Y-39448542D01*
X78576689Y-39787041D01*
X78780243Y-40091681D01*
X79039319Y-40350757D01*
X79343959Y-40554311D01*
X79682458Y-40694521D01*
X80041806Y-40766000D01*
X80408194Y-40766000D01*
X80767542Y-40694521D01*
X81106041Y-40554311D01*
X81410681Y-40350757D01*
X81669757Y-40091681D01*
X81873311Y-39787041D01*
X82013521Y-39448542D01*
X82085000Y-39089194D01*
X82085000Y-38722806D01*
X82013521Y-38363458D01*
X81873311Y-38024959D01*
X81669757Y-37720319D01*
X81410681Y-37461243D01*
X81106041Y-37257689D01*
X80767542Y-37117479D01*
X80408194Y-37046000D01*
X80041806Y-37046000D01*
X79682458Y-37117479D01*
X79343959Y-37257689D01*
X79039319Y-37461243D01*
X78780243Y-37720319D01*
X78576689Y-38024959D01*
X78436479Y-38363458D01*
X78365000Y-38722806D01*
X76440973Y-38722806D01*
X76430469Y-38691452D01*
X76308207Y-38462714D01*
X76020793Y-38339812D01*
X74904605Y-39456000D01*
X74545395Y-39456000D01*
X73429207Y-38339812D01*
X73141793Y-38462714D01*
X72978434Y-38790668D01*
X72882193Y-39144190D01*
X72856772Y-39509695D01*
X70271536Y-39509695D01*
X70282097Y-39473702D01*
X69469000Y-38660605D01*
X68655903Y-39473702D01*
X68676215Y-39542928D01*
X68669000Y-39542928D01*
X68544518Y-39555188D01*
X68424820Y-39591498D01*
X68314506Y-39650463D01*
X68238966Y-39712457D01*
X68072000Y-39545491D01*
X68072000Y-38836127D01*
X68165397Y-39097292D01*
X68232329Y-39222514D01*
X68476298Y-39294097D01*
X69289395Y-38481000D01*
X69648605Y-38481000D01*
X70461702Y-39294097D01*
X70705671Y-39222514D01*
X70826571Y-38967004D01*
X70895300Y-38692816D01*
X70909217Y-38410488D01*
X70872134Y-38160207D01*
X73608812Y-38160207D01*
X74725000Y-39276395D01*
X75841188Y-38160207D01*
X75718286Y-37872793D01*
X75390332Y-37709434D01*
X75036810Y-37613193D01*
X74671305Y-37587772D01*
X74307864Y-37634145D01*
X73960452Y-37750531D01*
X73731714Y-37872793D01*
X73608812Y-38160207D01*
X70872134Y-38160207D01*
X70867787Y-38130870D01*
X70772603Y-37864708D01*
X70705671Y-37739486D01*
X70461702Y-37667903D01*
X69648605Y-38481000D01*
X69289395Y-38481000D01*
X68476298Y-37667903D01*
X68232329Y-37739486D01*
X68111429Y-37994996D01*
X68072000Y-38152294D01*
X68072000Y-37488298D01*
X68655903Y-37488298D01*
X69469000Y-38301395D01*
X70282097Y-37488298D01*
X70210514Y-37244329D01*
X69955004Y-37123429D01*
X69680816Y-37054700D01*
X69398488Y-37040783D01*
X69118870Y-37082213D01*
X68852708Y-37177397D01*
X68727486Y-37244329D01*
X68655903Y-37488298D01*
X68072000Y-37488298D01*
X68072000Y-36322000D01*
X84328000Y-36322000D01*
X84328000Y-36559651D01*
X84328000Y-36559651D01*
G37*
X84328000Y-36559651D02*
X84310256Y-36547795D01*
X84121898Y-36469774D01*
X83921939Y-36430000D01*
X83718061Y-36430000D01*
X83518102Y-36469774D01*
X83329744Y-36547795D01*
X83160226Y-36661063D01*
X83016063Y-36805226D01*
X82902795Y-36974744D01*
X82824774Y-37163102D01*
X82785000Y-37363061D01*
X82785000Y-37566939D01*
X82824774Y-37766898D01*
X82902795Y-37955256D01*
X83016063Y-38124774D01*
X83160226Y-38268937D01*
X83329744Y-38382205D01*
X83518102Y-38460226D01*
X83718061Y-38500000D01*
X83921939Y-38500000D01*
X84121898Y-38460226D01*
X84310256Y-38382205D01*
X84328000Y-38370349D01*
X84328000Y-63229651D01*
X84310256Y-63217795D01*
X84121898Y-63139774D01*
X83921939Y-63100000D01*
X83718061Y-63100000D01*
X83518102Y-63139774D01*
X83329744Y-63217795D01*
X83160226Y-63331063D01*
X83016063Y-63475226D01*
X82902795Y-63644744D01*
X82824774Y-63833102D01*
X82785000Y-64033061D01*
X82785000Y-64236939D01*
X82824774Y-64436898D01*
X82902795Y-64625256D01*
X83016063Y-64794774D01*
X83160226Y-64938937D01*
X83329744Y-65052205D01*
X83518102Y-65130226D01*
X83718061Y-65170000D01*
X83921939Y-65170000D01*
X84121898Y-65130226D01*
X84310256Y-65052205D01*
X84328000Y-65040349D01*
X84328000Y-73533000D01*
X68072000Y-73533000D01*
X68072000Y-70350193D01*
X72940000Y-70350193D01*
X72940000Y-70701807D01*
X73008596Y-71046665D01*
X73143153Y-71371515D01*
X73338500Y-71663871D01*
X73587129Y-71912500D01*
X73879485Y-72107847D01*
X74204335Y-72242404D01*
X74549193Y-72311000D01*
X74900807Y-72311000D01*
X75245665Y-72242404D01*
X75570515Y-72107847D01*
X75862871Y-71912500D01*
X76111500Y-71663871D01*
X76306847Y-71371515D01*
X76441404Y-71046665D01*
X76472008Y-70892806D01*
X78365000Y-70892806D01*
X78365000Y-71259194D01*
X78436479Y-71618542D01*
X78576689Y-71957041D01*
X78780243Y-72261681D01*
X79039319Y-72520757D01*
X79343959Y-72724311D01*
X79682458Y-72864521D01*
X80041806Y-72936000D01*
X80408194Y-72936000D01*
X80767542Y-72864521D01*
X81106041Y-72724311D01*
X81410681Y-72520757D01*
X81669757Y-72261681D01*
X81873311Y-71957041D01*
X82013521Y-71618542D01*
X82085000Y-71259194D01*
X82085000Y-70892806D01*
X82013521Y-70533458D01*
X81873311Y-70194959D01*
X81669757Y-69890319D01*
X81410681Y-69631243D01*
X81106041Y-69427689D01*
X80767542Y-69287479D01*
X80408194Y-69216000D01*
X80041806Y-69216000D01*
X79682458Y-69287479D01*
X79343959Y-69427689D01*
X79039319Y-69631243D01*
X78780243Y-69890319D01*
X78576689Y-70194959D01*
X78436479Y-70533458D01*
X78365000Y-70892806D01*
X76472008Y-70892806D01*
X76510000Y-70701807D01*
X76510000Y-70350193D01*
X76441404Y-70005335D01*
X76306847Y-69680485D01*
X76111500Y-69388129D01*
X75862871Y-69139500D01*
X75570515Y-68944153D01*
X75245665Y-68809596D01*
X74900807Y-68741000D01*
X74549193Y-68741000D01*
X74204335Y-68809596D01*
X73879485Y-68944153D01*
X73587129Y-69139500D01*
X73338500Y-69388129D01*
X73143153Y-69680485D01*
X73008596Y-70005335D01*
X72940000Y-70350193D01*
X68072000Y-70350193D01*
X68072000Y-67421793D01*
X73608812Y-67421793D01*
X73731714Y-67709207D01*
X74059668Y-67872566D01*
X74413190Y-67968807D01*
X74778695Y-67994228D01*
X75142136Y-67947855D01*
X75489548Y-67831469D01*
X75718286Y-67709207D01*
X75841188Y-67421793D01*
X74725000Y-66305605D01*
X73608812Y-67421793D01*
X68072000Y-67421793D01*
X68072000Y-55600600D01*
X73685400Y-55600600D01*
X73685401Y-56478805D01*
X73685400Y-56478815D01*
X73685400Y-57057889D01*
X73618063Y-57125226D01*
X73504795Y-57294744D01*
X73426774Y-57483102D01*
X73387000Y-57683061D01*
X73387000Y-57886939D01*
X73426774Y-58086898D01*
X73504795Y-58275256D01*
X73618063Y-58444774D01*
X73685400Y-58512111D01*
X73685401Y-63407888D01*
X73618063Y-63475226D01*
X73504795Y-63644744D01*
X73426774Y-63833102D01*
X73387000Y-64033061D01*
X73387000Y-64128290D01*
X72968520Y-64546771D01*
X72880256Y-64487795D01*
X72691898Y-64409774D01*
X72491939Y-64370000D01*
X72288061Y-64370000D01*
X72088102Y-64409774D01*
X71899744Y-64487795D01*
X71730226Y-64601063D01*
X71586063Y-64745226D01*
X71472795Y-64914744D01*
X71394774Y-65103102D01*
X71355000Y-65303061D01*
X71355000Y-65506939D01*
X71394774Y-65706898D01*
X71472795Y-65895256D01*
X71586063Y-66064774D01*
X71730226Y-66208937D01*
X71899744Y-66322205D01*
X72088102Y-66400226D01*
X72288061Y-66440000D01*
X72491939Y-66440000D01*
X72691898Y-66400226D01*
X72875222Y-66324290D01*
X72903145Y-66543136D01*
X73019531Y-66890548D01*
X73141793Y-67119286D01*
X73429207Y-67242188D01*
X74545395Y-66126000D01*
X74904605Y-66126000D01*
X76020793Y-67242188D01*
X76308207Y-67119286D01*
X76471566Y-66791332D01*
X76567807Y-66437810D01*
X76593228Y-66072305D01*
X76546855Y-65708864D01*
X76440973Y-65392806D01*
X78365000Y-65392806D01*
X78365000Y-65759194D01*
X78436479Y-66118542D01*
X78576689Y-66457041D01*
X78780243Y-66761681D01*
X79039319Y-67020757D01*
X79343959Y-67224311D01*
X79682458Y-67364521D01*
X80041806Y-67436000D01*
X80408194Y-67436000D01*
X80767542Y-67364521D01*
X81106041Y-67224311D01*
X81410681Y-67020757D01*
X81669757Y-66761681D01*
X81873311Y-66457041D01*
X82013521Y-66118542D01*
X82085000Y-65759194D01*
X82085000Y-65392806D01*
X82013521Y-65033458D01*
X81873311Y-64694959D01*
X81669757Y-64390319D01*
X81410681Y-64131243D01*
X81106041Y-63927689D01*
X80767542Y-63787479D01*
X80408194Y-63716000D01*
X80041806Y-63716000D01*
X79682458Y-63787479D01*
X79343959Y-63927689D01*
X79039319Y-64131243D01*
X78780243Y-64390319D01*
X78576689Y-64694959D01*
X78436479Y-65033458D01*
X78365000Y-65392806D01*
X76440973Y-65392806D01*
X76430469Y-65361452D01*
X76308207Y-65132714D01*
X76020793Y-65009812D01*
X74904605Y-66126000D01*
X74545395Y-66126000D01*
X74531253Y-66111858D01*
X74710858Y-65932253D01*
X74725000Y-65946395D01*
X75841188Y-64830207D01*
X75718286Y-64542793D01*
X75425201Y-64396803D01*
X75457000Y-64236939D01*
X75457000Y-64033061D01*
X75417226Y-63833102D01*
X75339205Y-63644744D01*
X75225937Y-63475226D01*
X75158600Y-63407889D01*
X75158600Y-58512111D01*
X75225937Y-58444774D01*
X75339205Y-58275256D01*
X75417226Y-58086898D01*
X75457000Y-57886939D01*
X75457000Y-57683061D01*
X75417226Y-57483102D01*
X75339205Y-57294744D01*
X75225937Y-57125226D01*
X75158600Y-57057889D01*
X75158600Y-55281175D01*
X75162163Y-55244999D01*
X75158600Y-55208823D01*
X75158600Y-55208814D01*
X75147942Y-55100601D01*
X75105822Y-54961751D01*
X75037424Y-54833787D01*
X74945374Y-54721625D01*
X74917263Y-54698555D01*
X74587446Y-54368737D01*
X74564375Y-54340625D01*
X74452213Y-54248576D01*
X74324249Y-54180178D01*
X74185399Y-54138058D01*
X74077186Y-54127400D01*
X74077183Y-54127400D01*
X74041000Y-54123836D01*
X74004817Y-54127400D01*
X68072000Y-54127400D01*
X68072000Y-50863609D01*
X69765216Y-49170393D01*
X69754815Y-49276000D01*
X69783487Y-49567111D01*
X69868401Y-49847034D01*
X70006294Y-50105014D01*
X70191866Y-50331134D01*
X70417986Y-50516706D01*
X70472791Y-50546000D01*
X70417986Y-50575294D01*
X70191866Y-50760866D01*
X70006294Y-50986986D01*
X69868401Y-51244966D01*
X69783487Y-51524889D01*
X69754815Y-51816000D01*
X69783487Y-52107111D01*
X69868401Y-52387034D01*
X70006294Y-52645014D01*
X70191866Y-52871134D01*
X70417986Y-53056706D01*
X70675966Y-53194599D01*
X70955889Y-53279513D01*
X71174050Y-53301000D01*
X71319950Y-53301000D01*
X71538111Y-53279513D01*
X71818034Y-53194599D01*
X72076014Y-53056706D01*
X72302134Y-52871134D01*
X72450241Y-52690665D01*
X74130000Y-52690665D01*
X74130000Y-52973335D01*
X74185147Y-53250574D01*
X74293320Y-53511727D01*
X74450363Y-53746759D01*
X74650241Y-53946637D01*
X74885273Y-54103680D01*
X75146426Y-54211853D01*
X75423665Y-54267000D01*
X75706335Y-54267000D01*
X75983574Y-54211853D01*
X76244727Y-54103680D01*
X76479759Y-53946637D01*
X76679637Y-53746759D01*
X76836680Y-53511727D01*
X76944853Y-53250574D01*
X77000000Y-52973335D01*
X77000000Y-52690665D01*
X78448000Y-52690665D01*
X78448000Y-52973335D01*
X78503147Y-53250574D01*
X78611320Y-53511727D01*
X78768363Y-53746759D01*
X78968241Y-53946637D01*
X79203273Y-54103680D01*
X79464426Y-54211853D01*
X79741665Y-54267000D01*
X80024335Y-54267000D01*
X80301574Y-54211853D01*
X80562727Y-54103680D01*
X80797759Y-53946637D01*
X80997637Y-53746759D01*
X81154680Y-53511727D01*
X81262853Y-53250574D01*
X81318000Y-52973335D01*
X81318000Y-52690665D01*
X81262853Y-52413426D01*
X81154680Y-52152273D01*
X80997637Y-51917241D01*
X80797759Y-51717363D01*
X80562727Y-51560320D01*
X80301574Y-51452147D01*
X80024335Y-51397000D01*
X79741665Y-51397000D01*
X79464426Y-51452147D01*
X79203273Y-51560320D01*
X78968241Y-51717363D01*
X78768363Y-51917241D01*
X78611320Y-52152273D01*
X78503147Y-52413426D01*
X78448000Y-52690665D01*
X77000000Y-52690665D01*
X76944853Y-52413426D01*
X76836680Y-52152273D01*
X76679637Y-51917241D01*
X76479759Y-51717363D01*
X76244727Y-51560320D01*
X75983574Y-51452147D01*
X75706335Y-51397000D01*
X75423665Y-51397000D01*
X75146426Y-51452147D01*
X74885273Y-51560320D01*
X74650241Y-51717363D01*
X74450363Y-51917241D01*
X74293320Y-52152273D01*
X74185147Y-52413426D01*
X74130000Y-52690665D01*
X72450241Y-52690665D01*
X72487706Y-52645014D01*
X72625599Y-52387034D01*
X72710513Y-52107111D01*
X72739185Y-51816000D01*
X72710513Y-51524889D01*
X72625599Y-51244966D01*
X72487706Y-50986986D01*
X72302134Y-50760866D01*
X72076014Y-50575294D01*
X72021209Y-50546000D01*
X72076014Y-50516706D01*
X72302134Y-50331134D01*
X72487706Y-50105014D01*
X72625599Y-49847034D01*
X72710513Y-49567111D01*
X72739185Y-49276000D01*
X72710513Y-48984889D01*
X72661921Y-48824702D01*
X74751903Y-48824702D01*
X74823486Y-49068671D01*
X75078996Y-49189571D01*
X75353184Y-49258300D01*
X75635512Y-49272217D01*
X75915130Y-49230787D01*
X76181292Y-49135603D01*
X76306514Y-49068671D01*
X76378097Y-48824702D01*
X79069903Y-48824702D01*
X79141486Y-49068671D01*
X79396996Y-49189571D01*
X79671184Y-49258300D01*
X79953512Y-49272217D01*
X80233130Y-49230787D01*
X80499292Y-49135603D01*
X80624514Y-49068671D01*
X80696097Y-48824702D01*
X79883000Y-48011605D01*
X79069903Y-48824702D01*
X76378097Y-48824702D01*
X75565000Y-48011605D01*
X74751903Y-48824702D01*
X72661921Y-48824702D01*
X72625599Y-48704966D01*
X72487706Y-48446986D01*
X72302134Y-48220866D01*
X72272313Y-48196393D01*
X72341180Y-48175502D01*
X72451494Y-48116537D01*
X72548185Y-48037185D01*
X72627537Y-47940494D01*
X72647839Y-47902512D01*
X74124783Y-47902512D01*
X74166213Y-48182130D01*
X74261397Y-48448292D01*
X74328329Y-48573514D01*
X74572298Y-48645097D01*
X75385395Y-47832000D01*
X75744605Y-47832000D01*
X76557702Y-48645097D01*
X76801671Y-48573514D01*
X76922571Y-48318004D01*
X76991300Y-48043816D01*
X76998265Y-47902512D01*
X78442783Y-47902512D01*
X78484213Y-48182130D01*
X78579397Y-48448292D01*
X78646329Y-48573514D01*
X78890298Y-48645097D01*
X79703395Y-47832000D01*
X80062605Y-47832000D01*
X80875702Y-48645097D01*
X81119671Y-48573514D01*
X81240571Y-48318004D01*
X81309300Y-48043816D01*
X81323217Y-47761488D01*
X81281787Y-47481870D01*
X81186603Y-47215708D01*
X81119671Y-47090486D01*
X80875702Y-47018903D01*
X80062605Y-47832000D01*
X79703395Y-47832000D01*
X78890298Y-47018903D01*
X78646329Y-47090486D01*
X78525429Y-47345996D01*
X78456700Y-47620184D01*
X78442783Y-47902512D01*
X76998265Y-47902512D01*
X77005217Y-47761488D01*
X76963787Y-47481870D01*
X76868603Y-47215708D01*
X76801671Y-47090486D01*
X76557702Y-47018903D01*
X75744605Y-47832000D01*
X75385395Y-47832000D01*
X74572298Y-47018903D01*
X74328329Y-47090486D01*
X74207429Y-47345996D01*
X74138700Y-47620184D01*
X74124783Y-47902512D01*
X72647839Y-47902512D01*
X72686502Y-47830180D01*
X72722812Y-47710482D01*
X72735072Y-47586000D01*
X72735072Y-46839298D01*
X74751903Y-46839298D01*
X75565000Y-47652395D01*
X76378097Y-46839298D01*
X79069903Y-46839298D01*
X79883000Y-47652395D01*
X80696097Y-46839298D01*
X80624514Y-46595329D01*
X80369004Y-46474429D01*
X80094816Y-46405700D01*
X79812488Y-46391783D01*
X79532870Y-46433213D01*
X79266708Y-46528397D01*
X79141486Y-46595329D01*
X79069903Y-46839298D01*
X76378097Y-46839298D01*
X76306514Y-46595329D01*
X76051004Y-46474429D01*
X75776816Y-46405700D01*
X75494488Y-46391783D01*
X75214870Y-46433213D01*
X74948708Y-46528397D01*
X74823486Y-46595329D01*
X74751903Y-46839298D01*
X72735072Y-46839298D01*
X72735072Y-45886000D01*
X72722812Y-45761518D01*
X72686502Y-45641820D01*
X72627537Y-45531506D01*
X72548185Y-45434815D01*
X72451494Y-45355463D01*
X72341180Y-45296498D01*
X72221482Y-45260188D01*
X72097000Y-45247928D01*
X70397000Y-45247928D01*
X70272518Y-45260188D01*
X70152820Y-45296498D01*
X70042506Y-45355463D01*
X69945815Y-45434815D01*
X69866463Y-45531506D01*
X69807498Y-45641820D01*
X69771188Y-45761518D01*
X69758928Y-45886000D01*
X69758928Y-46078755D01*
X69680687Y-46120576D01*
X69568525Y-46212625D01*
X69476476Y-46324787D01*
X69408078Y-46452751D01*
X69365958Y-46591601D01*
X69351736Y-46736000D01*
X69355301Y-46772196D01*
X69355300Y-47496890D01*
X68072000Y-48780190D01*
X68072000Y-43680193D01*
X72940000Y-43680193D01*
X72940000Y-44031807D01*
X73008596Y-44376665D01*
X73143153Y-44701515D01*
X73338500Y-44993871D01*
X73587129Y-45242500D01*
X73879485Y-45437847D01*
X74204335Y-45572404D01*
X74549193Y-45641000D01*
X74900807Y-45641000D01*
X75245665Y-45572404D01*
X75570515Y-45437847D01*
X75862871Y-45242500D01*
X76111500Y-44993871D01*
X76306847Y-44701515D01*
X76441404Y-44376665D01*
X76472008Y-44222806D01*
X78365000Y-44222806D01*
X78365000Y-44589194D01*
X78436479Y-44948542D01*
X78576689Y-45287041D01*
X78780243Y-45591681D01*
X79039319Y-45850757D01*
X79343959Y-46054311D01*
X79682458Y-46194521D01*
X80041806Y-46266000D01*
X80408194Y-46266000D01*
X80767542Y-46194521D01*
X81106041Y-46054311D01*
X81410681Y-45850757D01*
X81669757Y-45591681D01*
X81873311Y-45287041D01*
X82013521Y-44948542D01*
X82085000Y-44589194D01*
X82085000Y-44222806D01*
X82013521Y-43863458D01*
X81873311Y-43524959D01*
X81669757Y-43220319D01*
X81410681Y-42961243D01*
X81106041Y-42757689D01*
X80767542Y-42617479D01*
X80408194Y-42546000D01*
X80041806Y-42546000D01*
X79682458Y-42617479D01*
X79343959Y-42757689D01*
X79039319Y-42961243D01*
X78780243Y-43220319D01*
X78576689Y-43524959D01*
X78436479Y-43863458D01*
X78365000Y-44222806D01*
X76472008Y-44222806D01*
X76510000Y-44031807D01*
X76510000Y-43680193D01*
X76441404Y-43335335D01*
X76306847Y-43010485D01*
X76111500Y-42718129D01*
X75862871Y-42469500D01*
X75570515Y-42274153D01*
X75245665Y-42139596D01*
X74900807Y-42071000D01*
X74549193Y-42071000D01*
X74204335Y-42139596D01*
X73879485Y-42274153D01*
X73587129Y-42469500D01*
X73338500Y-42718129D01*
X73143153Y-43010485D01*
X73008596Y-43335335D01*
X72940000Y-43680193D01*
X68072000Y-43680193D01*
X68072000Y-42000462D01*
X68079498Y-42025180D01*
X68138463Y-42135494D01*
X68217815Y-42232185D01*
X68314506Y-42311537D01*
X68424820Y-42370502D01*
X68544518Y-42406812D01*
X68669000Y-42419072D01*
X70269000Y-42419072D01*
X70393482Y-42406812D01*
X70513180Y-42370502D01*
X70623494Y-42311537D01*
X70720185Y-42232185D01*
X70799537Y-42135494D01*
X70858502Y-42025180D01*
X70894812Y-41905482D01*
X70907072Y-41781000D01*
X70907072Y-40751793D01*
X73608812Y-40751793D01*
X73731714Y-41039207D01*
X74059668Y-41202566D01*
X74413190Y-41298807D01*
X74778695Y-41324228D01*
X75142136Y-41277855D01*
X75489548Y-41161469D01*
X75718286Y-41039207D01*
X75841188Y-40751793D01*
X74725000Y-39635605D01*
X73608812Y-40751793D01*
X70907072Y-40751793D01*
X70907072Y-40181000D01*
X70894812Y-40056518D01*
X70858502Y-39936820D01*
X70799537Y-39826506D01*
X70720185Y-39729815D01*
X70623494Y-39650463D01*
X70513180Y-39591498D01*
X70393482Y-39555188D01*
X70269000Y-39542928D01*
X70261785Y-39542928D01*
X70271536Y-39509695D01*
X72856772Y-39509695D01*
X72903145Y-39873136D01*
X73019531Y-40220548D01*
X73141793Y-40449286D01*
X73429207Y-40572188D01*
X74545395Y-39456000D01*
X74904605Y-39456000D01*
X76020793Y-40572188D01*
X76308207Y-40449286D01*
X76471566Y-40121332D01*
X76567807Y-39767810D01*
X76593228Y-39402305D01*
X76546855Y-39038864D01*
X76440973Y-38722806D01*
X78365000Y-38722806D01*
X78365000Y-39089194D01*
X78436479Y-39448542D01*
X78576689Y-39787041D01*
X78780243Y-40091681D01*
X79039319Y-40350757D01*
X79343959Y-40554311D01*
X79682458Y-40694521D01*
X80041806Y-40766000D01*
X80408194Y-40766000D01*
X80767542Y-40694521D01*
X81106041Y-40554311D01*
X81410681Y-40350757D01*
X81669757Y-40091681D01*
X81873311Y-39787041D01*
X82013521Y-39448542D01*
X82085000Y-39089194D01*
X82085000Y-38722806D01*
X82013521Y-38363458D01*
X81873311Y-38024959D01*
X81669757Y-37720319D01*
X81410681Y-37461243D01*
X81106041Y-37257689D01*
X80767542Y-37117479D01*
X80408194Y-37046000D01*
X80041806Y-37046000D01*
X79682458Y-37117479D01*
X79343959Y-37257689D01*
X79039319Y-37461243D01*
X78780243Y-37720319D01*
X78576689Y-38024959D01*
X78436479Y-38363458D01*
X78365000Y-38722806D01*
X76440973Y-38722806D01*
X76430469Y-38691452D01*
X76308207Y-38462714D01*
X76020793Y-38339812D01*
X74904605Y-39456000D01*
X74545395Y-39456000D01*
X73429207Y-38339812D01*
X73141793Y-38462714D01*
X72978434Y-38790668D01*
X72882193Y-39144190D01*
X72856772Y-39509695D01*
X70271536Y-39509695D01*
X70282097Y-39473702D01*
X69469000Y-38660605D01*
X68655903Y-39473702D01*
X68676215Y-39542928D01*
X68669000Y-39542928D01*
X68544518Y-39555188D01*
X68424820Y-39591498D01*
X68314506Y-39650463D01*
X68238966Y-39712457D01*
X68072000Y-39545491D01*
X68072000Y-38836127D01*
X68165397Y-39097292D01*
X68232329Y-39222514D01*
X68476298Y-39294097D01*
X69289395Y-38481000D01*
X69648605Y-38481000D01*
X70461702Y-39294097D01*
X70705671Y-39222514D01*
X70826571Y-38967004D01*
X70895300Y-38692816D01*
X70909217Y-38410488D01*
X70872134Y-38160207D01*
X73608812Y-38160207D01*
X74725000Y-39276395D01*
X75841188Y-38160207D01*
X75718286Y-37872793D01*
X75390332Y-37709434D01*
X75036810Y-37613193D01*
X74671305Y-37587772D01*
X74307864Y-37634145D01*
X73960452Y-37750531D01*
X73731714Y-37872793D01*
X73608812Y-38160207D01*
X70872134Y-38160207D01*
X70867787Y-38130870D01*
X70772603Y-37864708D01*
X70705671Y-37739486D01*
X70461702Y-37667903D01*
X69648605Y-38481000D01*
X69289395Y-38481000D01*
X68476298Y-37667903D01*
X68232329Y-37739486D01*
X68111429Y-37994996D01*
X68072000Y-38152294D01*
X68072000Y-37488298D01*
X68655903Y-37488298D01*
X69469000Y-38301395D01*
X70282097Y-37488298D01*
X70210514Y-37244329D01*
X69955004Y-37123429D01*
X69680816Y-37054700D01*
X69398488Y-37040783D01*
X69118870Y-37082213D01*
X68852708Y-37177397D01*
X68727486Y-37244329D01*
X68655903Y-37488298D01*
X68072000Y-37488298D01*
X68072000Y-36322000D01*
X84328000Y-36322000D01*
X84328000Y-36559651D01*
M02*
